<svg xmlns="http://www.w3.org/2000/svg" viewBox="0 0 1500 1500" width="1500" height="1500"><g transform="translate(1346.0 628.0) rotate(0.0 -314.0 345.0) scale(-0.628817462701512 0.6290454918406417)"><svg width="998.7" height="1096.9" viewBox="0 0 998.7 1096.9"><path d="M125.4 550.7c-3.8-26.7 9.7-53.9 30-71.7s46.4-27.6 72.7-33.9c6.6-1.6 13.6-3 20.1-.7 8.2 2.9 13.5 11.2 15.1 19.8 1.6 8.5 0 17.3-1.8 25.8-5 23.6-12 47.2-24.6 67.8-11.5 18.8-35.1 47.2-59.7 43.2-26-4.2-48-23.9-51.8-50.3z" fill="#ffb400"/><path d="M201.6 951.1c7.7 42.3 30.7 81.8 64.4 102.5s77.8 20.6 109.2-4.3c24.7-19.5 39.8-52.3 43.1-86.1s-4.5-68.2-18.9-98.1c-19.4-40.5-52.9-74.5-93.1-82.3-32.5-6.3-78.4 9.6-95.2 44.3-15.8 32.8-15.8 89.4-9.5 124z" fill="#04294f"/><path d="M314.3 975.7c6 33.2 27.2 62.4 54.5 82.2s60.2 30.6 93.6 35.6c50.7 7.6 103.2 2.1 151.2-15.8 58.5-21.9 58.5-28.7 112.9-71 23.9-18.6 62.7-50.4 82.6-73.3s29-58.6 11.8-83.6c-13.5-19.6-38.6-27.1-62-31.5-77.6-14.6-115.6-8.8-193.8 2.5-61.3 8.9-122 21.9-182.9 32.9-30.2 5.5-47.3 1.7-57 32.5-8.9 28.8-16.3 59.2-10.9 89.5z" fill="#04294f"/><path d="M28.9 910.9c-17.8-19.4-35.1-45.1-26.8-70.1 7.2-21.7 30.8-33 52.6-39.8 39.2-12.1 56.8-20.8 97.8-19.2 32.4 1.3 66.5 8 90.4 29.9 22.3 20.6 32 51.2 39.1 80.7 9.7 40.2 92.5 186.6 26.3 176.1-43.2-6.9-109.3-30.4-132.4-40.8-30.4-13.7-43.8-23.9-71-43.1-29.7-20.9-51.4-46.9-76-73.7z" fill="#04294f"/><path d="M268 925.1c14.1 6.9 29.7 10.3 45.2 12.2 63.1 7.8 128.8-8 181.9-43.9 6.8-4.6 13.7-9.8 17.3-17.3s2.9-17.8-3.7-22.7c-4.3-3.2-10.2-3.5-15.4-2.1s-9.8 4.3-14.5 7c-32.9 19.3-69.3 32.2-106.8 38.4-39 6.4-75.9 3.2-114.6-2.4-7-1-18.6 1.4-14.8 11.6 3.1 8.2 18.1 15.7 25.4 19.2z" fill="#04294f"/><path d="M525 576.1c-5.3 30.2-7.9 86.1-10 141.6-1.5 41.1-2.8 81.9-4.5 112.1-1.3 22.1 15.6 21.1-5 44.8-18.7 21.5-223.1 134-291 0-35.5-70.1-47.4-155.6-49.1-231.2-1.1-47.5 1.9-91.1 5.5-124.6 1.6-15.3 5.5-27.8 11-38 28.4-52.5 101.6-44.6 154.2-39.7 73.3 6.8 136.4 32.8 168.2 69.1 16.9 19.5 24.9 41.9 20.7 65.9z" fill="#f04e23"/><path d="M351.9 516.5c-22.9 0-45.8-1.6-68.5-4.9l9.7-67.3c120.7 17.4 243.2-19.3 319.8-95.7l48 48.1c-46.3 46.2-107 81.1-175.4 100.9-43 12.6-88.3 18.9-133.6 18.9z" fill="#ffb400"/><path d="M581.6 330.6c2.3-16.6 15.1-34 5.2-48.8-3.4-5.1-9.1-9-13.4-13.7-4.2-4.7-6.8-11.1-3.1-16.1 3.3-4.5 10.8-6.3 17.4-5.5s12.4 3.7 17.7 6.9c41.9 25.2 60.8 71 45.3 110.2-18.1 46.1-73-4.5-69.1-33zm-77.5 179.5c6.8 6.7 16.3 11.8 24.2 17.6 2 1.5 4 2.9 6 4.3s4.1 2.7 6.1 4.1 4.2 2.7 6.3 4 4.2 2.6 6.4 3.8c17.2 10 35.7 18.4 54.9 24.8 38.4 12.8 79.7 18.1 119.6 13.9l7.5-.9 7.4-1.1c4.6-.7 9.1-1.7 13.5-2.8s8.8-2.4 13-3.9 8.3-3.3 12.2-5.2 7.7-4 11.2-6.3 6.9-4.8 10-7.5c1.5-1.3 3-2.7 4.5-4.1 1.4-1.4 2.8-2.9 4.2-4.5 14-16.3 21.6-37.2 25.2-58.1 1.8-10.6 2.6-21.4 2.5-32.1-.1-11.1 1.2-22.5-.2-33.6v-.1l70.1-4.1c-.2 11.3.1 23 .3 35.3.6 41.9-5.4 84.7-27.2 121.3-3.7 6.3-7.7 12.4-12.3 18.3-4.5 5.9-9.6 11.7-14.9 17s-11 10.2-16.8 14.7c-5.9 4.5-11.9 8.7-18.1 12.4-6.2 3.8-12.5 7.2-19 10.2-6.4 3.1-13 5.8-19.5 8.3-6.6 2.4-13.3 4.6-20 6.4l-9.6 2.5-9.6 2.2c-3.2.7-6.5 1.3-9.7 2-3.2.6-6.5 1.1-9.7 1.7-6.5 1.1-13 2-19.5 2.8-3.3.4-6.5.7-9.8 1s-6.5.5-9.8.8-6.5.4-9.8.6l-4.9.2-4.9.1c-26.2.6-52.5-.9-78.5-4.6-26.1-3.6-52-9.3-77.6-16.9-25.7-7.6-51.1-17.3-76.4-28.9zm17.2-235.2c-1 10-2.8 19.8-5.8 29.2-2 6.6-4.6 13-7.8 19.1-22.8 43.6-75.1 66.3-124.2 64.4 3.2 0 22.5 71.5 19.6 78.8-8.2 19.8-53.1 16.7-69.5 14.5-16.6-2.2-34.4-8.7-42-23.6-7.7-15.2-2.4-33.3 1.6-49.9 14.4-60.3 7.7-125.4-18.8-181.5-11-23.3-25.7-46.8-24.3-72.5 1.5-26.4 20.4-49.4 43.5-62.3 23-12.9 49.8-17.4 76-20.4 24.3-2.8 49.6-4.5 72.5 3.9 28 10.2 49.1 34.6 61.1 61.8 12.1 27.2 16.1 57.3 18.2 87 1.1 17 1.7 34.5-.1 51.5zM207.9 559.1c0 46.6-18.6 84.3-41.6 84.3h-.9c-1.1-47.5 1.9-91.1 5.5-124.6 1.6-15.3 5.5-27.8 11-38 15.2 12.5 26 42.9 26 78.3z" fill="#ffb400"/><path d="M525 576.1c-5.3 30.2-7.9 86.1-10 141.6-8.1 5.4-17 8.4-26.4 8.4-38 0-68.8-49-68.8-109.3s30.8-109.3 68.8-109.3c5.4 0 10.6 1 15.6 2.8 17 19.4 25 41.8 20.8 65.8z" fill="#ffb400"/><path d="M561.9 154.7c-34 24-123 0-167-27v.2c-8 84.9 8 137.9 35 218.9s91 101.6 66.1 155c-19.1 41-63.1 25-78 26.2-15 1.2-19.6 50.6-77.6 50.3-82.7-.4-79.5-56.6-101.2-65.6-21.8-9.1-38.2 22.1-83.8-22.9s24.5-117 55.5-182-38-177 16-239.3c43.8-50.6 88.8-37.2 118.2-38.4 6.8-.3 12.8-1.4 17.8-4.2 93.3-53.8 139-17 163.2 53 24.2 69.8 69.8 51.8 35.8 75.8z" fill="#04294f"/><ellipse cx="484.6" cy="215.2" fill="#04294f" rx="11.7" ry="23.8"/><path d="M521.3 274.9c-1 10-2.8 19.8-5.8 29.2-2.6.7-5.3 1.1-8 1.5-11.3 1.3-22.9 0-33.6-3.8-7.5-2.6-15.2-7.1-17.8-14.7-.8-2.3-1.1-5 .1-7.2 1.3-2.5 4.2-3.7 7-4s5.5.4 8.3 1c16 3.2 32.7 2.6 48.5-1.6.4-.1.9-.2 1.3-.4z" fill="#fff"/><g fill="#00aee0"><path d="M265.2 1051.8c-.2.4-1 .5-2.1.4-.6-.1-1.3-.2-2.1-.5-.8-.2-1.8-.5-2.8-1-4.1-1.6-9.7-4.7-15.9-9.5-1.6-1.2-3.1-2.6-4.8-4-1.6-1.4-3.2-3-4.8-4.7s-3.3-3.4-4.8-5.4c-.8-1-1.6-1.9-2.4-2.9s-1.5-2.1-2.3-3.1c-3-4.3-6-9-8.4-14.2-2.5-5.2-4.7-10.7-6.3-16.6s-2.6-11.8-3.2-17.5-.5-11.3-.1-16.5l.3-3.9c.1-1.3.3-2.5.5-3.7.3-2.5.9-4.8 1.3-7.1.6-2.3 1.1-4.4 1.7-6.5.7-2 1.3-4 2-5.8 2.9-7.3 6-12.8 8.7-16.3.6-.9 1.3-1.6 1.9-2.2s1.1-1.1 1.6-1.5c.9-.8 1.6-1 2-.8s.5 1 .4 2.2c-.1.6-.2 1.3-.4 2.1s-.4 1.7-.7 2.7c-1.1 4-2.7 9.7-4.2 16.7-.4 1.7-.7 3.6-1 5.5s-.6 3.9-.8 6-.5 4.2-.5 6.4c-.1 1.1-.1 2.2-.2 3.4v3.5c0 4.7.2 9.5.9 14.5.6 5 1.6 10.1 3 15.3 1.5 5.1 3.3 10 5.3 14.6s4.4 8.9 6.8 12.9c.6 1 1.2 2 1.8 2.9.6 1 1.3 1.9 1.9 2.8 1.2 1.9 2.6 3.5 3.8 5.2 1.3 1.6 2.5 3.2 3.8 4.7 1.3 1.4 2.5 2.9 3.7 4.2 4.9 5.3 9.2 9.3 12.2 12.1l2 2c.6.6 1 1.1 1.4 1.6.7.9 1 1.6.8 2zM340 953c.9.3 1.3 2 1.3 4.5 0 .6 0 1.3-.1 2.1 0 .7 0 1.6-.1 2.4-.1 1.7-.3 3.6-.3 5.7 0 1.1-.1 2.2-.2 3.3s0 2.3 0 3.6c-.1 2.4 0 5 .1 7.8.3 5.4.9 11.4 2 17.5 1.2 6.1 2.8 11.9 4.5 17.1.9 2.5 1.7 5 2.7 7.3.5 1.1.9 2.3 1.3 3.3.5 1 .9 2 1.3 3 .8 2 1.7 3.7 2.4 5.3.3.8.6 1.6.9 2.2.3.7.6 1.3.8 1.9.9 2.4 1.1 4 .4 4.6s-2.3.2-4.5-1.3c-.6-.4-1.2-.8-1.8-1.3s-1.3-1.1-2-1.7c-1.4-1.3-2.9-2.8-4.4-4.6-.7-.9-1.5-1.9-2.3-2.9s-1.5-2.2-2.2-3.3c-1.6-2.3-2.9-5-4.3-7.8-2.6-5.7-4.9-12.2-6.3-19.4-1.3-7.1-1.5-14.1-1.1-20.3.3-3.1.6-6.1 1.3-8.8.3-1.4.5-2.7.9-3.9s.7-2.4 1.1-3.5c.7-2.2 1.6-4.2 2.4-5.9.4-.8.8-1.6 1.2-2.3s.9-1.3 1.3-1.8c1.5-2.1 2.8-3.1 3.7-2.8zm181.7-76.5c-.5-3.8 48.9-13.2 110.3-21.1 15.1-1.9 29.5-3.6 42.6-5 3.3-.3 6.5-.6 9.6-1 1.6-.1 3.1-.3 4.6-.4 1.4-.1 2.7-.3 4-.5 2.5-.4 4.9-1.1 6.6-1.9l.6-.3c.2-.1.3-.2.5-.3.3-.2.5-.4.6-.5.3-.2.5-.5.6-.8.1-.4.1-.8 0-1.2-.1-.2-.1-.4-.2-.6l-.3-.4-.4-.4c-1-1.1-2.6-2-4-2.5s-3.1-.8-4.6-.9c-1.6-.1-3.1 0-4.4 0-2.8.2-5 .5-6.6.6s-2.5-.1-2.7-.6.4-1.2 1.8-2.1c1.3-.9 3.4-2.1 6.3-3.2 1.5-.5 3.2-1.1 5.2-1.4s4.3-.5 6.9 0 5.2 1.4 7.8 3.3c.3.3.6.5 1 .8.3.3.6.6 1 .9.7.7 1.3 1.6 1.8 2.5 1 1.8 1.6 4 1.4 6.2-.2 2.1-1 4.3-2.4 6.1-.7 1-1.5 1.7-2.2 2.3-.4.3-.8.6-1.1.9-.4.3-.8.5-1.2.8-3.1 1.9-6.3 3-9.5 3.8-1.6.4-3.2.7-4.9 1-1.5.2-3 .5-4.6.8-3.1.5-6.3 1-9.6 1.5-13.1 2-27.4 4.1-42.5 6-61.3 8-111.5 11.3-112 7.6zm-337.8-48c-.2 1.9-4.3 3.2-10.9 3.3-3.3.1-7.1-.2-11.4-.8-4.2-.6-8.9-1.7-13.6-3.1-4.7-1.5-9.1-3.2-13-5.1s-7.2-3.9-9.9-5.8c-5.3-3.8-7.9-7.2-7.1-8.9.9-1.7 5.1-1.4 11.1.1 3 .7 6.5 1.7 10.4 2.8s8.1 2.4 12.4 3.8c4.4 1.4 8.6 2.7 12.4 3.9s7.3 2.4 10.2 3.5c6 2.3 9.7 4.4 9.4 6.3z"/><ellipse cx="546" cy="849" rx="12.5" ry="3.4" transform="matrix(.9933 -.1154 .1154 .9933 -94.3244 68.6818)"/><ellipse cx="580.7" cy="845" rx="12.5" ry="3.4" transform="matrix(.9933 -.1153 .1153 .9933 -93.5558 72.5913)"/><ellipse cx="615.5" cy="840.9" rx="12.5" ry="3.4" transform="matrix(.9933 -.1154 .1154 .9933 -92.9277 76.6519)"/><ellipse cx="650.3" cy="836.8" rx="12.5" ry="3.4" transform="matrix(.9933 -.1154 .1154 .9933 -92.2292 80.6368)"/><path d="M438 1004.9c.3 1.8-6.6 4.7-15.6 5.8-1.6.2-3.2.3-4.7.4h-1l-.1-.1c-.1-.1-.2-.1-.4-.2-.2 0-.3.2-.5.5 0 .1 0 0-.1.1 0 .1 0 .2-.1.3 0 .2-.1.4-.1.6-.1.4-.2.7-.3 1.1-.4 1.3-1 2.1-1.6 2.1-.6.1-1.2-.6-1.8-1.9-.1-.3-.3-.7-.4-1.1-.1-.2-.1-.4-.2-.6 0-.1-.1-.2-.1-.3s-.1-.3-.1-.5c-.3-1.5-.5-3.4-.8-5.6 1.1-.2 2.3-.3 3.6-.5.7-.1 1.3-.2 2-.3l.5-.1h.3l.5-.1c1.4-.2 3-.5 4.5-.6 8.9-1.1 16.2-.9 16.5 1zm34-8.4c.6 1.8-4.3 5.1-11.1 6.9s-12.7 1.4-13-.4c-.4-1.9 4.7-4.5 11.3-6.2 6.5-1.8 12.2-2.1 12.8-.3zm31.5-15.1c.5.8-.1 2.3-1.8 4.1-1.6 1.8-4.2 3.8-7.4 5.4-6.4 3.3-12.3 3.9-13 2.1s3.9-5.2 9.8-8.2c6-3.1 11.2-4.9 12.4-3.4zm9.5 30.6c-1.9.3-4.2-4.9-5.8-11.5-1.5-6.6-1.6-12.3.2-12.9 1.8-.5 4.9 4.5 6.5 11.3 1.7 6.9 1 12.8-.9 13.1zm-.4 34.8c-.9-.2-1.4-1.8-1.6-4s-.2-5.2 0-8.5c.3-6.6 1.3-12.1 3.2-12.3s4 5.4 3.7 12.7c-.2 3.6-1 6.8-2.1 9-1 2.1-2.2 3.3-3.2 3.1zm-20.9 26.7c-.5-.8.4-2.2 1.8-3.9 1.5-1.7 3.6-3.7 5.8-5.9s4.2-4.3 5.9-5.7c1.7-1.5 3-2.3 3.9-1.9.8.4 1 2.1.2 4.5-.7 2.4-2.5 5.4-5.2 8s-5.7 4.3-8 5.1c-2.3.7-3.9.6-4.4-.2zm-33.7 3.3c.3-.9 1.9-1.3 4.1-1.4s5.1 0 8.3.2c3.2.1 6 .2 8.2.3 2.2.2 3.7.6 4 1.5s-.8 2.2-3.1 3.3c-1.1.6-2.5 1-4.1 1.3s-3.4.5-5.3.4c-3.8-.1-7-1.1-9.2-2.3-2.2-1.1-3.2-2.4-2.9-3.3zm-28.1-20.1c.7-.6 2.3 0 4.2 1.2s4.3 3.1 6.7 5.2c2.5 2.1 4.7 4.1 6.2 5.8s2.3 3.1 1.8 3.9c-.4.8-2.1.9-4.5.2-2.3-.7-5.3-2.3-8-4.7-2.8-2.4-4.8-5-5.9-7.2-1.1-2.1-1.3-3.8-.5-4.4zm-14.8-31.3c1.9-.4 4.4 4.6 6.8 10.7 1.2 3.1 2.2 5.9 2.6 8.1.5 2.2.5 3.8-.3 4.3s-2.3-.3-3.9-2c-1.7-1.8-3.4-4.6-4.8-7.9-1.3-3.4-1.9-6.6-1.9-9 0-2.5.5-4 1.5-4.2z"/></g><ellipse cx="493.7" cy="652.4" fill="#f04e23" rx="5.2" ry="17.7" transform="matrix(.2751 -.9614 .9614 .2751 -269.2858 947.5862)"/><ellipse cx="166.8" cy="551.7" fill="#f04e23" rx="40" ry="5.2" transform="matrix(.04370195 -.999 .999 .04370195 -391.6588 694.206)"/><path d="M602.8 282.9c-.1.9-.9 1.6-1.9 2.3s-2.2 1.4-3.4 2.1c-1.3.8-2.4 1.5-3.5 2s-2.1.9-2.9.6-1.3-1.5-.8-3.2c.2-.8.6-1.7 1.3-2.6s1.6-1.7 2.7-2.4c1.1-.6 2.3-1 3.3-1.2 1.1-.2 2.1-.1 2.9.1 1.6.5 2.4 1.4 2.3 2.3z" fill="#f04e23"/><path d="M404.4 564.3c-1.8-.5-1.7-6.5.9-13 2.5-6.6 6.4-11.1 8.1-10.3s.7 6.4-1.7 12.7-5.5 11.2-7.3 10.6zm-7 34.3c-1.9-.2-2.9-6-1.6-13 1.2-7 4.1-12.1 6-11.6 1.8.5 2 6.2.8 12.8s-3.3 12-5.2 11.8zm-.3 34.9c-1.9.2-4-5.4-4.1-12.4-.1-7.1 1.8-12.7 3.7-12.6s3.1 5.7 3.2 12.4c.1 6.8-.9 12.4-2.8 12.6zm6.3 34.4c-1.8.5-4.9-4.5-6.4-11.4s-.7-12.8 1.2-13 4.1 5 5.5 11.6 1.5 12.2-.3 12.8zm13.4 32.2c-1.6 1-5.9-3.2-8.8-9.7s-3.3-12.4-1.5-13 5 4.1 7.8 10.2c2.7 6.1 4.1 11.6 2.5 12.5zm22.2 26.8c-.6.7-2.2.5-4.4-.6-2.1-1.1-4.8-3.1-7.2-5.7s-4.1-5.4-5-7.6-1-3.9-.2-4.4c1.6-1.1 5.9 2.6 10.3 7.4 4.4 4.9 7.7 9.4 6.5 10.9zm31.2 15.2c-.2.9-1.8 1.5-4.2 1.5s-5.7-.6-9-2-6.1-3.2-7.8-4.9-2.5-3.2-2-4c1.1-1.6 6.4 0 12.4 2.5 3 1.2 5.8 2.5 7.7 3.7s3.1 2.3 2.9 3.2zm29.2-.8c.3.9-.5 2.1-2.2 3.1-1.6 1-4.1 1.9-7 2.2-2.8.3-5.4 0-7.3-.7-1.8-.6-2.9-1.6-2.8-2.5.1-1 1.2-1.7 2.9-2.3s4-1 6.5-1.3 4.8-.3 6.6-.1c1.7.2 3 .7 3.3 1.6zm-302.3-86.4c1.4 1.3-1.5 6.5-6.9 11.2-5.4 4.6-11.1 6.6-12.1 5-1.1-1.6 2.6-5.9 7.6-10.3 5.2-4.3 10-7.3 11.4-5.9zm20.8-28.1c1.7.9.3 6.7-3.7 12.6s-8.9 9.3-10.4 8c-1.5-1.2.9-6.4 4.7-11.9s7.7-9.6 9.4-8.7zm12.7-32.5c1.8.4 2.1 6.4-.3 13.1-2.3 6.7-6.2 11.3-7.9 10.5s-.8-6.4 1.4-12.7c2.3-6.3 5-11.3 6.8-10.9zm3.7-34.7c1.9-.1 3.6 5.6 3.2 12.7-.5 7.1-3 12.5-4.9 12.2s-2.4-6-2-12.7c.5-6.6 1.8-12.1 3.7-12.2zm-5.4-34.5c1.8-.6 5 4.5 6.4 11.5s.3 12.9-1.5 13c-1.9.2-3.9-5.1-5.2-11.7-1.4-6.5-1.5-12.2.3-12.8z" fill="#fff"/><path d="M190.7 499.1c-.2.7-1.5 1-3.7.8s-5.3-.9-8.9-2.5-7.7-4.1-11.6-7.6-7.6-8.1-10.5-13.6c-2.8-5.5-4.3-11.2-4.9-16.5s-.2-10 .7-13.9c.8-3.9 2.1-6.8 3.2-8.7 1.2-1.9 2.2-2.7 2.9-2.5 1.4.5.9 5 1.2 11.9.2 6.8 1.6 16.1 6.1 25s11.2 15.5 16.6 19.6c5.3 4.3 9.3 6.6 8.9 8zM380.9 543c.4.5-.5 2.1-2.7 4.4s-5.8 5.1-10.8 8c-2.5 1.4-5.3 2.7-8.4 4-3.1 1.2-6.6 2.3-10.3 3.1-7.4 1.7-15.9 2.3-24.7 1.3-8.8-1.1-16.9-3.7-23.7-7-3.4-1.7-6.5-3.6-9.3-5.4-2.7-1.9-5.2-3.9-7.3-5.8-4.2-3.9-7-7.5-8.6-10.2s-2.1-4.5-1.6-4.9c1.2-1 6 3.8 14.7 9.4 2.2 1.4 4.6 2.8 7.3 4.3 2.7 1.4 5.6 2.8 8.7 4.1 6.2 2.5 13.4 4.5 21 5.5 7.6.9 15.1.6 21.7-.4 3.3-.5 6.5-1.2 9.4-1.9 2.9-.8 5.6-1.6 8.1-2.5 9.8-3.7 15.6-7.2 16.5-6zm103.7-74.9c.7-.1 1.6.9 2.4 3.1.8 2.1 1.4 5.4 1.3 9.5 0 2-.3 4.3-.8 6.6-.6 2.4-1.3 4.9-2.4 7.4-2.2 5-5.7 10.2-10.7 14.4s-10.6 6.8-15.9 8.2c-2.7.7-5.3 1-7.7 1.2-2.4.1-4.7 0-6.7-.3-4-.6-7.2-1.7-9.1-2.8-2-1.1-2.9-2.2-2.6-2.8.5-1.4 5.1-.8 11.9-1.6 1.7-.2 3.5-.5 5.5-.9 1.9-.5 3.9-1 6-1.8 4.1-1.5 8.3-3.8 12.1-6.9 3.7-3.2 6.7-7 8.8-10.8 1.1-1.9 2-3.8 2.7-5.6s1.3-3.6 1.8-5.2c1.7-6.8 1.9-11.4 3.4-11.7z" fill="#00aee0"/><path d="M561.9 154.7c-34 24-123 0-167-27v.2c.2-7.4 2-14.7 6.1-21 3.5-5.5 8.5-10.2 10.2-16.5 2.7-9.9-4-20.2-12.5-25.8-15.2-10-48.8-14.7-53.6-34.6 6.8-.3 12.8-1.4 17.8-4.2 93.3-53.8 139-17 163.2 53 24.2 69.9 69.8 51.9 35.8 75.9z" fill="#f04e23"/><path d="M501.9 91.6c-.4 0-.7-.5-1-1.4-.2-.5-.3-1-.5-1.7s-.3-1.4-.6-2.3c-.8-3.4-1.9-8.3-4-13.9-.5-1.4-1.2-2.9-1.8-4.4-.3-.8-.7-1.5-1-2.3-.4-.8-.7-1.6-1.1-2.3-.4-.8-.9-1.6-1.3-2.4-.2-.4-.4-.8-.7-1.2-.2-.4-.5-.8-.7-1.2l-1.5-2.4c-.5-.8-1.1-1.6-1.7-2.4-.5-.8-1.2-1.6-1.8-2.4s-1.2-1.6-1.9-2.4-1.4-1.5-2-2.3l-2.2-2.2c-3-3-6.4-5.8-10.1-8.2-3.8-2.4-7.7-4.4-11.6-6-1-.4-2-.8-2.9-1.1l-3-.9c-1-.3-2-.6-2.9-.8-1-.2-1.9-.5-2.9-.7s-1.9-.4-2.9-.6c-.9-.2-1.9-.3-2.8-.4-.5-.1-.9-.1-1.4-.2s-.9-.1-1.4-.1c-.9-.1-1.8-.2-2.7-.2-.9-.1-1.7-.1-2.6-.1s-1.7-.1-2.5-.1c-1.6.1-3.2 0-4.7.1-6 .4-11 1.2-14.4 1.9-.9.1-1.6.3-2.3.4s-1.3.2-1.8.2c-1 .1-1.6-.1-1.7-.4s.2-.8.9-1.5c.4-.3.8-.7 1.4-1.2.6-.4 1.3-.9 2.1-1.3s1.7-.9 2.7-1.4 2.2-.9 3.4-1.4 2.6-.9 4-1.3c1.4-.5 3-.8 4.6-1.1 1.6-.4 3.4-.6 5.2-.9.9-.2 1.8-.2 2.8-.3s1.9-.2 2.9-.2h4.6c.5 0 1 .1 1.6.1 1.1.1 2.1.1 3.2.2s2.2.3 3.3.4 2.2.4 3.4.6c1.1.2 2.3.4 3.4.8 1.1.3 2.3.6 3.4.9 1.1.4 2.3.8 3.5 1.2 4.6 1.7 9.2 4 13.6 6.8 4.4 2.9 8.3 6.2 11.7 9.8.8.9 1.7 1.8 2.5 2.7s1.5 1.9 2.2 2.8c.8.9 1.4 1.9 2.1 2.8.6 1 1.3 1.9 1.9 2.8.6 1 1.1 1.9 1.7 2.8.5 1 1 1.9 1.5 2.9.2.5.5.9.7 1.4s.4 1 .6 1.4c.4.9.8 1.9 1.2 2.8s.7 1.9 1 2.8l.9 2.7c.5 1.8 1 3.5 1.3 5.1s.7 3.2.8 4.7c.2 1.5.4 2.9.4 4.2s.1 2.6.1 3.7c-.1 1.1-.1 2.2-.2 3.1s-.2 1.7-.4 2.4-.3 1.3-.5 1.8c-.4.8-.7 1.3-1.1 1.3zM456 135.3c.4-.6 1.9-.6 4.3.1.6.2 1.3.3 2 .6.7.2 1.5.4 2.4.7 1.7.5 3.5 1.1 5.6 1.7 1 .3 2.1.6 3.2 1 1.1.3 2.3.6 3.5 1 2.4.7 5 1.3 7.8 2 5.5 1.3 11.6 2.5 18 3.4 6.4.8 12.6 1.2 18.3 1.4 2.8 0 5.5.1 8 .1h3.7c1.2 0 2.3-.1 3.4-.1 2.2 0 4.1-.2 5.9-.2h4.5c2.5 0 4 .4 4.2 1.1s-1 1.7-3.3 2.8c-.6.3-1.2.6-1.9.9s-1.5.6-2.4.9c-1.7.6-3.7 1.3-5.9 1.8-1.1.3-2.3.5-3.5.8s-2.5.4-3.8.6c-2.7.5-5.5.7-8.6.9-6.1.3-12.8.2-19.8-.7-7-1-13.5-2.6-19.3-4.4-2.9-1-5.6-2-8-3.1-1.2-.6-2.4-1.1-3.5-1.6-1.1-.6-2.2-1.1-3.2-1.7-2-1.1-3.8-2.2-5.3-3.2-.8-.5-1.5-1-2.1-1.5s-1.2-1-1.6-1.4c-2.1-2.1-3-3.3-2.6-3.9z" fill="#fff"/><path d="M286.6 57.7c.2 1.5-6.3 3-15.5 7.3-2.3 1.1-4.7 2.4-7.3 3.8-2.5 1.5-5.2 3.2-7.8 5.2-5.2 4-10.4 9-15 15-4.5 6-7.8 12.4-10.2 18.6-1.2 3.1-2.1 6.1-2.8 8.9-.7 2.9-1.3 5.6-1.7 8.1-1.6 10-1.3 16.6-2.8 16.9-.7.1-1.7-1.4-2.6-4.4-1-3-1.8-7.4-1.9-13-.1-2.8.1-5.9.5-9.2.5-3.3 1.1-6.8 2.2-10.3 2.1-7.2 5.7-14.8 10.9-21.7 5.3-6.9 11.6-12.5 17.9-16.5 3.1-2 6.3-3.6 9.3-5 3-1.3 5.9-2.3 8.7-3 5.4-1.5 9.9-1.9 13-1.8 3.3-.1 5 .4 5.1 1.1zm117.6 407.1c-.7.3-2.9-3.5-6.4-10.6-.9-1.8-1.8-3.7-2.9-5.9-1-2.2-2-4.6-3.1-7.2-2.2-5.2-4.7-11-7.2-17.6-1.2-3.3-2.5-6.8-3.9-10.4-1.3-3.6-2.6-7.4-3.9-11.4-2.8-7.8-5.3-16.3-8-25.3-5.2-18-10.2-37.9-14.3-59.1s-6.9-41.6-8.8-60.1c-.8-9.3-1.7-18.1-2.1-26.4-.2-4.1-.5-8.1-.6-12s-.2-7.6-.3-11.1c-.2-7.1 0-13.4 0-19 .1-2.8.1-5.4.2-7.8s.3-4.6.4-6.6c.6-7.9 1.3-12.2 2-12.2s1.4 4.4 2 12.2c.2 2 .3 4.1.5 6.5s.4 5 .6 7.7c.5 5.5.8 11.9 1.5 18.8.3 3.5.6 7.1.9 10.9s.8 7.7 1.2 11.8c.7 8.2 1.9 16.9 3 26 2.4 18.3 5.5 38.4 9.5 59.3 4.1 20.9 8.8 40.6 13.4 58.5 2.4 8.9 4.6 17.4 7 25.3 1.2 3.9 2.2 7.8 3.3 11.4s2.2 7.1 3.2 10.5c2 6.7 4 12.7 5.7 18 .8 2.7 1.6 5.1 2.3 7.4s1.4 4.3 2 6.2c2.5 7.7 3.5 12 2.8 12.2zm-212.8-63.1c-.1-.3.6-1 2-2 .7-.5 1.6-1.1 2.6-1.7.5-.3 1.1-.6 1.7-1s1.2-.8 1.9-1.3c1.3-.9 2.8-1.8 4.4-2.9s3.2-2.4 5-3.7c.4-.3.9-.7 1.4-1 .4-.4.9-.7 1.3-1.1.9-.8 1.8-1.6 2.8-2.4 2-1.5 3.8-3.5 5.8-5.4l1.5-1.5c.5-.5 1-1.1 1.4-1.6l3-3.3c.5-.5 1-1.1 1.5-1.8l1.5-1.8c.5-.6 1-1.2 1.5-1.9.5-.6 1-1.2 1.5-1.9 1.8-2.7 3.9-5.3 5.6-8.3.5-.7.9-1.5 1.4-2.2s.9-1.5 1.3-2.3c.8-1.6 1.7-3.1 2.6-4.8l.6-1.2.6-1.3c.4-.8.8-1.7 1.2-2.5s.8-1.7 1.2-2.5.7-1.8 1.1-2.6c.7-1.8 1.5-3.6 2.2-5.4.6-1.8 1.3-3.7 1.9-5.6 2.4-7.6 4.3-15.6 5.5-23.9 2.2-16.8 1.8-33.1 0-47.7-.2-1.8-.5-3.6-.7-5.4-.3-1.8-.6-3.5-.9-5.3-.1-.9-.3-1.7-.4-2.6-.2-.9-.3-1.7-.5-2.5-.3-1.7-.6-3.3-1-5-1.4-6.5-2.8-12.5-4.4-17.9-3-10.9-5.8-19.7-7.6-25.8-1.9-6.1-2.7-9.6-2-9.9.6-.3 2.7 2.7 5.7 8.4s6.9 14.2 10.9 25.1c2 5.4 3.9 11.5 5.7 18.1.4 1.7.8 3.4 1.3 5.1.2.9.4 1.7.6 2.6l.6 2.7c.4 1.8.7 3.6 1.1 5.5.3 1.9.6 3.7 1 5.7 1.2 7.7 2.1 15.8 2.2 24.2.2 8.5-.2 17.3-1.4 26.2-1.3 9-3.4 17.6-6.1 25.7-.7 2-1.5 4-2.2 6l-2.4 5.7c-.4.9-.8 1.9-1.3 2.8s-.9 1.8-1.4 2.7-.9 1.8-1.4 2.7l-.7 1.3-.7 1.3c-1 1.7-2 3.4-2.9 5l-1.5 2.4c-.5.8-1.1 1.6-1.6 2.3-2 3.1-4.3 5.9-6.5 8.6-.5.7-1.1 1.3-1.7 2-.6.6-1.1 1.3-1.7 1.9s-1.1 1.2-1.7 1.9c-.6.6-1.1 1.2-1.7 1.8-1.2 1.1-2.3 2.2-3.4 3.3-.6.5-1.1 1.1-1.7 1.6s-1.2 1-1.7 1.4c-2.3 1.9-4.4 3.7-6.7 5.2-1.1.8-2.2 1.5-3.2 2.2-.5.3-1 .7-1.5 1s-1 .6-1.6.9c-2 1.1-3.9 2.3-5.7 3.1s-3.5 1.6-5 2.2c-.8.3-1.5.6-2.1.9-.7.2-1.4.4-2 .6-1.2.4-2.3.6-3.1.8-2 .4-2.9.5-3 .1z" fill="#00aee0"/><path d="M629.7 305.9c.9-1.3 1.9-2.5 2.8-3.8" fill="#f04e23"/><path d="M651.4 261.2c18.5-13.7 43.1-19 65.6-13.9 5.1 1.1 10.4 3 13.5 7.2s2.4 11.3-2.3 13.4c9.1-5 22-1.1 26.9 8.1s.8 22-8.4 26.8c7.7 5.4 6.3 17.3 2.9 26.1-12.8 33.6-42.3 60.3-77 69.7-13.1 3.6-27.6 4.7-39.8-1.3-13.8-6.8-22.3-21.7-24.5-36.9-2.8-18.6 2-33.9 10.3-50.1 9.4-18.6 15.2-36.1 32.8-49.1z" fill="#ffb400"/><path d="M647.8 351.1c-.3-.4.2-1.4 1.2-3 .9-1.6 2.2-3.9 3.2-6.8s1.7-6.6 1.3-10.5-1.8-8.1-4.4-11.8c-1.3-1.8-2.8-3.4-4.6-4.7-1.7-1.4-3.7-2.8-5.6-4.3s-3.7-3.2-5-5.2-2.2-3.9-2.6-5.8c-1-3.8-.6-6.9 0-8.9s1.5-2.9 1.9-2.8c.5.1.6 1.3.8 3 .2 1.8.6 4.3 1.9 7 .6 1.4 1.5 2.7 2.6 4 1.1 1.2 2.5 2.4 4.2 3.6s3.7 2.4 5.9 4c1.1.8 2.2 1.7 3.2 2.7s2 2.1 2.8 3.3c3.5 4.8 5.1 10.4 5.2 15.5s-1.4 9.6-3.3 12.8c-1.8 3.3-4 5.4-5.7 6.6-1.6 1.3-2.7 1.7-3 1.3z" fill="#f04e23"/><path d="M682.9 277.2c.2 1-2.2 2.3-5.8 4.4-.9.5-1.9 1.1-2.9 1.7-1.1.6-2.1 1.3-3.3 2-2.2 1.5-4.6 3.2-7 5.2s-4.5 4.1-6.4 6c-.9 1-1.8 1.9-2.6 2.9-.8.9-1.5 1.8-2.2 2.6-2.7 3.2-4.4 5.4-5.3 5-.8-.3-.7-3.3 1.2-7.5.5-1.1 1-2.2 1.7-3.4s1.5-2.4 2.4-3.6c1.8-2.4 4.1-4.9 6.8-7.2s5.6-4.1 8.3-5.5c1.4-.7 2.7-1.3 4-1.7 1.3-.5 2.5-.8 3.6-1.1 4.4-1 7.4-.7 7.5.2zm37.1 14.7c.2 1-4 2.5-10.3 5.3-.8.3-1.6.7-2.5 1.1-.8.4-1.7.8-2.6 1.3-1.8.8-3.7 1.9-5.7 2.9-3.9 2.2-8.1 4.8-12.3 7.9-8.4 6.1-15.1 12.9-19.8 17.9-1.2 1.2-2.2 2.5-3.2 3.5s-1.8 1.9-2.5 2.6c-1.4 1.4-2.4 2.1-2.8 1.9s-.2-1.4.5-3.3c.4-1 .9-2.1 1.6-3.4s1.4-2.7 2.5-4.2c1-1.5 2.1-3.2 3.4-4.8.7-.8 1.3-1.7 2.1-2.6s1.5-1.7 2.3-2.6c3.3-3.5 7.2-7.2 11.7-10.4 4.5-3.3 9.2-5.9 13.5-8 2.2-.9 4.3-1.9 6.4-2.5 1-.3 2-.7 2.9-1 1-.3 1.9-.5 2.8-.7 7.3-2 11.8-1.8 12-.9zm3.4 34.7c.7.6-.8 3.7-4.2 8-1.7 2.2-4 4.6-6.6 7.1-2.7 2.5-5.8 5-9.2 7.4-3.5 2.4-6.9 4.4-10.2 6.1-3.3 1.6-6.3 2.9-8.9 3.7-5.2 1.7-8.7 2-9 1.2-.7-1.9 11.2-7.5 24.2-16.6 13-9 22.4-18.2 23.9-16.9zm-82.8 67.5c-.6.7-3.7-.7-7.4-4.6-1.9-2-3.8-4.6-5.4-7.8-.8-1.6-1.6-3.3-2.2-5.2-.2-.5-.3-.9-.5-1.4l-.2-.7v-.1c-.4 0-.8 0-1.2-.1-.9-.1-1.9-.1-2.8-.2-1.8-.1-3.6-.3-5.2-.4-3.3-.3-6.3-.7-8.9-1.1-5-.8-8.1-1.8-8.1-2.8s3.2-1.7 8.3-2.1c2.5-.2 5.6-.3 8.9-.4h5.3c.9 0 1.8 0 2.8.1 1.5.1 3 .1 4.5.2 2.6-.7 2.2 2.1 2.8 3.8.1.2.1.5.2.7l.2.6.1.6.3 1.2c.5 1.6 1 3.1 1.6 4.6 1.1 2.9 2.4 5.4 3.6 7.5 2.1 4.3 3.9 6.8 3.3 7.6z" fill="#f04e23"/><path d="M938 424.2c5.2-14.7 11.3-30.9 25.2-38.1 6.8-3.5 14.6-4.4 21.7-7.2s13.9-8.9 13.7-16.5c-.2-8-8.5-13.9-16.5-14.4s-21.3.2-28.6 3.5c-12.6 5.7-23 8-35.5 13.9-14.9 7-26.5 20.4-37.8 32.4s-17.8 29.6-12.2 45c5.5 15.2 24.7 22.8 40.1 20 17.2-3.1 24.9-24.3 29.9-38.6z" fill="#ffb400"/><path d="M807.9 415c-5.8-20.2 0-42.2 10-60.7 7.8-14.3 14-30.2 29.7-34.5 11-3 4.2-26.6 41-28 9.4-.3 9-10 29-7 14.7 2.2 20.1-4.3 28-2s10.4 7.7 12.4 15.7c2 8.1-1.6 16.4-5.2 24-13.5 28.9-27.1 57.8-40.6 86.6-10 21.2-26.4 52.2-54.6 50.1-19.8-1.4-44.4-26-49.7-44.2z" fill="#ffb400"/><path d="M576 257.9c2.1-1.2 4.8-.1 6.6 1.4 1.5 1.3 2.9 3 2.9 5 .1 10.8-17.9-1.4-9.5-6.4zm372.6 131c-.9-.2-1.6-1.1-2.3-2.3-.6-1.2-1.2-2.6-1.8-4.2s-1.1-3-1.5-4.3c-.3-1.3-.4-2.5.2-3.2s1.9-.8 3.5 0 3.3 2.6 4.3 5.1.9 5 .2 6.7c-.6 1.5-1.7 2.3-2.6 2.2zm33.5-23.6c1.8 0 3.8.7 4.5 2.3s0 3.4-1.2 4.6-2.8 1.8-4.4 2.5c-1.7.7-3.7 1.4-5.4.5-6.6-3.1 2.9-9.8 6.5-9.9zm-155.9 9c-.9-.1-1.4-3.4-1-8.5.2-2.6.7-5.7 1.5-9s1.9-7 3.4-10.7 3.2-7.1 4.9-10.1 3.5-5.5 5.2-7.5c3.3-4 5.9-6 6.6-5.5 1.6 1.2-4.8 11.7-10.3 25.6-5.7 13.9-8.3 25.9-10.3 25.7zm29.2 2.7c-.2.1-.5-.2-.9-.7-.2-.3-.4-.6-.6-1s-.4-.9-.6-1.5c-.8-2.3-1.5-5.9-1.1-10.2s1.7-9.3 3.7-14.5 4.6-10.5 7.2-16.1c2.7-5.6 5.3-10.9 7.8-15.7 2.6-4.8 5.2-9.1 7.9-12.4 2.6-3.3 5.2-5.7 7.2-7 .5-.3.9-.6 1.3-.8s.8-.4 1.1-.5c.6-.2 1-.3 1.1-.1.6.8-2.9 4.3-6.7 11.2-2 3.4-4 7.6-6.2 12.5-2.2 4.8-4.6 10.3-7.3 15.9-2.6 5.6-5.4 10.9-7.6 15.6s-3.9 9-4.8 12.8c-1.8 7.3-.5 12.2-1.5 12.5zm33.3-1.7c-.4.2-1.5-1-2.4-3.7s-1.4-6.9-.5-11.8c.4-2.5 1.2-5.1 2.2-7.8 1.1-2.7 2.5-5.5 4.1-8.3 3.1-5.5 7.1-11.1 10-17.1.7-1.5 1.4-3 1.9-4.5s1-3.1 1.5-4.7c.9-3.1 1.6-6.3 2.6-9.4.9-3.1 2-6 3.4-8.7s3.2-4.9 5-6.8c1.8-1.8 3.8-3.2 5.7-4.1s3.7-1.3 5.1-1.4c2.9-.2 4.4.6 4.3 1 0 .5-1.5.7-3.7 1.6-1.1.5-2.4 1.1-3.7 2.1s-2.7 2.3-4 4-2.5 3.7-3.5 6-1.7 5-2.4 7.9-1.3 6.1-2.2 9.5c-.4 1.7-.9 3.4-1.5 5.2s-1.3 3.5-2.2 5.3c-3.3 6.9-7.5 12.4-10.8 17.5-1.7 2.5-3.1 4.9-4.2 7.3-1.2 2.3-2.1 4.6-2.7 6.7-1.4 4.2-1.6 7.7-1.6 10.2-.1 2.4.1 3.8-.4 4zm-18.1 48.3c-.2.2-.6.1-1.2-.3s-1.4-1-2.2-2.1c-.8-1-1.6-2.5-2.2-4.3s-.9-4-.9-6.4.5-5 1.4-7.7c.4-1.3 1.1-2.7 1.8-4 .4-.7.8-1.3 1.2-2 .5-.6.9-1.3 1.4-1.9 3.9-4.9 9.5-8.8 15.3-12.1 2.9-1.6 5.8-3.1 8.6-4.4 2.8-1.4 5.4-2.7 8-3.9 5.1-2.5 9.8-4.6 13.7-6.3 7.9-3.4 13-5.1 13.4-4.3s-3.9 4.1-11.2 8.6c-3.7 2.3-8.1 4.8-13 7.6-2.5 1.4-5.1 2.8-7.8 4.3s-5.6 2.9-8.3 4.5c-5.6 3.1-10.4 6.3-13.8 10.1-3.4 3.7-5.2 8-5.8 11.8-.3 1.9-.3 3.6-.2 5.1.2 1.5.5 2.8.8 3.9.7 2.3 1.4 3.5 1 3.8zm22.9 40.2c-.1.9-3.1 1.4-7.7.7s-10.9-2.9-16.9-6.9c-1.5-1-2.9-2.1-4.2-3.2-.6-.5-1.3-1.1-1.8-1.6-.1-.1-.1-.2-.2-.3h-.1c-.1 0 0-.1-.4.1-.7.2-1.3.3-2 .5-1.3.3-2.5.5-3.6.7-4.4.8-7.3.8-7.6-.1s2.1-2.6 6.1-4.5c1-.5 2.1-1 3.3-1.5.6-.3 1.2-.5 1.9-.8.2-.1 1-.4 1.6-.6.7-.2 1.3-.5 2-.7.4-.3.6.1.8.3l.8.7c.5.5 1.1.9 1.6 1.4.6.5 1.2.9 1.8 1.4 1.2.9 2.5 1.8 3.8 2.7 10.6 7 21.1 9.8 20.8 11.7z" fill="#f04e23"/></svg></g><g transform="translate(82.0 602.0) rotate(0.0 353.5 412.5) scale(0.4879937658278742 0.4887090439607113)"><svg width="1448.789" height="1688.121" viewBox="0 0 1448.789 1688.121"><path d="M916.784 995.557c-1.987-19.306-1.866-43.273 14.049-52.675 13.524-7.99 30.143-.119 43.757 7.695l165.706 95.103c12.757 7.321 25.701 14.789 36.029 25.63s17.867 25.714 17.042 41.155c-.814 15.241-9.666 28.959-20.837 38.484-11.172 9.525-24.567 15.502-37.768 21.359l-134.537 59.688c-20.877 9.262-47.238 15.362-62.487-8.019-9.209-14.121-4.26-30.567-3.761-46.484 1.865-59.552-11.099-122.716-17.193-181.936zm-705.887 321.471c36.803 0 74.216-20.505 191.763-222.755 131.716-226.629 149.149-412.581 149.149-412.581s-43.36-41.207-103.56 14.193c-142.439 131.081-254.785 568.843-340.013 605.646 34.866 13.56 102.661 15.497 102.661 15.497z" fill="#ffb400"/><path d="M586.805 666.957c-66.983 2.828-140.049 28.164-169.719 87.329-16.388 32.678-16.987 71.067-10.804 106.997s18.693 70.475 27.566 105.855c17.317 69.044 20.638 141.459 9.712 211.757-4.891 31.469-12.628 63.024-9.829 94.74 4.349 49.267 35.982 95.368 80.795 117.747s101.299 20.285 144.274-5.35c51.552 41.903 124.595 56.72 188.785 38.294 64.189-18.425 117.682-69.564 138.256-132.171 22.748-69.221 6.328-144.311-10.222-215.215l-34.804-149.109c-9.087-38.929-12.743-86.863-32.245-122.42-13.608-24.811-42.141-42.631-64.475-59.103-35.036-25.839-74.353-45.983-115.905-59.55-46.358-15.138-92.841-19.801-141.385-19.801z" fill="#00aee0"/><path d="M1437.361 911.868c-1.883-4.401-3.642-9.177-7.537-11.96s-10.237-2.656-12.687 1.457c1.983-9.636-2.515-20.276-10.808-25.568s-19.837-4.89-27.742.967c-1.621-12.128-10.675-22.951-22.328-26.686-11.652-3.736-25.311-.196-33.682 8.729.633-10.75-14.213-17.256-23.594-11.968s-12.797 17.468-11.667 28.177c1.131 10.709 5.798 20.674 8.855 31 7.741 26.155 1.802 46.423-5.137 69.119-2.082 6.81-6.719 12.532-12.906 16.057l-.095.054-103.623 59.057c-59.432 33.872-118.109 72.419-179.642 102.267-16.765 8.133-37.001 6.62-52.96 15.425-21.528 11.878-30.738 42.55-31.972 65.356-1.64 30.312 7.743 60.013 17.016 88.918 5.421 16.898 14.705 36.954 32.427 37.881 7.553.396 14.711-3.066 21.473-6.455 116.935-58.616 384.228-208.349 395.523-215.429 27.445-17.202 56.895-36.918 66.517-67.846 3.181-10.218 14.291-112.445-5.431-158.552zM9.378 1233.223c-5.334-6.77-10.551-14.852-9.146-23.355 2.18-13.197 18.052-18.552 31.299-20.411 53.161-7.458 108.214-.99 158.2 18.585 22.582 8.844 45.364 21.482 56.972 42.775 10.688 19.605 7.305 52.112-12.942 65.24-19.227 12.466-56.469 6.145-77.714 2.581-56.98-9.56-110.784-39.871-146.669-85.415z" fill="#ffb400"/><path d="M768.057 953.692c-12.976-35.069-17.288-74.416-5.539-109.915 11.748-35.499 41.385-66.118 78.142-72.984 37.862-7.073 59.576 21.845 85.507 50.325 25.93 28.481 59.401 74.015 76.164 107.598 47.21 94.578 29.836 192.406 42.318 297.373s31.659 211.616 83.537 303.717c9.961 17.684 21.513 37.124 16.998 56.912-3.746 16.414-18.534 28.845-34.837 33.048s-33.749 1.213-49.458-4.843c-33.998-13.108-61.329-39.984-81.01-70.65-19.68-30.666-32.437-65.183-44.339-99.622a2694.335 2694.335 0 0 1-77.665-269.417c-8.714-37.449-9.472-90.939-29.269-123.763-20.222-33.524-46.347-59.397-60.549-97.779z" fill="#ffb400"/><path d="M1191.994 1486.067c20.314 7.676 32.975 27.519 44.188 46.117 3.31 5.489 6.749 11.799 5.043 17.978-2.271 8.227-12.12 11.42-20.575 12.582-33.898 4.659-69.303-2.488-98.74-19.93-60.809-36.031 37.739-68.969 70.084-56.747zm90.005 202.008a21.713 21.713 0 0 1-14.592-4.407c-43.104-32.804-98.892-55.243-157.083-63.177-11.924-1.625-20.273-12.611-18.647-24.535 1.625-11.924 12.614-20.264 24.535-18.647 65.525 8.933 128.593 34.391 177.591 71.681 9.577 7.287 11.431 20.96 4.141 30.537-3.978 5.229-9.863 8.156-15.945 8.548z" fill="#ffb400"/><path d="M1332.691 1643.733a21.688 21.688 0 0 1-12.085-1.589c-46.724-20.529-100.002-30.532-154.076-28.932-12.03.355-22.069-9.108-22.427-21.138-.352-12.031 9.146-22.066 21.138-22.427 60.5-1.79 120.288 9.481 172.894 32.595 11.018 4.841 16.027 17.697 11.186 28.716-3.108 7.074-9.522 11.672-16.63 12.775z" fill="#ffb400"/><path d="M1358.031 1599.957a21.696 21.696 0 0 1-9.379-.986c-59.606-19.912-127.167-21.964-190.205-5.785-11.643 2.993-23.532-4.031-26.524-15.688s4.034-23.533 15.691-26.524c71.07-18.236 147.374-15.873 214.842 6.659 11.417 3.813 17.578 16.157 13.767 27.572-2.77 8.291-10.043 13.815-18.192 14.752z" fill="#ffb400"/><path d="M1142.584 1581.078c-8.705 1.158-17.615-3.052-22.042-11.236-5.731-10.584-1.791-23.806 8.793-29.534 68.427-37.034 154.746-49.167 230.89-32.464 11.756 2.58 19.193 14.2 16.615 25.955s-14.2 19.193-25.955 16.615c-66.234-14.529-141.297-3.98-200.81 28.221a21.652 21.652 0 0 1-7.491 2.443z" fill="#ffb400"/><path d="M1212.986 1520.058c8.498.885 17.477 2.142 24.021 7.166 8.296 6.37 10.564 17.548 8.22 27.205s-8.534 18.127-14.91 26.128c-12.996 16.306-28.133 32.321-48.564 40.009-20.816 7.833-44.282 6.001-66.696 4.038-19.615-1.718-40.669-3.985-55.379-15.944-15.027-12.217-19.88-32.88-14.515-50.576 3.937-12.985 12.943-24.997 24.317-33.55 9.922-7.461 18.492-5.337 30.485-5.857 37.959-1.648 75.133-2.566 113.021 1.381zm-650.83-1041.58c-5.587-40.199-17.719-79.342-22.025-119.698s.208-83.841 24.531-116.331c25.539-34.114 70.039-50.811 112.626-49.283 42.587 1.529 83.26 19.39 118.378 43.53 50.3 34.577 92.182 84.521 106.723 143.802S900.111 508.32 852.65 546.7c-14.196 11.479-30.531 20.017-45.216 30.864-14.685 10.846-28.158 24.815-33.005 42.416-3.949 14.341-1.797 29.535-1.302 44.401.494 14.867-1.182 30.968-11.038 42.109-12.564 14.204-33.816 15.714-52.773 16.208-30.781.803-61.724 1.597-92.228-2.601-19.147-2.635-52.33-5.371-66.238-20.743-12.849-14.201-4.106-34.884-.108-50.886 13.836-55.383 19.299-113.253 11.414-169.99z" fill="#ffb400"/><ellipse cx="847.371" cy="326.372" fill="#04294f" rx="13.886" ry="27.773" transform="matrix(.74 -.6726 .6726 .74 .8007 654.8149)"/><path d="M836.335 446.71c-2.127-1.625-1.631-6.643 2.353-12.968 1.959-3.169 4.869-6.5 8.535-9.744a59.974 59.974 0 0 1 13.328-8.59 59.686 59.686 0 0 1 15.14-4.666c4.827-.744 9.245-.804 12.921-.298 7.388.99 11.566 3.79 11.47 6.467-.086 2.818-4.101 5.078-9.822 7.552-5.763 2.467-13.271 5.334-21.284 9.043-3.995 1.887-7.735 3.795-11.205 5.561l-9.364 4.912c-5.551 2.799-9.841 4.456-12.072 2.731z" fill="#04294f"/><path d="M864.206 132.294c-5.563-43.31-33.447-81.663-69.063-106.924C774.127 10.465 749.3-.683 723.545.033c-18.521.515-37.364 8.286-49.82 21.595-5.055 5.401-2.87 14.543 4.196 16.732 10.233 3.171 19.216 13.394 20.393 24.565 1.767 16.757-8.645 32.475-20.876 44.066-36.704 34.784-90.955 45.667-128.562 79.472-38.823 34.899-54.324 90.155-52.169 142.314 2.156 52.159 19.822 102.305 38.273 151.139 13.163 34.84 37.171 70.363 79.425 69.178 35.677-1.001 72.301-26.783 84.793-59.952 6.622-17.583 7.488-36.158 6.157-54.984-4.724.329-9.662-.575-14.183-2.492-11.867-5.033-21.992-16.717-25.239-30.673-3.247-13.955 1.062-29.662 11.155-37.286 21.29-16.082 39.151 12.42 48.614 33.945.714 1.623.675 3.492.871 5.268l28.271-14.161c-11.342-22.141-22.891-44.969-25.2-69.738-1.188-12.749.554-26.006 5.57-37.824 1.325-3.122 6.79-9.425 11.505-15.475 20.644-8.562 44.373-11.842 64.387-22.382 38.635-20.346 58.663-67.736 53.1-111.046z" fill="#f04e23"/><ellipse cx="693.936" cy="396.729" fill="#04294f" rx="8.817" ry="14.107" transform="matrix(.8145 -.5802 .5802 .8145 -101.4387 476.2313)"/><path d="M789.31 225.985c-.467-.938.665-2.661 2.789-4.966 2.025-2.475 5.004-5.66 7.938-10.041a59.365 59.365 0 0 0 7.666-16.409c1.06-3.208 1.575-6.71 2.045-10.283.045-1.799.323-3.629.194-5.471l-.071-2.782-.095-.793c-.011.035.078-.101.058-.239-.014-.052-.056-.097-.147-.119a.63.63 0 0 0-.173-.013l-.027.001-.286.204-.596.426-1.182.842c-6.275 4.453-12.055 8.3-17.042 11.361-9.975 6.121-16.784 9.095-18.061 7.47-1.278-1.625 3.217-7.541 11.517-15.792 4.15-4.125 9.252-8.835 15.058-13.883l2.495-2.133 4.519-3.704c1.517-1.2 3.143-2.648 4.647-3.696l4.557-3.115 2.324-1.577c.385-.25.791-.56 1.162-.761l.456 1.398 1.842 5.688c.634 1.926 1.13 3.818 1.705 5.758.556 1.934 1.156 3.844 1.528 5.99.333 2.11.573 4.965.664 5.751l.043 3.741c.076 2.481-.318 4.887-.533 7.254-.809 4.677-1.873 9.14-3.607 13.108-3.239 8.02-7.939 14.361-12.672 18.724-4.745 4.395-9.435 6.801-12.76 7.986-3.453 1.025-5.506.986-5.955.075zM747.03 89.657c-1.927.506-4.413-3.755-9.409-8.88-1.258-1.275-2.657-2.613-4.257-3.912a36.404 36.404 0 0 0-2.513-1.936 17.747 17.747 0 0 0-1.357-.934c-.426-.269-1.091-.757-1.029-.626-.774-.029-.83.39-.607.672.073.106.101.12.101.12l-.01-.001-.004.007c0 .022-.008-.09.013.262l.081 1.471c.006 1.954.047 3.883-.103 5.765-.209 3.772-.793 7.371-1.569 10.731-1.548 6.731-4.124 12.433-6.806 16.825-5.508 8.821-11.143 12.25-12.641 11.013-1.703-1.332.621-6.819 2.97-15.321 1.142-4.267 2.313-9.308 2.896-14.94.294-2.812.506-5.759.49-8.805.038-1.522-.079-3.068-.119-4.632l-.293-3.572c-.167-1.761-.637-3.716-1.031-5.637-.993-5.359-2.84-11.896-3.989-16.934l7.215 2.244c2.483.791 4.862 1.557 7.165 2.355 4.617 1.686 9.362 4.119 13.299 7.344 1.19.835 1.49 1.282 2.092 1.808.548.516 1.08 1.031 1.562 1.581a35.02 35.02 0 0 1 2.712 3.227 36.521 36.521 0 0 1 3.886 6.356c1.923 4.104 2.695 7.66 2.699 10.172.028 2.515-.56 3.944-1.444 4.177zm-130.727 423.2c-.391 1.852-7.654 2.489-18.629-1.108l-4.246-1.539c-1.468-.567-2.902-1.336-4.435-2.062-3.106-1.4-6.142-3.368-9.375-5.417-6.275-4.341-12.665-9.923-18.34-16.707-5.587-6.856-9.859-14.187-12.934-21.17-1.4-3.563-2.758-6.916-3.545-10.231-.423-1.643-.907-3.197-1.186-4.745l-.708-4.461c-1.454-11.457.546-18.468 2.438-18.502 2.218-.095 4.04 6.406 7.817 15.875l1.497 3.698c.515 1.28 1.211 2.558 1.814 3.908 1.147 2.728 2.752 5.468 4.266 8.4 3.311 5.735 7.288 11.792 12.085 17.695 4.888 5.828 10.084 10.879 15.088 15.216 2.593 2.041 4.979 4.136 7.441 5.778 1.212.848 2.335 1.773 3.494 2.521l3.348 2.17c8.584 5.501 14.622 8.521 14.11 10.681zm41.29-28.935c1.232 1.551-.218 5.302-4.885 9.142-2.307 1.926-5.433 3.702-9.145 5.115a42.023 42.023 0 0 1-12.632 2.425 42.06 42.06 0 0 1-12.754-1.672c-3.79-1.19-7.015-2.779-9.432-4.565-4.887-3.556-6.556-7.215-5.418-8.836 1.207-1.76 4.752-1.46 9.496-.934 4.77.563 10.888 1.213 17.664 1.042 6.775-.23 12.843-1.242 17.571-2.086 4.705-.807 8.226-1.316 9.535.369zm69.403-228.526c1.224 1.774-.74 5.216-3.27 10.04-1.308 2.395-2.663 5.256-4.04 8.396-1.291 3.196-2.558 6.703-3.579 10.496-.95 3.81-1.547 7.492-1.971 10.912-.322 3.413-.527 6.572-.548 9.301-.132 5.445-.088 9.409-2.019 10.364-1.736.896-5.422-1.727-8.303-8.012-1.458-3.113-2.489-7.106-2.926-11.64a46.375 46.375 0 0 1 1.273-14.683 46.334 46.334 0 0 1 6.021-13.452c2.584-3.75 5.425-6.74 8.212-8.752 5.572-4.095 10.068-4.596 11.15-2.97zm-138.346-36.99c-1.756-1.09.227-7.837 4.854-17.865a229.277 229.277 0 0 1 3.949-8.099l.138-.27c.016-.042.007-.044.012-.067l.008-.106.007-.193a2.015 2.015 0 0 0-.019-.311c-.027-.176-.081-.289-.152-.353-.143-.129-.362-.055-.555.067-.273.183-.372.299-.358.288 0 0 .013-.02.009-.046 0 0-.008-.028-.021-.043l-.026-.022s.057-.052-.53.218a251.177 251.177 0 0 0-9.836 4.627c-6.231 3.07-11.734 6.125-16.403 8.721-9.301 5.225-15.345 8.601-16.8 7.05-1.379-1.45 2.212-7.7 10.514-15.568 4.156-3.901 9.488-8.168 15.891-12.206a122.275 122.275 0 0 1 10.331-5.867 30.837 30.837 0 0 1 2.155-1.028l2.695-1.203c1.799-.775 3.661-1.683 5.464-2.365 3.6-1.356 7.349-2.829 10.812-3.879l10.411-3.312 5.211-1.621 2.569-.791.636-.195c.064.001.305-.139.224-.022l-.16.285-.639 1.135-5.049 8.86-2.466 4.253-1.215 2.075c-.422.702-.98 1.512-1.458 2.251l-5.735 8.646-5.118 7.539a229.073 229.073 0 0 1-5.503 7.135c-6.926 8.598-12.09 13.372-13.847 12.282zm64.891 432.167c-88.366-19.896-195.204-35.037-310.249 159.822-8.381 14.195-7.828 31.965 1.201 45.757 29.064 44.394 54.941 78.883 89.356 98.752 9.149 56.322 4.407 119.372.015 156.347-2.832 23.839 6.237 47.577 24.432 63.239 50.317 43.312 171.995 109.151 409.895 43.468-15.216-69.55-24.263-124.302-24.263-124.302s90.373 15.662 173.888-42.233c15.626-10.833 22.634-30.38 17.104-48.572-28.961-95.266-109.848-291.143-381.379-352.278z" fill="#04294f"/><path d="M465.242 1142.604c-2.107 1.777-5.845.503-8.341-2.853-2.495-3.356-2.638-7.3-.328-8.804s6.048-.23 8.341 2.852c2.292 3.083 2.435 7.028.328 8.805zm34.038 30.576c-1.497 2.29-8.647.278-15.432-5.245-6.802-5.512-10.217-12.151-8.258-14.066 1.978-1.944 8.212 1.188 14.554 6.321 6.327 5.158 10.661 10.671 9.136 12.99zm40.669 21.067c-.495 1.286-2.538 1.797-5.483 1.567-2.945-.214-6.795-1.182-10.704-3.048-7.874-3.68-12.858-9.158-11.471-11.527 1.394-2.39 8.272-.982 15.71 2.491 3.717 1.776 6.952 3.696 9.14 5.553 2.178 1.868 3.303 3.678 2.808 4.964zm44.042 12.733c-.534 2.692-7.805 3.532-16.148 1.381-8.351-2.141-14.32-6.438-13.46-9.047.864-2.627 7.928-2.674 15.951-.618 8.021 2.07 14.198 5.57 13.657 8.284zm45.382 6.722c-.135 1.361-1.968 2.461-4.833 3.026-2.86.529-6.76.573-10.992.008-8.479-1.132-14.977-4.256-14.514-6.973s7.543-4.028 15.812-2.924c4.142.553 7.824 1.609 10.451 2.871 2.632 1.228 4.213 2.61 4.076 3.992zm45.801 2.731c-.042 2.756-6.986 4.672-15.511 4.277s-15.262-2.945-15.049-5.693c.214-2.748 7.158-4.664 15.511-4.277s15.091 2.937 15.049 5.693zm45.879-.897c.176 2.751-6.597 5.209-15.127 5.488s-15.448-1.731-15.453-4.488c-.005-2.756 6.768-5.215 15.127-5.488s15.278 1.737 15.453 4.488zm45.663-4.504c.391 2.728-6.166 5.712-14.647 6.661s-15.536-.511-15.757-3.259c-.222-2.747 6.336-5.73 14.647-6.661 8.311-.93 15.366.53 15.757 3.259zm45.166-8.087c.605 2.689-5.696 6.18-14.076 7.794-8.38 1.615-15.528.715-15.965-2.006s5.865-6.212 14.076-7.795c8.212-1.581 15.36-.682 15.965 2.007zm28.946-7.164c.737 2.656-1.843 5.641-5.765 6.667-3.921 1.026-7.633-.313-8.291-2.989-.658-2.677 1.923-5.662 5.765-6.667s7.554.333 8.291 2.989z" fill="#fff"/><ellipse cx="822.774" cy="1016.234" fill="#fff" rx="7.486" ry="47.884" transform="matrix(.9847 -.1744 .1744 .9847 -164.6636 159.1136)"/><ellipse cx="430.678" cy="893.225" fill="#fff" rx="7.486" ry="49.824" transform="matrix(.9917 -.1282 .1282 .9917 -110.9502 62.5786)"/><path d="M869.439 1067.216c-.076 2.755-3.47 4.77-7.58 4.496s-7.206-2.722-6.915-5.463 3.685-4.756 7.58-4.496 6.991 2.707 6.915 5.463zm43.69-2.781c.468 2.703-5.772 6.042-14.016 6.828-8.244.8-15.008-1.291-15.061-4.035-.057-2.768 6.276-5.138 14.105-5.9 7.832-.745 14.503.378 14.972 3.107zm42.392-10.987c.966 2.569-4.541 7.014-12.489 9.335-7.945 2.334-14.98 1.562-15.552-1.122-.581-2.706 5.194-6.236 12.747-8.457 7.557-2.204 14.323-2.348 15.294.244zm39.572-18.746c1.436 2.339-3.131 7.75-10.504 11.524-7.367 3.786-14.421 4.342-15.486 1.813-1.077-2.55 3.934-7.096 10.93-10.694 7.003-3.582 13.614-5.004 15.06-2.643zm23.966-16.519c1.723 2.151.437 5.882-2.876 8.33s-7.258 2.582-8.808.303-.264-6.01 2.876-8.33 7.085-2.454 8.808-.303zM357.452 841.544c-2.365 1.414-5.86-.422-7.798-4.105-1.937-3.684-1.469-7.603 1.037-8.75s6.001.689 7.798 4.105c1.796 3.416 1.329 7.335-1.037 8.75zm29.565 36.701c-1.817 2.046-8.772-1.176-14.768-7.93-6.012-6.741-8.404-14.023-6.161-15.59 2.27-1.597 8.025 2.693 13.617 8.955 5.57 6.282 9.162 12.495 7.312 14.565zm24.074 18.319c-1.43 2.356-5.377 2.365-8.811.013-3.434-2.353-4.852-6.037-3.172-8.222 1.679-2.185 5.627-2.194 8.811-.013 3.185 2.181 4.603 5.866 3.172 8.222z" fill="#fff"/><path d="M692.909 1404.606c-.509.899-2.711.682-6.369-.555a59.333 59.333 0 0 1-3.008-1.118c-1.067-.467-2.161-1.08-3.361-1.717-2.362-1.321-5.154-2.758-7.856-4.853l-4.335-3.21c-1.489-1.146-2.876-2.511-4.391-3.856-3.091-2.642-5.929-5.904-8.974-9.311-5.795-7.034-11.363-15.488-15.791-25.076-4.305-9.643-7.006-19.399-8.488-28.391-.562-4.535-1.15-8.818-1.105-12.885-.016-2.026-.13-3.968-.014-5.844l.435-5.377c.201-3.413.956-6.461 1.516-9.109.31-1.322.569-2.549.919-3.66.389-1.107.77-2.109 1.138-3 1.475-3.569 2.761-5.369 3.773-5.161 2.203.459 1.997 8.581 3.24 20.977l.521 4.85c.181 1.679.57 3.413.836 5.206.453 3.6 1.438 7.362 2.274 11.327 2.035 7.866 4.787 16.338 8.587 24.876 3.927 8.48 8.495 16.127 13.079 22.836 2.436 3.239 4.62 6.457 7.033 9.167 1.176 1.38 2.224 2.814 3.37 4.055l3.309 3.584c8.515 9.094 14.766 14.283 13.662 16.245z" fill="#04294f"/><g fill="#f04e23"><path d="M1193.429 1600.163c.207-2.691 12.119-3.858 25.871.481 13.77 4.283 22.887 12.038 21.521 14.366-1.38 2.45-11.867-.931-24.505-4.841-12.61-4-23.152-7.207-22.887-10.006z"/><ellipse cx="1240.402" cy="1572.061" rx="4.991" ry="27.53" transform="matrix(.1424 -.9898 .9898 .1424 -492.2291 2576.0334)"/><path d="M1234.098 1537.299c-.257-2.693 11.931-5.979 27.134-4.596 15.209 1.33 26.622 6.72 25.893 9.326-.722 2.711-12.54 1.848-26.78.616-14.233-1.308-26.016-2.549-26.247-5.346zm31.988 51.924c.253 1.372-.424 2.747-1.231 4.045a22.602 22.602 0 0 1-3.076 3.776 22.583 22.583 0 0 1-3.741 3.12c-1.289.822-2.656 1.514-4.03 1.277-1.33-.222-2.436-1.574-2.55-3.83-.134-2.219.897-5.234 3.222-7.584 2.324-2.352 5.327-3.418 7.547-3.309 2.257.087 3.621 1.177 3.859 2.505z"/><ellipse cx="1270.435" cy="1602.978" rx="6.697" ry="4.991" transform="matrix(.7593 -.6508 .6508 .7593 -737.355 1212.6946)"/><path d="M1289.387 1547.186c.588 1.268-.076 2.917-1.164 4.715-1.111 1.806-2.641 3.816-4.354 5.982-1.698 2.178-3.287 4.141-4.778 5.648-1.489 1.484-2.933 2.52-4.305 2.249-1.326-.257-2.329-1.943-2.337-4.637-.024-2.664 1.094-6.268 3.57-9.425 2.479-3.154 5.716-5.095 8.309-5.703 2.619-.632 4.495-.057 5.059 1.171z"/><ellipse cx="1297.723" cy="1561.376" rx="11.087" ry="4.991" transform="matrix(.5333 -.8459 .8459 .5333 -715.1611 1826.4749)"/><path d="M1225.422 1629.968c.244 1.369-.227 2.713-.696 3.885-.503 1.179-1.06 2.187-1.883 3.05-.804.88-1.772 1.505-2.914 2.087-1.137.548-2.446 1.11-3.828.96-1.344-.141-2.549-1.225-2.87-3.184-.339-1.919.377-4.602 2.318-6.676 1.936-2.077 4.565-2.976 6.502-2.768 1.975.186 3.139 1.315 3.371 2.646zm64.746-121.267c.854 1.101.723 2.751.213 4.543-.528 1.805-1.424 3.788-2.565 5.855-1.128 2.074-2.317 3.897-3.553 5.314-1.236 1.395-2.556 2.393-3.943 2.266-1.352-.12-2.528-1.486-2.943-3.812-.425-2.3.025-5.527 1.686-8.563 1.664-3.034 4.143-5.151 6.309-6.031 2.182-.903 3.966-.647 4.796.428z"/><ellipse cx="1296.82" cy="1523.027" rx="7.014" ry="4.991" transform="matrix(.3628 -.9319 .9319 .3628 -592.891 2179.033)"/><ellipse cx="1275.52" cy="1663.667" rx="8.353" ry="13.013" transform="matrix(.3477 -.9376 .9376 .3477 -727.8102 2281.2473)"/><ellipse cx="1326.343" cy="1616.632" rx="8.353" ry="13.013" transform="matrix(.3477 -.9376 .9376 .3477 -650.5552 2298.218)"/><ellipse cx="1355.398" cy="1572.061" rx="8.353" ry="13.013" transform="matrix(.3477 -.9376 .9376 .3477 -589.8097 2296.3843)"/><ellipse cx="1355.398" cy="1523.027" rx="8.353" ry="13.013" transform="matrix(.3477 -.9376 .9376 .3477 -543.8343 2264.397)"/><ellipse cx="1182.061" cy="1514.398" rx="34.273" ry="4.991" transform="matrix(.9851 -.1718 .1718 .9851 -242.5548 225.546)"/><ellipse cx="1325.753" cy="883.113" rx="4.991" ry="11.98" transform="matrix(.9705 -.2411 .2411 .9705 -173.8334 345.7584)"/><ellipse cx="1376.228" cy="896.114" rx="4.991" ry="10.4" transform="matrix(.9775 -.2111 .2111 .9775 -158.1548 310.714)"/><ellipse cx="1414.415" cy="916.528" rx="4.991" ry="8.837" transform="matrix(.9865 -.164 .164 .9865 -131.1866 244.4353)"/><ellipse cx="1303.304" cy="864.981" rx="7.445" ry="9.785"/><ellipse cx="1348.702" cy="871.486" rx="7.445" ry="9.785"/><ellipse cx="1396.643" cy="892.898" rx="7.445" ry="9.785"/><path d="M91.58 1226.66c-2.12 1.97-14.726-8.99-32.995-17.113-18.145-8.394-34.695-10.661-34.61-13.554.051-1.315 4.439-2.503 11.626-2.255 7.155.229 17.068 2.18 27.107 6.719 10.028 4.564 18.025 10.737 22.91 15.97 4.92 5.244 6.918 9.328 5.962 10.233zm50.869-16.486c-2.079 1.929-9.889-3.283-20.103-7.416-10.135-4.324-19.339-6.183-19.438-9.017-.004-1.34 2.529-2.669 6.845-3.056 4.286-.399 10.331.332 16.424 2.857 6.088 2.537 10.87 6.306 13.611 9.625 2.768 3.332 3.614 6.064 2.661 7.007zm-84.548 14.991c.237 1.384-.787 2.79-2.054 4.285-1.3 1.496-2.884 3.136-4.58 4.986-1.672 1.871-3.148 3.61-4.507 5.052-1.362 1.408-2.659 2.567-4.06 2.469-1.334-.083-2.573-1.677-2.704-4.485-.154-2.764 1.046-6.613 3.871-9.734s6.536-4.697 9.302-4.817c2.808-.15 4.517.925 4.732 2.244z"/><ellipse cx="20.955" cy="1216.193" rx="9.2" ry="12.106" transform="matrix(.5 -.866 .866 .5 -1042.7766 626.2444)"/><ellipse cx="90.362" cy="1201.958" rx="7.296" ry="9.601" transform="matrix(.5 -.866 .866 .5 -995.7448 679.2345)"/><path d="M1055.211 1302.348c-3.897.848-18.631-53.45-25.489-122.296-7.036-68.828-3.448-124.975.541-124.923 4.279-.004 7.402 55.467 14.355 123.419 6.764 67.973 14.787 122.948 10.593 123.8z"/><ellipse cx="1085.815" cy="1096.19" rx="65.86" ry="7.486" transform="matrix(.8739 -.4861 .4861 .8739 -395.9289 666.0018)"/></g></svg></g><g transform="translate(33.0 255.0) rotate(0.0 179.5 304.0) scale(0.7344967980849889 0.7350007857738663)"><svg width="488.77" height="827.21" viewBox="0 0 488.77 827.21"><path d="M155.78 827.21a6 6 0 0 1-6-5.53c-11.94-151.57 9.45-292.52 29.5-384.07C201 338.39 226 274 226.2 273.39a6 6 0 1 1 11.17 4.36c-.24.63-24.89 64.31-46.41 162.68-19.84 90.7-41 230.31-29.19 380.31a6 6 0 0 1-5.52 6.45z" fill="#FFB400"/><circle cx="245.59" cy="237.79" fill="#F04E23" r="10.93"/><path d="M281.45 233.37a6.5 6.5 0 0 1-2-12.69l200.82-64.45a6.5 6.5 0 0 1 4 12.38l-200.83 64.44a6.27 6.27 0 0 1-1.99.32zm-27.78-26.76a5.89 5.89 0 0 1-1.38-.15 6.49 6.49 0 0 1-5-7.72L289.2 5.13a6.5 6.5 0 1 1 12.7 2.75L260 201.49a6.49 6.49 0 0 1-6.33 5.12zm-37.08 10.69a6.46 6.46 0 0 1-4.36-1.68L56 73.92a6.5 6.5 0 1 1 8.73-9.62L221 206a6.5 6.5 0 0 1-4.37 11.31zM6.5 319.2a6.51 6.51 0 0 1-2-12.7l200.82-64.44a6.5 6.5 0 0 1 4 12.38L8.49 318.88a6.57 6.57 0 0 1-1.99.32zm409.65 82.19a6.44 6.44 0 0 1-4.36-1.68l-144-130.58a6.5 6.5 0 1 1 8.74-9.63l144 130.58a6.5 6.5 0 0 1-4.37 11.31zM312.32 170.84a6.49 6.49 0 0 1-4.72-11l71.92-76.19a6.5 6.5 0 0 1 9.48 8.96l-71.95 76.19a6.46 6.46 0 0 1-4.73 2.04z" fill="#FFB400"/><path d="M214.75 148.71a6.5 6.5 0 0 1-6.22-4.64l-30-100.38A6.5 6.5 0 0 1 191 40l30 100.39a6.5 6.5 0 0 1-4.36 8.09 6.36 6.36 0 0 1-1.89.23z" fill="#00AEE0"/><path d="M146.81 222.14a6 6 0 0 1-1.5-.18L43.36 197.77a6.5 6.5 0 0 1 3-12.65l102 24.2a6.5 6.5 0 0 1-1.5 12.82z" fill="#FFB400"/><path d="M94.51 393.3a6.49 6.49 0 0 1-4.72-11l71.93-76.19a6.5 6.5 0 0 1 9.45 8.93l-71.93 76.23a6.49 6.49 0 0 1-4.73 2.03z" fill="#00AEE0"/><path d="M299.08 438.93a6.5 6.5 0 0 1-6.23-4.64l-30-100.39a6.5 6.5 0 0 1 12.46-3.72l30 100.38a6.51 6.51 0 0 1-4.37 8.09 6.36 6.36 0 0 1-1.86.28z" fill="#FFB400"/><path d="M443.89 290.6a6.47 6.47 0 0 1-1.5-.18l-101.95-24.2a6.5 6.5 0 0 1 3-12.64l101.95 24.19a6.5 6.5 0 0 1-1.5 12.83z" fill="#00AEE0"/><g fill="#F04E23"><path d="M313.52 111a6.51 6.51 0 0 1-5.82-9.38L327 62.5a6.5 6.5 0 0 1 11.66 5.75l-19.3 39.07a6.51 6.51 0 0 1-5.84 3.68zm-75.93-16.77a6.51 6.51 0 0 1-6.48-6.08l-2.81-43.49a6.5 6.5 0 0 1 13-.84l2.82 43.49a6.52 6.52 0 0 1-6.12 6.91zm-74.1 23.49a6.5 6.5 0 0 1-5.41-2.89L133.9 78.57a6.5 6.5 0 1 1 10.81-7.21l24.18 36.25a6.5 6.5 0 0 1-5.4 10.11zM111 175.12a6.43 6.43 0 0 1-2.87-.68l-39.03-19.3a6.5 6.5 0 1 1 5.76-11.65l39.07 19.3a6.5 6.5 0 0 1-2.93 12.33zm-60.16 78.74a6.5 6.5 0 0 1-.41-13l43.48-2.82a6.5 6.5 0 1 1 .84 13l-43.48 2.82zm30.74 95.48A6.5 6.5 0 0 1 78 337.43l36.25-24.18a6.5 6.5 0 1 1 7.22 10.81l-36.29 24.19a6.46 6.46 0 0 1-3.6 1.09zm66.27 59.84a6.49 6.49 0 0 1-5.85-9.38l19.3-39.07a6.5 6.5 0 1 1 11.7 5.76l-19.3 39.07a6.5 6.5 0 0 1-5.85 3.62zm93.5 23.38a6.5 6.5 0 0 1-6.48-6.08L232.05 383a6.5 6.5 0 0 1 13-.84l2.82 43.49a6.51 6.51 0 0 1-6.07 6.91zm108.1-25.48a6.49 6.49 0 0 1-5.41-2.9l-24.19-36.25a6.5 6.5 0 0 1 10.82-7.22L354.85 397a6.51 6.51 0 0 1-5.4 10.11zm67.32-74.35a6.6 6.6 0 0 1-2.88-.67l-39.07-19.31a6.5 6.5 0 1 1 5.76-11.65l39.07 19.3a6.5 6.5 0 0 1-2.88 12.33zm-22.36-95.23a6.5 6.5 0 0 1-.41-13l43.48-2.82a6.5 6.5 0 1 1 .84 13l-43.49 2.81zm-23.48-74.12a6.5 6.5 0 0 1-3.61-11.9l36.25-24.19a6.5 6.5 0 1 1 7.22 10.82l-36.26 24.18a6.44 6.44 0 0 1-3.6 1.09z"/></g></svg></g><g transform="translate(465.0 57.0) rotate(0.0 293.5 251.5) scale(1.4974489795918366 1.4955104953321046)"><svg width="392" height="336.34" viewBox="0 0 392 336.34"><g fill="#FFB400"><path d="M212.66 139.61a6 6 0 0 1-5.23-8.92 424.58 424.58 0 0 1 38.33-55.42c31.8-39.13 63.76-64.35 95-74.95a6 6 0 1 1 3.86 11.36c-69.7 23.65-126.15 123.84-126.71 124.85a6 6 0 0 1-5.25 3.08zm16.01 24.01a6 6 0 0 1-2.06-11.62c4.42-1.62 108.84-39.43 154.7-29.17a6 6 0 1 1-2.62 11.71c-42.44-9.51-146.91 28.35-148 28.73a6 6 0 0 1-2.02.35zm96.5 127.05a6 6 0 0 1-5.26-3.12c-33.84-61.69-109.21-100.75-110-101.13a6 6 0 0 1 5.46-10.69c3.22 1.65 79.38 41.07 115 106a6 6 0 0 1-5.26 8.89zM67.33 307.34a6.13 6.13 0 0 1-2.17-.41 6 6 0 0 1-3.42-7.77c23.31-59.9 106-117.44 109.52-119.86a6 6 0 1 1 6.82 9.88c-.83.57-83.19 57.88-105.15 114.33a6 6 0 0 1-5.6 3.83zM12.67 182.7a6 6 0 0 1-3.46-10.9c56.13-39.67 151.93-20.89 156-20.07a6 6 0 0 1-2.38 11.77c-.94-.19-94.79-18.57-146.68 18.1a6 6 0 0 1-3.48 1.1zm162-49.7a6 6 0 0 1-5.48-3.55C154.93 97.64 109.77 15 72.57 14.86a6 6 0 0 1 0-12c22.57.08 47.64 20.9 74.51 61.86a479.79 479.79 0 0 1 33 59.85 6 6 0 0 1-5.48 8.46zm76-6.56a6 6 0 0 1-4.08-10.4c1.65-1.52 40.86-37.3 90.5-39.37a6 6 0 0 1 .5 12c-45.28 1.89-82.48 35.84-82.85 36.19a6 6 0 0 1-4.07 1.58zm100.67 80.08a6 6 0 0 1-4.26-1.76c-25.64-25.78-73.43-22.12-73.91-22.08a6 6 0 0 1-1-12c2.18-.18 53.8-4.21 83.43 25.57a6 6 0 0 1-4.25 10.23zM197.29 336.34a6.11 6.11 0 0 1-1.63-.23 6 6 0 0 1-4.15-7.41c8.25-29.18-.71-106.06-.8-106.83a6 6 0 0 1 11.92-1.41c.38 3.25 9.32 80 .43 111.51a6 6 0 0 1-5.77 4.37zM35.33 229.45a5.91 5.91 0 0 1-3.64-1.24 6 6 0 0 1-1.12-8.41c20.45-26.66 79.67-39.56 82.18-40.09a6 6 0 1 1 2.51 11.73c-.58.12-57.41 12.51-75.16 35.66a6 6 0 0 1-4.77 2.35zm83.34-103.01a6 6 0 0 1-4-1.54c-.41-.37-31-27.62-58.09-31.14a6 6 0 0 1 1.55-11.9c30.83 4 63.21 32.9 64.57 34.12a6 6 0 0 1-4 10.46zm78-32.62a6.16 6.16 0 0 1-1.52-.2 6 6 0 0 1-4.29-7.32c.11-.42 10.75-42.23.09-75.62A6 6 0 1 1 202.38 7c11.73 36.76.57 80.46.09 82.3a6 6 0 0 1-5.8 4.52z"/></g><path d="M233.33 57.34a6 6 0 0 1-5.33-8.78c.56-1.06 13.8-26.39 28-43.54a6 6 0 0 1 9.23 7.67c-13.41 16.15-26.49 41.16-26.62 41.41a6 6 0 0 1-5.28 3.24zm-69.33 0a6 6 0 0 1-5.64-4C152.82 38 139.15 22 139 21.88a6 6 0 0 1 9.09-7.88c.62.72 15.25 17.76 21.56 35.27a6 6 0 0 1-5.65 8zm140.34 9.99a6 6 0 0 1-3.9-10.56c1-.85 24.5-20.62 46-18.93a6 6 0 1 1-.94 12c-13.85-1.08-31.62 11.26-37.3 16.1a6 6 0 0 1-3.86 1.39zm26.33 48.83a6 6 0 0 1-2-11.67c1.33-.46 32.75-11.29 57.66-9.86a6 6 0 0 1-.69 12c-22.53-1.31-52.72 9.11-53 9.22a6.17 6.17 0 0 1-1.97.31zm52 64.42a6 6 0 0 1-4.72-2.29c-6.13-7.81-32.62-13.17-47.88-14.71a6 6 0 0 1 1.2-11.94c4.56.46 44.87 4.89 56.12 19.24a6 6 0 0 1-1 8.42 5.92 5.92 0 0 1-3.72 1.28zM108 84.67a6 6 0 0 1-5-2.75c-.25-.39-14.79-22.36-35.92-23.39a6 6 0 1 1 .59-12c27.44 1.34 44.7 27.76 45.42 28.89a6 6 0 0 1-5 9.24zm-92.66 54.94a6 6 0 0 1-2.42-11.49c34.65-15.27 62.93-3.48 64.12-3a6 6 0 0 1-4.72 11c-.32-.12-24.94-10.07-54.57 2.98a6 6 0 0 1-2.41.51zm121.33 151.06a6.36 6.36 0 0 1-1.29-.14 6 6 0 0 1-4.57-7.15c7.66-34.82 28.31-53.7 29.18-54.49a6 6 0 0 1 8 8.92c-.26.24-18.71 17.34-25.49 48.15a6 6 0 0 1-5.83 4.71zm132.66-13.33a6 6 0 0 1-5.86-4.75c-5.3-24.71-25-33.65-25.22-33.74a6 6 0 0 1 4.84-11c1 .45 25.55 11.56 32.11 42.21a6 6 0 0 1-5.87 7.26zm87.34-33.53a6 6 0 0 1-4.8-2.39c-8-10.61-30.33-22-38.27-25.43a6 6 0 0 1 4.81-11c1.28.56 31.57 13.94 43 29.22a6 6 0 0 1-4.79 9.6zM52 265a6 6 0 0 1-5.63-8c9.16-25 30.4-41.62 31.3-42.32a6 6 0 0 1 7.33 9.44c-.19.15-19.44 15.29-27.37 37A6 6 0 0 1 52 265zM6 216.49a5.81 5.81 0 0 1-1.24-.13 6 6 0 0 1-4.64-7.1c.86-4.09 4.3-10 23.42-19.64 9.65-4.86 18.89-8.47 19.28-8.62a6 6 0 0 1 4.35 11.19C30 198.85 13.59 208 11.84 211.86A6 6 0 0 1 6 216.49z" fill="#F04E23"/><path d="M193.34 167.38a9.77 9.77 0 1 1 9.76-9.77 9.76 9.76 0 0 1-9.76 9.77z" fill="#FFB400"/></svg></g><g transform="translate(1110.0 277.0) rotate(90.0 161.5 138.0) scale(0.8239795918367347 0.8205982041981329)"><svg width="392" height="336.34" viewBox="0 0 392 336.34"><g fill="#FFB400"><path d="M212.66 139.61a6 6 0 0 1-5.23-8.92 424.58 424.58 0 0 1 38.33-55.42c31.8-39.13 63.76-64.35 95-74.95a6 6 0 1 1 3.86 11.36c-69.7 23.65-126.15 123.84-126.71 124.85a6 6 0 0 1-5.25 3.08zm16.01 24.01a6 6 0 0 1-2.06-11.62c4.42-1.62 108.84-39.43 154.7-29.17a6 6 0 1 1-2.62 11.71c-42.44-9.51-146.91 28.35-148 28.73a6 6 0 0 1-2.02.35zm96.5 127.05a6 6 0 0 1-5.26-3.12c-33.84-61.69-109.21-100.75-110-101.13a6 6 0 0 1 5.46-10.69c3.22 1.65 79.38 41.07 115 106a6 6 0 0 1-5.26 8.89zM67.33 307.34a6.13 6.13 0 0 1-2.17-.41 6 6 0 0 1-3.42-7.77c23.31-59.9 106-117.44 109.52-119.86a6 6 0 1 1 6.82 9.88c-.83.57-83.19 57.88-105.15 114.33a6 6 0 0 1-5.6 3.83zM12.67 182.7a6 6 0 0 1-3.46-10.9c56.13-39.67 151.93-20.89 156-20.07a6 6 0 0 1-2.38 11.77c-.94-.19-94.79-18.57-146.68 18.1a6 6 0 0 1-3.48 1.1zm162-49.7a6 6 0 0 1-5.48-3.55C154.93 97.64 109.77 15 72.57 14.86a6 6 0 0 1 0-12c22.57.08 47.64 20.9 74.51 61.86a479.79 479.79 0 0 1 33 59.85 6 6 0 0 1-5.48 8.46zm76-6.56a6 6 0 0 1-4.08-10.4c1.65-1.52 40.86-37.3 90.5-39.37a6 6 0 0 1 .5 12c-45.28 1.89-82.48 35.84-82.85 36.19a6 6 0 0 1-4.07 1.58zm100.67 80.08a6 6 0 0 1-4.26-1.76c-25.64-25.78-73.43-22.12-73.91-22.08a6 6 0 0 1-1-12c2.18-.18 53.8-4.21 83.43 25.57a6 6 0 0 1-4.25 10.23zM197.29 336.34a6.11 6.11 0 0 1-1.63-.23 6 6 0 0 1-4.15-7.41c8.25-29.18-.71-106.06-.8-106.83a6 6 0 0 1 11.92-1.41c.38 3.25 9.32 80 .43 111.51a6 6 0 0 1-5.77 4.37zM35.33 229.45a5.91 5.91 0 0 1-3.64-1.24 6 6 0 0 1-1.12-8.41c20.45-26.66 79.67-39.56 82.18-40.09a6 6 0 1 1 2.51 11.73c-.58.12-57.41 12.51-75.16 35.66a6 6 0 0 1-4.77 2.35zm83.34-103.01a6 6 0 0 1-4-1.54c-.41-.37-31-27.62-58.09-31.14a6 6 0 0 1 1.55-11.9c30.83 4 63.21 32.9 64.57 34.12a6 6 0 0 1-4 10.46zm78-32.62a6.16 6.16 0 0 1-1.52-.2 6 6 0 0 1-4.29-7.32c.11-.42 10.75-42.23.09-75.62A6 6 0 1 1 202.38 7c11.73 36.76.57 80.46.09 82.3a6 6 0 0 1-5.8 4.52z"/></g><path d="M233.33 57.34a6 6 0 0 1-5.33-8.78c.56-1.06 13.8-26.39 28-43.54a6 6 0 0 1 9.23 7.67c-13.41 16.15-26.49 41.16-26.62 41.41a6 6 0 0 1-5.28 3.24zm-69.33 0a6 6 0 0 1-5.64-4C152.82 38 139.15 22 139 21.88a6 6 0 0 1 9.09-7.88c.62.72 15.25 17.76 21.56 35.27a6 6 0 0 1-5.65 8zm140.34 9.99a6 6 0 0 1-3.9-10.56c1-.85 24.5-20.62 46-18.93a6 6 0 1 1-.94 12c-13.85-1.08-31.62 11.26-37.3 16.1a6 6 0 0 1-3.86 1.39zm26.33 48.83a6 6 0 0 1-2-11.67c1.33-.46 32.75-11.29 57.66-9.86a6 6 0 0 1-.69 12c-22.53-1.31-52.72 9.11-53 9.22a6.17 6.17 0 0 1-1.97.31zm52 64.42a6 6 0 0 1-4.72-2.29c-6.13-7.81-32.62-13.17-47.88-14.71a6 6 0 0 1 1.2-11.94c4.56.46 44.87 4.89 56.12 19.24a6 6 0 0 1-1 8.42 5.92 5.92 0 0 1-3.72 1.28zM108 84.67a6 6 0 0 1-5-2.75c-.25-.39-14.79-22.36-35.92-23.39a6 6 0 1 1 .59-12c27.44 1.34 44.7 27.76 45.42 28.89a6 6 0 0 1-5 9.24zm-92.66 54.94a6 6 0 0 1-2.42-11.49c34.65-15.27 62.93-3.48 64.12-3a6 6 0 0 1-4.72 11c-.32-.12-24.94-10.07-54.57 2.98a6 6 0 0 1-2.41.51zm121.33 151.06a6.36 6.36 0 0 1-1.29-.14 6 6 0 0 1-4.57-7.15c7.66-34.82 28.31-53.7 29.18-54.49a6 6 0 0 1 8 8.92c-.26.24-18.71 17.34-25.49 48.15a6 6 0 0 1-5.83 4.71zm132.66-13.33a6 6 0 0 1-5.86-4.75c-5.3-24.71-25-33.65-25.22-33.74a6 6 0 0 1 4.84-11c1 .45 25.55 11.56 32.11 42.21a6 6 0 0 1-5.87 7.26zm87.34-33.53a6 6 0 0 1-4.8-2.39c-8-10.61-30.33-22-38.27-25.43a6 6 0 0 1 4.81-11c1.28.56 31.57 13.94 43 29.22a6 6 0 0 1-4.79 9.6zM52 265a6 6 0 0 1-5.63-8c9.16-25 30.4-41.62 31.3-42.32a6 6 0 0 1 7.33 9.44c-.19.15-19.44 15.29-27.37 37A6 6 0 0 1 52 265zM6 216.49a5.81 5.81 0 0 1-1.24-.13 6 6 0 0 1-4.64-7.1c.86-4.09 4.3-10 23.42-19.64 9.65-4.86 18.89-8.47 19.28-8.62a6 6 0 0 1 4.35 11.19C30 198.85 13.59 208 11.84 211.86A6 6 0 0 1 6 216.49z" fill="#F04E23"/><path d="M193.34 167.38a9.77 9.77 0 1 1 9.76-9.77 9.76 9.76 0 0 1-9.76 9.77z" fill="#FFB400"/></svg></g><g transform="translate(717.0 681.0) rotate(34.318695955692 117.0 115.5) scale(2.8804608737397985 2.880299251870324)"><svg width="81.237" height="80.2" viewBox="0 0 81.237 80.2"><path d="M39.974 71.5c-10.7-.7-20.8-3.9-24.9-5.4-1.3-.5-2.4-1.3-3.1-2.5-3.9-6.6-7.2-16.3-8.6-21-.6-1.8-.2-3.7.8-5.2 3.8-5.3 21.6-27.1 37.6-36.6.9-.5 1.9-.8 2.9-.8 4.2 0 16.2.1 26.7 2.8 1.7.4 3.1 1.6 3.8 3.2 1.7 3.6 4.7 11 6 20.7.2 1.2-.1 2.4-.6 3.4-2.6 4.9-18.6 28.4-37 40.4-1 .8-2.3 1.1-3.6 1z" fill="#00AEE0"/><g fill="#1a2c4c"><path d="M79.374 17.4c-.7-2.7-1.5-5.1-2.3-7-13.7 19.2-37.2 39.8-42.1 43.9-3.5-.2-7.3-.8-11-1.5-1.6-4.1-2.8-7.4-3.5-9.2 11.7-17.4 35.3-36.3 43.2-42.4-3-.5-5.9-.8-8.5-.9-10.8 8.7-30.3 25.4-40.5 41.3-.5.8-.6 1.8-.3 2.6 0 .1 1 2.9 2.6 7.1-4.7-1.1-8.9-2.2-11.6-3 .8 2.2 1.7 4.6 2.7 7 3.3.9 7.3 1.9 11.5 2.8 1.3 3.3 2.8 7 4.4 10.7 2.2.6 4.6 1.1 7.2 1.6-1.6-3.7-3.2-7.4-4.6-11 3.2.5 6.3.9 9.3 1h.2c.7 0 1.4-.2 1.9-.7 1.1-1 25.5-21.4 41.4-42.3z"/><path d="M27.974 80.2c-2.9 0-6.5-1.3-9.7-6.2-2.9-4.4-4.1-9.7-3-13.1.6-1.8 1.7-3 3.3-3.6 4.6-1.7 12.1 3.6 15.9 9.3 2.1 3.2 2.8 6 2 8.4-.5 1.4-1.7 3.4-4.8 4.5-1 .4-2.3.7-3.7.7zm-4.7-9.5c2.9 4.4 5.4 3.5 6.3 3.2.7-.3 1.1-.6 1.2-.8 0 0 .3-.9-1.3-3.2-2.7-4.1-6.9-6.6-8.6-6.9-.2 1.1.1 4.2 2.4 7.7z"/><path d="M8.774 74.8c-4 0-6.2-2-7.3-3.5-1.7-2.3-1.6-4.3-1.3-5.6.7-2.5 2.9-4.4 6.7-6 5.7-2.4 15.2-3.6 18.1.3.9 1.2 1.1 2.6.7 4.2-.9 3.3-5.1 7-10.5 9.2-2.5 1-4.7 1.4-6.4 1.4zm-2.9-7.5s.1.2.3.4c1.1 1.5 3.4 1.5 6.8.1 3.2-1.3 5.3-3.1 6.3-4.3-2-.2-6.1 0-10.1 1.7-2.8 1.2-3.3 2-3.3 2.1z"/></g></svg></g><g transform="translate(490.0 749.0) rotate(-33.3581514389651 4.0 6.5) scale(0.37882375224926607 0.4009994139239335)"><svg width="21.118" height="32.419" viewBox="0 0 21.118 32.419"><ellipse cx="10.559" cy="16.209" fill="#FFF" rx="9.279" ry="16.971" transform="matrix(.9351 -.3545 .3545 .9351 -5.0601 4.7953)"/></svg></g><g transform="translate(1034.0 751.0) rotate(24.518978912941666 5.0 7.5) scale(0.4735296903115826 0.46269163145069253)"><svg width="21.118" height="32.419" viewBox="0 0 21.118 32.419"><ellipse cx="10.559" cy="16.209" fill="#FFF" rx="9.279" ry="16.971" transform="matrix(.9351 -.3545 .3545 .9351 -5.0601 4.7953)"/></svg></g><g transform="translate(490.0 793.0) rotate(69.75825470867781 13.0 20.0) scale(1.2311771948101147 1.2338443505351802)"><svg width="21.118" height="32.419" viewBox="0 0 21.118 32.419"><ellipse cx="10.559" cy="16.209" fill="#FFB400" rx="9.279" ry="16.971" transform="matrix(.9351 -.3545 .3545 .9351 -5.0601 4.7953)"/></svg></g><g transform="translate(522.0 786.0) rotate(-40.68354986451002 -19.5 11.0) scale(-0.6868101630293612 0.698386980035021)"><svg width="56.784" height="31.501" viewBox="0 0 56.784 31.501"><g fill="#04294f"><path d="M48.162 7.484c.394.264.31 1.149-.205 2.562A13.953 13.953 0 0 1 46.81 12.5a31.704 31.704 0 0 1-1.93 3.014l-1.287 1.641-.703.866c-.252.281-.523.555-.793.84l-1.707 1.742c-.602.585-1.28 1.123-1.953 1.703a22.028 22.028 0 0 1-2.158 1.677c-.768.53-1.537 1.096-2.363 1.61l-2.582 1.47c-.88.489-1.834.87-2.772 1.308a25.878 25.878 0 0 1-2.867 1.1l-1.425.484c-.472.154-.96.25-1.434.374-.957.216-1.88.491-2.816.624l-2.74.379c-.893.099-1.777.096-2.627.134l-1.255.034-1.219-.073-2.296-.182c-.733-.11-1.43-.253-2.093-.381a19.471 19.471 0 0 1-3.496-.981 30.7 30.7 0 0 1-1.384-.53q-.618-.316-1.109-.608C.492 27.967-.124 27.332.021 26.88c.145-.452 1.031-.682 2.442-.727.353-.01.738-.01 1.154.002.425-.024.88-.043 1.363-.052.967-.013 2.042.023 3.234-.079l1.849-.078 1.988-.215 1.04-.099 1.065-.186c.718-.134 1.46-.213 2.209-.378l2.292-.534c.782-.168 1.554-.464 2.354-.684.397-.125.806-.22 1.203-.367l1.2-.454a25.994 25.994 0 0 0 2.43-.968c.8-.378 1.623-.684 2.388-1.088l2.268-1.18c.734-.406 1.427-.857 2.13-1.263a22.69 22.69 0 0 0 2.006-1.287c.639-.444 1.293-.84 1.888-1.281l1.727-1.303.833-.616.765-.64 1.47-1.191c.946-.756 1.732-1.523 2.508-2.131.785-.604 1.397-1.189 1.973-1.617 1.136-.868 1.968-1.245 2.362-.98z"/><path d="M56.747 12.15a1.55 1.55 0 0 1-.575 1.488 5.297 5.297 0 0 1-2.583 1.244 9.204 9.204 0 0 1-4.246-.145 10.688 10.688 0 0 1-7.505-7.208 9.202 9.202 0 0 1-.315-4.237A5.296 5.296 0 0 1 42.662.661a1.55 1.55 0 0 1 1.464-.634c.94.227 1.48 1.455 2.236 2.831a16.788 16.788 0 0 0 3.051 4.295 16.796 16.796 0 0 0 4.415 2.877c1.405.7 2.654 1.19 2.92 2.12z"/></g></svg></g></svg>