<svg xmlns="http://www.w3.org/2000/svg" viewBox="0 0 1500 1500" width="1500" height="1500"><g transform="translate(814.0 308.0) rotate(0.0 325.0 544.5) scale(0.8571251495024058 0.8587474746200299)"><svg width="758.349" height="1268.126" viewBox="0 0 758.349 1268.126"><path clip-rule="evenodd" d="M320.755 1117.565c-24.178-8.203-57.957 30.69-57.957 30.69 8.427 15.432-40.828 59.71-17.031 114.296 1.768 4.056 5.882 6.452 9.646 5.275 23.132-7.231 52.795-25.769 76.873-52.107 3.979-4.352 4.843-11.162 2.199-17.146a130.548 130.548 0 0 1-5.673-15.666c-1.081-3.645.366-7.484 3.518-8.74 3.796-1.513 8.157 1.042 9.413 5.296 1.14 3.862 2.317 7.287 3.527 10.355 1.137 2.883 4.675 3.54 6.221 1.162a171.44 171.44 0 0 0 5.877-9.73c-5.965-16.466-6.475-19.884-8.405-28.108-1.932-8.223-4.029-27.375-28.208-35.577z" fill="#f04e23" fill-rule="evenodd"/><path clip-rule="evenodd" d="M314.696 1109.621c4.642 9.484 18.487 15.724 15.206 25.188-10.807 27.303-44.994 66.889-75.439 81.19-3.154 1.482-7.02-.853-7.714-4.675-4.546-25.026 21.355-50.534 16.05-63.069z" fill="#ffb400" fill-rule="evenodd"/><path clip-rule="evenodd" d="M214.817 778.576s-56.265 73.129-47.367 181.373c-3.078 81.907 95.349 188.306 95.349 188.306s88.036 15.666 51.897-38.634c-39.055-60.499-70.407-88.259-72.231-143.371-1.824-55.113 27.853-115.563 55.476-134.504z" fill="#ffb400" fill-rule="evenodd"/><path clip-rule="evenodd" d="M457.989 921.319c3.898 25.232 53.999 37.216 53.999 37.216 9.791-14.604 71.819 8.615 109.231-37.712 2.78-3.443 3.003-8.198.221-10.992-17.102-17.173-47.249-34.912-81.733-44.095-5.699-1.517-12.137.863-16.222 5.973a130.614 130.614 0 0 1-11.271 12.27c-2.733 2.643-6.807 3.134-9.376.919-3.096-2.668-2.846-7.716.347-10.795 2.898-2.795 5.392-5.422 7.553-7.912 2.031-2.341.979-5.781-1.844-6.054a171.258 171.258 0 0 0-11.345-.715c-11.846 12.899-14.642 14.93-21.043 20.443s-22.416 16.221-18.517 41.454z" fill="#f04e23" fill-rule="evenodd"/><path d="M348.163 747.812c-58.237 83.338-73.602 257.246-7.298 292.208 50.906 26.842 95.27-20.595 172.369-81.724 8.664-10.497 43.255.685 63.348-14.911 3.068-2.382 3.353-6.889.581-9.001-26.751-20.392-77.654-32.416-106.862-29.384-9.909 1.464-8.105 15.905-15.311 25.125-49.837 40.903-61.859 56.3-73.444 48.895-27.396-17.513 20.207-153.525 33.496-173.364-18.58-17.366-38.808-30.086-66.879-57.844z" fill="#ffb400"/><path d="m13.703 149.487 73.559 19.108C73.394 221.98 66.443 272.899 80.804 299.69c14.816 26.896 33.464 47.519 63.08 61.996 31.664 15.478 45.595 20.513 82.636 17.976 6.056 19.33 23.393 74.079 25.342 85.045-62.48 4.659-111.621-13.994-152.32-35.9-38.609-20.781-57.511-44.673-76.793-75.412-11.913-22.227-27.326-68.564-21.463-104.839-1.398-29.118 2.664-61.523 12.417-99.069z" fill="#0daddd"/><ellipse cx="50.482" cy="159.041" fill="#04294f" rx="22.235" ry="38" transform="matrix(.2514 -.9679 .9679 .2514 -116.1423 167.9156)"/><path d="M14.55 192.336c.343-.328 1.291-.043 2.671.716.345.19.717.408 1.114.657l1.335.745c.953.53 1.955 1.218 3.165 1.826l1.835 1.024c.635.355 1.338.657 2.031 1.014 1.374.743 2.931 1.359 4.521 2.075.798.352 1.657.623 2.505.959l1.29.494 1.347.417c.911.264 1.807.627 2.763.841l2.878.75 2.917.583c.954.225 1.919.29 2.853.451l1.394.213 1.376.119c.909.068 1.8.2 2.672.232 1.743.051 3.412.177 4.973.109.781-.019 1.545.017 2.271-.025l2.098-.119c1.355-.018 2.556-.199 3.645-.259l1.526-.086c.465-.05.896-.085 1.289-.105 1.572-.079 2.55.079 2.715.523.165.445-.506 1.138-1.914 2.028-.352.222-.749.456-1.191.702-.446.23-.946.433-1.484.662a26.57 26.57 0 0 1-3.747 1.321l-2.243.589c-.785.191-1.615.296-2.473.445a44.429 44.429 0 0 1-5.533.545c-.98.054-1.984-.004-3.012-.013l-1.558-.04-1.58-.155c-1.06-.129-2.153-.177-3.235-.4l-3.3-.624-3.241-.88c-1.07-.272-2.075-.706-3.085-1.053l-1.488-.551-1.419-.645c-.929-.441-1.856-.828-2.714-1.304a44.452 44.452 0 0 1-4.739-2.908c-.706-.509-1.407-.965-2.03-1.48l-1.76-1.51a26.408 26.408 0 0 1-2.793-2.824c-.384-.441-.745-.842-1.046-1.244a25.32 25.32 0 0 1-.765-1.152c-.877-1.418-1.176-2.335-.834-2.663z" fill="#04294f"/><path clip-rule="evenodd" d="M96.592 90.757c-1.502 2.435-3.043 4.996-3.151 7.841s1.737 6.026 4.726 6.546c2.348.409 4.554-.86 6.656-1.851a32.193 32.193 0 0 1 24.513-.908 30.967 30.967 0 0 1 17.619 16.588c1.228 2.922 1.713 6.353-.075 8.934-4.842 6.989-11.362 2.085-16.868 2.067-11.175-.035-17.831 9.753-28.242 13.314-7.831 2.678-17.935 5.075-26.152 3.183-8.681-1.999-18.943-5.877-23.977-12.533-5.29-6.994-9.463-16.401-7.153-24.419" fill="#ffb400" fill-rule="evenodd"/><path clip-rule="evenodd" d="M81.87 122.402c12.972-10.931 20.635-27.961 23.374-45.21s.981-34.817-2.038-51.813c-1.035-5.828-2.291-11.802-5.524-16.551s-8.945-8-14.363-6.414c-5.092 1.49-8.629 6.835-9.924 12.314s-.792 11.172-.494 16.762a221.916 221.916 0 0 1-5.46 61.909c-1.211 5.211-2.623 10.513-2.204 15.81s3.139 10.697 7.831 12.316 10.914-2.331 10.663-7.646" fill="#ffb400" fill-rule="evenodd"/><path clip-rule="evenodd" d="M73.626 12.892C71.629 7.409 67.82.872 61.051.066a10.45 10.45 0 0 0-10.13 5.007c-1.82 3.114-1.997 6.815-2.144 10.411l-2.27 55.3c-.248 6.036-.067 12.973 5.509 17.518 17.352 14.145 31.618-10.099 32.01-20.845.637-17.507-4.095-37.258-10.4-54.565z" fill="#ffb400" fill-rule="evenodd"/><path clip-rule="evenodd" d="M52.717 22.952c-2.294-5.366-6.453-11.685-13.256-12.12a10.451 10.451 0 0 0-9.842 5.553c-1.647 3.209-1.622 6.914-1.573 10.512l.752 55.341c.082 6.04.642 12.957 6.457 17.191 18.098 13.177 31.02-11.809 30.824-22.56-.319-17.517-6.121-36.98-13.362-53.917z" fill="#ffb400" fill-rule="evenodd"/><path clip-rule="evenodd" d="M40.684 40.051c-2.294-5.366-6.453-11.685-13.256-12.12a10.451 10.451 0 0 0-9.842 5.553c-1.647 3.209-1.622 6.914-1.573 10.512l.752 55.341c.082 6.04.642 12.957 6.457 17.191 18.098 13.177 31.02-11.809 30.824-22.56-.32-17.517-6.122-36.98-13.362-53.917z" fill="#ffb400" fill-rule="evenodd"/><path clip-rule="evenodd" d="M17.041 104.412c2.82 23.942 10.79 31.489 58.576 42.058 15.701-20.866 9.706-43.881 9.706-43.881L78.71 73.656 54.479 64.2 33.91 88.808z" fill="#ffb400" fill-rule="evenodd"/><path clip-rule="evenodd" d="M44.812 177.568a55.604 55.604 0 0 1-16.975-7.537 5.036 5.036 0 0 1-2.206-4.573l.113-1.37 1.939-22.326 2.48-28.44 31.544 2.596 17.535 1.439 1.984.162-2.036 24.648-1.22 13.382-1.24 13.574-.312 3.809a5.45 5.45 0 0 1-2.958 4.166c-7.107 2.988-17.631 3.382-28.648.47z" fill="#ffb400" fill-rule="evenodd"/><path d="M66.568 107.031c-.249-.247-.199-.787.18-1.543a9.689 9.689 0 0 1 2.205-2.696 16.3 16.3 0 0 1 4.392-2.77 18.43 18.43 0 0 1 12.664-.733 16.288 16.288 0 0 1 4.683 2.245 9.705 9.705 0 0 1 2.502 2.423c.464.708.575 1.239.357 1.512-.464.574-2.072-.009-4.459-.662a33.622 33.622 0 0 0-4.153-.893 23.972 23.972 0 0 0-9.995.578 33.934 33.934 0 0 0-4.022 1.366c-2.298.925-3.827 1.69-4.354 1.173zm4.657-14.101c-.174.038-.394-.182-.657-.642-.36-.663-.654-1.36-.877-2.081a31.857 31.857 0 0 1-.923-3.421 46.845 46.845 0 0 1-.722-4.643c-.415-4.083-.371-8.2.129-12.274a59.735 59.735 0 0 1 1.336-7.168 77.04 77.04 0 0 1 2.314-7.361 27.396 27.396 0 0 0 1.634-6.649c.134-2.12.003-4.249-.389-6.337-.355-2.092-.836-4.134-1.25-6.098a49.473 49.473 0 0 1-.93-5.646 24.202 24.202 0 0 1-.036-4.844c.111-1.233.374-2.447.782-3.616.714-1.922 1.537-2.749 1.835-2.613.349.148.185 1.21.133 3.003-.042 2.523.255 5.04.883 7.484.37 1.574.879 3.271 1.469 5.157.584 1.887 1.24 3.946 1.77 6.242.612 2.489.871 5.052.77 7.614a29.206 29.206 0 0 1-1.798 7.982c-.884 2.509-1.691 4.715-2.308 6.983a73.798 73.798 0 0 0-1.519 6.572 79.008 79.008 0 0 0-1.183 11.432c-.057 1.647-.054 3.142-.055 4.464l.038 3.408c.011.736-.018 1.472-.084 2.205-.069.516-.188.809-.362.847zm-22.776 1.465c-.311.128-1.067-.733-1.982-2.521a26.866 26.866 0 0 1-1.435-3.365 36.69 36.69 0 0 1-1.32-4.679 44.108 44.108 0 0 1-.853-12.684 46.5 46.5 0 0 1 1.176-7.483c.61-2.587 1.536-5.109 2.327-7.547a30.011 30.011 0 0 0 1.58-6.917 32.706 32.706 0 0 0-.254-6.656c-.27-2.19-.64-4.333-.928-6.386a47.854 47.854 0 0 1-.524-5.867 20.47 20.47 0 0 1 1.412-8.587c.863-1.909 1.742-2.71 2.033-2.556.339.169.1 1.246-.098 3.084a29.73 29.73 0 0 0 .285 7.757c.249 1.641.629 3.423 1.093 5.384.459 1.966.993 4.098 1.421 6.452.5 2.539.701 5.127.598 7.713a31.716 31.716 0 0 1-1.716 8.17c-.85 2.605-1.742 4.943-2.339 7.215a51.133 51.133 0 0 0-1.341 6.703 54.696 54.696 0 0 0-.268 11.666c.118 1.675.327 3.185.511 4.518.199 1.331.381 2.487.545 3.435.301 1.902.424 3.01.077 3.151zm-16.162-.217c-.336.103-.912-.639-1.632-2.111a26.674 26.674 0 0 1-1.098-2.754c-.383-1.091-.743-2.353-1.097-3.761a69.722 69.722 0 0 1-1.614-10.021c-.365-3.793-.497-7.96-.499-12.297.029-8.653.37-16.444.862-22.1.496-5.652 1.158-9.145 1.87-9.142s1.337 3.504 1.774 9.16c.44 5.651.677 13.481.647 22.084.002 4.289-.01 8.345.086 12.014.086 3.67.258 6.959.472 9.723l.317 3.736c.078 1.109.194 2.056.222 2.853.11 1.577.034 2.511-.31 2.616zm54.916-46.009a2.657 2.657 0 0 1 1.51-1.705 13.882 13.882 0 0 1 5.836-1.533 2.658 2.658 0 0 1 2.153.743 2.01 2.01 0 0 1-.294 2.391 6.785 6.785 0 0 1-7.774 2.042c-1.043-.494-1.538-1.244-1.431-1.938zm-30.914 2.79c.134-.708.879-1.208 1.835-1.631a35.137 35.137 0 0 1 7.044-1.905 2.75 2.75 0 0 1 2.407.483c.459.526.359 1.507-.435 2.581a8.322 8.322 0 0 1-9.174 2.482c-1.227-.528-1.809-1.324-1.677-2.01zm-20.681-.104c-.562-1.307.328-2.945 1.988-3.658 1.659-.713 3.46-.232 4.022 1.075.562 1.308-.328 2.946-1.988 3.659-1.659.713-3.46.232-4.022-1.076zm76.348 67.152c.721.022 1.328.723 1.9 1.671a49.287 49.287 0 0 1 3.155 7.164c.313 1.063.42 1.983-.05 2.53-.453.531-1.47.547-2.692-.13a9 9 0 0 1-4.035-9.161c.325-1.359 1.024-2.098 1.722-2.074zm-2.925 11.441a4.06 4.06 0 0 1 1.897-.419 1.943 1.943 0 0 1 2.196 1.567c.228.616.304 1.278.22 1.93a1.909 1.909 0 0 1-1.333 1.54 3.226 3.226 0 0 1-4.002-2.856 1.91 1.91 0 0 1 1.022-1.762zm-36.854 15.21c-.074.346-.726.54-1.882.568a14.322 14.322 0 0 1-2.067-.189l-1.272-.248a851.1 851.1 0 0 0-1.4-.388 25.703 25.703 0 0 1-3.116-1.209 29.3 29.3 0 0 1-3.372-1.867 29.715 29.715 0 0 1-3.396-2.599 29.14 29.14 0 0 1-3.204-3.312l-.803-1.022c-.136-.167-.256-.345-.378-.521-.115-.164-.29-.416-.236-.346a.186.186 0 0 0 .004-.078c-.136.022.418-.265-1.255.484a15.332 15.332 0 0 1-3.472.954c-1.944.32-3.933.245-5.848-.221a10.674 10.674 0 0 1-2.069-.719 7.627 7.627 0 0 1-1.41-.825 3.17 3.17 0 0 1-.749-.749c-.144-.217-.184-.396-.12-.536.064-.139.228-.234.474-.291a5.16 5.16 0 0 1 .977-.072l1.425.013c.543.007 1.154.007 1.821-.04a17.808 17.808 0 0 0 4.536-.819 14.458 14.458 0 0 0 2.472-1.033c.209-.102.413-.216.61-.341a9.423 9.423 0 0 0 1.153-.752c.952-.679 1.905-1.39 2.877-2.117l1.23 1.893c.42.633.827 1.318 1.28 1.951l.446.616c.106.146.209.295.327.435l.687.861a38.972 38.972 0 0 0 5.397 5.333 48.96 48.96 0 0 0 2.694 1.996 56.47 56.47 0 0 0 2.487 1.598l1.121.669 1.022.578c.638.377 1.207.672 1.659.979.923.549 1.425 1.018 1.35 1.366zm68.427-19.133a2.462 2.462 0 0 1 .858 2.587c-.403.925-1.563 1.192-2.561 1.341-.99.196-2.004.25-3.009.159a3.576 3.576 0 0 1-2.545-1.454 2.961 2.961 0 0 1 .452-3.579c1.894-1.896 5.154-.649 6.805.946z" fill="#f04e23"/><path d="M201.889 663.103c-31.551 64.903-66.949 130.221-63.576 307.672.257 13.51 8.908 25.418 21.671 29.858 69.283 24.102 153.183 40.743 246.424.37 9.549-4.135 16.023-13.199 16.955-23.563 5.541-61.661-4.184-175.797-9.054-199.386-5.496-26.62-16.01-77.385-16.01-77.385s-108.849-45.015-196.41-37.566z" fill="#04294f"/><path d="m730.058 266.228-75.957-2.564c-1.861 55.126-9.654 105.923-31.03 127.534-21.843 21.583-45.578 36.062-78.086 41.534-34.756 5.851-49.543 6.723-84.339-6.227-11.295 16.815-43.464 64.389-48.446 74.349 58.586 22.207 111.001 18.274 156.244 8.826 42.921-8.964 67.829-26.506 95.044-50.504 17.734-17.929 45.669-57.984 50.347-94.43 9.609-27.523 14.915-59.748 16.223-98.518z" fill="#0daddd"/><ellipse cx="692.08" cy="264.946" fill="#04294f" rx="22.235" ry="38" transform="matrix(.0337 -.9994 .9994 .0337 403.9348 947.6933)"/><path d="M717.08 307.073c-.235-.412-1.226-.408-2.764-.072-.385.084-.803.188-1.254.313l-1.491.335c-1.064.237-2.22.612-3.553.852l-2.05.46c-.71.16-1.469.25-2.236.396-1.529.322-3.196.471-4.924.706-.866.111-1.766.127-2.674.208l-1.377.107-1.41.018c-.949-.006-1.911.088-2.889.022l-2.972-.098-2.962-.269c-.979-.055-1.922-.267-2.864-.378l-1.397-.192-1.354-.276c-.891-.193-1.783-.32-2.628-.537-1.686-.446-3.322-.799-4.799-1.307-.743-.24-1.486-.422-2.17-.669l-1.978-.71c-1.294-.402-2.394-.917-3.421-1.284l-1.438-.516a23.45 23.45 0 0 0-1.206-.466c-1.485-.522-2.468-.649-2.752-.269s.162 1.235 1.259 2.488c.274.313.589.65.943 1.011.362.347.784.684 1.235 1.056a26.474 26.474 0 0 0 3.218 2.33l1.984 1.202c.698.406 1.464.742 2.244 1.129a44.478 44.478 0 0 0 5.151 2.094c.924.33 1.903.559 2.891.843l1.505.404 1.559.3c1.053.177 2.115.441 3.216.535l3.342.339 3.358.076c1.104.043 2.19-.088 3.257-.134l1.584-.106 1.544-.215c1.016-.16 2.015-.267 2.973-.48a44.288 44.288 0 0 0 5.369-1.443c.822-.287 1.624-.526 2.367-.843l2.116-.949c1.206-.55 2.37-1.19 3.48-1.915.493-.314.954-.596 1.356-.896.396-.314.749-.61 1.061-.888 1.238-1.106 1.786-1.9 1.551-2.312z" fill="#04294f"/><path clip-rule="evenodd" d="M666.714 185.853c.801 2.746 1.607 5.625.955 8.396-.652 2.772-3.275 5.348-6.295 5.055-2.372-.23-4.162-2.039-5.925-3.553a32.194 32.194 0 0 0-23.392-7.387 30.968 30.968 0 0 0-21.392 11.311c-1.96 2.491-3.339 5.67-2.301 8.633 2.811 8.024 10.4 5.028 15.712 6.474 10.782 2.935 14.599 14.14 23.691 20.338 6.838 4.662 15.943 9.657 24.367 10.016 8.9.379 19.823-.634 26.445-5.713 6.957-5.337 13.48-13.298 13.383-21.642" fill="#ffb400" fill-rule="evenodd"/><path clip-rule="evenodd" d="M672.501 220.272c-9.603-13.984-12.465-32.438-10.524-49.795s8.303-33.826 15.729-49.41c2.546-5.343 5.344-10.769 9.722-14.489s10.749-5.336 15.55-2.369c4.513 2.79 6.503 8.881 6.296 14.508s-2.204 10.982-3.977 16.292a221.967 221.967 0 0 0-11.182 61.135c-.216 5.346-.264 10.832-2.075 15.827s-5.868 9.478-10.821 9.793c-4.953.314-9.903-5.147-8.249-10.204" fill="#ffb400" fill-rule="evenodd"/><path clip-rule="evenodd" d="M709.539 116.886c3.382-4.755 8.79-10.046 15.53-9.024a10.452 10.452 0 0 1 8.436 7.518c.927 3.486.114 7.1-.698 10.606l-12.502 53.916c-1.365 5.885-3.382 12.525-9.964 15.425-20.486 9.027-27.8-18.135-25.322-28.599 4.036-17.047 13.844-34.832 24.52-49.842z" fill="#ffb400" fill-rule="evenodd"/><path clip-rule="evenodd" d="M727.025 132.14c3.637-4.564 9.325-9.551 16-8.163a10.45 10.45 0 0 1 8.013 7.968c.735 3.531-.273 7.096-1.276 10.552l-15.426 53.153c-1.684 5.802-4.061 12.321-10.791 14.858-20.948 7.896-26.768-19.626-23.724-29.938 4.96-16.803 15.724-34.025 27.204-48.43z" fill="#ffb400" fill-rule="evenodd"/><path clip-rule="evenodd" d="M734.084 151.821c3.637-4.564 9.325-9.551 16-8.163a10.45 10.45 0 0 1 8.013 7.968c.735 3.531-.273 7.096-1.276 10.552l-15.426 53.153c-1.684 5.802-4.061 12.321-10.791 14.858-20.948 7.896-26.768-19.626-23.724-29.938 4.96-16.803 15.724-34.025 27.204-48.43z" fill="#ffb400" fill-rule="evenodd"/><path clip-rule="evenodd" d="M739.779 220.15c-9.079 22.333-18.767 27.491-67.644 24.987-9.593-24.287 2.3-44.882 2.3-44.882l14.062-26.138 25.872-2.68 13.293 29.189z" fill="#ffb400" fill-rule="evenodd"/><path clip-rule="evenodd" d="M693.573 283.3a55.622 55.622 0 0 0 18.368-2.757 5.037 5.037 0 0 0 3.341-3.822l.255-1.351 4.061-22.039 5.164-28.077-31.1-5.876-17.287-3.271-1.956-.371-4.585 24.303-2.379 13.226-2.411 13.415-.711 3.756a5.452 5.452 0 0 0 1.745 4.802c6.059 4.768 16.1 7.943 27.495 8.062z" fill="#ffb400" fill-rule="evenodd"/><path d="M691.336 209.519c.306-.172.401-.706.237-1.536a9.709 9.709 0 0 0-1.41-3.185 16.284 16.284 0 0 0-3.499-3.838 18.432 18.432 0 0 0-12.015-4.071 16.249 16.249 0 0 0-5.111.921 9.707 9.707 0 0 0-3.055 1.671c-.635.559-.884 1.042-.746 1.363.295.677 2 .541 4.475.546a33.773 33.773 0 0 1 4.241.243 23.958 23.958 0 0 1 9.483 3.213 33.821 33.821 0 0 1 3.515 2.386c1.969 1.501 3.239 2.645 3.885 2.287zm-.744-14.833c.157.083.429-.071.804-.444.523-.544.992-1.137 1.398-1.773a32.222 32.222 0 0 0 1.799-3.053 47.086 47.086 0 0 0 1.93-4.284 55.09 55.09 0 0 0 3.136-11.867c.353-2.407.559-4.833.616-7.265a76.921 76.921 0 0 0-.276-7.711c-.223-2.28-.159-4.58.191-6.844a25.57 25.57 0 0 1 2.058-6.006c.898-1.922 1.904-3.763 2.825-5.547a49.715 49.715 0 0 0 2.397-5.196 24.194 24.194 0 0 0 1.321-4.661c.22-1.218.29-2.459.207-3.694-.177-2.043-.751-3.058-1.075-3.007-.376.05-.5 1.117-.926 2.86a28.22 28.22 0 0 1-2.839 6.98c-.775 1.419-1.716 2.92-2.786 4.581-1.064 1.664-2.244 3.474-3.365 5.548a27.377 27.377 0 0 0-2.765 7.135 29.207 29.207 0 0 0-.387 8.173c.186 2.653.377 4.994.37 7.346a73.364 73.364 0 0 1-.282 6.739 79.054 79.054 0 0 1-1.896 11.335c-.383 1.603-.783 3.044-1.133 4.318l-.942 3.275a20.79 20.79 0 0 0-.504 2.148c-.07.518-.034.832.124.914zm21.569 7.463c.266.206 1.224-.423 2.581-1.904a26.96 26.96 0 0 0 2.278-2.863 36.94 36.94 0 0 0 2.516-4.16 44.078 44.078 0 0 0 4.192-12.002 46.54 46.54 0 0 0 .854-7.527c.1-2.656-.123-5.334-.239-7.894a30.039 30.039 0 0 1 .314-7.088 32.624 32.624 0 0 1 2.013-6.349c.842-2.04 1.768-4.007 2.591-5.91.8-1.795 1.49-3.638 2.063-5.517a20.475 20.475 0 0 0 .92-8.653c-.325-2.07-.96-3.075-1.281-3.004-.371.073-.427 1.174-.725 2.999a29.776 29.776 0 0 1-2.335 7.403c-.676 1.516-1.516 3.133-2.484 4.9-.964 1.774-2.046 3.687-3.084 5.843a33.148 33.148 0 0 0-2.625 7.277 31.726 31.726 0 0 0-.516 8.332c.127 2.737.367 5.228.339 7.577a51.181 51.181 0 0 1-.487 6.819 54.654 54.654 0 0 1-2.841 11.318c-.559 1.583-1.161 2.984-1.693 4.22a154.199 154.199 0 0 1-1.438 3.166c-.797 1.754-1.21 2.79-.913 3.017zm15.638 4.084c.297.189 1.049-.373 2.135-1.602a26.845 26.845 0 0 0 1.79-2.363c.659-.95 1.341-2.072 2.057-3.335a69.666 69.666 0 0 0 4.218-9.232c1.36-3.56 2.594-7.542 3.748-11.723 2.27-8.35 4.012-15.951 5.04-21.535 1.023-5.58 1.313-9.124.626-9.31-.687-.185-2.22 3.023-4.143 8.36-1.926 5.331-4.234 12.817-6.49 21.118-1.141 4.134-2.207 8.048-3.274 11.56a184.662 184.662 0 0 1-3.037 9.248l-1.298 3.517c-.37 1.048-.733 1.931-.972 2.692-.527 1.492-.703 2.413-.4 2.605zm-40.72-58.943a2.662 2.662 0 0 0-1.003-2.045 13.88 13.88 0 0 0-5.219-3.028 2.662 2.662 0 0 0-2.273.144 2.01 2.01 0 0 0-.352 2.383 6.786 6.786 0 0 0 6.952 4.034c1.137-.2 1.814-.791 1.895-1.488zm29.062 10.901c.059-.719-.527-1.398-1.336-2.06a35.167 35.167 0 0 0-6.285-3.708 2.751 2.751 0 0 0-2.449-.174c-.583.385-.746 1.357-.266 2.604a8.323 8.323 0 0 0 8.185 4.83c1.324-.183 2.096-.796 2.151-1.492zm19.966 5.394c.889-1.111.466-2.926-.944-4.055s-3.274-1.143-4.163-.032-.466 2.927.944 4.056c1.41 1.128 3.274 1.142 4.163.031zm-91.443 44.458c-.701-.17-1.472.344-2.276 1.106a49.446 49.446 0 0 0-4.945 6.068c-.584.941-.932 1.8-.624 2.452.296.632 1.272.918 2.63.59a8.996 8.996 0 0 0 6.323-7.76c.048-1.396-.429-2.294-1.108-2.456zm-.22 11.807a4.075 4.075 0 0 0-1.717-.908 1.942 1.942 0 0 0-2.533.928 4.057 4.057 0 0 0-.725 1.802c-.087.73.254 1.446.876 1.838a3.225 3.225 0 0 0 4.617-1.69 1.911 1.911 0 0 0-.518-1.97zm31.489 24.454c-.02.354.556.714 1.663 1.048.671.172 1.354.294 2.043.367l1.292.099 1.453-.002a25.569 25.569 0 0 0 3.325-.338 29.41 29.41 0 0 0 3.747-.904 29.833 29.833 0 0 0 7.934-3.945l1.046-.772c.175-.125.338-.265.503-.402.154-.128.39-.324.32-.271a.2.2 0 0 1 .016-.076c.125.057-.333-.366 1.081.8a15.405 15.405 0 0 0 3.094 1.843 14.676 14.676 0 0 0 5.697 1.341 10.67 10.67 0 0 0 2.186-.144 7.548 7.548 0 0 0 1.578-.421c.334-.122.646-.299.921-.524.197-.171.283-.333.258-.485-.024-.151-.157-.286-.38-.406a5.095 5.095 0 0 0-.923-.329l-1.378-.367c-.525-.138-1.114-.3-1.745-.523a17.804 17.804 0 0 1-4.155-1.995 14.394 14.394 0 0 1-2.109-1.653 6.06 6.06 0 0 1-.497-.491 9.495 9.495 0 0 1-.912-1.031 151.438 151.438 0 0 1-2.211-2.806l-1.689 1.498c-.573.498-1.147 1.051-1.753 1.541l-.593.475c-.141.112-.28.229-.431.332l-.891.648a39.025 39.025 0 0 1-6.62 3.708 49.252 49.252 0 0 1-3.127 1.209c-.999.344-1.946.628-2.822.88l-1.259.347-1.139.286c-.715.194-1.342.327-1.859.503-1.035.285-1.644.604-1.664.96zm-60.886-36.624a2.464 2.464 0 0 0-1.515 2.266c.143.999 1.191 1.564 2.113 1.973.903.452 1.865.773 2.859.953a3.574 3.574 0 0 0 2.84-.726 2.96 2.96 0 0 0 .515-3.571c-1.323-2.33-4.796-1.994-6.812-.895z" fill="#f04e23"/><path clip-rule="evenodd" d="M223.218 380.428c44.37-2.612 74.47 2.727 136.34 16.697 52.641 9.661 90.383 21.447 114.383 34.747-19.433 52.002-51.19 162.076-71.16 262.418-1.385 6.958-4.644 7.421-11.723 7.896-82.789 5.55-160.541-12.381-195.974-37.597-5.707-7.448-5.707-7.448-7.306-14.248-2.37-10.078 4.175-15.26 9.404-28.466-3.013-23.065-5.914-91.753-9.929-117.207 2.213-34.498 24.789-87.079 35.965-124.24z" fill="#0daddd" fill-rule="evenodd"/><path clip-rule="evenodd" d="M310.241 384.21c-15.952 5.079-51.907 37.021-40.433 102.904 3.852 12.874 15.07 15.791 32.76 15.005 33.173-4.953 74.101-21.359 84.904-81.742 4.84-49.04-61.279-41.246-77.231-36.167z" fill="#ffb400" fill-rule="evenodd"/><path d="M397.575 419.77c.235.03.306 1.132.224 3.214-.05 1.04-.101 2.331-.257 3.845-.178 1.51-.403 3.253-.673 5.217-.311 1.955-.747 4.116-1.202 6.491-.286 1.175-.583 2.401-.894 3.675l-.482 1.95-.596 1.998c-1.57 5.435-3.802 11.542-7.097 17.936a91.778 91.778 0 0 1-13.429 19.34c-2.905 3.11-6.082 6.176-9.605 9.039a101.645 101.645 0 0 1-11.475 7.967c-8.205 4.913-17.487 8.795-27.313 11.832-4.916 1.518-9.975 2.824-15.125 3.974-1.287.295-2.581.566-3.88.835l-.975.204-.289.061c-.141.03-.318.07-.474.075l-.588.051-2.035.164a93.573 93.573 0 0 1-8.267.233c-5.569-.1-11.159-.744-16.578-2.407-2.698-.865-5.359-1.973-7.833-3.516-1.242-.758-2.416-1.652-3.534-2.611-1.09-.999-2.135-2.058-3.027-3.25-1.814-2.354-3.101-5.087-3.845-7.849-.379-1.452-.562-2.627-.794-3.86l-.673-3.662a303.47 303.47 0 0 1-1.058-7.259c-.233-2.411-.567-4.78-.7-7.144-1.492-18.869 1.067-36.232 6.338-49.637.604-1.694 1.361-3.286 2.019-4.863.755-1.538 1.425-3.063 2.218-4.479 1.486-2.88 3.13-5.463 4.723-7.828 3.254-4.694 6.55-8.371 9.516-11.072 5.904-5.48 10.344-6.986 10.497-6.538.215.429-3.511 2.603-8.589 8.413-2.55 2.865-5.396 6.617-8.192 11.274-1.365 2.348-2.778 4.885-4.04 7.693-.68 1.378-1.239 2.863-1.884 4.35-.549 1.53-1.198 3.063-1.697 4.697-4.421 12.912-6.362 29.39-4.6 47.452.167 2.26.533 4.536.791 6.844.347 2.3.718 4.625 1.123 6.968l.697 3.522c.232 1.173.46 2.428.724 3.368.571 2.002 1.479 3.867 2.757 5.497 2.522 3.298 6.575 5.559 11.094 6.962 4.555 1.379 9.564 1.98 14.675 2.065a88.969 88.969 0 0 0 7.663-.208l1.906-.149.395-.033.206-.042.953-.196c1.27-.259 2.535-.518 3.787-.8 5.018-1.096 9.911-2.325 14.643-3.74 9.457-2.83 18.292-6.392 26.083-10.862a99.249 99.249 0 0 0 10.91-7.233c3.357-2.597 6.399-5.38 9.207-8.208a91.733 91.733 0 0 0 13.309-17.755c3.398-5.931 5.855-11.667 7.716-16.816l.708-1.892.6-1.854 1.144-3.5 1.754-6.215a275.48 275.48 0 0 1 1.278-5.016c.365-1.457.631-2.702.901-3.7.517-2 .905-3.042 1.141-3.012zm-26.746 170.027c.068.467-.994 1.083-2.995 1.77-2 .687-4.941 1.434-8.646 2.081a89.705 89.705 0 0 1-6.107.839c-2.214.205-4.592.386-7.114.412-2.52.025-5.179-.022-7.937-.291a68.948 68.948 0 0 1-8.5-1.318 58.458 58.458 0 0 1-8.3-2.57c-2.621-1.017-5.043-2.266-7.279-3.561-2.231-1.312-4.23-2.763-6.013-4.22-1.761-1.488-3.304-2.986-4.579-4.473a32.438 32.438 0 0 1-3.136-4.231c-.395-.669-.765-1.283-1.068-1.87a41.982 41.982 0 0 1-.744-1.653 9.787 9.787 0 0 1-.701-2.426c-.08-.589-.017-.945.193-1.056s.557.029 1.017.382c.478.343.996.945 1.739 1.65.363.358.752.76 1.164 1.203l1.407 1.379c1.01.976 2.18 2.05 3.532 3.155 1.341 1.115 2.884 2.24 4.58 3.371 1.721 1.102 3.592 2.217 5.649 3.236 2.063 1.002 4.259 1.998 6.622 2.819a68.204 68.204 0 0 0 7.426 2.162 87.064 87.064 0 0 0 7.712 1.329c2.519.335 4.982.508 7.337.653 2.356.145 4.615.18 6.736.226l5.933.013c3.646-.018 6.63-.022 8.719.108s3.284.409 3.353.881z" fill="#04294f"/><path clip-rule="evenodd" d="m302.26 390.577 6.727-29.357c-23.117-8.676-70.268-49.413-59.652-95.742s16.531-94.892 20.151-105.994C305.087 50.294 581.54 75.247 412.64 324.74c-8.855 14.988-21.531 58.735-28.819 91.76-3.124 14.157-28.395 20.169-52.434 11.305-22.275-8.213-32.07-24.385-29.127-37.228z" fill="#ffb400" fill-rule="evenodd"/><g fill="#0daddd"><path d="M387.725 718.469c.1.215-.425.667-1.572 1.35-.568.374-1.315.656-2.202 1.024-.444.177-.925.375-1.445.562l-1.67.507c-4.739 1.416-11.753 2.625-20.439 3.359-17.372 1.431-41.464 1.09-67.789-2.26-13.153-1.727-25.614-4.026-36.793-6.87-11.175-2.857-21.07-6.229-29.078-9.842-8.021-3.584-14.091-7.488-17.865-10.68-.936-.812-1.786-1.496-2.452-2.18a40.604 40.604 0 0 1-1.6-1.814c-.828-1.01-1.172-1.614-1.008-1.785s.829.097 1.923.745c.547.325 1.202.745 1.956 1.254.769.491 1.716.984 2.725 1.596 4.075 2.394 10.191 5.473 18.163 8.368 7.956 2.92 17.704 5.721 28.704 8.179 11.005 2.445 23.265 4.514 36.204 6.214 25.902 3.297 49.601 4.395 66.68 4.221 8.539-.105 15.421-.555 20.122-1.124l1.671-.188 1.444-.232c.896-.147 1.687-.212 2.282-.359 1.22-.232 1.939-.26 2.039-.045zm1.297 24.547c-1.862.365-3.654-.609-4-2.174-.347-1.565.864-3.213 2.703-3.68s3.63.506 4 2.174-.841 3.316-2.703 3.68zm3.897 24.647c-1.881.243-3.797-2.305-4.278-5.691s.649-6.369 2.523-6.663c1.875-.294 3.79 2.253 4.278 5.691s-.641 6.42-2.523 6.663zm2.858 24.792c-1.888.19-3.717-2.422-4.085-5.833-.368-3.412.861-6.354 2.746-6.573 1.884-.219 3.714 2.393 4.085 5.833s-.858 6.383-2.746 6.573zm2.259 24.855c-1.892.151-3.662-2.501-3.955-5.924s1.001-6.338 2.89-6.511c1.89-.173 3.66 2.479 3.955 5.924s-.999 6.36-2.89 6.511zm1.773 24.894c-1.894.115-3.614-2.569-3.842-5.997s1.121-6.317 3.014-6.453 3.612 2.549 3.842 5.997c.228 3.448-1.121 6.337-3.014 6.453zm1.309 24.919c-1.896.08-3.565-2.636-3.729-6.067-.165-3.431 1.238-6.294 3.133-6.396s3.564 2.615 3.729 6.068c.166 3.451-1.237 6.315-3.133 6.395zm.819 24.949c-1.897.04-3.512-2.711-3.606-6.145-.095-3.434 1.366-6.269 3.262-6.334 1.896-.064 3.511 2.687 3.606 6.145s-1.365 6.294-3.262 6.334zm.252 24.959c-1.897-.008-3.446-2.796-3.459-6.228-.013-3.431 1.514-6.231 3.412-6.253 1.897-.022 3.446 2.766 3.459 6.227s-1.515 6.262-3.412 6.254zm-.462 24.956c-1.896-.071-3.359-2.906-3.268-6.331s1.704-6.177 3.601-6.146 3.36 2.865 3.268 6.331c-.094 3.465-1.705 6.217-3.601 6.146zm-1.455 24.917c-1.89-.165-3.228-3.061-2.988-6.469s1.971-6.085 3.866-5.981 3.232 3 2.988 6.469c-.245 3.467-1.976 6.145-3.866 5.981zm-2.056 18.392c-1.877-.274-3.227-1.807-3.013-3.423s1.915-2.745 3.798-2.52c1.884.225 3.233 1.757 3.013 3.423s-1.921 2.794-3.798 2.52z"/></g><path d="M354.714 367.932c.196.431-.172 1.05-1.122 1.834-.473.426-1.097.724-1.847 1.104-.753.397-1.628.687-2.612.98-.991.332-2.07.508-3.247.724-1.176.207-2.422.287-3.748.394-1.309.02-2.703.096-4.12-.004l-2.169-.131-2.217-.257c-1.496-.184-2.939-.473-4.329-.764-1.384-.334-2.715-.653-3.962-1.078-1.251-.38-2.424-.843-3.506-1.303-1.084-.439-2.07-.998-2.954-1.465-.88-.542-1.652-1.052-2.3-1.565-.643-.559-1.164-1.049-1.545-1.516-.747-1.03-.934-1.727-.627-2.086.307-.36 1.071-.378 2.046-.181.525.072 1.157.174 1.828.339.706.133 1.512.286 2.369.484.905.14 1.834.382 2.888.553 1.043.189 2.145.411 3.329.595 1.166.226 2.415.388 3.692.609 1.287.178 2.616.399 3.981.566l2.021.27 1.963.217c1.29.182 2.523.234 3.709.386 1.171.065 2.304.199 3.344.247 1.037.039 2.032.153 2.905.15.888.034 1.709.099 2.405.09.703.007 1.367.104 1.866.102 1.033.057 1.763.275 1.959.706z" fill="#f04e23"/></svg></g><g transform="translate(731.0 442.0) rotate(0.0 -99.5 73.0) scale(-4.188591875394654 4.1092034900084435)"><svg width="47.51" height="35.53" viewBox="0 0 47.51 35.53"><path d="M22.5 20.91c0 3.35-4.2 6.06-9.37 6.06s-9.38-2.71-9.38-6.06c0-2.05 1.57-3.86 4-4.95a11.73 11.73 0 0 1 2.92-.9 14.2 14.2 0 0 1 5 0 11.65 11.65 0 0 1 2.91.9c2.35 1.09 3.92 2.9 3.92 4.95z" fill="#FFF"/><rect fill="#0DADDD" height="15.24" rx="4.62" width="26.25" y="20.29"/><rect fill="#0DADDD" height="15.24" rx="4.62" transform="matrix(.5 -.8660254 .8660254 .5 6.34 37.96)" width="26.25" x="22.92" y="5.87"/><path d="M18.63 14.84a5.91 5.91 0 0 1-.1 1.12 11.65 11.65 0 0 0-2.91-.9 1.62 1.62 0 0 0 0-.22c0-1.69-1.15-3.12-2.5-3.12s-2.5 1.43-2.5 3.12a1.62 1.62 0 0 0 0 .22 11.73 11.73 0 0 0-2.92.9 6.86 6.86 0 0 1-.09-1.12c0-3.38 2.46-6.12 5.5-6.12s5.52 2.74 5.52 6.12z" fill="#F9B71B"/><rect fill="#F04E23" height="4.06" rx="1.37" transform="matrix(.70710678 .70710678 -.70710678 .70710678 8.95 -7.17)" width="4.06" x="11.1" y="5.2"/></svg></g><g transform="translate(48.0 252.0) rotate(0.0 354.5 586.0) scale(0.9549233098261475 0.9570487621243869)"><svg width="742.468" height="1224.598" viewBox="0 0 742.468 1224.598"><path clip-rule="evenodd" d="M301.025 293.718V263.6c28.474-3.647 79.529-13.882 79.529-80 0-47.529 5.241-112.434 4.427-123.342C381.912-17.621 121.955-62.2 206.247 199.994c8.389 16.705 9.759 66.958 9.488 100.776-.117 14.497 23.173 26.001 48.585 22.731 23.545-3.03 36.705-16.606 36.705-29.783zm382.649 81.685c13.275.409 23.081 8.749 30.768 19.073 4.932 6.623 13.713 18.426 22.966 11.506 13.053-9.763-2.315-33.767-10.532-40.812-10.304-8.835-23.302-15.388-36.334-19.1-17.756-5.057-36.608-6.045-54.9-3.898-12.588 1.478-26.232 6.637-35.679 16.206-3.064 3.103-5.263 7.268-5.211 11.629.108 9.054 9.043 9.285 12.908 15.66 1.677 2.766 1.55 6.306 3.042 9.177 2.592 4.99 8.962 6.372 14.523 7.203 5.869.877 15.042 2.838 20.588-.237 3.853-2.136 4.502-7.941 7.143-11.488a37.557 37.557 0 0 1 29.659-14.935c.355-.001.708.005 1.059.016z" fill="#ffb400" fill-rule="evenodd"/><path clip-rule="evenodd" d="M600.177 332.975a47.56 47.56 0 0 0-32.146-4.718 18.775 18.775 0 0 0-7.724 3.139c-2.221 1.71-3.831 4.418-3.613 7.213.363 4.657 5.281 7.518 9.792 8.731s9.548 1.783 12.862 5.076c4.234 4.206 3.932 11.05 6.21 16.566 2.523 6.11 8.821 14.816 14.408 18.35 3.862 2.443 10.227 2.887 14.784 2.544 13.547-1.02 12.675-22.002 8.88-31.9-3.783-9.861-14.425-20.094-23.453-25.001zm110.438 57.494c1.642 3.019 2.961 6.355 2.802 9.788s-2.102 6.959-5.333 8.132c-4.565 1.658-9.269-1.692-13.125-4.645a139.635 139.635 0 0 0-36.316-20.034c-4.206-1.558-9.299-3.961-9.353-8.446-.049-4.106 4.33-6.755 8.274-7.897 19.839-5.742 43.328 5.227 53.051 23.102z" fill="#ffb400" fill-rule="evenodd"/><path clip-rule="evenodd" d="M681.392 389.102c2.381 3.713 4.785 7.653 5.233 12.274s-1.724 10.088-5.85 11.647c-2.996 1.132-6.242-.05-8.597-2.093s-4.026-4.852-5.832-7.482a66.22 66.22 0 0 0-20.272-19.25c-4.936-2.978-11.635-7.064-8.897-14.697 1.987-5.539 8.864-10.015 14.015-9.624 12.824.974 23.771 19.197 30.2 29.225z" fill="#ffb400" fill-rule="evenodd"/><path d="M659.565 382.363a.85.85 0 0 0 .789.002 8.524 8.524 0 0 0 1.338-.677c.538-.317 1.161-.719 1.887-1.16a52.11 52.11 0 0 1 2.452-1.438 41.215 41.215 0 0 1 3.019-1.506c1.167-.51 2.36-.957 3.574-1.339a29.827 29.827 0 0 1 8.451-1.378c1.476-.003 2.95.1 4.411.31 1.375.201 2.734.497 4.068.885 1.222.356 2.424.777 3.602 1.262 1.104.476 2.133.95 3.052 1.44.926.479 1.751.955 2.482 1.384.735.426 1.368.813 1.912 1.119.431.255.883.472 1.352.648.36.113.63.113.789-.02.159-.132.2-.391.125-.771a5.21 5.21 0 0 0-.586-1.477 13.048 13.048 0 0 0-1.382-2.02 19.596 19.596 0 0 0-2.257-2.334 24.706 24.706 0 0 0-3.175-2.371 27.145 27.145 0 0 0-4.084-2.073 26.827 26.827 0 0 0-4.885-1.458 26.248 26.248 0 0 0-10.965.119 26.834 26.834 0 0 0-4.852 1.563 27.136 27.136 0 0 0-4.038 2.161 24.69 24.69 0 0 0-3.122 2.439 19.59 19.59 0 0 0-2.206 2.383c-.509.64-.957 1.326-1.338 2.049-.26.465-.446.968-.554 1.489-.067.382-.021.64.141.769zm8.353 1.328c-.834 1.43 2.251 4.782 6.889 7.486 4.639 2.704 9.075 3.736 9.909 2.306s-2.251-4.782-6.889-7.486-9.075-3.736-9.909-2.306zm43.564 2.805a2.45 2.45 0 0 0 2.078-.556 27.989 27.989 0 0 0 2.547-1.923 27.727 27.727 0 0 0 2.394-2.111c.631-.662 1.08-1.307.96-1.925-.114-.598-.857-1.057-2.049-1.063a5.823 5.823 0 0 0-2.001.379c-.375.14-.738.311-1.085.51a7.512 7.512 0 0 0-1.987 1.622 7.23 7.23 0 0 0-.717.961 5.807 5.807 0 0 0-.771 1.885c-.233 1.171.068 1.991.631 2.221z" fill="#f04e23"/><path d="M683.284 386.61c.777.968 2.936.526 4.821-.987 1.885-1.514 2.783-3.525 2.006-4.494-.777-.968-2.936-.526-4.821.987-1.885 1.514-2.783 3.526-2.006 4.494zm-104.549-36.096c.911.844 3.175-.117 5.058-2.147s2.672-4.361 1.761-5.205c-.91-.844-3.175.117-5.058 2.147s-2.672 4.361-1.761 5.205zM726.08 393.2c-1.327-1.03-3.302-1.492-4.672-.52-1.303.923-1.578 2.787-1.231 4.346a6.149 6.149 0 0 0 3.21 4.262c6.221 2.914 6.299-5.292 2.693-8.088zm-24.353 2.093c-1.563-1.21-4.106-1.398-5.35.138a3.938 3.938 0 0 0 .018 4.418 11.55 11.55 0 0 0 3.427 3.181c1.03.722 2.186 1.479 3.436 1.338a2.667 2.667 0 0 0 2.188-1.796c.661-2.07-2.193-6.098-3.719-7.279zm-26.134 4.985c-1.05-1.166-2.872-2.031-4.143-1.111a2.697 2.697 0 0 0-.981 2.205c.045.836.223 1.659.525 2.439.318 1.189.84 2.313 1.542 3.323 1.34 1.706 4.436 2.279 5.327-.176.712-1.962-1.025-5.298-2.27-6.68zm-106.708-61.979c-1.554-.147-3.328.77-3.558 2.314a3.147 3.147 0 0 0 1.181 2.72 9.304 9.304 0 0 0 2.71 1.46 8.26 8.26 0 0 0 3.095.798 2.803 2.803 0 0 0 2.616-1.537c1.22-3.018-3.761-5.539-6.044-5.755zm-160.53-38.726c11.015 7.72 18.139 14.474 22.839 20.476 18.29 23.36 22.724 57.796 35.043 85.546 21.67 48.83 36.521 78.48 59.9 78.48 27.15 0 42.83-9.49 52.42-31.73 9.36-21.71 9.35-48.46 9.34-58.53v-.68c0-4.43 17.02-8.03 38-8.03 20.99 0 38 3.6 38 8.03v.65c.01 14.36.02 52.52-15.55 88.65-21.59 50.07-64.99 77.64-122.21 77.64-34.41 0-63.88-15.55-87.59-46.24-13.534-17.503-25.134-34.192-34.755-55.217 3.367-16.078 16.042-40.5 18.702-49.467 6.3-21.235-8.004-71.487-14.139-109.578z" fill="#f04e23"/><path d="M600.395 412.708c-.244-.893 2.414-2.575 7.153-4.066 4.72-1.493 11.553-2.684 19.148-2.54 1.89.046 3.684.219 5.442.353 1.75.149 3.44.311 5.038.497 3.15.41 5.98.873 8.35 1.362 4.739.977 7.634 2.055 7.563 3.001-.07.946-3.094 1.581-7.925 1.844-2.416.131-5.284.169-8.46.106a187.261 187.261 0 0 1-4.899-.087l-5.23-.206c-7.058-.133-13.458.226-18.17.452-4.708.219-7.758.22-8.01-.716z" fill="#04294f"/><path d="M119.474 692.398a278.073 278.073 0 0 0-2.217 5.612l-.286.751-.129.335-.017.013a.271.271 0 0 1-.044.023l-.073-.033-.01-.015-.006-.016s-.004-.005.005-.003l.009.002-.178-.082a58.774 58.774 0 0 0-3.404-1.466 64.196 64.196 0 0 0-6.922-2.309 65.248 65.248 0 0 0-6.628-1.453 96.681 96.681 0 0 0-3.127-.432c-1.019-.093-2.004-.203-2.962-.255a58.782 58.782 0 0 0-5.324-.081l-2.315.132c-.729.069-1.415.15-2.055.23-.402.053-.802.123-1.202.192-.742.015-1.484.035-2.226.059-2.177-2.791-3.857-6.035-4.111-9.544-.288-3.97 1.611-8.266 5.227-9.928 3.947-1.813 8.54-.171 12.561 1.473l10.752 4.395a47.067 47.067 0 0 0 14.682 12.4z" fill="#ffb400"/><path d="M128.019 674.338a104.924 104.924 0 0 0-2.015 4.653c-1.223 1.601-2.96 4.895-5.001 9.425a222.34 222.34 0 0 0-3.07 7.186 55.59 55.59 0 0 1-17.33-14.633c-.321-.41-.658-.805-.968-1.224-3.005-4.077-5.509-8.798-5.595-13.861s2.841-10.436 7.704-11.85c2.177-.633 4.403-.434 6.581.199 6.23 6.585 11.872 12.788 15.505 17.589a6.506 6.506 0 0 0 4.189 2.516z" fill="#ffb400"/><path d="M56.104 699.7c-5.764 14.066 29.376 23.198 37.754 25.42 16.743 4.441 34.995 6.044 51.864 1.334 23.43-6.542 41.865-28.013 46.277-51.722a56.209 56.209 0 0 0-.091-21.566c-1.132-5.543-3.232-11.158-7.272-15.052a5.46 5.46 0 0 1-1.146 2.749c-13.749 17.195-31.411 28.571-53.426 33.477a5.488 5.488 0 0 1-2.046.043 88.884 88.884 0 0 0-1.707 3.942c.519-.68.931-1.005 1.208-.91.829.286.31 4.225-1.199 10.361-.754 3.068-1.756 6.685-2.961 10.671l-.461 1.511-.238.768-.384 1.187-1.021 3.09-.525 1.581-.266.798c-.034.13-.083.256-.144.376l-.375-.177-3.044-1.444-1.554-.742c-.263-.127-.522-.258-.797-.374l-.629-.277a74.621 74.621 0 0 0-3.139-1.317 87.743 87.743 0 0 0-6.328-2.242c-2.066-.671-4.098-1.193-6.038-1.688l-2.855-.654c-.933-.178-1.835-.384-2.716-.542a152.09 152.09 0 0 0-4.926-.824l-2.17-.314-1.949-.258c-1.221-.181-2.279-.295-3.153-.47-1.744-.275-2.747-.623-2.783-1.061-.037-.435.902-.921 2.67-1.409a29.913 29.913 0 0 1 2.055-.419c-.742.015-1.484.035-2.226.059-4.235.136-8.465.405-12.631.689-4.508.306-9.914 1.225-11.628 5.406zm40.781 13.261c1.305-.166 2.66 2.037 3.027 4.92.366 2.883-.395 5.354-1.7 5.52s-2.66-2.037-3.026-4.92c-.367-2.883.395-5.354 1.699-5.52zm-10.948 2.158c0-2.403 1.067-4.351 2.382-4.351s2.382 1.948 2.382 4.351-1.067 4.351-2.382 4.351-2.382-1.948-2.382-4.351z" fill="#ffb400"/><path d="m85.845 693.122 2.315-.132a58.418 58.418 0 0 1 5.324.081c.958.052 1.943.162 2.962.255 1.014.124 2.059.265 3.127.432 2.233.369 4.446.854 6.628 1.453a64.342 64.342 0 0 1 6.922 2.309c1.163.464 2.302.943 3.404 1.466l.178.082-.009-.002c-.009-.002-.005.003-.005.003l.006.016.01.015a.362.362 0 0 0 .022.032c.015.013.032.01.051.002a.271.271 0 0 0 .044-.023l.017-.013.129-.335.286-.751.569-1.474c.56-1.44 1.111-2.822 1.648-4.138a186.786 186.786 0 0 1 2.601-6.088c1.73-3.839 3.201-6.63 4.237-7.986.519-.68.931-1.005 1.208-.91.829.286.31 4.225-1.199 10.361-.754 3.068-1.756 6.685-2.961 10.671l-.461 1.511-.238.768-.384 1.187-1.021 3.09-.525 1.581-.266.798c-.034.13-.083.256-.144.376l-.375-.177-3.044-1.444-1.554-.742c-.263-.127-.522-.258-.797-.374l-.629-.277a74.621 74.621 0 0 0-3.139-1.317 87.743 87.743 0 0 0-6.328-2.242c-2.066-.671-4.098-1.193-6.038-1.688l-2.855-.654c-.933-.178-1.835-.384-2.716-.542a152.09 152.09 0 0 0-4.926-.824l-2.17-.314-1.949-.258c-1.221-.181-2.279-.295-3.153-.47-1.744-.275-2.747-.623-2.783-1.061-.037-.435.902-.921 2.67-1.409a29.913 29.913 0 0 1 2.055-.419c.4-.069.8-.139 1.202-.192a64.485 64.485 0 0 1 2.054-.233zm11.04 19.839c1.305-.166 2.66 2.037 3.027 4.92.366 2.883-.395 5.354-1.7 5.52s-2.66-2.037-3.026-4.92c-.367-2.883.395-5.354 1.699-5.52zm-8.566-2.193c1.316 0 2.382 1.948 2.382 4.351s-1.067 4.351-2.382 4.351-2.382-1.948-2.382-4.351 1.067-4.351 2.382-4.351z" fill="#f04e23"/><path d="M105.664 707.985c-.009-.011-.017-.024-.025-.036l.084.038c-.022.01-.042.013-.059-.002z" fill="#ffb400"/><path d="m153.798 601.967-7.702-6.391c-1.084-.941-2.085-1.768-2.936-2.544-.849-.78-1.576-1.465-2.151-2.062-1.145-1.201-1.666-2.075-1.411-2.508.222-.377 1.017-.387 2.291-.071.188.047.385.1.593.16a23.57 23.57 0 0 1 2.853 1.043c1.08.464 2.307 1.007 3.608 1.697a85.72 85.72 0 0 1 8.882 5.317c1.598 1.113 3.283 2.28 4.95 3.592 1.691 1.282 3.377 2.692 5.092 4.149 1.684 1.493 3.316 2.964 4.823 4.459 1.533 1.466 2.925 2.97 4.251 4.397a85.794 85.794 0 0 1 6.511 8.047c.866 1.192 1.576 2.33 2.187 3.334a23.562 23.562 0 0 1 1.433 2.678c.695 1.538.887 2.529.494 2.843-.393.313-1.332-.08-2.681-1.045a51.188 51.188 0 0 1-2.343-1.84c-.889-.734-1.848-1.609-2.932-2.55l-7.409-6.728c-1.405-1.245-2.839-2.59-4.376-3.928l-4.726-4.172-3.548-3.029-1.247-1.065c-1.543-1.336-3.076-2.567-4.506-3.783z" fill="#04294f"/><path d="M.222 490.315c3.779 57.053 65.024 125.024 97.423 158.66 3.009 3.124 6.044 6.276 8.943 9.34 5.709 6.034 10.879 11.718 14.208 16.118a5.96 5.96 0 0 0 3.838 2.305 5.957 5.957 0 0 0 2.213-.046c23.81-5.306 42.913-17.609 57.783-36.207a5.904 5.904 0 0 0 1.239-2.973 5.915 5.915 0 0 0-.968-4.082c-6.187-9.012-14.217-17.976-23.391-27.652l-1.178-1.006c-1.456-1.26-2.904-2.423-4.254-3.571l-7.275-6.036c-1.024-.888-1.97-1.67-2.773-2.403a48.281 48.281 0 0 1-2.032-1.948c-1.082-1.135-1.574-1.96-1.333-2.369.21-.356.961-.365 2.164-.067-22.207-23.313-68.608-74.296-68.608-98.064 0-28.279 22.488-57.899 46.692-67.976 10.193-3.962 16.114-23.083 16.599-56.943.484-33.86-2.196-63.049-12.876-63.202-.238-.003-.475-.025-.711-.001-.047.018 10.589-6.719 10.541-6.701-1.421.509-2.471.933-3.899 1.482-17.507 7.652-44.864 29.459-54.87 39.398-46.312 46-80.803 103.708-77.475 153.944z" fill="#f04e23"/><path clip-rule="evenodd" d="M185.534 1132.587c21.618-2.33 24.677 1.62 46.179-1.573 20.019-2.972 35.882-7.715 53.951 4.71 5.853 4.025 10.452 10.554 10.315 17.656-.102 5.284-2.734 10.155-5.448 14.689-7.575 12.656-16.536 23.705-30.457 29.405-5.646 2.312-11.374 4.442-17.057 6.661-18.839 7.357-13.424 6.82-32.263 14.177l-16.715 5.217c-11.234 1.984-26.244 2.05-35.051-7.323-22.594-25.458-9.247-81.528-9.247-81.528z" fill="#0daddd" fill-rule="evenodd"/><path clip-rule="evenodd" d="M350.567 1104.621c3.155 9.614 5.845 28.161 14.097 48.272 7.683 18.724 14.584 29.174 6.85 49.693-2.505 6.647-7.742 12.676-14.67 14.245-5.154 1.167-10.514-.221-15.567-1.77-14.102-4.322-26.977-10.374-35.846-22.524-3.597-4.928-7.038-9.978-10.554-14.964-11.657-16.527-9.838-11.398-21.494-27.926l-10.852-15.387a27.058 27.058 0 0 1-.5-30.456l24.296-36.967c-.001 0 76.641-14.882 64.24 37.784z" fill="#0daddd" fill-rule="evenodd"/><path clip-rule="evenodd" d="M146.809 656.372c18.162-21.457 243.026-.723 243.026-.723s68.425 153.182 56.936 261.182c1.07 78.693-69.984 177.428-91.297 199.407-.754.778-2.075.328-2.194-.749-1.837-16.621-43.505-53.55-69.518-45.445-1.155.36-2.113-.945-1.436-1.948 15.731-23.291 73.494-106.818 76.461-158.762 3.145-55.053-23.428-121.505-44.33-148.793-14.563 0-53.044-1.534-69.35 4.028-16.635 43.356-13.843 355.075-13.188 378.985s-88.683 26.825-88.759-6.67c.001 0-14.512-459.055 3.649-480.512z" fill="#04294f" fill-rule="evenodd"/><path d="m139.272 577.761-7.702-6.391c-1.084-.941-2.085-1.768-2.936-2.544-.849-.78-1.576-1.465-2.151-2.062-1.145-1.201-1.666-2.075-1.411-2.508.222-.377 1.017-.387 2.291-.071.188.047.385.1.593.16a23.57 23.57 0 0 1 2.853 1.043c1.08.464 2.307 1.007 3.608 1.697a85.72 85.72 0 0 1 8.882 5.317c1.598 1.113 3.283 2.28 4.95 3.592 1.691 1.282 3.377 2.692 5.092 4.149 1.684 1.493 3.316 2.964 4.823 4.459 1.533 1.466 2.925 2.97 4.251 4.397a85.794 85.794 0 0 1 6.511 8.047c.866 1.192 1.576 2.33 2.187 3.334a23.562 23.562 0 0 1 1.433 2.678c.695 1.538.887 2.529.494 2.843-.393.313-1.332-.08-2.681-1.045a51.188 51.188 0 0 1-2.343-1.84c-.889-.734-1.848-1.609-2.932-2.55l-7.409-6.728c-1.405-1.245-2.839-2.59-4.376-3.928l-4.726-4.172-3.548-3.029-1.247-1.065c-1.543-1.337-3.077-2.567-4.506-3.783z" fill="#04294f"/><path clip-rule="evenodd" d="M424.644 426.237c.865-47.343.793-78.43-4.608-117.646-25.856-23.695-68.284-37.557-160.454-34.748-81.035-.547-126.565 21.091-138.738 30.632-13.205 72.633-6.242 243.196 13.913 353.023 1.85 10.081 9.173 18.223 19.248 20.107 79.446 14.854 188.989 15.609 226.595-4.284 7.887-4.506 9.48-4.889 15.892-17.144 14.558-71.014 27.287-182.598 28.152-229.94z" fill="#f04e23" fill-rule="evenodd"/><path d="M336.784 1183.319c-.905.379-3.875-4.814-8.705-13.036-2.422-4.108-5.33-8.966-8.713-14.25a310.642 310.642 0 0 0-5.429-8.192c-1.928-2.786-3.957-5.623-6.188-8.351-4.428-5.48-9.26-10.047-14.277-13.136-4.966-3.083-10.15-4.698-14.557-5.281-2.209-.302-4.243-.366-6.023-.252-.901.011-1.718.15-2.494.213-.767.097-1.459.239-2.105.323-1.253.27-2.272.451-2.973.592-.714.111-1.159.077-1.275-.129s.102-.577.651-1.107c.536-.557 1.45-1.169 2.704-1.876.643-.3 1.362-.661 2.18-.973.824-.277 1.724-.628 2.724-.839 1.988-.517 4.33-.815 6.919-.8 5.172.009 11.372 1.343 17.431 4.656 3.012 1.637 5.926 3.719 8.679 6.144 2.765 2.413 5.344 5.171 7.748 8.132 2.416 2.956 4.52 5.987 6.452 8.943a169.05 169.05 0 0 1 5.256 8.665c3.178 5.616 5.714 10.848 7.628 15.327 3.814 8.977 5.213 14.878 4.367 15.227zM447.96 524.352c-.376.289-1.784-.806-4.008-3.034s-5.263-5.593-8.87-9.878c-3.612-4.28-7.778-9.495-12.215-15.448-1.119-1.48-2.214-3.04-3.354-4.615a167.48 167.48 0 0 1-3.415-4.88c-1.13-1.68-2.313-3.366-3.441-5.131l-3.422-5.373c-2.222-3.689-4.387-7.294-6.296-10.888l-1.444-2.655c-.465-.884-.896-1.776-1.336-2.65-.865-1.758-1.742-3.461-2.526-5.16-1.523-3.423-3.01-6.652-4.16-9.785-.591-1.558-1.195-3.046-1.697-4.509l-1.377-4.229c-.91-2.678-1.49-5.185-2.034-7.365-.261-1.094-.514-2.106-.7-3.052a92.31 92.31 0 0 1-.417-2.609c-.452-3.144-.478-4.919-.018-5.034.46-.116 1.362 1.433 2.589 4.299.307.717.634 1.516.979 2.392l1.221 2.819c.876 2.018 1.755 4.348 2.93 6.848l1.745 3.952c.616 1.369 1.324 2.766 2.01 4.23 1.336 2.942 2.975 5.992 4.604 9.237.838 1.612 1.761 3.235 2.659 4.913l1.379 2.533 1.473 2.55c1.936 3.454 4.093 6.951 6.262 10.555l3.322 5.281c1.085 1.741 2.221 3.42 3.292 5.095a242.298 242.298 0 0 0 3.222 4.897l3.119 4.683 10.93 16.185c3.094 4.637 5.54 8.445 7.11 11.171 1.569 2.722 2.26 4.366 1.884 4.655zm-162.517 642.659c-.7.628-2.846-.454-5.675-2.836-2.827-2.378-6.312-6.079-9.622-10.581-3.307-4.504-5.798-8.935-7.223-12.343-1.428-3.411-1.82-5.782-1.011-6.263.822-.489 2.68.986 5.111 3.656 2.432 2.674 5.462 6.526 8.66 10.882 3.202 4.353 5.973 8.396 7.798 11.515 1.821 3.118 2.674 5.332 1.962 5.97zM139.534 666.106c-.454.136-1.257-1.073-2.33-3.413-.522-1.171-1.063-2.626-1.674-4.328-.604-1.703-1.192-3.658-1.845-5.827-1.252-4.342-2.576-9.549-3.847-15.364-1.292-5.812-2.517-12.233-3.686-18.993-2.293-13.525-3.798-25.858-4.437-34.847-.652-8.989-.397-14.632.54-14.729.951-.099 2.396 5.287 4.271 14.05 1.863 8.766 4.119 20.92 6.399 34.372 1.162 6.721 2.191 13.138 3.132 18.968.921 5.836 1.741 11.087 2.375 15.51.342 2.201.593 4.215.835 5.971.247 1.754.405 3.287.523 4.539.263 2.491.198 3.955-.256 4.091z" fill="#04294f"/><g fill="#0daddd"><path d="M315.728 760.298c-.042.473-1.324.82-3.615 1.044-2.292.218-5.601.354-9.77.102-1.042-.061-2.14-.184-3.284-.302-1.144-.181-2.342-.304-3.574-.586-2.475-.457-5.099-1.254-7.773-2.318-2.691-1.049-5.338-2.555-7.943-4.269-1.273-.897-2.572-1.81-3.78-2.851-1.264-.989-2.412-2.111-3.603-3.222-2.372-2.319-4.474-4.896-6.17-7.57a41.507 41.507 0 0 1-3.877-8.238c-.918-2.749-1.455-5.44-1.785-7.958-.267-2.526-.356-4.879-.228-7.007.056-1.064.118-2.073.261-3.019.122-.947.233-1.836.419-2.656a30.475 30.475 0 0 1 1.082-4.145 12.747 12.747 0 0 1 1.105-2.496c.333-.548.619-.807.851-.756.232.05.399.407.507 1.03.122.625.126 1.508.18 2.636.04 1.126.037 2.484.104 4.047.001.78.071 1.611.121 2.487.029.877.131 1.796.228 2.756.177 1.922.529 3.993.988 6.172.521 2.166 1.176 4.437 2.107 6.718a41.91 41.91 0 0 0 3.592 6.777 42.06 42.06 0 0 0 5.307 6.297c1.07.993 2.096 2.021 3.194 2.901 1.057.945 2.17 1.759 3.252 2.578 2.212 1.55 4.406 2.955 6.652 3.998 2.235 1.06 4.435 1.947 6.598 2.581 1.061.367 2.141.6 3.153.899 1.037.241 2.027.496 2.992.704 3.858.839 7.092 1.444 9.313 2.044 2.224.596 3.438 1.15 3.396 1.622zm-53.046 2.405c-.082.955-2.2 1.614-5.503 2.088-3.308.472-7.805.797-12.768 1.049-4.963.258-9.469.394-12.808.264-3.334-.133-5.508-.572-5.688-1.513-.176-.922 1.704-2.177 4.979-3.293 3.269-1.117 7.942-2.048 13.165-2.319 5.223-.265 9.966.183 13.333.959 3.372.774 5.371 1.831 5.29 2.765zm-39.046 20.777c-1.891-.16-3.188-2.97-2.899-6.277.29-3.307 2.056-5.849 3.946-5.678 1.889.171 3.188 2.981 2.899 6.277s-2.056 5.838-3.946 5.678zm-1.919 23.924c-1.892-.142-3.217-2.939-2.959-6.248s1.999-5.868 3.89-5.716 3.216 2.95 2.959 6.248c-.256 3.298-1.998 5.857-3.89 5.716zm-1.687 23.94c-1.893-.123-3.245-2.908-3.02-6.219.225-3.312 1.942-5.887 3.834-5.753 1.893.134 3.245 2.919 3.021 6.219-.225 3.301-1.942 5.877-3.835 5.753zm-1.455 23.956c-1.895-.105-3.273-2.876-3.08-6.19s1.885-5.906 3.779-5.79 3.272 2.887 3.08 6.19c-.193 3.303-1.885 5.895-3.779 5.79zm-1.224 23.97c-1.895-.087-3.301-2.845-3.14-6.16s1.828-5.924 3.723-5.826 3.3 2.855 3.14 6.16-1.827 5.913-3.723 5.826zm-.992 23.98c-1.896-.068-3.328-2.813-3.199-6.129.129-3.317 1.771-5.941 3.666-5.862 1.896.079 3.328 2.823 3.199 6.129-.128 3.306-1.77 5.93-3.666 5.862zm-.759 23.988c-1.896-.05-3.355-2.78-3.258-6.098s1.713-5.958 3.609-5.897 3.355 2.791 3.258 6.098-1.713 5.947-3.609 5.897zm-.528 23.995c-1.897-.032-3.382-2.748-3.317-6.066.065-3.319 1.655-5.974 3.552-5.932 1.897.043 3.382 2.759 3.317 6.066-.065 3.308-1.655 5.964-3.552 5.932zm-.296 23.998c-1.897-.013-3.409-2.715-3.375-6.034.033-3.319 1.597-5.99 3.495-5.966 1.897.024 3.408 2.726 3.375 6.034-.033 3.309-1.598 5.98-3.495 5.966zm-.064 24c-1.897.005-3.435-2.682-3.434-6.001 0-3.319 1.539-6.005 3.437-5.999s3.435 2.693 3.434 6.001-1.54 5.995-3.437 5.999zm.168 24.001c-1.897.023-3.46-2.649-3.492-5.968-.031-3.319 1.481-6.02 3.379-6.032 1.897-.012 3.46 2.659 3.491 5.968.032 3.308-1.481 6.008-3.378 6.032zm.4 23.997c-1.896.042-3.486-2.615-3.549-5.933-.063-3.319 1.423-6.034 3.32-6.065s3.486 2.626 3.549 5.933-1.423 6.023-3.32 6.065zm.632 23.991c-1.896.06-3.511-2.581-3.606-5.899-.096-3.318 1.365-6.047 3.261-6.096s3.511 2.592 3.606 5.899c.096 3.307-1.365 6.037-3.261 6.096zm.864 23.985c-1.896.078-3.536-2.547-3.664-5.864s1.306-6.06 3.202-6.128 3.536 2.558 3.664 5.864c.127 3.307-1.306 6.05-3.202 6.128zm1.097 23.976c-1.895.097-3.56-2.512-3.72-5.828-.16-3.315 1.247-6.072 3.143-6.158s3.561 2.523 3.72 5.828c.158 3.304-1.249 6.061-3.143 6.158zm1.161 21.162c-1.894.113-3.547-1.854-3.693-4.393-.145-2.539 1.272-4.682 3.167-4.786s3.547 1.862 3.692 4.393-1.272 4.673-3.166 4.786z"/></g></svg></g><g transform="translate(175.0 211.0) rotate(0.0 122.5 126.5) scale(1.0483839909625021 1.0471074174937298)"><svg width="233.693" height="241.618" viewBox="0 0 233.693 241.618"><path d="M167.964 127.769a10.039 10.039 0 0 1 1.082-3.517 2.593 2.593 0 0 1 2.453-1.532c1.114.2 1.932 1.506 2.518 2.813a24.4 24.4 0 0 1 1.947 7.326 13.993 13.993 0 0 1-.424 5.885c-1.277 3.771-4.748 4.274-6.623.982-1.682-2.954-1.479-8.568-.953-11.957z" fill="#04294f"/><path d="M233.521 85.374c-.12-2.24-.93-12.23-6.45-25.23a77.779 77.779 0 0 0-10.18-17.47c-16.29-20.58-56.4-43.83-102.9-42.629-35.07.909-84.55 16.8-105.17 58.52 0 0-9.71 19.648-8.755 49.972a112.488 112.488 0 0 0 19.5 59.154c5.7 8.457 12.411 19.844 16.59 31.733q1.32 3.735 2.45 7.76c.569 2.036 1.138 3.783 1.14 3.79.41 1.744 1.04 4.229 1.945 7.173.379 1.232 3.3 10.648 5.679 14.485 5.273 8.509 19.809 8.842 25.318 8.968 13.865.317 59.814-3.461 80.176-37.451 22.513-37.58-1.007-87.4 17.671-95.736.944-.422 5.221-2.331 8.7-.528 9.845 5.1.922 33.472 10.549 37.978 2.976 1.393 6.338-.142 6.594-.263 10.965-5.195-.008-34.485 12.132-42.2 3.1-1.969 7.9-2.672 12.131-1.846l.137.027a10.64 10.64 0 0 0 12.913-10.169c.025-2.152-.074-4.212-.17-6.038z" fill="#04294f" fill-rule="evenodd"/><g fill="#00aee0"><path d="M54.732 205.164c-.711.117-1.735-2.255-2.972-6.119s-2.721-9.221-4.341-15.134-3.082-11.273-3.994-15.229-1.24-6.517-.569-6.779c.654-.255 2.191 1.854 4 5.563a90.036 90.036 0 0 1 5.528 15.081 90 90 0 0 1 2.946 15.79c.34 4.115.095 6.713-.598 6.827zm8.454-7.871c-.717-.038-1.285-1.262-1.727-3.162a68.005 68.005 0 0 1-1.216-14.759c.124-1.948.484-3.247 1.184-3.4s1.593.889 2.4 2.764a27.32 27.32 0 0 1 1.273 15.438c-.489 1.981-1.21 3.157-1.914 3.119zM213.689 66.675c-.33.132-.893-.332-1.621-1.271-.36-.472-.768-1.059-1.237-1.739s-.947-1.476-1.512-2.334l-3.833-6.044c-.746-1.115-1.488-2.308-2.32-3.5-.8-1.215-1.678-2.441-2.552-3.713-.909-1.246-1.775-2.479-2.655-3.64-.851-1.181-1.73-2.277-2.535-3.351L191 35.456c-.622-.818-1.211-1.536-1.7-2.2s-.9-1.248-1.229-1.745c-.644-1-.9-1.683-.661-1.951s.935-.09 2.013.47a15.741 15.741 0 0 1 1.865 1.141c.7.483 1.486 1.04 2.3 1.722a54.9 54.9 0 0 1 5.451 5.1c.946 1.039 1.95 2.127 2.9 3.327.981 1.178 1.924 2.454 2.881 3.768.922 1.339 1.812 2.653 2.6 3.969.815 1.3 1.509 2.6 2.175 3.843a55 55 0 0 1 3 6.836 31.8 31.8 0 0 1 .861 2.743 15.935 15.935 0 0 1 .457 2.138c.172 1.206.106 1.925-.224 2.058zm-6.523 18.272c-.344.093-.825-.358-1.4-1.241-.283-.442-.594-.991-.944-1.626s-.7-1.374-1.109-2.176l-2.726-5.647c-.527-1.049-1.042-2.166-1.629-3.3s-1.173-2.31-1.784-3.515l-1.857-3.477c-.592-1.129-1.211-2.191-1.769-3.225l-3.064-5.47c-.422-.8-.825-1.506-1.147-2.156s-.592-1.221-.792-1.706c-.4-.975-.489-1.628-.216-1.856s.888-.009 1.777.6a13.242 13.242 0 0 1 1.509 1.2 26.76 26.76 0 0 1 1.808 1.765 47.158 47.158 0 0 1 4.138 5.087c.7 1.016 1.442 2.084 2.128 3.24.711 1.142 1.381 2.363 2.055 3.62.644 1.273 1.26 2.522 1.789 3.759.553 1.226 1 2.444 1.434 3.6a47.143 47.143 0 0 1 1.8 6.307c.2.911.317 1.754.41 2.494a13.216 13.216 0 0 1 .12 1.925c-.015 1.076-.188 1.706-.531 1.798z"/></g></svg></g><g transform="translate(983.0 348.0) rotate(22.318612253278342 170.0 153.5) scale(0.9923067044910633 0.993820186527424)"><svg width="342.636" height="308.909" viewBox="0 0 342.636 308.909"><path d="M334.374 238.001c-.41-3.197-1.216-6.204-2.114-9.002-.907-2.802-2.083-5.344-3.266-7.66-1.248-2.288-2.533-4.342-3.866-6.098a40.134 40.134 0 0 0-3.864-4.49c-.628-.605-1.201-1.172-1.763-1.66a52.768 52.768 0 0 0-1.594-1.268 12.579 12.579 0 0 0-2.419-1.476c-.607-.269-.997-.32-1.155-.144s-.078.572.211 1.156c.275.598.817 1.325 1.436 2.316.315.489.674 1.02 1.074 1.589l1.226 1.901a69.54 69.54 0 0 1 2.762 4.697c.966 1.759 1.889 3.75 2.801 5.902.847 2.182 1.712 4.521 2.357 7.055.637 2.53 1.23 5.207 1.499 8.021.294 2.807.393 5.727.228 8.701a54.564 54.564 0 0 1-1.303 8.606c-.615 2.758-1.535 5.341-2.48 7.773-.954 2.435-2.102 4.648-3.212 6.709-1.171 2.023-2.333 3.884-3.51 5.51a69.226 69.226 0 0 1-3.322 4.319l-1.452 1.735c-.467.516-.888.998-1.262 1.444-.736.907-1.364 1.561-1.711 2.12-.359.544-.487.927-.353 1.122.135.195.529.192 1.164 0 .623-.207 1.54-.538 2.584-1.165.527-.306 1.108-.66 1.738-1.061.618-.414 1.257-.906 1.956-1.428a40.093 40.093 0 0 0 4.39-3.977c1.54-1.578 3.069-3.457 4.59-5.572 1.46-2.152 2.942-4.528 4.189-7.197 1.238-2.666 2.411-5.549 3.212-8.671a52.068 52.068 0 0 0 1.638-9.841 52.155 52.155 0 0 0-.409-9.966z" fill="#ffb400"/><path d="M291.316 180.06c-26.809-19.751-7.656-73.168-32.945-113.417-14.271-22.713-32.289-39.976-52.254-51.157-7.487-4.64-15.755-8.403-24.681-10.676-20.35-5.181-43.625-6.944-63.883-1.41C100.145 8.156 84.06 18.007 72.75 32.167c-1.978 2.477-3.809 6.452-7.131 7.301-3.249.831-7.798-1.575-11.091-2.037a47.72 47.72 0 0 0-23.722 2.794 42.871 42.871 0 0 0-20.738 16.829c-21.815 34.414-4.249 58.898 15.504 68.643 13.396 6.609 29.492 4.759 43.669.056s27.393-12.047 41.686-16.385c14.294-4.338 30.61-5.336 43.458 2.283.384.228.743.485 1.116.725 13.022 8.378 19.619 24.243 21.845 39.654 1.211 8.382 1.403 13.801 1.574 19.251.168 5.353.316 10.736 1.388 18.989a5.773 5.773 0 0 0 2.504 4.145c1.974 1.265 3.949.673 5.559-.777 1.733-1.561 3.042-4.115 3.456-6.459 1.536-8.693-.716-17.747.991-26.408 1.943-9.856 12.949-19.64 21.806-11.566a15.191 15.191 0 0 1 4.704 9.934c2.173 24.475 5.483 41.372-2.656 52.496-52.962 72.382 21.059 108.263 69.249 94.306 27.205-7.879 56.713-22.877 56.713-65.004.002-38.299-33.701-51.001-51.318-60.877zM18.953 67.717c-.347.978-.918 2.261-1.552 3.801a41.645 41.645 0 0 0-1.834 5.403 32.254 32.254 0 0 0-.67 3.213 28.666 28.666 0 0 0-.265 6.943 32.37 32.37 0 0 0 .423 3.255c.345 1.873.819 3.72 1.417 5.527.514 1.583.987 2.907 1.258 3.908.12.414.19.84.208 1.271a.986.986 0 0 1-.265.76.898.898 0 0 1-.786.141 3.885 3.885 0 0 1-1.265-.526 12.934 12.934 0 0 1-3.418-3.232 21.448 21.448 0 0 1-3.267-6.216 23.837 23.837 0 0 1-.99-4.088 23.84 23.84 0 0 1 .345-9.048 23.797 23.797 0 0 1 1.299-4 21.441 21.441 0 0 1 3.73-5.95 12.912 12.912 0 0 1 3.654-2.962c.405-.22.845-.365 1.301-.429a.897.897 0 0 1 .773.201.99.99 0 0 1 .206.778 5.304 5.304 0 0 1-.302 1.25zm127.874-48.802-3.193.312c-1.236.125-2.63.162-4.167.352l-2.403.217c-.833.073-1.697.215-2.59.315-1.774.171-3.649.515-5.62.808l-.048.007c-.994.152-2 .393-3.034.581l-1.565.298-1.579.381c-2.137.457-4.305 1.098-6.539 1.706-2.2.721-4.363 1.378-6.399 2.172l-1.529.551-1.47.612c-.967.412-1.939.765-2.853 1.185-1.823.848-3.593 1.597-5.182 2.437-.8.408-1.6.764-2.336 1.162l-2.126 1.141c-1.388.688-2.572 1.422-3.673 1.999l-2.839 1.496c-1.595.797-2.644 1.084-2.959.729-.315-.354.138-1.322 1.259-2.794.28-.368.602-.766.964-1.195.37-.418.799-.84 1.258-1.3a37.038 37.038 0 0 1 3.274-2.963l2.017-1.599c.71-.547 1.493-1.047 2.288-1.595 1.579-1.119 3.378-2.127 5.27-3.202.948-.533 1.964-.992 2.984-1.5l1.556-.749 1.626-.673c2.174-.947 4.507-1.714 6.897-2.493 2.424-.665 4.794-1.308 7.131-1.713l1.728-.333 1.712-.23c1.131-.137 2.232-.313 3.317-.389l.54-.036c1.972-.13 3.851-.25 5.622-.19.965.021 1.895.008 2.788.074l2.417.212c1.406.124 2.8.323 4.18.617.763.163 1.466.292 2.097.463.538.159 1.025.315 1.463.468 1.746.612 2.656 1.171 2.589 1.64-.068.47-1.102.807-2.873 1.019zM333.144 257.81c-.802 3.122-1.974 6.005-3.212 8.671-1.247 2.669-2.729 5.045-4.189 7.197-1.521 2.115-3.05 3.995-4.59 5.572a40.185 40.185 0 0 1-4.39 3.977c-.698.522-1.337 1.015-1.956 1.428-.63.4-1.211.754-1.738 1.061a12.526 12.526 0 0 1-2.584 1.165c-.635.191-1.029.194-1.164 0-.135-.195-.006-.578.353-1.122.347-.559.975-1.213 1.711-2.12.374-.446.795-.929 1.262-1.444l1.452-1.735a69.226 69.226 0 0 0 3.322-4.319c1.176-1.626 2.339-3.487 3.51-5.51 1.11-2.061 2.259-4.274 3.212-6.709.945-2.432 1.865-5.015 2.48-7.773a54.448 54.448 0 0 0 1.303-8.606 54.59 54.59 0 0 0-.228-8.701c-.269-2.813-.862-5.49-1.499-8.021-.645-2.534-1.51-4.873-2.357-7.055-.912-2.153-1.835-4.143-2.801-5.902a69.54 69.54 0 0 0-2.762-4.697l-1.226-1.901a52.284 52.284 0 0 1-1.074-1.589c-.619-.991-1.16-1.718-1.436-2.316-.289-.584-.369-.98-.211-1.156.159-.177.548-.125 1.155.144.593.282 1.461.724 2.419 1.476.486.37 1.018.792 1.594 1.268.562.487 1.135 1.055 1.763 1.66a40.134 40.134 0 0 1 3.864 4.49c1.333 1.756 2.618 3.81 3.866 6.098 1.183 2.316 2.359 4.858 3.266 7.66.898 2.798 1.705 5.805 2.114 9.002a52.09 52.09 0 0 1 .407 9.968 52.073 52.073 0 0 1-1.636 9.839z" fill="#f04e23"/><path d="M209.036 164.547c-.598-1.348-1.434-2.699-2.578-2.906a2.667 2.667 0 0 0-2.532 1.565 10.337 10.337 0 0 0-1.129 3.614c-.557 3.485-.792 9.261.926 12.309 1.913 3.396 5.488 2.894 6.82-.98a14.42 14.42 0 0 0 .463-6.053 25.152 25.152 0 0 0-1.97-7.549z" fill="#04294f"/><g fill="#ffb400"><path d="m124.686 15.036-1.712.23-1.728.333c-2.337.405-4.707 1.048-7.131 1.713-2.391.778-4.723 1.545-6.897 2.493l-1.626.673-1.556.749c-1.02.508-2.035.967-2.984 1.5-1.892 1.075-3.691 2.083-5.27 3.202-.795.548-1.578 1.048-2.288 1.595l-2.017 1.599a37.053 37.053 0 0 0-3.274 2.963c-.459.46-.888.882-1.258 1.3-.362.429-.684.828-.964 1.195-1.121 1.472-1.574 2.439-1.259 2.794s1.364.068 2.959-.729l2.839-1.496c1.101-.577 2.285-1.312 3.673-1.999l2.126-1.141c.736-.397 1.535-.754 2.336-1.162 1.589-.84 3.359-1.589 5.182-2.437.914-.42 1.886-.773 2.853-1.185l1.47-.612 1.529-.551c2.036-.794 4.199-1.451 6.399-2.172 2.234-.608 4.401-1.249 6.539-1.706l1.579-.381 1.565-.298c1.034-.188 2.04-.428 3.034-.581l.048-.007c-.219-2.28-.324-4.386-.31-6.308l-.54.036c-1.085.077-2.185.253-3.317.39z"/><path d="M128.854 20.919c1.971-.293 3.846-.637 5.62-.808.893-.1 1.757-.242 2.59-.315l2.403-.217c1.537-.189 2.931-.227 4.167-.352l3.193-.312c1.771-.212 2.805-.549 2.872-1.019.068-.469-.843-1.028-2.589-1.64a31.318 31.318 0 0 0-1.463-.468c-.631-.171-1.334-.301-2.097-.463a34.666 34.666 0 0 0-4.18-.617l-2.417-.212c-.893-.066-1.823-.053-2.788-.074-1.771-.061-3.651.06-5.622.19-.013 1.921.092 4.027.311 6.307zM18.278 65.487a3.842 3.842 0 0 0-1.301.429 12.912 12.912 0 0 0-3.654 2.962 21.418 21.418 0 0 0-3.73 5.95 23.797 23.797 0 0 0-1.299 4 23.84 23.84 0 0 0-.345 9.048c.209 1.389.54 2.757.99 4.088a21.41 21.41 0 0 0 3.267 6.216 12.934 12.934 0 0 0 3.418 3.232c.387.25.815.428 1.265.526.27.079.561.026.786-.141a.99.99 0 0 0 .265-.76 5.324 5.324 0 0 0-.208-1.271c-.272-1.001-.744-2.324-1.258-3.908a41.593 41.593 0 0 1-1.417-5.527 32.37 32.37 0 0 1-.423-3.255 28.618 28.618 0 0 1 .265-6.943c.169-1.082.392-2.154.67-3.213a41.645 41.645 0 0 1 1.834-5.403c.634-1.54 1.205-2.823 1.552-3.801a5.38 5.38 0 0 0 .304-1.251.99.99 0 0 0-.206-.778.902.902 0 0 0-.775-.2z"/></g></svg></g><g transform="translate(1026.0 466.0) rotate(9.739080207024891 61.5 25.5) scale(1.0799989463424915 1.0571481873017847)"><svg width="113.889" height="48.243" viewBox="0 0 113.889 48.243"><g fill="#1a2b4a"><path d="M94.858 32.717c.032-.521.049-1.049.058-1.583.002-.132.015-.259.015-.392l-.002-.084.002-.084c0-.133-.013-.259-.015-.392a34.199 34.199 0 0 0-.058-1.583c-.025-.448-.06-.887-.102-1.324-.009-.091-.02-.181-.03-.271-.224-2.147-.626-4.166-1.213-5.951h-.053c-1.6-4.804-4.352-7.979-7.484-7.979s-5.888 3.175-7.49 7.979h-.054c-.589 1.791-.992 3.816-1.216 5.97-.009.082-.019.162-.027.244a35.429 35.429 0 0 0-.161 2.914c-.002.133-.014.26-.014.394l.002.084-.002.084c0 .134.013.261.014.394a35.631 35.631 0 0 0 .161 2.914c.008.082.018.162.027.244.224 2.154.626 4.179 1.216 5.97h.054c1.603 4.804 4.358 7.979 7.49 7.979s5.884-3.175 7.484-7.979h.052c.587-1.786.989-3.804 1.213-5.951.01-.091.021-.18.03-.271.043-.438.078-.877.103-1.326zm-60.331 0c.032-.521.049-1.049.058-1.583.002-.132.015-.259.015-.392l-.002-.084.002-.084c0-.133-.013-.259-.015-.392a34.199 34.199 0 0 0-.058-1.583c-.025-.448-.06-.887-.102-1.324-.009-.091-.02-.181-.03-.271-.224-2.147-.626-4.166-1.213-5.951h-.052c-1.6-4.804-4.352-7.979-7.484-7.979s-5.888 3.175-7.49 7.979h-.054c-.589 1.791-.992 3.816-1.216 5.97-.009.082-.019.162-.027.244a35.429 35.429 0 0 0-.161 2.914c-.002.133-.014.26-.014.394l.002.084-.002.084c0 .134.013.261.014.394a35.631 35.631 0 0 0 .161 2.914c.008.082.018.162.027.244.224 2.154.626 4.179 1.216 5.97h.054c1.603 4.804 4.358 7.979 7.49 7.979s5.884-3.175 7.484-7.979h.052c.587-1.786.989-3.804 1.213-5.951.01-.091.021-.18.03-.271.042-.438.077-.877.102-1.326zM33.302 5.492c-.395.612-1.772.42-3.674.108-1.902-.319-4.365-.696-6.87-.396a14.07 14.07 0 0 0-3.394.879c-1.019.41-1.911.886-2.647 1.359-.738.47-1.359.915-1.861 1.233-.266.151-.478.281-.697.344-.212.065-.406.074-.572.008-.165-.065-.294-.203-.383-.417-.083-.21-.15-.51-.128-.861.015-.716.3-1.699.951-2.766.646-1.067 1.688-2.171 3.074-3.075A12.05 12.05 0 0 1 22.14.087a13.324 13.324 0 0 1 5.2.423c1.521.435 2.772 1.075 3.72 1.737 1.904 1.34 2.621 2.67 2.242 3.245zm65.206 5.005c-.7.225-1.608-.713-2.982-1.771-1.356-1.074-3.289-2.309-5.614-2.989-2.355-.683-4.739-.741-6.584-.736-1.844-.005-3.189-.006-3.506-.663-.305-.614.55-1.843 2.601-2.866 1.019-.506 2.334-.931 3.87-1.107a13.052 13.052 0 0 1 5.06.424 12.235 12.235 0 0 1 4.537 2.463c1.2 1.043 2.056 2.216 2.56 3.297.508 1.082.696 2.041.656 2.731-.007.34-.091.625-.188.826-.105.205-.242.334-.41.391z"/><path d="M113.846 30.926c-.12.205-.478.268-1.004.217-.261-.029-.567-.081-.92-.135l-1.159-.23a59.186 59.186 0 0 0-2.933-.547c-.552-.067-1.122-.175-1.721-.22-.596-.075-1.216-.104-1.849-.155-.635-.014-1.255-.049-1.855-.036-.601-.017-1.179.031-1.735.042a60.077 60.077 0 0 0-2.973.243l-1.177.11c-.357.018-.667.038-.929.04-.528-.003-.878-.103-.977-.318-.098-.216.068-.53.474-.92.201-.199.465-.411.792-.613a8.396 8.396 0 0 1 1.146-.633c.875-.423 1.978-.787 3.239-1.047.632-.108 1.301-.232 2.001-.265.699-.063 1.426-.052 2.17-.032.742.057 1.466.12 2.155.255.693.104 1.346.297 1.963.469 1.228.389 2.288.863 3.114 1.374.421.236.771.51 1.075.748.305.234.545.472.725.69.365.429.498.759.378.963zm-.703 7.993c-.153.181-.506.187-.999.051-.49-.14-1.14-.396-1.905-.736l-2.64-1.187c-.499-.207-1.007-.448-1.551-.661l-1.672-.674-1.694-.617c-.546-.207-1.086-.367-1.595-.546l-2.756-.884c-.795-.259-1.451-.503-1.908-.727-.457-.229-.715-.469-.708-.706.009-.46 1.106-.895 2.932-.975.911-.044 1.995.024 3.184.215.59.11 1.215.224 1.844.407.635.164 1.277.388 1.931.625.645.261 1.271.524 1.853.827.591.284 1.131.618 1.643.931 1.012.653 1.864 1.328 2.511 1.97 1.307 1.282 1.832 2.339 1.53 2.687zM.048 31.562c-.113-.208-.025-.506.25-.875.271-.374.745-.788 1.393-1.202.646-.419 1.478-.808 2.444-1.125.486-.143 1-.297 1.546-.386.543-.11 1.115-.166 1.7-.214a14.548 14.548 0 0 1 1.713.014c.553.024 1.082.118 1.581.203.997.203 1.868.491 2.559.833.691.336 1.21.692 1.523 1.032.316.334.438.619.35.839s-.375.356-.799.42c-.422.058-.994.076-1.666.065l-2.306-.042c-.428.01-.872-.009-1.333.014l-1.422.051-1.418.115c-.461.03-.9.102-1.326.141l-2.285.31c-.666.089-1.236.138-1.662.129-.428-.012-.729-.113-.842-.322zM7.81 39.87c-.217-.096-.343-.354-.373-.761-.037-.408.053-.949.273-1.581.216-.634.591-1.338 1.11-2.054.27-.346.556-.716.902-1.048a10.8 10.8 0 0 1 1.115-.984c.415-.297.825-.579 1.251-.803.414-.242.848-.417 1.255-.582.83-.303 1.61-.472 2.279-.507.667-.039 1.213.022 1.596.169.383.141.597.332.63.567.033.234-.114.49-.384.748-.272.25-.663.536-1.13.839-.939.605-2.161 1.361-3.426 2.31-1.258.957-2.319 1.926-3.158 2.664-.419.367-.801.665-1.116.858-.321.19-.607.262-.824.165z"/></g></svg></g><g transform="translate(388.0 361.0) rotate(22.322279740453705 9.5 15.0) scale(0.8997064115920069 0.9253832629013851)"><svg width="21.118" height="32.419" viewBox="0 0 21.118 32.419"><ellipse cx="10.559" cy="16.209" fill="#04294f" rx="9.279" ry="16.971" transform="matrix(.9351 -.3545 .3545 .9351 -5.0601 4.7953)"/></svg></g><g transform="translate(397.0 368.0) rotate(22.322279740453705 4.5 7.5) scale(0.42617672128042433 0.46269163145069253)"><svg width="21.118" height="32.419" viewBox="0 0 21.118 32.419"><ellipse cx="10.559" cy="16.209" fill="#FFF" rx="9.279" ry="16.971" transform="matrix(.9351 -.3545 .3545 .9351 -5.0601 4.7953)"/></svg></g><g transform="translate(1047.0 482.0) rotate(34.19429910152458 3.5 6.0) scale(0.3314707832181078 0.37015330516055406)"><svg width="21.118" height="32.419" viewBox="0 0 21.118 32.419"><ellipse cx="10.559" cy="16.209" fill="#FFF" rx="9.279" ry="16.971" transform="matrix(.9351 -.3545 .3545 .9351 -5.0601 4.7953)"/></svg></g><g transform="translate(1112.0 495.0) rotate(34.19429910152458 3.5 6.0) scale(0.3314707832181078 0.37015330516055406)"><svg width="21.118" height="32.419" viewBox="0 0 21.118 32.419"><ellipse cx="10.559" cy="16.209" fill="#FFF" rx="9.279" ry="16.971" transform="matrix(.9351 -.3545 .3545 .9351 -5.0601 4.7953)"/></svg></g><g transform="translate(1054.0 533.0) rotate(0.0 27.5 19.0) scale(1.9067429363841222 1.8934675369973593)"><svg width="28.845" height="20.069" viewBox="0 0 28.845 20.069"><path d="M13.085 19.993c7.926.786 14.979-4.581 15.7-12 .549-5.417-2.759-6.241-7.677-6.516-.185 1.783-2.169 1.491-2.558 3.241-.561 2.335-9.284 2.742-9.047.096S7.764.129 7.764.117C3.52-.308.549.229.064 5.11c-.747 7.431 5.084 14.084 13.021 14.883z" fill="#04294f"/><path d="M7.148 5.301c-.237 2.646 12.558 3.82 13.119 1.485.388-1.75.676-3.522.862-5.305h-.662c-1.435-.1-4.993-.362-9.15-.849-1.135-.137-2.3-.287-3.47-.461 0 0-.479 2.485-.699 5.13z" fill="#04294F"/></svg></g><g transform="translate(669.0 234.0) rotate(-161.1046800879664 69.5 -62.5) scale(0.608960036449982 -0.6087286823215451)"><svg width="228.258" height="205.346" viewBox="0 0 228.258 205.346"><path d="M118.222 47.3c6-4 24-56 68-44 28.1 7.662 63.025 42.207 26 107-32 56-79 93-94 95s-83.382-67.974-105-100c-27-40-11-101 33-105 54.347-4.936 64.512 52 72 47z" fill="#f04e23"/></svg></g><g transform="translate(657.0 322.0) rotate(161.1547793232237 -32.0 -30.0) scale(-0.6420288110428956 -0.6499203847528677)"><svg width="99.684" height="92.319" viewBox="0 0 99.684 92.319"><path d="M99.675 29.9c.379-16.226-10.2-26.8-21.111-29.286C65.93-2.274 52.5 4.934 52.709 25.221 47.954 12.959 39.461 6.489 30.847 4.524 12.47.331-7.2 16.384 2.617 42.188c14.288 38 63.48 50.131 63.48 50.131S99 59.346 99.675 29.9z" fill="#f04e23"/></svg></g><g transform="translate(695.0 418.0) rotate(-164.34941249343336 22.0 -20.5) scale(0.4413948075919907 -0.44411226291445965)"><svg width="99.684" height="92.319" viewBox="0 0 99.684 92.319"><path d="M99.675 29.9c.379-16.226-10.2-26.8-21.111-29.286C65.93-2.274 52.5 4.934 52.709 25.221 47.954 12.959 39.461 6.489 30.847 4.524 12.47.331-7.2 16.384 2.617 42.188c14.288 38 63.48 50.131 63.48 50.131S99 59.346 99.675 29.9z" fill="#f04e23"/></svg></g><g transform="translate(409.0 415.0) rotate(0.0 -23.5 13.0) scale(-0.8276942990353839 0.8253664309504793)"><svg width="56.784" height="31.501" viewBox="0 0 56.784 31.501"><g fill="#04294f"><path d="M48.162 7.484c.394.264.31 1.149-.205 2.562A13.953 13.953 0 0 1 46.81 12.5a31.704 31.704 0 0 1-1.93 3.014l-1.287 1.641-.703.866c-.252.281-.523.555-.793.84l-1.707 1.742c-.602.585-1.28 1.123-1.953 1.703a22.028 22.028 0 0 1-2.158 1.677c-.768.53-1.537 1.096-2.363 1.61l-2.582 1.47c-.88.489-1.834.87-2.772 1.308a25.878 25.878 0 0 1-2.867 1.1l-1.425.484c-.472.154-.96.25-1.434.374-.957.216-1.88.491-2.816.624l-2.74.379c-.893.099-1.777.096-2.627.134l-1.255.034-1.219-.073-2.296-.182c-.733-.11-1.43-.253-2.093-.381a19.471 19.471 0 0 1-3.496-.981 30.7 30.7 0 0 1-1.384-.53q-.618-.316-1.109-.608C.492 27.967-.124 27.332.021 26.88c.145-.452 1.031-.682 2.442-.727.353-.01.738-.01 1.154.002.425-.024.88-.043 1.363-.052.967-.013 2.042.023 3.234-.079l1.849-.078 1.988-.215 1.04-.099 1.065-.186c.718-.134 1.46-.213 2.209-.378l2.292-.534c.782-.168 1.554-.464 2.354-.684.397-.125.806-.22 1.203-.367l1.2-.454a25.994 25.994 0 0 0 2.43-.968c.8-.378 1.623-.684 2.388-1.088l2.268-1.18c.734-.406 1.427-.857 2.13-1.263a22.69 22.69 0 0 0 2.006-1.287c.639-.444 1.293-.84 1.888-1.281l1.727-1.303.833-.616.765-.64 1.47-1.191c.946-.756 1.732-1.523 2.508-2.131.785-.604 1.397-1.189 1.973-1.617 1.136-.868 1.968-1.245 2.362-.98z"/><path d="M56.747 12.15a1.55 1.55 0 0 1-.575 1.488 5.297 5.297 0 0 1-2.583 1.244 9.204 9.204 0 0 1-4.246-.145 10.688 10.688 0 0 1-7.505-7.208 9.202 9.202 0 0 1-.315-4.237A5.296 5.296 0 0 1 42.662.661a1.55 1.55 0 0 1 1.464-.634c.94.227 1.48 1.455 2.236 2.831a16.788 16.788 0 0 0 3.051 4.295 16.796 16.796 0 0 0 4.415 2.877c1.405.7 2.654 1.19 2.92 2.12z"/></g></svg></g></svg>