<svg width="1039" height="968" viewBox="0 0 1039 968" fill="none" xmlns="http://www.w3.org/2000/svg">
<g clip-path="url(#clip0_1_99)">
<path d="M487.329 400.593L507.478 402.394L494.381 414.913L487.329 400.593ZM850.863 289.282L842.298 310.238L861.507 303.656L850.863 289.282Z" fill="#A1C3FC"/>
<path d="M1035.78 323.944C1021.18 321.954 1006.97 317.719 993.654 311.39C988.079 308.742 982.634 305.71 977.37 302.778C974.956 301.426 972.534 300.091 970.102 298.772C953.236 289.678 935.556 282.191 917.298 276.409C910.127 274.141 901.798 271.785 893.686 272.57C885.482 273.364 878.407 277.787 875.659 283.835L870.575 281.508C874.184 273.565 882.825 268.009 893.129 267.011C902.288 266.123 911.267 268.647 918.965 271.083C937.558 276.971 955.562 284.596 972.739 293.856C975.193 295.181 977.633 296.541 980.072 297.898C985.26 300.788 990.621 303.775 996.033 306.345C1008.83 312.427 1022.49 316.497 1036.51 318.41L1035.78 323.944ZM801.855 373.737C788.605 384.855 773.743 393.26 757.94 398.268C733.23 406.097 706.529 404.602 683.574 395.641C673.451 402.041 662.405 406.776 651.28 409.435C625.309 415.645 596.837 411.261 571.606 398.415C546.822 406.434 518.185 407.556 495.662 406.655C494.931 406.612 494.246 406.285 493.753 405.742C493.259 405.2 492.998 404.487 493.024 403.755C493.051 403.024 493.363 402.333 493.894 401.832C494.425 401.33 495.133 401.058 495.864 401.073C516.342 401.892 541.97 401.025 564.739 394.661C551.052 386.658 538.88 376.302 528.784 364.07C516.553 349.228 510.214 334.686 509.939 320.848C509.633 305.443 518.783 286.992 536.352 283.136C552.353 279.624 567.82 288.759 581.653 309.678C580.481 302.062 580.199 294.208 582.056 286.459C585.358 272.669 598.353 258.968 613.584 260.888C631.27 263.119 640.393 283.869 640.263 303.214C640.248 305.694 640.164 308.173 640.011 310.648C642.237 309.14 644.771 308.033 647.594 307.486C658.24 305.425 668.488 311.436 677.58 324.945C678.502 312.126 683.26 297.706 691.753 289.655C697.025 284.657 703.264 282.636 709.799 283.814C722.826 286.158 726.846 303.708 727.97 311.145C732.931 343.964 714.836 373.377 689.226 391.821C710.157 399.105 734.033 399.973 756.239 392.938C794.753 380.732 827.521 347.345 843.884 303.618C844.143 302.926 844.667 302.365 845.341 302.06C846.015 301.755 846.782 301.731 847.476 301.993C848.169 302.255 848.731 302.781 849.038 303.456C849.345 304.131 849.372 304.9 849.112 305.592C838.834 333.066 822.256 356.617 801.855 373.737V373.737ZM682.957 389.415C708.629 372.281 727.261 343.816 722.449 311.966C720.932 301.928 716.557 290.708 708.827 289.316C704.041 288.456 699.586 289.935 695.598 293.721C685.965 302.854 681.729 322.35 683.328 335.174C683.409 335.824 683.259 336.482 682.904 337.031C682.549 337.581 682.012 337.988 681.387 338.18C680.762 338.373 680.088 338.339 679.483 338.085C678.879 337.83 678.382 337.372 678.08 336.789C671.741 324.554 661.494 310.491 648.669 312.974C644.78 313.727 641.578 316.026 639.197 319.031C638.297 325.812 636.823 332.235 634.772 338.309C635.73 343.924 638.248 349.922 642.301 356.229C651.802 371.002 666.218 382.342 682.957 389.415V389.415ZM578.942 395.788C601.759 406.226 626.909 409.515 649.965 404.003C659.311 401.768 668.609 397.991 677.28 392.954C661.014 385.385 647.038 373.905 637.612 359.244C634.915 355.049 632.83 350.944 631.36 346.948C624.52 361.948 613.704 374.62 598.793 385.218C592.787 389.484 586.079 392.965 578.942 395.788V395.788ZM572.061 392.384C580.607 389.436 588.592 385.603 595.551 380.658C611.824 369.098 622.931 354.888 629.039 337.685C628.738 335.382 628.673 333.055 628.847 330.74C629.213 326.02 630.926 321.012 633.84 316.827C634.377 312.292 634.657 307.729 634.68 303.161C634.795 286.288 627.35 268.255 612.905 266.433C600.731 264.899 590.233 276.317 587.486 287.78C584.434 300.524 587.946 314.242 591.044 326.346C591.215 327.014 591.134 327.722 590.814 328.333C590.495 328.943 589.961 329.413 589.315 329.652C588.669 329.891 587.956 329.881 587.315 329.626C586.673 329.371 586.148 328.887 585.841 328.268C575.571 307.589 558.859 283.921 537.568 288.596C523.429 291.701 515.257 307.386 515.523 320.756C515.771 333.302 521.682 346.683 533.087 360.526C543.872 373.594 557.115 384.419 572.061 392.384V392.384Z" fill="#E94A47"/>
<path d="M137.5 805.526C136.969 805.97 136.293 806.2 135.601 806.172C134.909 806.143 134.251 805.859 133.756 805.374C133.26 804.888 132.962 804.237 132.919 803.545C132.876 802.854 133.091 802.172 133.522 801.632C164.593 762.784 165.299 749.431 162.955 744.929C160.616 740.436 153.115 740.26 145.356 740.737C128.927 741.748 117.167 738.054 109.401 729.442C94.8035 713.255 96.4475 682.422 103.831 637.921C108.846 607.693 122.303 572.501 140.751 541.373C165.036 500.399 234.902 446.838 281.145 426.322C334.047 402.851 447.663 397.979 496.401 401.846C497.139 401.904 497.825 402.254 498.308 402.818C498.791 403.381 499.03 404.113 498.974 404.852C498.918 405.591 498.571 406.276 498.009 406.757C497.448 407.238 496.717 407.475 495.979 407.417C447.745 403.589 335.465 408.342 283.422 431.431C237.945 451.605 169.324 504.134 145.557 544.235C127.447 574.793 114.245 609.28 109.339 638.854C102.425 680.522 100.494 711.238 113.542 725.706C120.089 732.967 130.377 736.06 144.996 735.16C151.485 734.761 163.561 734.017 167.905 742.36C173.335 752.788 163.796 772.734 137.886 805.129C137.768 805.277 137.639 805.41 137.5 805.526V805.526Z" fill="#E94A47"/>
<path d="M485.615 397.839L505.763 399.639L492.667 412.159L485.615 397.839Z" fill="#A1C3FC"/>
<path d="M493.392 397.526C487.85 389.527 477.18 386.535 468.208 390.935C465.557 392.233 463.23 394.105 461.395 396.417C459.561 398.729 458.265 401.422 457.603 404.302C457.425 404.409 457.248 404.514 457.071 404.622C436.817 417.007 420.875 411.009 420.875 411.009C420.875 411.009 420.95 412.973 421.059 413.964C423.125 432.765 441.714 446.202 462.578 443.975C480.899 442.019 494.879 428.634 496.615 412.67C497.212 409.57 497.061 406.369 496.172 403.334C495.602 400.866 494.654 398.953 493.392 397.526V397.526Z" fill="url(#paint0_linear_1_99)"/>
<path d="M441.244 389.188C433.94 396.824 434.467 409.189 442.421 416.809C450.375 424.429 462.743 424.416 470.047 416.781C477.351 409.146 467.832 403.577 457.31 400.351C445.241 396.652 442.439 388.045 442.439 388.045C442.439 388.045 441.629 388.787 441.244 389.188V389.188Z" fill="#A1C3FC"/>
<path d="M487.335 405.642C488.728 404.474 488.906 402.394 487.734 400.997C486.562 399.6 484.483 399.415 483.09 400.583C481.698 401.752 481.52 403.831 482.692 405.228C483.864 406.625 485.943 406.811 487.335 405.642Z" fill="#23286B"/>
<path d="M849.675 286.087L841.11 307.043L860.318 300.46L849.675 286.087Z" fill="#A1C3FC"/>
<path d="M898.93 230.198C897.999 229.58 896.081 228.495 896.081 228.495C896.081 228.495 893.861 247.429 871.109 261.196L870.516 261.561C864.242 259.967 857.341 261.091 851.745 265.232C842.747 271.889 840.243 284.035 845.364 293.657C846.134 295.647 847.555 297.573 849.722 299.406C852.289 301.849 855.399 303.646 858.795 304.646C875.595 311.128 896.12 304.112 907.486 286.902C920.434 267.305 916.602 241.918 898.93 230.198V230.198Z" fill="url(#paint1_linear_1_99)"/>
<path d="M863.866 237.53C875.229 234.194 887.279 241.076 890.783 252.9C894.286 264.724 887.916 277.015 876.553 280.35C865.19 283.686 864.534 271.36 866.73 259.244C869.249 245.342 862.113 238.132 862.113 238.132C862.113 238.132 863.267 237.706 863.866 237.53V237.53Z" fill="#A1C3FC"/>
<path d="M857.514 291.234C859.074 289.925 859.274 287.595 857.96 286.03C856.647 284.465 854.318 284.257 852.758 285.566C851.199 286.875 850.999 289.205 852.312 290.77C853.625 292.335 855.954 292.542 857.514 291.234Z" fill="#23286B"/>
</g>
<defs>
<linearGradient id="paint0_linear_1_99" x1="496.148" y1="402.232" x2="429.389" y2="435.106" gradientUnits="userSpaceOnUse">
<stop offset="0.489" stop-color="#A1C3FC"/>
<stop offset="1" stop-color="#78A9EF"/>
</linearGradient>
<linearGradient id="paint1_linear_1_99" x1="848.646" y1="298.83" x2="915.625" y2="249.231" gradientUnits="userSpaceOnUse">
<stop offset="0.489" stop-color="#A1C3FC"/>
<stop offset="1" stop-color="#78A9EF"/>
</linearGradient>
<clipPath id="clip0_1_99">
<rect width="1004.58" height="418.978" fill="white" transform="translate(0.0661621 646.072) rotate(-40)"/>
</clipPath>
</defs>
</svg>
