<svg width="290" height="119" viewBox="0 0 290 119" fill="none" xmlns="http://www.w3.org/2000/svg">
<path d="M31.8316 88.4214C25.1756 88.4214 19.6716 87.5254 15.3196 85.7334C11.0316 83.9414 7.83164 81.5734 5.71964 78.6294C3.67164 75.6214 2.64764 72.4214 2.64764 69.0294C2.64764 65.7654 3.57564 62.5014 5.43164 59.2374C7.28764 55.9734 9.97565 53.0294 13.4956 50.4054C17.0156 47.7174 21.3036 45.6374 26.3596 44.1654C27.6396 43.7814 29.1756 43.4294 30.9676 43.1094C32.8236 42.7894 34.5196 42.5974 36.0556 42.5334C34.2636 41.8934 32.4396 40.9974 30.5836 39.8454C28.7276 38.6934 27.1916 37.3174 25.9756 35.7174C24.8236 34.1174 24.3116 32.3894 24.4396 30.5334C24.6956 27.5894 25.7196 24.9014 27.5116 22.4694C29.3676 19.9734 31.7356 17.7334 34.6156 15.7494C37.4956 13.7654 40.6636 12.1014 44.1196 10.7574C47.5756 9.41341 51.0636 8.38941 54.5836 7.68541C58.1676 6.91741 61.5276 6.53341 64.6636 6.53341C65.3676 6.53341 66.0396 6.5654 66.6796 6.6294C67.3196 6.6294 67.9276 6.66141 68.5036 6.72541C73.6876 7.30141 77.4636 8.54941 79.8316 10.4694C82.1996 12.3254 83.3836 14.4374 83.3836 16.8054C83.3836 19.5574 81.8796 22.2774 78.8716 24.9654C75.9276 27.6534 71.8316 29.5734 66.5836 30.7254C65.5596 30.9174 64.7596 31.0134 64.1836 31.0134C63.2236 31.0134 62.7436 30.8214 62.7436 30.4374C62.7436 30.2454 63.0316 29.9574 63.6076 29.5734C64.2476 29.1894 65.1116 28.9654 66.1996 28.9014C68.1196 28.7094 69.9436 27.9414 71.6716 26.5974C73.4636 25.2534 74.9036 23.6534 75.9916 21.7974C77.1436 19.8774 77.7196 18.0534 77.7196 16.3254C77.7196 14.5334 76.9836 12.9654 75.5116 11.6214C74.1036 10.2134 71.6397 9.34941 68.1196 9.02941C67.6076 8.96541 67.0636 8.93341 66.4876 8.93341C65.9756 8.86941 65.4316 8.8374 64.8556 8.8374C61.0156 8.8374 57.1436 9.3814 53.2396 10.4694C49.3356 11.5574 45.7516 13.0934 42.4876 15.0774C39.2236 17.0614 36.5996 19.3334 34.6156 21.8934C32.6316 24.4534 31.6396 27.2374 31.6396 30.2454C31.6396 32.3574 32.1516 34.0534 33.1756 35.3334C34.2636 36.6134 35.6076 37.6054 37.2076 38.3094C38.8716 39.0134 40.5996 39.5894 42.3916 40.0374C44.1836 40.4854 45.8476 40.9014 47.3836 41.2854C48.9836 41.6694 50.2316 42.1494 51.1276 42.7254C52.0236 43.3014 52.3436 44.1334 52.0876 45.2214C51.8316 45.9254 51.2556 46.4054 50.3596 46.6614C49.4636 46.8534 48.2796 46.9494 46.8076 46.9494C45.7836 46.9494 44.6316 46.9494 43.3516 46.9494C42.1356 46.8854 40.8236 46.8534 39.4156 46.8534C37.4316 46.8534 35.3516 46.9494 33.1756 47.1414C31.0636 47.2694 28.8876 47.6534 26.6476 48.2934C23.2556 49.2534 20.2476 50.8854 17.6236 53.1894C15.0636 55.4294 13.0476 58.0214 11.5756 60.9654C10.1676 63.8454 9.46364 66.7894 9.46364 69.7974C9.46364 72.6774 10.2316 75.3654 11.7676 77.8614C13.3036 80.3574 15.7356 82.3734 19.0636 83.9094C22.3916 85.4454 26.7756 86.2134 32.2156 86.2134C37.2076 86.2134 42.0396 85.5734 46.7116 84.2934C51.3836 83.0134 55.7036 81.3814 59.6716 79.3974C63.6396 77.3494 67.0316 75.2374 69.8477 73.0614C72.1516 71.2054 74.0076 69.3174 75.4156 67.3974C76.8876 65.4774 77.6236 63.8134 77.6236 62.4054C77.6236 60.8694 76.7596 59.9094 75.0316 59.5254C73.6236 59.1414 72.9196 58.7574 72.9196 58.3734C72.9196 57.9894 73.4316 57.7974 74.4556 57.7974C74.8396 57.7974 75.2556 57.8294 75.7036 57.8934C76.1516 57.9574 76.5996 58.1174 77.0476 58.3734C79.9277 59.7814 81.3677 61.7654 81.3677 64.3254C81.3677 67.9734 78.7757 71.8134 73.5916 75.8454C70.4556 78.3414 66.6156 80.5494 62.0716 82.4694C57.5916 84.3254 52.7276 85.7654 47.4796 86.7894C42.2956 87.8774 37.0796 88.4214 31.8316 88.4214ZM129.377 87.3654C123.937 87.3654 119.425 86.5014 115.841 84.7734C112.257 83.1094 109.569 80.9014 107.777 78.1494C106.049 75.3334 105.185 72.3574 105.185 69.2214C105.185 65.7014 106.241 62.2134 108.353 58.7574C110.465 55.2374 113.601 52.2294 117.761 49.7334C121.985 47.1734 127.137 45.5734 133.217 44.9334C132.321 43.7174 131.649 42.3414 131.201 40.8054C130.753 39.2054 130.529 37.7014 130.529 36.2934C130.593 32.9014 131.553 29.9254 133.409 27.3654C135.265 24.7414 137.633 22.5334 140.513 20.7414C143.457 18.9494 146.593 17.6054 149.921 16.7094C153.249 15.7494 156.385 15.2694 159.329 15.2694C161.121 15.2694 162.945 15.5254 164.801 16.0374C166.657 16.4854 168.225 17.3174 169.505 18.5334C170.785 19.7494 171.425 21.4774 171.425 23.7174C171.425 25.5734 170.849 27.2374 169.697 28.7094C168.545 30.1814 167.137 30.9174 165.473 30.9174C164.257 30.9174 163.201 30.4694 162.305 29.5734C161.409 28.6774 160.961 27.6534 160.961 26.5014C160.961 25.1574 161.377 24.0694 162.209 23.2374C163.105 22.3414 164.193 21.8934 165.473 21.8934C166.049 21.8934 166.689 22.0854 167.393 22.4694C168.161 22.8534 168.641 23.2374 168.833 23.6214C168.897 23.3654 168.929 23.0134 168.929 22.5654C168.929 20.8374 168.225 19.6214 166.817 18.9174C165.409 18.2134 163.905 17.8614 162.305 17.8614C159.745 17.8614 156.769 18.5014 153.377 19.7814C149.985 20.9974 146.689 23.0134 143.489 25.8294C142.337 26.8534 141.153 28.1974 139.937 29.8614C138.721 31.5254 137.697 33.3174 136.865 35.2374C136.033 37.0934 135.617 38.9814 135.617 40.9014C135.617 42.3734 135.873 43.6534 136.385 44.7414C137.345 44.7414 138.433 44.7094 139.649 44.6454C140.929 44.5174 142.241 44.4534 143.585 44.4534C145.249 44.4534 146.561 44.8054 147.521 45.5094C148.481 46.2134 148.961 47.0134 148.961 47.9094C148.961 48.5494 148.577 49.1574 147.809 49.7334C147.041 50.3094 145.825 50.5974 144.161 50.5974C142.049 50.5974 140.129 50.1494 138.401 49.2534C136.737 48.2934 135.425 47.3334 134.465 46.3734C130.241 46.9494 126.657 48.5174 123.713 51.0774C120.769 53.6374 118.529 56.6774 116.993 60.1974C115.457 63.6534 114.689 67.1094 114.689 70.5654C114.689 73.3174 115.201 75.8774 116.225 78.2454C117.313 80.6134 118.945 82.5014 121.121 83.9094C123.297 85.3814 126.049 86.1174 129.377 86.1174C132.833 86.1174 135.969 85.4774 138.785 84.1974C141.665 82.9814 144.129 81.3814 146.177 79.3974C148.225 77.4134 149.793 75.3334 150.881 73.1574C152.033 70.9174 152.609 68.8374 152.609 66.9174C152.609 65.2534 152.001 63.8774 150.785 62.7894C149.633 61.6374 148.097 60.8054 146.177 60.2934C144.257 59.7174 142.209 59.4294 140.033 59.4294C137.793 59.4294 135.553 59.7494 133.313 60.3894C131.137 60.9654 129.281 61.8934 127.745 63.1734C126.209 64.3894 125.281 65.9574 124.961 67.8774C124.961 68.0054 124.929 68.1654 124.865 68.3574C124.865 68.4854 124.865 68.6134 124.865 68.7414C124.865 70.1494 125.377 71.5574 126.401 72.9654C127.489 74.3094 129.153 75.5574 131.393 76.7094C131.969 76.9654 132.257 77.4454 132.257 78.1494C132.257 78.8534 131.937 79.0454 131.297 78.7254C127.777 76.8694 125.185 74.8534 123.521 72.6774C121.921 70.4374 121.121 68.3254 121.121 66.3414C121.121 63.4614 122.657 60.9974 125.729 58.9494C128.865 56.8374 133.313 55.7814 139.073 55.7814H156.065C157.089 55.7814 158.593 55.5574 160.577 55.1094C162.625 54.6614 164.705 54.0214 166.817 53.1894C168.929 52.2934 170.721 51.2694 172.193 50.1174C173.729 48.9014 174.497 47.5254 174.497 45.9894C174.497 45.1574 174.209 44.2614 173.633 43.3014C173.505 43.1094 173.441 42.8854 173.441 42.6294C173.441 42.2454 173.601 42.0534 173.921 42.0534C174.177 42.0534 174.401 42.2134 174.593 42.5334C175.553 43.9414 176.033 45.3814 176.033 46.8534C176.033 48.5814 175.393 50.1814 174.113 51.6534C172.897 53.1254 171.233 54.4374 169.121 55.5894C167.009 56.6774 164.641 57.5094 162.017 58.0854C159.457 58.6614 156.833 58.9174 154.145 58.8534C155.361 59.8774 156.257 61.0294 156.833 62.3094C157.409 63.5894 157.697 64.9334 157.697 66.3414C157.697 68.7094 156.993 71.1414 155.585 73.6374C154.177 76.0694 152.193 78.3414 149.633 80.4534C147.073 82.5014 144.065 84.1654 140.609 85.4454C137.217 86.7254 133.473 87.3654 129.377 87.3654ZM144.161 48.9654C146.273 48.9654 147.329 48.5494 147.329 47.7174C147.329 47.3974 147.041 47.0774 146.465 46.7574C145.953 46.3734 145.249 46.1494 144.353 46.0854C143.969 46.0214 143.329 45.9894 142.433 45.9894C141.537 45.9894 140.577 45.9894 139.553 45.9894C138.593 45.9894 137.793 45.9894 137.153 45.9894C138.753 47.9734 141.089 48.9654 144.161 48.9654ZM217.133 63.4614C216.685 63.5254 216.269 63.2374 215.885 62.5974C215.565 61.9574 215.405 61.3174 215.405 60.6774C215.405 60.1654 215.533 59.7494 215.789 59.4294C216.045 59.0454 216.461 58.8534 217.037 58.8534C218.061 58.8534 220.013 58.8534 222.893 58.8534C225.773 58.8534 228.941 58.8854 232.397 58.9494C232.973 57.8614 233.517 56.7734 234.029 55.6854C234.605 54.5334 235.181 53.3494 235.757 52.1334C230.701 52.2614 226.317 51.5254 222.605 49.9254C218.893 48.2614 216.013 46.0534 213.965 43.3014C211.981 40.5494 210.989 37.6054 210.989 34.4694C210.989 31.9094 211.725 29.4134 213.197 26.9814C214.669 24.4854 216.973 22.2454 220.109 20.2614C223.309 18.2134 227.373 16.6134 232.301 15.4614C232.621 15.3334 232.909 15.2694 233.165 15.2694C233.485 15.2694 233.773 15.2694 234.029 15.2694C234.989 15.2694 235.469 15.4614 235.469 15.8454C235.469 16.4854 234.445 16.9334 232.397 17.1894C229.069 17.5734 226.125 18.7574 223.565 20.7414C221.069 22.7254 219.117 25.0934 217.709 27.8454C216.365 30.5974 215.693 33.3814 215.693 36.1974C215.693 38.6294 216.269 40.9014 217.421 43.0134C218.573 45.1254 220.397 46.8534 222.893 48.1974C225.389 49.4774 228.621 50.1174 232.589 50.1174C233.997 50.1174 235.501 50.0214 237.101 49.8294C237.357 49.3174 237.773 48.2934 238.349 46.7574C238.989 45.1574 239.693 43.3654 240.461 41.3814C241.229 39.3974 241.965 37.4774 242.669 35.6214C243.437 33.7654 244.045 32.2294 244.493 31.0134C245.005 29.7334 245.261 29.0934 245.261 29.0934C248.205 21.7334 251.213 15.9734 254.285 11.8134C257.421 7.58941 260.429 4.61341 263.309 2.88541C266.253 1.15741 268.877 0.293406 271.181 0.293406C273.677 0.293406 275.725 1.02941 277.325 2.50141C278.989 3.97341 279.885 5.63741 280.013 7.4934C280.077 8.0694 280.109 8.4854 280.109 8.74141C280.109 8.99741 280.109 9.31741 280.109 9.7014C280.109 13.4774 279.341 17.2534 277.805 21.0294C276.333 24.8054 274.253 28.3894 271.565 31.7814C268.941 35.1734 265.901 38.2454 262.445 40.9974C259.053 43.7494 255.405 46.0534 251.501 47.9094C247.661 49.7654 243.757 51.0454 239.789 51.7494C239.085 53.1574 238.445 54.4374 237.869 55.5894C237.357 56.6774 236.813 57.7974 236.237 58.9494C238.797 59.0134 241.293 59.0774 243.725 59.1414C246.221 59.1414 248.365 59.1734 250.157 59.2374C250.797 59.2374 251.277 59.4294 251.597 59.8134C251.981 60.1334 252.173 60.4534 252.173 60.7734C252.173 61.4774 251.629 61.8294 250.541 61.8294C248.621 61.8294 246.221 61.8934 243.341 62.0214C240.461 62.0854 237.517 62.1814 234.509 62.3094C234.061 63.1414 233.549 64.0694 232.973 65.0934C232.461 66.0534 231.885 67.1414 231.245 68.3574C230.797 69.1894 230.445 69.7974 230.189 70.1814C229.997 70.5014 229.677 71.0134 229.229 71.7174C232.429 72.4854 235.917 73.5734 239.693 74.9814C243.469 76.3254 247.181 77.9574 250.829 79.8774C254.541 81.7334 257.837 83.7814 260.717 86.0214C264.301 88.7734 266.829 91.8774 268.301 95.3334C269.837 98.7894 270.605 101.829 270.605 104.453C270.605 106.309 270.317 107.717 269.741 108.677C268.909 110.085 268.077 110.981 267.245 111.365C266.413 111.813 265.773 112.037 265.325 112.037C264.749 112.037 264.621 111.589 264.941 110.693C265.325 109.861 265.677 109.093 265.997 108.389C266.573 107.237 266.861 105.445 266.861 103.013C266.861 100.901 266.477 98.6294 265.709 96.1974C264.941 93.7654 263.437 91.5574 261.197 89.5734C258.125 86.7574 254.669 84.5174 250.829 82.8534C246.989 81.1894 242.957 79.8454 238.733 78.8214C234.573 77.7974 230.445 76.9014 226.349 76.1334C223.853 79.5894 221.165 82.6934 218.285 85.4454C215.469 88.1974 212.461 90.3094 209.261 91.7814C207.469 92.6134 205.741 93.2214 204.077 93.6054C202.413 94.0534 200.845 94.2774 199.373 94.2774C195.789 94.2774 192.845 93.3174 190.541 91.3974C188.301 89.5414 187.181 87.3334 187.181 84.7734C187.181 82.3414 188.269 79.9734 190.445 77.6694C192.685 75.3014 196.365 73.3494 201.485 71.8134C203.533 71.2374 205.805 70.8214 208.301 70.5654C210.797 70.2454 213.389 70.0854 216.077 70.0854C217.741 70.0854 219.373 70.1494 220.973 70.2774C222.637 70.3414 224.173 70.5334 225.581 70.8534C227.245 68.2934 228.877 65.5094 230.477 62.5014C227.533 62.6934 224.813 62.8854 222.317 63.0774C219.885 63.2054 218.157 63.3334 217.133 63.4614ZM241.133 49.1574C245.485 48.1974 249.741 46.4694 253.901 43.9734C258.061 41.4134 261.805 38.3414 265.133 34.7574C268.461 31.1094 271.117 27.1734 273.101 22.9494C275.085 18.6614 276.077 14.3094 276.077 9.89341C276.077 8.80541 275.789 7.90941 275.213 7.20541C274.637 6.50141 273.805 6.1494 272.717 6.1494C271.245 6.1494 269.357 6.98141 267.053 8.64541C264.749 10.2454 262.125 12.9654 259.181 16.8054C256.237 20.5814 253.069 25.7974 249.677 32.4534C249.677 32.4534 249.229 33.2854 248.333 34.9494C247.501 36.6134 246.413 38.7254 245.069 41.2854C243.789 43.7814 242.477 46.4054 241.133 49.1574ZM198.029 91.4934C199.437 91.4934 200.941 91.3014 202.541 90.9174C204.205 90.5334 205.933 89.9254 207.725 89.0934C213.101 86.4694 218.061 81.9254 222.605 75.4614C221.133 75.1414 219.597 74.9174 217.997 74.7894C216.397 74.5974 214.765 74.5014 213.101 74.5014C211.373 74.5014 209.581 74.5974 207.725 74.7894C205.933 74.9814 204.173 75.3334 202.445 75.8454C198.157 76.9974 194.861 78.4694 192.557 80.2614C190.317 82.0534 189.197 83.8774 189.197 85.7334C189.197 87.3334 189.997 88.6774 191.597 89.7654C193.197 90.9174 195.341 91.4934 198.029 91.4934Z" fill="#212B36"/>
</svg>
