<svg width="995" height="878" viewBox="0 0 995 878" fill="none" xmlns="http://www.w3.org/2000/svg">
<g clip-path="url(#clip0_1_100)">
<path d="M523.056 359.046L504.26 361.934L517.291 372.9L523.056 359.046ZM175.385 276.243L184.666 295.394L166.254 290.362L175.385 276.243Z" fill="#A1C3FC"/>
<path d="M3.96987 319.761C17.5448 317.025 30.6226 312.207 42.7402 305.478C47.8135 302.662 52.7411 299.493 57.5051 296.43C59.6888 295.018 61.8821 293.621 64.085 292.24C79.3673 282.705 95.5079 274.629 112.293 268.118C118.886 265.564 126.559 262.859 134.216 263.113C141.96 263.369 148.861 267.098 151.798 272.609L156.429 270.123C152.571 262.886 144.134 258.188 134.408 257.864C125.763 257.576 117.489 260.478 110.413 263.221C93.3195 269.851 76.8824 278.075 61.3192 287.784C59.095 289.174 56.8868 290.594 54.6802 292.013C49.9846 295.032 45.1326 298.153 40.2083 300.886C28.5634 307.354 15.9954 311.984 2.94979 314.613L3.96987 319.761ZM226.385 352.56C239.477 362.202 253.92 369.203 269.043 372.961C292.69 378.836 317.651 375.846 338.653 366.074C348.531 371.476 359.175 375.261 369.77 377.093C394.505 381.374 420.955 375.568 443.861 362.016C467.59 368.065 494.522 367.413 515.599 365.229C516.281 365.145 516.905 364.797 517.335 364.259C517.766 363.721 517.969 363.036 517.9 362.352C517.832 361.667 517.498 361.038 516.97 360.599C516.442 360.16 515.762 359.946 515.077 360.004C495.914 361.99 471.82 362.701 450.08 358.086C462.444 349.764 473.248 339.324 481.992 327.248C492.583 312.596 497.665 298.577 497.101 285.578C496.471 271.108 486.79 254.342 470.077 251.77C454.858 249.427 440.89 258.917 429.158 279.365C429.804 272.15 429.601 264.766 427.398 257.606C423.481 244.865 410.474 232.785 396.299 235.492C379.84 238.636 372.515 258.646 373.788 276.787C373.949 279.113 374.176 281.433 374.466 283.746C372.288 282.464 369.845 281.576 367.164 281.23C357.054 279.93 347.798 286.179 340.071 299.394C338.444 287.422 333.122 274.177 324.676 267.13C319.433 262.754 313.459 261.229 307.399 262.723C295.316 265.696 292.589 282.4 291.977 289.444C289.275 320.528 308 347.046 333.123 362.826C313.921 370.904 291.573 373.139 270.322 367.86C233.464 358.7 200.737 329.326 182.785 289.278C182.5 288.644 181.975 288.149 181.325 287.903C180.675 287.657 179.953 287.68 179.319 287.967C178.684 288.254 178.188 288.781 177.94 289.432C177.692 290.084 177.713 290.806 177.997 291.441C189.274 316.604 206.227 337.712 226.385 352.56V352.56ZM338.862 360.196C313.758 345.648 294.586 320.052 297.206 289.886C298.032 280.379 301.469 269.593 308.638 267.827C313.077 266.735 317.344 267.858 321.311 271.173C330.891 279.168 336.025 297.205 335.287 309.332C335.25 309.947 335.43 310.555 335.796 311.049C336.161 311.544 336.689 311.893 337.287 312.037C337.886 312.18 338.516 312.108 339.068 311.834C339.62 311.559 340.058 311.099 340.307 310.535C345.527 298.679 354.303 284.876 366.482 286.443C370.176 286.918 373.316 288.885 375.729 291.562C376.977 297.871 378.742 303.808 381.027 309.384C380.462 314.709 378.456 320.487 375.029 326.644C366.994 341.069 354.145 352.565 338.862 360.196V360.196ZM436.823 359.988C416.038 371.137 392.639 375.719 370.682 371.919C361.78 370.379 352.832 367.388 344.399 363.178C359.208 355.11 371.637 343.509 379.607 329.193C381.888 325.098 383.601 321.122 384.742 317.286C392.051 330.951 402.951 342.197 417.57 351.252C423.459 354.897 429.959 357.764 436.823 359.988V359.988ZM443.076 356.385C434.883 354.128 427.164 351.006 420.341 346.781C404.387 336.904 393.122 324.234 386.368 308.458C386.514 306.28 386.436 304.093 386.135 301.932C385.511 297.525 383.606 292.928 380.624 289.176C379.85 284.953 379.315 280.689 379.022 276.405C377.911 260.582 383.823 243.222 397.266 240.653C408.596 238.49 419.124 248.577 422.383 259.168C426.004 270.942 423.525 284.021 421.339 295.56C421.218 296.198 421.337 296.857 421.672 297.411C422.008 297.964 422.537 298.373 423.158 298.559C423.778 298.745 424.446 298.694 425.032 298.416C425.619 298.138 426.083 297.653 426.334 297.054C434.739 277.044 449.009 253.845 469.262 256.964C482.711 259.036 491.31 273.265 491.857 285.824C492.37 297.609 487.621 310.513 477.744 324.179C468.403 337.08 456.623 348.024 443.076 356.385V356.385Z" fill="#E94A47"/>
<path d="M875.334 718.126C875.858 718.51 876.507 718.686 877.154 718.618C877.802 718.551 878.402 718.245 878.838 717.76C879.274 717.275 879.515 716.646 879.514 715.995C879.514 715.344 879.271 714.717 878.834 714.236C847.375 679.639 845.918 667.153 847.849 662.79C849.777 658.436 856.803 657.825 864.11 657.811C879.583 657.782 890.396 653.618 897.169 645.076C909.901 629.021 906.525 600.193 896.951 558.885C890.448 530.824 875.73 498.61 856.572 470.504C831.351 433.508 762.621 387.416 718.017 370.919C666.991 352.047 560.113 354.235 514.619 360.761C513.93 360.86 513.307 361.229 512.888 361.786C512.469 362.344 512.288 363.045 512.384 363.734C512.481 364.424 512.847 365.046 513.403 365.464C513.958 365.882 514.658 366.061 515.347 365.962C560.37 359.502 665.988 357.283 716.185 375.848C760.049 392.069 827.551 437.267 852.233 473.474C871.041 501.065 885.478 532.635 891.839 560.087C900.804 598.767 904.443 627.469 893.063 641.818C887.352 649.019 877.884 652.532 864.116 652.558C858.005 652.569 846.631 652.59 843.052 660.675C838.579 670.781 848.714 688.926 874.949 717.776C875.068 717.908 875.197 718.025 875.334 718.126V718.126Z" fill="#E94A47"/>
<path d="M524.5 356.36L505.704 359.247L518.735 370.215L524.5 356.36Z" fill="#A1C3FC"/>
<path d="M517.185 356.53C521.909 348.696 531.741 345.254 540.42 348.848C542.984 349.908 545.278 351.526 547.137 353.586C548.995 355.646 550.371 358.096 551.164 360.757C551.337 360.847 551.509 360.935 551.682 361.026C571.419 371.44 586.019 364.865 586.019 364.865C586.019 364.865 586.065 366.712 586.022 367.648C585.202 385.409 568.562 399.121 548.856 398.272C531.551 397.527 517.64 385.802 515.062 370.929C514.317 368.055 514.269 365.044 514.922 362.144C515.31 359.794 516.086 357.944 517.185 356.53V356.53Z" fill="url(#paint0_linear_1_100)"/>
<path d="M565.612 345.606C572.918 352.334 573.159 363.966 566.15 371.588C559.142 379.21 547.538 379.933 540.232 373.205C532.925 366.476 541.524 360.685 551.203 357.034C562.306 352.845 564.422 344.604 564.422 344.604C564.422 344.604 565.226 345.252 565.612 345.606V345.606Z" fill="#A1C3FC"/>
<path d="M523.35 363.784C521.974 362.77 521.683 360.83 522.7 359.45C523.716 358.069 525.656 357.772 527.031 358.785C528.407 359.798 528.698 361.738 527.681 363.119C526.665 364.499 524.725 364.797 523.35 363.784Z" fill="#23286B"/>
<path d="M176.31 273.175L185.591 292.326L167.18 287.293L176.31 273.175Z" fill="#A1C3FC"/>
<path d="M126.776 223.672C127.613 223.038 129.348 221.906 129.348 221.906C129.348 221.906 132.557 239.536 154.721 251.099L155.299 251.406C161.09 249.538 167.631 250.181 173.127 253.733C181.964 259.444 185.035 270.69 180.804 280.021C180.2 281.933 178.982 283.825 177.057 285.673C174.795 288.118 171.983 289.989 168.857 291.129C153.482 298.209 133.809 292.848 122.122 277.379C108.809 259.764 110.895 235.719 126.776 223.672V223.672Z" fill="url(#paint1_linear_1_100)"/>
<path d="M160.108 228.466C149.249 226.012 138.354 233.185 135.77 244.486C133.186 255.787 139.894 266.939 150.752 269.392C161.611 271.846 161.493 260.243 158.712 249.007C155.522 236.115 161.788 228.926 161.788 228.926C161.788 228.926 160.68 228.595 160.108 228.466V228.466Z" fill="#A1C3FC"/>
<path d="M169.261 278.47C167.72 277.335 167.394 275.161 168.533 273.615C169.672 272.068 171.844 271.735 173.386 272.87C174.927 274.005 175.253 276.179 174.114 277.725C172.975 279.272 170.802 279.605 169.261 278.47Z" fill="#23286B"/>
</g>
<defs>
<linearGradient id="paint0_linear_1_100" x1="514.879" y1="361.108" x2="579.465" y2="387.978" gradientUnits="userSpaceOnUse">
<stop offset="0.489" stop-color="#A1C3FC"/>
<stop offset="1" stop-color="#78A9EF"/>
</linearGradient>
<linearGradient id="paint1_linear_1_100" x1="178.033" y1="285.069" x2="112.246" y2="242.521" gradientUnits="userSpaceOnUse">
<stop offset="0.489" stop-color="#A1C3FC"/>
<stop offset="1" stop-color="#78A9EF"/>
</linearGradient>
<clipPath id="clip0_1_100">
<rect width="944.341" height="393.854" fill="white" transform="matrix(-0.805183 -0.593027 -0.593027 0.805183 994.783 560.358)"/>
</clipPath>
</defs>
</svg>
