<svg xmlns="http://www.w3.org/2000/svg" viewBox="0 0 1500 1500" width="1500" height="1500"><defs><clipPath id="a"><path d="M0 0h99.684v92.319H0z"/></clipPath></defs><g clip-path="url(#a)" transform="translate(116.0 168.0) rotate(0.0 593.5 551.5) scale(11.907628104811204 11.947703073040218) translate(-0.0 -0.0)"><path d="M99.675 29.9c.379-16.226-10.2-26.8-21.111-29.286C65.93-2.274 52.5 4.934 52.709 25.221 47.954 12.959 39.461 6.489 30.847 4.524 12.47.331-7.2 16.384 2.617 42.188c14.288 38 63.48 50.131 63.48 50.131S99 59.346 99.675 29.9Z" fill="#0daddd" data-name="Layer 2"/></g><defs><clipPath id="b"><path d="M0 0h611.845v395.967H0z"/></clipPath></defs><g clip-path="url(#b)" transform="translate(1048.0 584.0) rotate(-6.60949403904288 172.0 111.0) scale(0.5622338991084344 0.5606527816711999) translate(-0.0 -0.0)"><path d="M573.53 379.9c-157.8 47.5-530.1-19.2-564.7-84.7-30.7-58 23.9-132.6 83.1-134.1 2.2 9.1 9.1 20.9 14.4 26.3a2.067 2.067 0 0 0 2.8.5 2 2 0 0 0 .8-1.9 110.536 110.536 0 0 1 .3-23S124.03.7 304.03 0c102.1-.4 150.2 76 168 114l.1.1c-17 5.3-27.7 16.7-34.6 26.1a4.1 4.1 0 0 0 .6 5.7 3.97 3.97 0 0 0 4.3.5c16.7-7.6 37.7-10.3 38.7-10.4v.1c145 11.5 159.1 195 92.4 243.8Z" fill="#fff" data-name="Layer 2"/></g><defs><clipPath id="c"><path d="M0 0h611.845v395.967H0z"/></clipPath></defs><g clip-path="url(#c)" transform="translate(448.0 758.0) rotate(-5.9341373161449935 322.5 208.5) scale(1.0541885608283144 1.0531180628688754) translate(-0.0 -0.0)"><path d="M573.53 379.9c-157.8 47.5-530.1-19.2-564.7-84.7-30.7-58 23.9-132.6 83.1-134.1 2.2 9.1 9.1 20.9 14.4 26.3a2.067 2.067 0 0 0 2.8.5 2 2 0 0 0 .8-1.9 110.536 110.536 0 0 1 .3-23S124.03.7 304.03 0c102.1-.4 150.2 76 168 114l.1.1c-17 5.3-27.7 16.7-34.6 26.1a4.1 4.1 0 0 0 .6 5.7 3.97 3.97 0 0 0 4.3.5c16.7-7.6 37.7-10.3 38.7-10.4v.1c145 11.5 159.1 195 92.4 243.8Z" fill="#fff" data-name="Layer 2"/></g><defs><clipPath id="d"><path d="M0 0h109.318v211.625H0z"/></clipPath></defs><g clip-path="url(#d)" transform="translate(818.0 347.0) rotate(-26.48995232629717 200.0 387.5) scale(3.65904974478128 3.6621382161842884) translate(-0.0 -0.0)"><path fill="#1a2b4a" d="M.081 210.281c8.3-17.9 16.9-35.5 25.6-53.2 4.4-8.8 8.7-17.6 13.2-26.4l6.6-13.2 6.7-13.1 6.7-13.1 6.8-13.1c4.5-8.7 9.1-17.4 13.7-26.1 9.3-17.3 18.7-34.6 28.6-51.7.2-.3.6-.5 1-.3.3.2.4.6.3.9-8.1 18-16.7 35.7-25.3 53.4-4.4 8.8-8.7 17.6-13.2 26.4l-6.7 13.2-6.8 13.1-6.8 13.1-6.8 13.1c-4.5 8.7-9.2 17.4-13.8 26.1-9.3 17.4-18.6 34.7-28.3 51.8-.2.4-.8.6-1.2.3-.3-.3-.501-.8-.3-1.2z"/></g><defs><clipPath id="e"><path d="M0 0h109.318v211.625H0z"/></clipPath></defs><g clip-path="url(#e)" transform="translate(356.0 361.0) rotate(-27.639285724492343 200.0 387.5) scale(3.65904974478128 3.6621382161842884) translate(-0.0 -0.0)"><path fill="#1a2b4a" d="M.081 210.281c8.3-17.9 16.9-35.5 25.6-53.2 4.4-8.8 8.7-17.6 13.2-26.4l6.6-13.2 6.7-13.1 6.7-13.1 6.8-13.1c4.5-8.7 9.1-17.4 13.7-26.1 9.3-17.3 18.7-34.6 28.6-51.7.2-.3.6-.5 1-.3.3.2.4.6.3.9-8.1 18-16.7 35.7-25.3 53.4-4.4 8.8-8.7 17.6-13.2 26.4l-6.7 13.2-6.8 13.1-6.8 13.1-6.8 13.1c-4.5 8.7-9.2 17.4-13.8 26.1-9.3 17.4-18.6 34.7-28.3 51.8-.2.4-.8.6-1.2.3-.3-.3-.501-.8-.3-1.2z"/></g><defs><clipPath id="f"><path d="M0 0h228.258v205.346H0z"/></clipPath></defs><g clip-path="url(#f)" transform="translate(469.0 17.0) rotate(0.0 304.5 274.0) scale(2.6680335409930866 2.6686665432976535) translate(-0.0 -0.0)"><g data-name="Layer 2"><path d="M118.222 47.3c6-4 24-56 68-44 28.1 7.662 63.025 42.207 26 107-32 56-79 93-94 95s-83.382-67.974-105-100c-27-40-11-101 33-105 54.347-4.936 64.512 52 72 47Z" fill="#f04e23" data-name="heart_shape_2 copy 3"/></g></g><defs><clipPath id="g"><path transform="scale(1.7915101351351352 1.7833750000000002)" d="M-5 0h301v502H-5z"/></clipPath><clipPath id="h"><path d="M0 0h530.287v1184.161H0z"/></clipPath></defs><g clip-path="url(#g)" transform="translate(849.0 672.0) rotate(0.0 -148.0 332.0) scale(-0.5581883018063802 0.5607345622765822)"><g clip-path="url(#h)" transform="translate(-0.0 -0.0)"><g fill-rule="evenodd" clip-rule="evenodd"><path fill="#E84E27" d="M246.038 1076.57c-18.11-17.997-65.548 2.085-65.548 2.085.784 17.565-62.922 35.68-65.546 95.17-.195 4.421 2.447 8.381 6.345 8.979 23.956 3.675 58.748.066 91.953-13.004 5.487-2.16 9.257-7.897 9.513-14.433a130.6 130.6 0 0 1 1.792-16.564c.631-3.749 3.619-6.561 7.002-6.304 4.075.31 6.869 4.522 6.126 8.895-.674 3.969-1.123 7.563-1.385 10.851-.246 3.089 2.643 5.234 5.076 3.779a171.062 171.062 0 0 0 9.556-6.156c1.881-17.412 2.926-20.706 4.808-28.941 1.883-8.236 8.418-26.36-9.692-44.357zm112.777 0c18.11-17.997 65.548 2.085 65.548 2.085-.784 17.565 62.922 35.68 65.546 95.17.195 4.421-2.447 8.381-6.345 8.979-23.956 3.675-58.748.066-91.953-13.004-5.487-2.16-9.257-7.897-9.513-14.433a130.6 130.6 0 0 0-1.792-16.564c-.631-3.749-3.62-6.561-7.002-6.304-4.075.31-6.869 4.522-6.126 8.895.674 3.969 1.123 7.563 1.385 10.851.246 3.089-2.643 5.234-5.076 3.779a171.062 171.062 0 0 1-9.556-6.156c-1.881-17.412-2.926-20.706-4.808-28.941s-8.418-26.36 9.692-44.357z"/><path fill="#ffb400" d="M466.506 1128.245c-6.919-24.476-41.398-36-42.143-49.591-22.702-91.974-2.55-253.574-55.636-473.895-62.839 10.217-110.208 18.383-208.324-6.894-12.183 127.532 9.148 272.331 17.609 344.006 8.67 73.452 2.479 136.782 2.479 136.782-.745 13.591-35.224 25.114-42.144 49.591-1.057 3.738 1.389 7.534 4.874 7.59 33.632.541 81.741-19.985 103.452-39.756 4.901-4.868 1.814-11.938-.575-19.321-.217-2.879-1.916-6.011-2.009-9.988-1.609-68.26-13.783-277.306-3.659-312.388 20.681-8.042 38.301-7.606 70.085-2.298 35.134 114.321 45.197 231.322 50.251 314.686 0 10.559-9.692 22.25-2.584 29.309 21.71 19.771 69.819 40.297 103.452 39.756 3.483-.054 5.929-3.851 4.872-7.589z"/></g><path fill-rule="evenodd" clip-rule="evenodd" fill="#ffb400" d="M451.161 789.59c-1.107 4.472-2.443 9.01-2.038 13.6s3.031 9.339 7.437 10.686c6.457 1.975 12.588-3.965 15.847-9.879 9.626-17.47 9.23-38.611 7.19-58.453-.571-5.557-1.286-11.223-3.733-16.244s-6.961-9.363-12.491-10.155c-17.054-2.444-9.104 16.652-8.449 25.327a143.258 143.258 0 0 1-3.763 45.118z"/><path fill-rule="evenodd" clip-rule="evenodd" fill="#ffb400" d="M470.926 795.657c-1.107 4.472-2.443 9.01-2.038 13.6s3.031 9.339 7.437 10.686c6.457 1.975 12.588-3.965 15.847-9.879 9.626-17.47 9.23-38.611 7.19-58.453-.571-5.557-1.286-11.223-3.733-16.244s-6.961-9.363-12.491-10.155c-17.054-2.444-9.104 16.652-8.449 25.327a143.26 143.26 0 0 1-3.763 45.118z"/><path fill-rule="evenodd" clip-rule="evenodd" fill="#ffb400" d="M489.183 789.59c-1.107 4.472-2.443 9.01-2.038 13.6s3.031 9.339 7.437 10.686c6.457 1.975 12.588-3.965 15.847-9.879 9.626-17.47 9.23-38.611 7.19-58.453-.571-5.557-1.286-11.223-3.733-16.244-2.448-5.021-6.961-9.363-12.491-10.155-17.054-2.444-9.104 16.652-8.449 25.327a143.258 143.258 0 0 1-3.763 45.118z"/><path fill-rule="evenodd" clip-rule="evenodd" fill="#ffb400" d="M507.247 779.808c-.377 3.906-.939 7.896-.027 11.713s3.715 7.492 7.595 8.08c5.687.862 10.114-4.906 12.125-10.294 5.94-15.918 2.978-33.682-1.207-50.148-1.172-4.611-2.478-9.297-5.165-13.224s-7.029-7.024-11.787-7.004c-14.674.061-5.601 15.163-3.971 22.392a122.043 122.043 0 0 1 2.437 38.485z"/><path fill-rule="evenodd" clip-rule="evenodd" fill="#ffb400" d="M529.297 756.456c-1.212-12.465-3.565-42.818-16.507-59.524-12.941-16.706-60.439-18.331-57.866 47.54s74.373 11.984 74.373 11.984z"/><path fill-rule="evenodd" clip-rule="evenodd" fill="#ffb400" d="M435.587 751.436c-2.165 4.183-4.807 8.949-3.035 13.313 1.525 3.757 6.012 5.637 10.052 5.286 7.075-.616 12.551-6.599 15.739-12.945s4.856-13.412 8.478-19.521c5.401-9.109 15.151-16.277 16.3-26.804.974-8.924-5.801-18.011-14.631-19.625-10.819-1.977-20.945 6.502-23.031 16.594-3.131 15.145-2.535 29.526-9.872 43.702z"/><path fill="#F04E23" d="M482.074 753.823c.355-.019.719.639 1.072 1.862.213.736.375 1.485.485 2.243.137.879.29 1.884.362 2.999.205 2.613.23 5.237.073 7.853-.107 1.474-.208 3.029-.437 4.624-.189 1.601-.485 3.244-.799 4.925-.361 1.671-.724 3.301-1.168 4.851-.406 1.56-.915 3.032-1.386 4.433a56.784 56.784 0 0 1-3.104 7.213c-.498 1-1.028 1.867-1.494 2.625a16.887 16.887 0 0 1-1.314 1.881c-.799.991-1.388 1.457-1.708 1.302s-.342-.914-.115-2.138c.118-.61.292-1.34.491-2.184l.75-2.822c.58-2.073 1.245-4.534 1.953-7.261.326-1.372.716-2.796 1.035-4.293.358-1.487.667-3.04 1.01-4.625.296-1.594.612-3.146.858-4.656.284-1.504.476-2.968.706-4.359.402-2.789.741-5.314 1.008-7.451l.399-2.893c.142-.855.264-1.596.392-2.204.262-1.214.576-1.906.931-1.925zm17.785-2.424c.346-.084.825.53 1.401 1.737.351.726.644 1.479.875 2.251a28.68 28.68 0 0 1 .841 3.074c.292 1.256.518 2.527.678 3.807.215 1.378.304 2.862.404 4.428.047.783.031 1.586.043 2.407.017.822-.003 1.66-.06 2.512-.056 1.708-.262 3.466-.48 5.265-.292 1.789-.585 3.534-1.008 5.19a28.668 28.668 0 0 1-.644 2.429c-.24.786-.449 1.561-.712 2.3-.532 1.476-1.032 2.876-1.623 4.14a37.172 37.172 0 0 1-1.712 3.467 28.404 28.404 0 0 1-1.666 2.718 15.252 15.252 0 0 1-1.468 1.917c-.89.999-1.521 1.455-1.83 1.277-.309-.177-.267-.967.06-2.22l.649-2.237c.254-.865.604-1.815.908-2.896.332-1.069.707-2.228 1.046-3.491.388-1.246.705-2.604 1.082-4.014.186-.706.325-1.444.502-2.186a34.81 34.81 0 0 0 .479-2.286c.33-1.552.563-3.176.837-4.834.2-1.668.428-3.294.544-4.876.087-.789.146-1.565.178-2.329.037-.762.109-1.509.128-2.239.031-1.459.106-2.853.081-4.157.027-1.308-.01-2.525-.03-3.645.01-1.123-.062-2.133-.064-3.034l.001-2.329c.034-1.292.214-2.062.56-2.146zm16.25 30.009c-.346-.082-.564-.674-.667-1.654a33.453 33.453 0 0 1-.099-1.754c-.022-.677.002-1.434-.01-2.272.022-1.67.035-3.64.034-5.813-.027-1.087-.008-2.226-.064-3.404-.021-1.179-.097-2.396-.147-3.643-.093-1.245-.158-2.463-.272-3.636-.08-1.177-.229-2.305-.328-3.389a433.584 433.584 0 0 0-.702-5.771c-.084-.834-.195-1.583-.251-2.258a34.115 34.115 0 0 1-.104-1.754c-.011-.985.138-1.598.473-1.72.334-.121.824.263 1.429 1.081.362.489.682 1.008.957 1.55.379.701.718 1.422 1.016 2.16a37.19 37.19 0 0 1 1.862 5.913c.241 1.142.503 2.345.662 3.607.194 1.259.303 2.573.402 3.92.056 1.349.099 2.667.051 3.94-.013 1.272-.135 2.498-.243 3.659a37.285 37.285 0 0 1-1.17 6.088 21.382 21.382 0 0 1-.761 2.262c-.211.571-.47 1.122-.773 1.65-.507.882-.949 1.32-1.295 1.238zm-57.868-19.082c-.326.143-.783-.077-1.338-.62a6.576 6.576 0 0 1-.876-1.058 12.649 12.649 0 0 1-.925-1.524 22.08 22.08 0 0 1-1.688-4.295 26.364 26.364 0 0 1-.597-2.665c-.173-.933-.271-1.911-.357-2.913-.049-1.004-.083-1.986-.037-2.934.031-.91.109-1.818.234-2.72a22.079 22.079 0 0 1 1.097-4.482 12.81 12.81 0 0 1 .712-1.635c.201-.413.444-.804.727-1.166.478-.612.901-.892 1.243-.794.342.097.572.56.7 1.289.061.364.102.796.144 1.291.038.494.035 1.041.062 1.646l.053 4.158c.032.774.023 1.582.076 2.418l.129 2.583.218 2.578c.06.836.177 1.635.249 2.407l.505 4.127c.054.604.13 1.145.158 1.64.025.496.042.93.031 1.298-.028.739-.193 1.228-.52 1.371zm11.258 17.708c-.012 1.423-2.075 2.56-4.609 2.539s-4.579-1.191-4.567-2.614 2.076-2.56 4.609-2.539 4.578 1.191 4.567 2.614zm21.523.953a2.479 2.479 0 1 1-2.646-2.403 2.53 2.53 0 0 1 2.646 2.403zm19.096-4.072a2.798 2.798 0 1 1-3.461-1.565 2.69 2.69 0 0 1 3.461 1.565zm17.925-10.099c.48 1.339-.706 2.99-2.65 3.687-1.944.697-3.909.176-4.389-1.163-.48-1.339.706-2.99 2.65-3.688 1.944-.696 3.909-.176 4.389 1.164zm-70.903 35.218a3.7 3.7 0 0 1 3.359-.926 3.248 3.248 0 0 1 1.999 2.795 4.252 4.252 0 0 1-2.518 4.354c-4.361 1.689-5.874-3.738-2.84-6.223zm21.816 5.918a3.924 3.924 0 0 1 5.35.301c1.202 1.483.845 3.783-.313 5.301a4.488 4.488 0 0 1-3.505 1.907c-4.14-.08-3.994-5.482-1.532-7.509zm22.339-5.881a3.14 3.14 0 0 1 3.922 4.623c-.991 1.936-4.984 4.008-6.919 2.092-2.091-2.072.895-6.041 2.997-6.715zm18.88-12.153c.96.024 1.782.694 2 1.629a3.243 3.243 0 0 1-1.582 3.549c-1.485.83-2.881-.38-2.985-1.949-.086-1.297 1.219-3.137 2.567-3.229z"/><path fill="#00AEE0" d="M520.577 699.976h-76c0-121.541-13.976-212.521-41.539-270.411-25.494-41.854-42.345-51.805-64.276-55.694-2.391-1.477-4.649-2.871-6.899-4.336l41.455-63.697c1.494.972 3.293 2.083 5.375 3.368 29.872 7.277 63.213 25.203 92.963 87.687 15.229 31.984 27.033 71.455 35.085 117.317 9.181 52.296 13.836 114.797 13.836 185.766z"/><ellipse fill="#00AEE0" cx="482.688" cy="699.976" rx="38" ry="11.986"/><path fill="#04294F" d="M512.282 674.675c.165.445-.475 1.146-1.799 2.044-.795.54-1.63 1.02-2.498 1.434a36.75 36.75 0 0 1-3.46 1.543 50.182 50.182 0 0 1-4.333 1.512c-1.573.511-3.288.922-5.097 1.353-.905.213-1.844.372-2.8.557-.955.19-1.935.348-2.941.474-2.002.305-4.092.476-6.234.637-2.146.09-4.241.165-6.266.097a41.293 41.293 0 0 1-2.976-.127c-.971-.072-1.922-.119-2.846-.225-1.847-.216-3.598-.423-5.22-.747a49.91 49.91 0 0 1-4.48-.994 37.206 37.206 0 0 1-3.618-1.127c-.91-.31-1.796-.688-2.648-1.131-1.42-.736-2.138-1.358-2.026-1.819s1.039-.718 2.593-.794c.776-.031 1.711-.028 2.791-.03l3.63.099c1.338.043 2.793.112 4.357.133 1.558.068 3.225.055 4.971.092.873.016 1.769-.017 2.682-.013.913.008 1.843-.007 2.792-.045 1.896-.023 3.854-.143 5.862-.225 2.003-.153 3.962-.264 5.848-.463a56.718 56.718 0 0 0 2.778-.282c.906-.11 1.8-.183 2.665-.301 1.729-.24 3.386-.422 4.926-.673 1.55-.204 2.988-.442 4.311-.642l3.594-.522c1.073-.125 2.001-.237 2.776-.297 1.55-.109 2.501.038 2.666.482z"/><path fill-rule="evenodd" clip-rule="evenodd" fill="#ffb400" d="M73.283 667.994c-4.094-1.559-8.771-3.117-12.789-1.397-3.682 1.576-5.616 5.651-5.322 9.417.293 3.765 2.442 7.212 5.082 10.076 9.26 10.046 24.317 13.889 38.531 13.93 4.281.012 8.692-.302 12.529-2.071s7.001-5.278 7.084-9.266c.169-8.102-11.563-7.911-17.437-10.149l-27.678-10.54z"/><path fill-rule="evenodd" clip-rule="evenodd" fill="#ffb400" d="M96.588 653.085c-3.486-1.853-7.52-3.613-11.374-2.569-4.195 1.136-6.72 5.454-6.646 9.523.074 4.07 2.235 7.863 4.827 11.14 4.923 6.205 11.487 11.117 19.053 14.257 4.042 1.671 8.465 2.827 12.86 2.371 4.394-.456 8.743-2.765 10.586-6.509 3.353-6.812-2.79-10.205-7.504-13.783a161.351 161.351 0 0 0-21.802-14.43z"/><path fill-rule="evenodd" clip-rule="evenodd" fill="#ffb400" d="M173.022 667.166c-4.491 22.488-23.261 42.854-47.117 49.059-17.176 4.468-35.758 2.947-52.806-1.265-8.53-2.108-44.309-10.769-38.44-24.111 1.745-3.966 7.248-4.837 11.838-5.129 18.218-1.157 37.639-2.076 53.533 6.299 3.641-24.109 16.977-46.237 40.035-58.563 7.273-3.888 17.125-7.511 24.426-1.892 4.801 3.695 7.193 9.462 8.439 15.146a49.732 49.732 0 0 1 .092 20.456z"/><path fill="#F04E23" d="M56.813 686.745c.037.416 1.059.746 2.834 1.007.89.166 1.968.275 3.211.446l1.984.244 2.21.298c1.544.221 3.225.471 5.016.782.896.149 1.815.345 2.765.514l2.906.62c1.975.47 4.044.965 6.147 1.602a93.475 93.475 0 0 1 6.443 2.126c1.087.404 2.158.811 3.196 1.249l.641.263c.28.111.544.235.812.355l1.582.704 3.1 1.369.382.168c.062-.114.112-.234.147-.357l.271-.757.535-1.499 1.04-2.931.391-1.126.242-.728.47-1.433c1.227-3.78 2.247-7.211 3.015-10.122 1.537-5.82 2.065-9.556 1.221-9.827-.844-.271-2.901 2.973-5.544 8.438-1.321 2.732-2.789 6.02-4.326 9.7l-.579 1.398-.292.712-.131.318-.017.013c-.046.028-.072.041-.097.021a.459.459 0 0 1-.033-.044l-.007-.015s-.004-.005.005-.003l.009.002-.182-.078a61.64 61.64 0 0 0-3.466-1.39 68.775 68.775 0 0 0-7.048-2.19 70.038 70.038 0 0 0-6.749-1.378 105.083 105.083 0 0 0-3.183-.409c-1.038-.088-2.041-.193-3.016-.242a64.044 64.044 0 0 0-5.421-.077l-2.357.125c-.743.066-1.441.143-2.092.219a32.79 32.79 0 0 0-3.316.58c-1.801.459-2.757.92-2.719 1.333zm19.368 16.683c-1.329.157-2.104 2.501-1.731 5.236.373 2.734 1.752 4.824 3.081 4.666 1.329-.157 2.104-2.501 1.731-5.236-.372-2.734-1.752-4.824-3.081-4.666zm-8.722-2.08c-1.34 0-2.426 1.848-2.426 4.127s1.086 4.127 2.426 4.127c1.339 0 2.425-1.848 2.425-4.127.001-2.28-1.085-4.127-2.425-4.127z"/><path fill="#00AEE0" d="M105.974 672.141c23.81-5.306 42.913-17.609 57.783-36.207a5.936 5.936 0 0 0 .271-7.055c-8.165-11.894-19.538-23.702-32.519-37.179C108.083 567.379 76 534.07 76 507.541c0-3.781 2.247-24.801 46.599-67.467 29.207-28.097 63.886-53.093 81.958-65.493L163.074 310.9c-27.989 13.261-61.684 44.119-93.164 74.403C22.868 430.557 0 470.541 0 507.541c0 57.178 44.372 103.246 76.772 136.882 8.935 9.277 18.131 18.824 23.151 25.458a5.974 5.974 0 0 0 6.051 2.26z"/><path fill="#04294F" d="M88.185 646.177c.133.455 1.105.624 2.777.529a20.243 20.243 0 0 0 2.993-.389 39.14 39.14 0 0 0 3.871-.901 51.757 51.757 0 0 0 4.583-1.479c1.641-.567 3.336-1.311 5.123-2.095.892-.395 1.778-.858 2.695-1.309.92-.446 1.84-.935 2.761-1.468 1.868-1.015 3.724-2.199 5.617-3.424 1.85-1.288 3.65-2.556 5.296-3.901a42.122 42.122 0 0 0 2.405-1.999c.764-.678 1.529-1.322 2.232-1.998 1.403-1.357 2.734-2.644 3.88-3.947a52.083 52.083 0 0 0 3.105-3.681 39.316 39.316 0 0 0 2.301-3.241 20.15 20.15 0 0 0 1.494-2.623c.721-1.511.934-2.475.563-2.771-.371-.295-1.289.102-2.612 1.052-.656.48-1.423 1.09-2.316 1.789l-2.936 2.43c-1.08.9-2.241 1.895-3.527 2.918-1.249 1.06-2.645 2.118-4.073 3.268-.716.573-1.484 1.119-2.242 1.706a55.874 55.874 0 0 1-2.358 1.746c-1.597 1.192-3.31 2.338-5.041 3.546-1.774 1.144-3.484 2.295-5.192 3.322a55.954 55.954 0 0 1-2.51 1.52c-.831.479-1.626.983-2.428 1.429-1.606.887-3.114 1.777-4.568 2.531-1.433.802-2.795 1.5-4.037 2.158l-3.362 1.796c-.984.562-1.84 1.04-2.533 1.465-1.379.867-2.094 1.566-1.961 2.021z"/><path fill-rule="evenodd" clip-rule="evenodd" fill="#1A2B4A" d="M161.178 593.115c44.888 24.58 143.697 22.953 208.324 6.894 54.161 70.76 64.091 167.9 76.98 304.39 1.526 16.159-8.495 31.172-24 35.969-82.235 25.444-171.976 34.892-267.301-10.069-11.618-5.48-19.221-16.982-19.658-29.819-3.479-102.244 12.023-244.702 25.655-307.365z"/><path fill-rule="evenodd" clip-rule="evenodd" fill="#0DADDD" d="M140.736 324.142c21.883-17.96 62.298-31.149 154.468-28.34 93.702 4.851 120.216 24.919 138.638 44.681-8.003 37.223-46.432 151.208-59.701 246.463-1.414 10.151-9.173 18.223-19.248 20.107-79.446 14.854-156.111 5.956-193.716-13.937-6.637-6.632-6.637-6.632-9.117-13.164-3.675-9.678 4.122-20.66 7.569-34.439-6.02-22.468-17.931-90.177-25.26-114.882-2.345-34.49.176-68.181 6.367-106.489z"/><path fill-rule="evenodd" clip-rule="evenodd" fill="#ffb400" d="M259.527 297.844c-12.855 10.723-44.77 53.872-9.281 110.553 8.426 10.468 19.915 8.936 36 1.532 28.851-17.106 71.234-47.745 58.45-107.739-14.024-47.24-72.313-15.069-85.169-4.346z"/><path fill="#1A2B4A" d="M350.539 302.914c.232-.05.669 1.016 1.292 3.105.294 1.048.708 2.338 1.031 3.897.324 1.558.688 3.363 1.067 5.403.583 4.101 1.273 9.163 1.241 15.107.023 5.93-.495 12.748-2.21 20.102-.795 3.691-2.052 7.458-3.497 11.327-1.585 3.81-3.353 7.751-5.658 11.565-2.279 3.821-4.853 7.658-7.86 11.312a113.703 113.703 0 0 1-9.918 10.646c-7.221 6.84-15.603 13.027-24.556 18.821-4.478 2.9-9.104 5.703-13.789 8.497l-.44.262-.373.222-.399.183-.958.428-1.92.858c-1.294.557-2.612 1.09-3.932 1.625-2.687 1.001-5.405 2.002-8.307 2.712-.713.199-1.436.378-2.18.512-.739.144-1.467.308-2.211.429-1.509.2-3.006.416-4.56.437-3.075.096-6.27-.209-9.308-1.232-3.032-1.029-5.79-2.71-8.107-4.712l-1.677-1.553-1.479-1.674-.374-.427-.255-.292c-.117-.109-.187-.291-.258-.389l-.554-.935-1.029-1.741-2.04-3.461-1.873-3.521c-1.286-2.312-2.365-4.708-3.479-7.054-.576-1.163-1.061-2.364-1.551-3.554l-1.466-3.547-1.28-3.579c-.424-1.186-.855-2.361-1.188-3.564l-1.062-3.56c-.351-1.179-.596-2.383-.895-3.56-.623-2.35-1.002-4.728-1.44-7.053-.704-4.682-1.205-9.269-1.187-13.728l-.026-1.662c.003-.552.037-1.101.054-1.648l.132-3.249c.22-2.139.338-4.245.693-6.283.551-4.096 1.496-7.958 2.556-11.578 1.06-3.626 2.411-6.962 3.766-10.067 1.452-3.063 2.895-5.914 4.478-8.441a76.06 76.06 0 0 1 9.112-12.183c5.677-6.135 9.698-8.531 9.943-8.204.348.408-3.023 3.462-7.888 9.914-2.41 3.233-5.202 7.31-7.824 12.365-1.358 2.5-2.571 5.291-3.798 8.258-1.13 3.007-2.258 6.209-3.109 9.661-.851 3.447-1.599 7.097-1.977 10.95-.27 1.916-.308 3.895-.454 5.896l-.028 3.042c0 .511-.018 1.025-.006 1.541l.071 1.554c.099 4.164.685 8.449 1.442 12.822.465 2.175.863 4.394 1.499 6.597.305 1.104.553 2.228.907 3.334l1.065 3.341c.332 1.128.762 2.234 1.182 3.35l1.265 3.368 1.445 3.347c.481 1.123.955 2.256 1.521 3.358 1.092 2.221 2.142 4.489 3.4 6.689l1.823 3.348 1.989 3.302 1.001 1.662.465.771.015.025.076.081.287.319 1.171 1.316 1.28 1.161c1.748 1.479 3.687 2.639 5.821 3.363 4.296 1.378 9.344 1.035 14.397-.316 2.534-.614 5.044-1.535 7.53-2.453 1.238-.5 2.474-.995 3.699-1.518l1.831-.811.914-.404c.139-.065-.014.016.132-.068l.438-.26c4.679-2.763 9.249-5.493 13.646-8.286 8.789-5.58 16.911-11.424 23.883-17.796a112.419 112.419 0 0 0 9.574-9.862c2.909-3.37 5.401-6.896 7.637-10.406 2.261-3.503 4.018-7.127 5.632-10.641 1.474-3.573 2.796-7.058 3.688-10.502 1.91-6.855 2.742-13.309 3.078-19.003.392-5.703.105-10.652-.059-14.705l-.428-5.386c-.107-1.567-.302-2.881-.374-3.959-.176-2.147-.16-3.308.072-3.358zm-22.551 198.377c.068.467-.995 1.083-2.995 1.771s-4.942 1.434-8.646 2.081a89.705 89.705 0 0 1-6.107.839c-2.214.205-4.592.386-7.113.412-2.52.025-5.179-.022-7.937-.29a68.977 68.977 0 0 1-8.5-1.318 58.417 58.417 0 0 1-8.3-2.57c-2.621-1.017-5.043-2.266-7.279-3.561-2.231-1.312-4.23-2.763-6.013-4.22-1.761-1.488-3.304-2.986-4.579-4.472a32.438 32.438 0 0 1-3.136-4.231c-.395-.669-.765-1.283-1.068-1.871a39.232 39.232 0 0 1-.744-1.653 9.787 9.787 0 0 1-.701-2.426c-.08-.589-.017-.945.193-1.056.21-.11.556.029 1.017.382.478.343.996.945 1.739 1.65.363.358.752.76 1.164 1.203l1.407 1.379c1.01.976 2.18 2.05 3.532 3.155 1.341 1.115 2.884 2.24 4.58 3.371 1.72 1.102 3.592 2.217 5.649 3.236 2.063 1.002 4.258 1.998 6.622 2.819a68.204 68.204 0 0 0 7.426 2.162 87.064 87.064 0 0 0 7.712 1.329c2.519.335 4.982.508 7.337.653 2.356.145 4.615.18 6.736.226l5.933.013c3.645-.018 6.63-.022 8.718.108 2.09.13 3.283.407 3.353.879zm-182.661-22.565c-.474.086-1.157-1.244-2.141-3.652-.977-2.416-2.316-5.89-3.911-10.288-.788-2.203-1.633-4.64-2.429-7.331-.747-2.704-1.539-5.617-2.11-8.733-.337-1.55-.579-3.156-.81-4.799-.115-.822-.25-1.651-.348-2.492l-.245-2.553c-.075-.859-.174-1.726-.227-2.601l-.12-2.651c-.107-1.781-.093-3.589-.075-5.42.031-3.66.288-7.23.685-10.656a98.79 98.79 0 0 1 1.636-9.8c.298-1.554.713-3.043 1.092-4.492l.573-2.137.65-2.044c.812-2.69 1.794-5.12 2.661-7.337.979-2.178 1.826-4.156 2.742-5.815.918-1.658 1.671-3.094 2.447-4.188 1.507-2.21 2.532-3.309 2.955-3.095.423.214.208 1.716-.524 4.21-.389 1.237-.766 2.787-1.32 4.523-.553 1.738-1.052 3.76-1.704 5.943-.541 2.223-1.218 4.621-1.755 7.243l-.45 1.986-.386 2.067c-.259 1.398-.562 2.827-.759 4.314a130.154 130.154 0 0 0-1.161 9.315c-.286 3.24-.481 6.604-.51 10.051-.017 1.724-.044 3.427.036 5.104l.069 2.499c.032.826.107 1.643.156 2.454l.156 2.413c.065.795.164 1.58.24 2.358.153 1.558.305 3.084.542 4.561.371 2.973.919 5.763 1.394 8.396.524 2.625 1.085 5.095 1.571 7.372.992 4.551 1.654 8.348 1.844 11.011.198 2.668-.005 4.181-.464 4.264z"/><path fill="#0DADDD" d="M369.681 627.366c.162.164-.197.833-1.117 1.93-.947 1.06-2.506 2.51-4.808 3.968-2.297 1.452-5.322 2.917-8.964 4.095-3.634 1.208-7.866 2.158-12.485 3.017l-7.24 1.278-3.855.663-4.014.615c-2.727.402-5.54.861-8.454 1.236l-8.994 1.136c-6.171.666-12.657 1.33-19.41 1.757-3.37.282-6.816.387-10.309.541-1.748.061-3.505.172-5.28.188l-5.357.053c-1.797.009-3.583.046-5.358.027l-5.291-.137-5.213-.144-5.126-.327-5.034-.336c-1.663-.095-3.302-.33-4.928-.488l-4.82-.527-2.368-.265-2.331-.359c-3.086-.487-6.099-.927-9.013-1.436l-8.432-1.753-2.018-.434-1.964-.517-3.814-1.013c-2.49-.671-4.889-1.266-7.12-2.058l-6.389-2.131c-2.028-.629-3.857-1.483-5.6-2.165-3.464-1.435-6.456-2.622-8.773-3.904-4.691-2.42-7.165-3.953-6.968-4.384.198-.431 3.042.276 7.971 1.905 2.436.887 5.518 1.69 9.031 2.755l2.725.823c.93.305 1.909.559 2.923.8l6.383 1.62c2.217.627 4.6 1.064 7.061 1.585l3.765.792 1.934.411 1.988.331 8.283 1.375c2.859.393 5.813.727 8.833 1.118l2.279.289 2.319.199 4.717.408c1.591.121 3.19.321 4.819.386l4.927.252 5.013.261 5.106.097 5.18.108c1.74.013 3.493-.028 5.255-.036l5.256-.043c1.741-.01 3.471-.111 5.188-.159 3.435-.128 6.82-.196 10.145-.429 6.653-.329 13.064-.851 19.177-1.337l8.926-.838c2.896-.266 5.7-.609 8.418-.885l4.005-.42 3.855-.457 7.253-.832c4.603-.542 8.688-1.124 12.195-1.916 3.515-.765 6.423-1.763 8.733-2.754 2.309-.996 4-2 5.181-2.673 1.151-.702 1.833-1.036 2.003-.862z"/><path fill="#0DADDD" d="M360.275 633.979c-1.731.778-3.688.193-4.371-1.305s.16-3.359 1.882-4.155 3.679-.211 4.37 1.305-.151 3.377-1.881 4.155zm9.365 21.798c-1.757.716-4.203-1.138-5.462-4.141s-.868-6.047.875-6.798c1.742-.752 4.187 1.103 5.461 4.141s.883 6.083-.874 6.798zm8.602 22.11c-1.781.655-4.16-1.283-5.315-4.328-1.154-3.045-.657-6.073 1.109-6.764 1.767-.691 4.147 1.247 5.315 4.328 1.169 3.081.671 6.109-1.109 6.764zm7.834 22.394c-1.802.593-4.114-1.426-5.163-4.509-1.049-3.083-.448-6.093 1.342-6.722 1.79-.629 4.102 1.389 5.163 4.509 1.061 3.119.46 6.129-1.342 6.722zm7.06 22.65c-1.822.531-4.062-1.566-5.005-4.684s-.238-6.104 1.572-6.672c1.81-.567 4.051 1.53 5.004 4.684.954 3.154.25 6.141-1.571 6.672zm6.28 22.879c-1.839.468-4.006-1.704-4.841-4.852-.835-3.148-.03-6.109 1.799-6.614 1.829-.505 3.997 1.667 4.841 4.853.845 3.184.039 6.145-1.799 6.613zm5.493 23.081c-1.854.405-3.945-1.84-4.672-5.015-.727-3.175.179-6.107 2.024-6.549 1.845-.442 3.937 1.803 4.672 5.015.736 3.212-.17 6.144-2.024 6.549zm4.703 23.255c-1.866.341-3.881-1.974-4.499-5.172s.388-6.097 2.247-6.476 3.874 1.937 4.499 5.172c.625 3.235-.381 6.135-2.247 6.476zm3.905 23.402c-1.877.277-3.811-2.106-4.32-5.323-.508-3.217.596-6.08 2.467-6.396 1.871-.315 3.805 2.068 4.32 5.323.514 3.256-.59 6.119-2.467 6.396zm3.102 23.523c-1.885.213-3.736-2.235-4.134-5.467-.398-3.232.804-6.056 2.684-6.307 1.881-.251 3.732 2.197 4.135 5.467.402 3.27-.8 6.094-2.685 6.307zm2.293 23.613c-1.891.148-3.657-2.362-3.944-5.606-.287-3.244 1.011-6.025 2.899-6.211s3.654 2.323 3.944 5.606c.291 3.283-1.008 6.063-2.899 6.211zm1.478 23.679c-1.896.083-3.574-2.487-3.749-5.738-.175-3.252 1.219-5.986 3.112-6.107 1.893-.121 3.572 2.448 3.749 5.739s-1.216 6.024-3.112 6.106zm.658 23.716c-1.897.017-3.486-2.609-3.548-5.865s1.425-5.94 3.322-5.996c1.896-.055 3.485 2.57 3.548 5.865.062 3.295-1.425 5.979-3.322 5.996zm-.05 17.858c-1.897-.032-3.419-1.393-3.4-3.04.019-1.647 1.572-2.972 3.47-2.96 1.897.012 3.419 1.373 3.4 3.04s-1.573 2.992-3.47 2.96z"/><path fill="#1A2B4A" d="M428.035 505.169c-.467.084-1.145-1.031-1.965-3.096-.403-1.035-.855-2.305-1.387-3.773l-1.697-4.997c-.623-1.848-1.283-3.873-2.05-6.026-.715-2.168-1.574-4.452-2.425-6.867-.428-1.207-.918-2.426-1.382-3.683a104.633 104.633 0 0 0-1.478-3.824c-.998-2.6-2.131-5.249-3.254-7.978-1.196-2.698-2.328-5.348-3.518-7.865a105.084 105.084 0 0 0-1.743-3.71c-.589-1.203-1.131-2.4-1.708-3.544-1.158-2.284-2.215-4.483-3.288-6.498-1.027-2.042-2.034-3.919-2.939-5.646-.904-1.734-1.722-3.302-2.439-4.68-.694-1.399-1.3-2.604-1.769-3.61-.926-2.021-1.263-3.281-.88-3.56.383-.28 1.452.449 3.069 2.024a36.976 36.976 0 0 1 2.77 3.006c1.021 1.218 2.189 2.606 3.357 4.227a96.501 96.501 0 0 1 3.749 5.361c1.32 1.95 2.602 4.112 3.953 6.39.673 1.14 1.304 2.341 1.973 3.555a77.557 77.557 0 0 1 1.958 3.763c1.315 2.566 2.534 5.292 3.771 8.087 1.166 2.826 2.293 5.591 3.24 8.315a77.147 77.147 0 0 1 1.367 4.016c.415 1.323.847 2.608 1.206 3.883.712 2.551 1.39 4.971 1.887 7.273a95.645 95.645 0 0 1 1.285 6.414c.364 1.964.56 3.769.735 5.347.182 1.578.256 2.95.259 4.08.022 2.256-.19 3.532-.657 3.616z"/><path fill-rule="evenodd" clip-rule="evenodd" fill="#ffb400" d="M260.306 303.661v-30.118c-24.471-3.294-79.529-32.471-79.529-80s-5.081-96.187-4.032-107.817C187.059-28.657 462.101-66.081 353.193 214.834c-5.283 16.587-7.869 62.06-7.597 95.878.117 14.497-23.173 26.001-48.585 22.731-23.545-3.03-36.705-16.606-36.705-29.782z"/><path fill="#E84E27" d="M306.6 266.825c.314.354.145 1.054-.533 2.083-.327.547-.836 1.015-1.441 1.598-.604.601-1.354 1.135-2.208 1.705-.85.608-1.829 1.094-2.89 1.647-1.064.544-2.23.986-3.466 1.479-1.245.404-2.556.887-3.939 1.208l-2.112.512-2.194.406c-1.484.263-2.948.412-4.362.543-1.421.087-2.787.175-4.104.135-1.308.005-2.564-.093-3.734-.214-1.165-.101-2.272-.345-3.254-.531-1.001-.259-1.889-.52-2.659-.819-.779-.345-1.42-.661-1.923-.994-1.016-.765-1.4-1.376-1.212-1.81s.913-.676 1.902-.774a17.69 17.69 0 0 1 1.847-.214c.713-.08 1.529-.171 2.406-.233.906-.132 1.865-.175 2.922-.321 1.053-.126 2.17-.238 3.356-.41 1.181-.127 2.422-.339 3.708-.504 1.282-.208 2.617-.387 3.972-.629l2.011-.337 1.94-.37c1.286-.206 2.48-.519 3.658-.722 1.138-.282 2.261-.487 3.269-.747 1.002-.267 1.987-.452 2.82-.71.858-.229 1.663-.408 2.325-.621.674-.2 1.337-.302 1.813-.452 1.006-.251 1.768-.258 2.082.096z"/></g></g><defs><clipPath id="i"><path transform="scale(1.778258064516129 1.772927556818182)" d="M0 0h292v509H0z"/></clipPath><clipPath id="j"><path d="M0 0h496.134v1248.141H0z"/></clipPath></defs><g clip-path="url(#i)" transform="translate(769.0 650.0) rotate(0.0 139.5 352.0) scale(0.5623480753183615 0.5640388385607075)"><g clip-path="url(#j)" transform="translate(-0.0 -0.0)"><g data-name="Слой 1"><path d="M129.858 1152.588c-15.589 12.861-17.952 19.807-34.038 32.03-14.978 11.38-25.43 16.5-28.9 36.583-1.124 6.5.23 13.8 5.041 18.324 3.58 3.363 8.528 4.777 13.305 5.917 13.334 3.182 26.5 4.4 39.331-1.154 5.2-2.253 10.339-4.678 15.5-7.016 17.126-7.748 13.253-4.5 30.379-12.244l15.943-7.213a25.149 25.149 0 0 0 14.752-24.164l-2.046-41.063Z" fill="#04294f" fill-rule="evenodd"/><path d="M138.66 1191.524c.032.473-.588.956-1.762 1.426a13.307 13.307 0 0 1-2.161.653 26.2 26.2 0 0 1-2.906.515 45.576 45.576 0 0 1-7.648.292c-1.438-.084-2.955-.165-4.511-.386-1.561-.18-3.161-.476-4.8-.8-1.625-.37-3.208-.748-4.709-1.217-1.51-.429-2.93-.97-4.279-1.476a45.546 45.546 0 0 1-6.872-3.369 25.876 25.876 0 0 1-2.448-1.649 13.176 13.176 0 0 1-1.711-1.473c-.882-.9-1.253-1.6-1.031-2.018s1.01-.528 2.224-.376c.606.081 1.321.22 2.142.386s1.72.423 2.727.661l6.931 1.819c1.3.309 2.652.687 4.072 1 1.409.35 2.88.651 4.378 1 1.509.294 2.975.614 4.4.866 1.423.293 2.81.494 4.127.741l7.072 1.147c1.017.191 1.943.326 2.761.5s1.528.344 2.114.516c1.18.35 1.857.769 1.89 1.242Z" fill="#fff"/><path d="M374.463 1151.8c15.588 12.861 17.951 19.807 34.038 32.03 14.977 11.38 25.43 16.5 28.9 36.583 1.125 6.5-.229 13.8-5.04 18.324-3.58 3.363-8.528 4.777-13.305 5.917-13.334 3.182-26.5 4.4-39.331-1.155-5.2-2.252-10.34-4.677-15.506-7.015-17.126-7.748-13.252-4.5-30.378-12.244l-15.944-7.213a25.15 25.15 0 0 1-14.751-24.164l2.046-41.063Z" fill="#04294f" fill-rule="evenodd"/><path d="M365.661 1190.733c.032-.474.71-.893 1.881-1.246.586-.172 1.3-.335 2.115-.516s1.743-.311 2.76-.5l7.073-1.147c1.317-.247 2.7-.448 4.127-.741 1.429-.252 2.9-.573 4.4-.866 1.5-.344 2.969-.645 4.378-.995 1.419-.309 2.768-.687 4.072-1l6.93-1.82c1.008-.237 1.908-.489 2.727-.66s1.537-.3 2.142-.386c1.215-.152 2-.044 2.225.376s-.149 1.112-1.031 2.018a13.254 13.254 0 0 1-1.711 1.473 25.876 25.876 0 0 1-2.448 1.649 45.546 45.546 0 0 1-6.872 3.369c-1.349.506-2.769 1.047-4.28 1.476-1.5.468-3.083.847-4.708 1.217-1.635.321-3.236.617-4.8.8-1.555.22-3.072.3-4.51.386a45.567 45.567 0 0 1-7.648-.293 25.982 25.982 0 0 1-2.906-.514 13.246 13.246 0 0 1-2.162-.654c-1.167-.47-1.786-.953-1.754-1.426Z" fill="#fff"/><path d="M387.988 656.55h-93.759c-.022.789-.041 1.585-.063 2.374H115.812q-3.213 126.029-3.165 257.934.112 118.476 2.987 232.26a10.837 10.837 0 0 0 7.1 9.9 114.028 114.028 0 0 0 79.32-.074 10.789 10.789 0 0 0 7.01-9.693q4.445-110.115 4.859-227.643.151-65.013-1.07-127.842a15.089 15.089 0 0 1 14.067-15.338c8.745-.583 16.584-.8 23.4-.82a386.37 386.37 0 0 1 26.966.877 15.1 15.1 0 0 1 14.1 15.262q-.737 57.353-.717 115.993.063 121.4 3.367 237.251a10.8 10.8 0 0 0 6.756 9.73 107.618 107.618 0 0 0 80.6.02 10.837 10.837 0 0 0 6.81-9.718q3.588-115.872 3.743-238.074.061-129.703-3.957-252.399Z" fill="#f04e23"/><path d="M389.17 346.131a1069.394 1069.394 0 0 1 0 117.75c-1.69 29.676-3.923 45.023-2.765 75.175.678 17.644 2.22 32.632 2.765 61.714.3 15.924.166 29.033 0 37.8a164.949 164.949 0 0 1-15.942 17.788 169.265 169.265 0 0 1-16.437 13.932 607.062 607.062 0 0 1-206.4.72 167.169 167.169 0 0 1-36.56-34.67c-4.058-34.383-2.425-61.406 0-80.256 1.956-15.205 5.307-31.93 4.355-56.985a242.971 242.971 0 0 0-4.354-37.187c-4.16-22.823-6.833-58.721 0-115.782a20.65 20.65 0 0 1 .27-3.23 20.308 20.308 0 0 1 8.16-13.23c20.85-15.1 67.38-42.91 131.619-42.22 61.731.67 106.321 27.31 126.881 42.22a20.27 20.27 0 0 1 8.389 15.86c.019.201.019.401.019.601Z" fill="#04294f" fill-rule="evenodd"/><path d="M150.391 671.011c-13.2-2.23-25.42-4.74-36.56-7.34v-27.33a167.169 167.169 0 0 0 36.56 34.67Zm238.779-32.44v25.1a611.193 611.193 0 0 1-32.379 6.62 165.989 165.989 0 0 0 32.379-31.72Z" fill="#04294f" fill-rule="evenodd"/><path d="M207.915 302.408V273.14c-27.671-3.544-77.286-13.491-77.286-77.743 0-26.46-1.8-72.738-3.339-107.445C125.361 44.443 156.919 6.37 200.118.844A101.014 101.014 0 0 1 235.4 2.467c34.2 7.779 54.22 31.6 60.78 40.187 0-.021.007-.023.008-.024.639-.3 35.323 71.059-3.34 192.44-5.134 16.119-2.309 41.327-2.045 74.191.113 14.088-22.519 25.268-47.214 22.09-22.889-2.945-35.674-16.138-35.674-28.943Z" fill="#ffb400" fill-rule="evenodd"/><path d="M248.125 263.906c.236.411.021 1.044-.594 1.85a8.818 8.818 0 0 1-1.231 1.3 16.882 16.882 0 0 1-1.818 1.438 29.962 29.962 0 0 1-5.244 2.894c-1.041.43-2.141.885-3.316 1.242-1.167.391-2.4.7-3.672 1-1.278.256-2.531.488-3.754.617-1.218.164-2.407.206-3.532.248a30.083 30.083 0 0 1-5.973-.455 16.938 16.938 0 0 1-2.251-.553 8.791 8.791 0 0 1-1.659-.673c-.895-.477-1.353-.963-1.31-1.435s.582-.886 1.49-1.232c.453-.169 1-.329 1.627-.5s1.333-.293 2.107-.466c1.548-.3 3.363-.633 5.358-.989 1-.2 2.042-.364 3.115-.6l3.322-.678 3.3-.764c1.073-.232 2.092-.521 3.082-.748 1.963-.506 3.753-.955 5.285-1.326.776-.165 1.471-.342 2.11-.451s1.205-.188 1.688-.223c.973-.061 1.634.098 1.87.504Z" fill="#f04e23"/><path d="M170.581 683.181a53.325 53.325 0 0 1-32 62.25c-20.536-10.588-65.858-37.536-97.36-91.9-12.65-21.83-51.43-100.22-19.41-192.78 21.48-62.1 64.609-99.33 92.29-117.85-.066.754-.161 1.874-.27 3.23-1.669 20.773-1.576 36.145-1.58 43.782-.005 11.166-.227 27.53-1.186 50.374a158.052 158.052 0 0 0-8.307 12.172 158.647 158.647 0 0 0-8.912 16.6s-3.33 7.2-5.885 14.585c-22.87 66.12 7.5 123.88 13.83 134.79a162.921 162.921 0 0 0 12.04 17.91 167.169 167.169 0 0 0 36.56 34.67 175.488 175.488 0 0 0 20.19 12.167ZM461.67 655.9c-28.559 49.28-68.7 77.18-97.349 91.91-2.2-.545-24.055-6.367-32.509-27.964-6.411-16.379-.863-30.971.5-34.3a174.799 174.799 0 0 0 24.48-15.26 165.989 165.989 0 0 0 32.379-31.72 160.709 160.709 0 0 0 11.941-17.77c6.32-10.91 36.69-68.66 13.82-134.79-2.654-7.672-6.161-15.167-6.161-15.167a162.039 162.039 0 0 0-18.409-30.294q.521-19.629.4-40.351-.194-28.007-1.587-54.068v-.3c0-.105-.008-.2-.018-.3 27.7 18.58 70.54 55.76 91.931 117.6 32.012 92.555-6.767 170.955-19.418 192.774Z" fill="#ffb400"/><path d="M303.6 304.852c.23-.054.555.443.967 1.477a18.238 18.238 0 0 1 1.095 4.725l.108 1.676q.022.444.048.909c0 .309-.023.624-.035.947l-.108 2.031c-.072.7-.2 1.42-.314 2.173a35.849 35.849 0 0 1-3.214 9.8 42.813 42.813 0 0 1-18.8 18.9 53.289 53.289 0 0 1-15.033 5.011 70.8 70.8 0 0 1-16.791.943 95.966 95.966 0 0 1-16.444-2.46 81.58 81.58 0 0 1-14.755-4.888 53.077 53.077 0 0 1-12.187-7.459 38.7 38.7 0 0 1-4.715-4.56 36.006 36.006 0 0 1-3.614-4.851 34.044 34.044 0 0 1-4.152-9.461 26.9 26.9 0 0 1-.919-7.711 18.06 18.06 0 0 1 .768-4.805c.376-1.056.683-1.567.916-1.524s.383.636.459 1.685c.1 1.051.217 2.573.526 4.474a32.155 32.155 0 0 0 1.9 6.685 34.533 34.533 0 0 0 4.511 7.914 34.064 34.064 0 0 0 3.474 3.97 36.11 36.11 0 0 0 4.357 3.7 51.347 51.347 0 0 0 11.172 6.127 83.54 83.54 0 0 0 13.755 4.144 99.616 99.616 0 0 0 15.338 2.163 69.392 69.392 0 0 0 15.247-.715 50.11 50.11 0 0 0 13.394-4.062 38.82 38.82 0 0 0 10.367-7.008 41.439 41.439 0 0 0 6.966-8.539 36.955 36.955 0 0 0 3.735-8.336c.181-.649.388-1.274.542-1.886l.364-1.782c.058-.287.127-.566.173-.842s.065-.548.1-.812q.1-.8.194-1.518c.136-1.923.225-3.462.215-4.513.026-1.066.154-1.668.39-1.722Zm70.469 134.836c-.462-.1-.617-1.578-.506-4.126l.284-4.61c.111-1.797.333-3.811.459-6.059l.265-3.513.231-3.81c.2-2.627.284-5.446.441-8.4l.151-4.549c.066-1.549.1-3.133.121-4.747.086-3.225.085-6.571.12-10l-.059-10.02-.118-9.353c-.1-5.969-.161-11.36-.149-15.9.024-9.08.456-14.747 1.409-14.813s2.22 5.464 3.439 14.5c.609 4.517 1.179 9.917 1.626 15.937.2 3.013.416 6.175.522 9.466.141 3.288.182 6.7.2 10.2-.036 3.5-.084 6.916-.264 10.217-.067 1.65-.16 3.271-.3 4.857s-.23 3.139-.389 4.652c-.335 3.024-.643 5.895-1.092 8.568-.214 1.337-.4 2.628-.634 3.863l-.718 3.543c-.441 2.257-1 4.271-1.485 6.035a42.067 42.067 0 0 1-1.445 4.474c-.919 2.418-1.646 3.694-2.109 3.588Zm-248.941 18.821c-.473.026-1.006-1.565-1.564-4.471-.282-1.453-.566-3.235-.828-5.309s-.548-4.436-.778-7.053c-.5-5.232-.891-11.476-1.148-18.417-.108-3.47-.22-7.115-.237-10.894-.045-3.779-.011-7.692.043-11.7.088-4.007.192-7.918.37-11.694.15-3.776.39-7.414.621-10.879.5-6.927 1.117-13.154 1.8-18.365.322-2.607.687-4.959 1.026-7.021s.681-3.834 1.015-5.276c.66-2.885 1.248-4.456 1.721-4.413s.784 1.694.943 4.639c.077 1.471.121 3.267.151 5.348s0 4.445-.01 7.058c-.058 5.223-.168 11.432-.319 18.321s-.287 14.456-.445 22.4l-.346 22.406c-.091 6.889-.2 13.1-.327 18.321-.081 2.611-.139 4.975-.239 7.053s-.211 3.872-.339 5.34c-.266 2.94-.638 4.58-1.11 4.606Z" fill="#fff"/><path d="M369.211 749.88c-.05.231-.427.375-1.11.432a12.969 12.969 0 0 1-2.934-.13q-.939-.139-2.083-.355c-.754-.162-1.558-.393-2.432-.631a40.229 40.229 0 0 1-5.749-2.181 48.564 48.564 0 0 1-6.526-3.685 51.772 51.772 0 0 1-6.7-5.46 49.8 49.8 0 0 1-6.236-7.3 47.7 47.7 0 0 1-7.98-19 49.762 49.762 0 0 1-.851-9.565 51.6 51.6 0 0 1 .8-8.61 48.312 48.312 0 0 1 1.936-7.24 40.157 40.157 0 0 1 2.467-5.632c.442-.79.839-1.527 1.251-2.179q.647-.966 1.2-1.736a13.032 13.032 0 0 1 1.961-2.186c.519-.447.885-.616 1.086-.49s.228.539.1 1.2c-.107.672-.447 1.546-.777 2.71a52.432 52.432 0 0 1-.612 1.89l-.663 2.248a65.038 65.038 0 0 0-1.342 5.483 62.572 62.572 0 0 0-.97 6.7 58.762 58.762 0 0 0-.11 7.706 50.045 50.045 0 0 0 13.266 31.58 58.739 58.739 0 0 0 5.58 5.315 62.65 62.65 0 0 0 5.463 4 65.485 65.485 0 0 0 4.855 2.879l2.069 1.1q.975.467 1.778.887c1.062.579 1.925.949 2.479 1.342.559.367.836.676.784.908Zm-200.534-77.687c.455-.127 1.276 1.087 2.344 3.423a65.916 65.916 0 0 1 3.578 10.3 50.117 50.117 0 0 1 1.642 16.573 41.653 41.653 0 0 1-2.076 9.846 90.889 90.889 0 0 1-3.905 9.659 73.974 73.974 0 0 1-5.093 9.164 54.432 54.432 0 0 1-6.142 7.767 42.709 42.709 0 0 1-6.9 5.863 37.571 37.571 0 0 1-6.955 3.718 31.759 31.759 0 0 1-6.233 1.811 24.145 24.145 0 0 1-4.865.348 11.713 11.713 0 0 1-3.045-.451c-.684-.218-1.028-.448-1.022-.685s.36-.471 1.005-.7 1.581-.486 2.753-.822 2.576-.8 4.158-1.4a41.184 41.184 0 0 0 5.149-2.487 41.637 41.637 0 0 0 5.659-3.912 44.237 44.237 0 0 0 5.6-5.542 69.483 69.483 0 0 0 9.708-15.6c1.4-3 2.713-6.051 3.757-8.923a40.556 40.556 0 0 0 2.149-8.356 58.853 58.853 0 0 0-.125-14.971c-.526-4.368-1.121-7.963-1.384-10.494s-.216-4.001.243-4.129Zm24.581 90.742c.221.086.347.388.38.9a7.858 7.858 0 0 1-.209 2.11 21.8 21.8 0 0 1-.931 3.159c-.239.594-.5 1.231-.8 1.9-.323.652-.649 1.355-1.046 2.063a37.476 37.476 0 0 1-2.9 4.465 39.9 39.9 0 0 1-4.072 4.6 40.886 40.886 0 0 1-11.694 7.949 41.683 41.683 0 0 1-13.667 3.547 38.171 38.171 0 0 1-11.422-.7 23.7 23.7 0 0 1-7.231-2.691c-1.593-1-2.215-1.929-1.988-2.328.235-.425 1.24-.339 2.88-.193s4.015.332 6.927.389a53.874 53.874 0 0 0 10.051-.755 47.7 47.7 0 0 0 11.624-3.528 46.308 46.308 0 0 0 10.3-6.4 52.227 52.227 0 0 0 3.977-3.606 60.104 60.104 0 0 0 3.2-3.483c.478-.55.9-1.1 1.332-1.605l1.161-1.474c.7-.939 1.344-1.749 1.866-2.423a13.632 13.632 0 0 1 1.355-1.512c.38-.333.686-.469.907-.384Zm180.807 7.449c.329.34-.054 1.285-1.1 2.756a26.021 26.021 0 0 1-2.2 2.393c-.477.414-1 .842-1.565 1.295a16.677 16.677 0 0 1-1.857 1.331 32.84 32.84 0 0 1-4.592 2.539c-.868.362-1.761.772-2.706 1.108-.951.312-1.927.672-2.948.949a46.882 46.882 0 0 1-6.488 1.311c-1.136.138-2.294.285-3.472.33l-1.779.1h-1.8a57.108 57.108 0 0 1-7.013-.471c-1.123-.146-2.218-.346-3.291-.522l-3.115-.681a51.543 51.543 0 0 1-10.346-3.692 27.9 27.9 0 0 1-6.242-4.049c-1.312-1.2-1.848-2.1-1.6-2.492.537-.83 3.976.56 9.552 1.994 2.792.721 6.133 1.446 9.9 2.036l2.875.4 3 .313c2.041.158 4.154.3 6.313.29l1.609.007 1.582-.062c1.051-.014 2.074-.115 3.083-.193 2.018-.166 3.941-.454 5.764-.781.913-.161 1.78-.392 2.643-.565.854-.2 1.66-.457 2.461-.661 1.567-.486 3.036-.96 4.332-1.5a19.572 19.572 0 0 0 1.863-.774l1.667-.731c1-.529 1.921-.932 2.671-1.286 1.463-.749 2.47-1.033 2.799-.692Zm-114.106-21.653c.026.233-.25.5-.838.766a8.08 8.08 0 0 1-2.726.577 9.954 9.954 0 0 1-4.6-.857 10.185 10.185 0 0 1-4.7-4.6 15.507 15.507 0 0 1-1.281-3.453 34.446 34.446 0 0 1-.619-3.557c-.322-2.3-.641-4.767-.952-7.363a516.336 516.336 0 0 1-1.727-16.92c-2.068-24.058-2.2-43.546-.3-43.526s5.107 19.33 7.162 43.13c.513 5.955.906 11.634 1.177 16.81.136 2.588.242 5.05.316 7.357.039 1.194.054 2.2.156 3.09a12.264 12.264 0 0 0 .5 2.445 6.8 6.8 0 0 0 2.188 3.255 9.766 9.766 0 0 0 2.993 1.527c1.919.614 3.208.823 3.251 1.319Z" fill="#04294f"/><path d="M259.686 774.452c-1.9-.026-3.1-24.8-2.68-55.338s2.293-55.271 4.19-55.245 3.1 24.8 2.68 55.338-2.293 55.271-4.19 55.245Z" fill="#04294f"/><path d="M260.61 774.947c-.014.973-3.585 1.7-9.187 2.717-2.8.512-6.118 1.117-9.762 1.889s-7.651 1.7-11.691 2.873a59.62 59.62 0 0 0-10.837 4.213 38.907 38.907 0 0 0-7.705 5.228c-1.006.881-1.87 1.736-2.62 2.514s-1.369 1.49-1.912 2.07c-1.057 1.172-1.766 1.851-2.223 1.676-.428-.162-.563-1.187-.153-2.9a15.541 15.541 0 0 1 1.106-3 22.8 22.8 0 0 1 2.2-3.625 30.6 30.6 0 0 1 8.11-7.43 46.426 46.426 0 0 1 12.1-5.341 79.035 79.035 0 0 1 12.606-2.528 69.836 69.836 0 0 1 10.43-.486c5.951.205 9.555 1.208 9.538 2.13Zm-63.361 63.581c-1.888.014-3.463-6.012-3.064-13.444s2.591-13.258 4.467-13.045c1.894.214 2.769 6.2 2.394 13.409s-1.891 13.068-3.797 13.08Zm-.734 43.121c-1.9 0-3.435-6.642-3.435-14.835s1.538-14.835 3.435-14.835 3.435 6.642 3.435 14.835-1.537 14.835-3.435 14.835ZM195.752 922c-1.89.057-3.608-6.071-3.526-13.688s1.919-13.708 3.808-13.612 3.135 6.219 3.062 13.683-1.441 13.561-3.344 13.617Zm.769 45.1c-1.9.08-3.7-6.32-4.043-14.294s.927-14.5 2.823-14.584 3.705 6.319 4.042 14.294-.927 14.504-2.822 14.584Zm-1.156 40.354c-1.9-.124-3.109-5.277-3.021-11.521s1.46-11.36 3.362-11.426 3.607 5.094 3.508 11.528-1.963 11.542-3.849 11.419Zm.82 39.551c-.939.1-1.945-1.087-2.745-3.144a27.871 27.871 0 0 1-.416-16.523c.695-2.1 1.64-3.335 2.582-3.278s1.724 1.384 2.273 3.445a41.778 41.778 0 0 1 .4 15.945c-.444 2.086-1.148 3.45-2.094 3.555Zm-.092 41.149c-1.9-.078-3.264-4.478-3.372-9.828s1.092-9.8 2.99-9.951 3.775 4.238 3.879 9.818-1.608 10.04-3.497 9.961Zm-1.499 45.104c-1.9-.169-3-5.289-3.042-11.453-.029-6.164 1-11.3 2.9-11.489.941-.084 1.919 1.128 2.675 3.2a28 28 0 0 1 .1 16.509c-.727 2.081-1.691 3.305-2.633 3.233Zm7.798 2.042c.1.214-.055.538-.452.961a10.751 10.751 0 0 1-1.907 1.535 29.254 29.254 0 0 1-3.313 1.887 45.611 45.611 0 0 1-4.643 1.976 60.009 60.009 0 0 1-5.851 1.8c-2.136.522-4.44 1.008-6.886 1.361s-5.025.636-7.7.761-5.452.159-8.284.06a128.025 128.025 0 0 1-28.287-4.507c-7.021-1.944-11.21-3.693-11.03-4.614.183-.941 4.738-.871 11.912-.163 7.175.676 16.951 2 27.658 2.419 2.674.093 5.281.116 7.794.078s4.932-.167 7.233-.325 4.474-.412 6.512-.664c2.031-.279 3.924-.568 5.646-.888s3.283-.629 4.659-.917 2.567-.545 3.56-.733a16.929 16.929 0 0 1 2.354-.322c.57-.017.923.078 1.025.295Zm178.247-3.522c.14.192.037.545-.294 1.047a11.013 11.013 0 0 1-1.683 1.913q-.6.558-1.365 1.208c-.515.42-1.1.844-1.725 1.305a41.4 41.4 0 0 1-4.493 2.779 52.753 52.753 0 0 1-5.832 2.682 60.806 60.806 0 0 1-7.037 2.209 64.371 64.371 0 0 1-8.02 1.452 72.309 72.309 0 0 1-8.73.469 79.025 79.025 0 0 1-16.62-2 82.665 82.665 0 0 1-12.917-4.068 54.2 54.2 0 0 1-8.14-4.039c-1.825-1.158-2.723-2.027-2.544-2.46s1.427-.409 3.515-.032 5.032 1.076 8.638 1.9 7.885 1.74 12.645 2.483c2.38.356 4.878.709 7.471.928s5.276.384 8.022.421c2.739.018 5.411-.09 7.984-.3s5.038-.558 7.378-.947 4.535-.917 6.587-1.433c2.04-.554 3.935-1.118 5.643-1.713s3.251-1.167 4.6-1.7 2.534-1.013 3.493-1.4a19.747 19.747 0 0 1 2.328-.794c.58-.123.957-.101 1.096.09Z" fill="#04294f"/><path d="M22.647 573.28c-.118.206-.459.267-1.013.187a8.871 8.871 0 0 1-2.262-.692q-.7-.31-1.53-.733c-.547-.292-1.108-.659-1.725-1.045a28.151 28.151 0 0 1-3.868-3.067 35.265 35.265 0 0 1-4.012-4.482 40.619 40.619 0 0 1-3.623-5.892 42.935 42.935 0 0 1-2.792-7.114A44.736 44.736 0 0 1 .131 534.2a42.953 42.953 0 0 1 1.269-7.537 40.548 40.548 0 0 1 2.33-6.513 35.2 35.2 0 0 1 3-5.212 28.159 28.159 0 0 1 3.153-3.8c.524-.5 1-.98 1.472-1.378s.935-.734 1.347-1.032a8.891 8.891 0 0 1 2.071-1.144c.526-.192.872-.2 1.03-.024s.119.533-.087 1.039a19.349 19.349 0 0 1-1.07 1.965c-.236.412-.5.857-.807 1.331l-.91 1.584a48.39 48.39 0 0 0-2 3.9 46.554 46.554 0 0 0-1.909 4.878 46.56 46.56 0 0 0-2.17 12.352 48.172 48.172 0 0 0 1.461 14.047 46.665 46.665 0 0 0 4.674 11.644 46.622 46.622 0 0 0 2.873 4.38c.953 1.3 1.9 2.426 2.757 3.4l1.217 1.363c.393.4.749.781 1.064 1.136a19.368 19.368 0 0 1 1.452 1.7c.306.454.417.795.299 1.001Zm458.49-14.47c-.355-.314-.194-1.22.368-2.543.3-.651.6-1.478 1.036-2.36s.848-1.93 1.373-3.025c.454-1.139 1.01-2.339 1.487-3.679q.192-.493.392-1l.352-1.057c.24-.713.51-1.434.714-2.2.466-1.51.883-3.114 1.245-4.785s.673-3.417.882-5.215c.108-.9.222-1.786.262-2.666.073-.879.132-1.746.135-2.6.034-.854.051-1.693.016-2.514-.007-.822-.018-1.629-.088-2.412-.062-1.561-.27-3.091-.406-4.433a9.535 9.535 0 0 0-.761-2.9 2.67 2.67 0 0 0-.5-.711c-.065-.066-.052-.062-.055-.091s-.021-.044-.038-.075a.422.422 0 0 0-.221-.124 1.737 1.737 0 0 0-.725-.012 2.609 2.609 0 0 0-.682.24 1.909 1.909 0 0 0-.788.858c-.126.259-.187.418-.4.427a1.212 1.212 0 0 1-.926-.633 2.4 2.4 0 0 1-.036-2.241 4.585 4.585 0 0 1 2.925-2.428 4.291 4.291 0 0 1 1.344-.168 3.645 3.645 0 0 1 .768.094 4.968 4.968 0 0 1 .736.218 6.472 6.472 0 0 1 2.332 1.539 11.612 11.612 0 0 1 2.569 4.693 39.993 39.993 0 0 1 1.152 5.03 27.43 27.43 0 0 1 .35 2.758 28.285 28.285 0 0 1 .163 2.9 29.979 29.979 0 0 1-.044 3.006c-.025 1.019-.14 2.045-.265 3.083a41.981 41.981 0 0 1-1.162 5.977 41.185 41.185 0 0 1-1.836 5.354c-.323.841-.723 1.626-1.1 2.391l-.564 1.125-.612 1.055a37.419 37.419 0 0 1-2.448 3.7 31.159 31.159 0 0 1-2.4 2.745 17.4 17.4 0 0 1-2.082 1.811c-1.261.869-2.106 1.182-2.462.868Z" fill="#f04e23"/></g></g></g><defs><clipPath id="k"><path transform="scale(1.7915101351351352 1.7833750000000002)" d="M0 288h67v373H0z"/></clipPath><clipPath id="l"><path d="M0 0h530.287v1184.161H0z"/></clipPath></defs><g clip-path="url(#k)" transform="translate(850.0 673.0) rotate(0.0 -148.0 332.0) scale(-0.5581883018063802 0.5607345622765822)"><g clip-path="url(#l)" transform="translate(-0.0 -0.0)"><g fill-rule="evenodd" clip-rule="evenodd"><path fill="#E84E27" d="M246.038 1076.57c-18.11-17.997-65.548 2.085-65.548 2.085.784 17.565-62.922 35.68-65.546 95.17-.195 4.421 2.447 8.381 6.345 8.979 23.956 3.675 58.748.066 91.953-13.004 5.487-2.16 9.257-7.897 9.513-14.433a130.6 130.6 0 0 1 1.792-16.564c.631-3.749 3.619-6.561 7.002-6.304 4.075.31 6.869 4.522 6.126 8.895-.674 3.969-1.123 7.563-1.385 10.851-.246 3.089 2.643 5.234 5.076 3.779a171.062 171.062 0 0 0 9.556-6.156c1.881-17.412 2.926-20.706 4.808-28.941 1.883-8.236 8.418-26.36-9.692-44.357zm112.777 0c18.11-17.997 65.548 2.085 65.548 2.085-.784 17.565 62.922 35.68 65.546 95.17.195 4.421-2.447 8.381-6.345 8.979-23.956 3.675-58.748.066-91.953-13.004-5.487-2.16-9.257-7.897-9.513-14.433a130.6 130.6 0 0 0-1.792-16.564c-.631-3.749-3.62-6.561-7.002-6.304-4.075.31-6.869 4.522-6.126 8.895.674 3.969 1.123 7.563 1.385 10.851.246 3.089-2.643 5.234-5.076 3.779a171.062 171.062 0 0 1-9.556-6.156c-1.881-17.412-2.926-20.706-4.808-28.941s-8.418-26.36 9.692-44.357z"/><path fill="#ffb400" d="M466.506 1128.245c-6.919-24.476-41.398-36-42.143-49.591-22.702-91.974-2.55-253.574-55.636-473.895-62.839 10.217-110.208 18.383-208.324-6.894-12.183 127.532 9.148 272.331 17.609 344.006 8.67 73.452 2.479 136.782 2.479 136.782-.745 13.591-35.224 25.114-42.144 49.591-1.057 3.738 1.389 7.534 4.874 7.59 33.632.541 81.741-19.985 103.452-39.756 4.901-4.868 1.814-11.938-.575-19.321-.217-2.879-1.916-6.011-2.009-9.988-1.609-68.26-13.783-277.306-3.659-312.388 20.681-8.042 38.301-7.606 70.085-2.298 35.134 114.321 45.197 231.322 50.251 314.686 0 10.559-9.692 22.25-2.584 29.309 21.71 19.771 69.819 40.297 103.452 39.756 3.483-.054 5.929-3.851 4.872-7.589z"/></g><path fill-rule="evenodd" clip-rule="evenodd" fill="#ffb400" d="M451.161 789.59c-1.107 4.472-2.443 9.01-2.038 13.6s3.031 9.339 7.437 10.686c6.457 1.975 12.588-3.965 15.847-9.879 9.626-17.47 9.23-38.611 7.19-58.453-.571-5.557-1.286-11.223-3.733-16.244s-6.961-9.363-12.491-10.155c-17.054-2.444-9.104 16.652-8.449 25.327a143.258 143.258 0 0 1-3.763 45.118z"/><path fill-rule="evenodd" clip-rule="evenodd" fill="#ffb400" d="M470.926 795.657c-1.107 4.472-2.443 9.01-2.038 13.6s3.031 9.339 7.437 10.686c6.457 1.975 12.588-3.965 15.847-9.879 9.626-17.47 9.23-38.611 7.19-58.453-.571-5.557-1.286-11.223-3.733-16.244s-6.961-9.363-12.491-10.155c-17.054-2.444-9.104 16.652-8.449 25.327a143.26 143.26 0 0 1-3.763 45.118z"/><path fill-rule="evenodd" clip-rule="evenodd" fill="#ffb400" d="M489.183 789.59c-1.107 4.472-2.443 9.01-2.038 13.6s3.031 9.339 7.437 10.686c6.457 1.975 12.588-3.965 15.847-9.879 9.626-17.47 9.23-38.611 7.19-58.453-.571-5.557-1.286-11.223-3.733-16.244-2.448-5.021-6.961-9.363-12.491-10.155-17.054-2.444-9.104 16.652-8.449 25.327a143.258 143.258 0 0 1-3.763 45.118z"/><path fill-rule="evenodd" clip-rule="evenodd" fill="#ffb400" d="M507.247 779.808c-.377 3.906-.939 7.896-.027 11.713s3.715 7.492 7.595 8.08c5.687.862 10.114-4.906 12.125-10.294 5.94-15.918 2.978-33.682-1.207-50.148-1.172-4.611-2.478-9.297-5.165-13.224s-7.029-7.024-11.787-7.004c-14.674.061-5.601 15.163-3.971 22.392a122.043 122.043 0 0 1 2.437 38.485z"/><path fill-rule="evenodd" clip-rule="evenodd" fill="#ffb400" d="M529.297 756.456c-1.212-12.465-3.565-42.818-16.507-59.524-12.941-16.706-60.439-18.331-57.866 47.54s74.373 11.984 74.373 11.984z"/><path fill-rule="evenodd" clip-rule="evenodd" fill="#ffb400" d="M435.587 751.436c-2.165 4.183-4.807 8.949-3.035 13.313 1.525 3.757 6.012 5.637 10.052 5.286 7.075-.616 12.551-6.599 15.739-12.945s4.856-13.412 8.478-19.521c5.401-9.109 15.151-16.277 16.3-26.804.974-8.924-5.801-18.011-14.631-19.625-10.819-1.977-20.945 6.502-23.031 16.594-3.131 15.145-2.535 29.526-9.872 43.702z"/><path fill="#F04E23" d="M482.074 753.823c.355-.019.719.639 1.072 1.862.213.736.375 1.485.485 2.243.137.879.29 1.884.362 2.999.205 2.613.23 5.237.073 7.853-.107 1.474-.208 3.029-.437 4.624-.189 1.601-.485 3.244-.799 4.925-.361 1.671-.724 3.301-1.168 4.851-.406 1.56-.915 3.032-1.386 4.433a56.784 56.784 0 0 1-3.104 7.213c-.498 1-1.028 1.867-1.494 2.625a16.887 16.887 0 0 1-1.314 1.881c-.799.991-1.388 1.457-1.708 1.302s-.342-.914-.115-2.138c.118-.61.292-1.34.491-2.184l.75-2.822c.58-2.073 1.245-4.534 1.953-7.261.326-1.372.716-2.796 1.035-4.293.358-1.487.667-3.04 1.01-4.625.296-1.594.612-3.146.858-4.656.284-1.504.476-2.968.706-4.359.402-2.789.741-5.314 1.008-7.451l.399-2.893c.142-.855.264-1.596.392-2.204.262-1.214.576-1.906.931-1.925zm17.785-2.424c.346-.084.825.53 1.401 1.737.351.726.644 1.479.875 2.251a28.68 28.68 0 0 1 .841 3.074c.292 1.256.518 2.527.678 3.807.215 1.378.304 2.862.404 4.428.047.783.031 1.586.043 2.407.017.822-.003 1.66-.06 2.512-.056 1.708-.262 3.466-.48 5.265-.292 1.789-.585 3.534-1.008 5.19a28.668 28.668 0 0 1-.644 2.429c-.24.786-.449 1.561-.712 2.3-.532 1.476-1.032 2.876-1.623 4.14a37.172 37.172 0 0 1-1.712 3.467 28.404 28.404 0 0 1-1.666 2.718 15.252 15.252 0 0 1-1.468 1.917c-.89.999-1.521 1.455-1.83 1.277-.309-.177-.267-.967.06-2.22l.649-2.237c.254-.865.604-1.815.908-2.896.332-1.069.707-2.228 1.046-3.491.388-1.246.705-2.604 1.082-4.014.186-.706.325-1.444.502-2.186a34.81 34.81 0 0 0 .479-2.286c.33-1.552.563-3.176.837-4.834.2-1.668.428-3.294.544-4.876.087-.789.146-1.565.178-2.329.037-.762.109-1.509.128-2.239.031-1.459.106-2.853.081-4.157.027-1.308-.01-2.525-.03-3.645.01-1.123-.062-2.133-.064-3.034l.001-2.329c.034-1.292.214-2.062.56-2.146zm16.25 30.009c-.346-.082-.564-.674-.667-1.654a33.453 33.453 0 0 1-.099-1.754c-.022-.677.002-1.434-.01-2.272.022-1.67.035-3.64.034-5.813-.027-1.087-.008-2.226-.064-3.404-.021-1.179-.097-2.396-.147-3.643-.093-1.245-.158-2.463-.272-3.636-.08-1.177-.229-2.305-.328-3.389a433.584 433.584 0 0 0-.702-5.771c-.084-.834-.195-1.583-.251-2.258a34.115 34.115 0 0 1-.104-1.754c-.011-.985.138-1.598.473-1.72.334-.121.824.263 1.429 1.081.362.489.682 1.008.957 1.55.379.701.718 1.422 1.016 2.16a37.19 37.19 0 0 1 1.862 5.913c.241 1.142.503 2.345.662 3.607.194 1.259.303 2.573.402 3.92.056 1.349.099 2.667.051 3.94-.013 1.272-.135 2.498-.243 3.659a37.285 37.285 0 0 1-1.17 6.088 21.382 21.382 0 0 1-.761 2.262c-.211.571-.47 1.122-.773 1.65-.507.882-.949 1.32-1.295 1.238zm-57.868-19.082c-.326.143-.783-.077-1.338-.62a6.576 6.576 0 0 1-.876-1.058 12.649 12.649 0 0 1-.925-1.524 22.08 22.08 0 0 1-1.688-4.295 26.364 26.364 0 0 1-.597-2.665c-.173-.933-.271-1.911-.357-2.913-.049-1.004-.083-1.986-.037-2.934.031-.91.109-1.818.234-2.72a22.079 22.079 0 0 1 1.097-4.482 12.81 12.81 0 0 1 .712-1.635c.201-.413.444-.804.727-1.166.478-.612.901-.892 1.243-.794.342.097.572.56.7 1.289.061.364.102.796.144 1.291.038.494.035 1.041.062 1.646l.053 4.158c.032.774.023 1.582.076 2.418l.129 2.583.218 2.578c.06.836.177 1.635.249 2.407l.505 4.127c.054.604.13 1.145.158 1.64.025.496.042.93.031 1.298-.028.739-.193 1.228-.52 1.371zm11.258 17.708c-.012 1.423-2.075 2.56-4.609 2.539s-4.579-1.191-4.567-2.614 2.076-2.56 4.609-2.539 4.578 1.191 4.567 2.614zm21.523.953a2.479 2.479 0 1 1-2.646-2.403 2.53 2.53 0 0 1 2.646 2.403zm19.096-4.072a2.798 2.798 0 1 1-3.461-1.565 2.69 2.69 0 0 1 3.461 1.565zm17.925-10.099c.48 1.339-.706 2.99-2.65 3.687-1.944.697-3.909.176-4.389-1.163-.48-1.339.706-2.99 2.65-3.688 1.944-.696 3.909-.176 4.389 1.164zm-70.903 35.218a3.7 3.7 0 0 1 3.359-.926 3.248 3.248 0 0 1 1.999 2.795 4.252 4.252 0 0 1-2.518 4.354c-4.361 1.689-5.874-3.738-2.84-6.223zm21.816 5.918a3.924 3.924 0 0 1 5.35.301c1.202 1.483.845 3.783-.313 5.301a4.488 4.488 0 0 1-3.505 1.907c-4.14-.08-3.994-5.482-1.532-7.509zm22.339-5.881a3.14 3.14 0 0 1 3.922 4.623c-.991 1.936-4.984 4.008-6.919 2.092-2.091-2.072.895-6.041 2.997-6.715zm18.88-12.153c.96.024 1.782.694 2 1.629a3.243 3.243 0 0 1-1.582 3.549c-1.485.83-2.881-.38-2.985-1.949-.086-1.297 1.219-3.137 2.567-3.229z"/><path fill="#00AEE0" d="M520.577 699.976h-76c0-121.541-13.976-212.521-41.539-270.411-25.494-41.854-42.345-51.805-64.276-55.694-2.391-1.477-4.649-2.871-6.899-4.336l41.455-63.697c1.494.972 3.293 2.083 5.375 3.368 29.872 7.277 63.213 25.203 92.963 87.687 15.229 31.984 27.033 71.455 35.085 117.317 9.181 52.296 13.836 114.797 13.836 185.766z"/><ellipse fill="#00AEE0" cx="482.688" cy="699.976" rx="38" ry="11.986"/><path fill="#04294F" d="M512.282 674.675c.165.445-.475 1.146-1.799 2.044-.795.54-1.63 1.02-2.498 1.434a36.75 36.75 0 0 1-3.46 1.543 50.182 50.182 0 0 1-4.333 1.512c-1.573.511-3.288.922-5.097 1.353-.905.213-1.844.372-2.8.557-.955.19-1.935.348-2.941.474-2.002.305-4.092.476-6.234.637-2.146.09-4.241.165-6.266.097a41.293 41.293 0 0 1-2.976-.127c-.971-.072-1.922-.119-2.846-.225-1.847-.216-3.598-.423-5.22-.747a49.91 49.91 0 0 1-4.48-.994 37.206 37.206 0 0 1-3.618-1.127c-.91-.31-1.796-.688-2.648-1.131-1.42-.736-2.138-1.358-2.026-1.819s1.039-.718 2.593-.794c.776-.031 1.711-.028 2.791-.03l3.63.099c1.338.043 2.793.112 4.357.133 1.558.068 3.225.055 4.971.092.873.016 1.769-.017 2.682-.013.913.008 1.843-.007 2.792-.045 1.896-.023 3.854-.143 5.862-.225 2.003-.153 3.962-.264 5.848-.463a56.718 56.718 0 0 0 2.778-.282c.906-.11 1.8-.183 2.665-.301 1.729-.24 3.386-.422 4.926-.673 1.55-.204 2.988-.442 4.311-.642l3.594-.522c1.073-.125 2.001-.237 2.776-.297 1.55-.109 2.501.038 2.666.482z"/><path fill-rule="evenodd" clip-rule="evenodd" fill="#ffb400" d="M73.283 667.994c-4.094-1.559-8.771-3.117-12.789-1.397-3.682 1.576-5.616 5.651-5.322 9.417.293 3.765 2.442 7.212 5.082 10.076 9.26 10.046 24.317 13.889 38.531 13.93 4.281.012 8.692-.302 12.529-2.071s7.001-5.278 7.084-9.266c.169-8.102-11.563-7.911-17.437-10.149l-27.678-10.54z"/><path fill-rule="evenodd" clip-rule="evenodd" fill="#ffb400" d="M96.588 653.085c-3.486-1.853-7.52-3.613-11.374-2.569-4.195 1.136-6.72 5.454-6.646 9.523.074 4.07 2.235 7.863 4.827 11.14 4.923 6.205 11.487 11.117 19.053 14.257 4.042 1.671 8.465 2.827 12.86 2.371 4.394-.456 8.743-2.765 10.586-6.509 3.353-6.812-2.79-10.205-7.504-13.783a161.351 161.351 0 0 0-21.802-14.43z"/><path fill-rule="evenodd" clip-rule="evenodd" fill="#ffb400" d="M173.022 667.166c-4.491 22.488-23.261 42.854-47.117 49.059-17.176 4.468-35.758 2.947-52.806-1.265-8.53-2.108-44.309-10.769-38.44-24.111 1.745-3.966 7.248-4.837 11.838-5.129 18.218-1.157 37.639-2.076 53.533 6.299 3.641-24.109 16.977-46.237 40.035-58.563 7.273-3.888 17.125-7.511 24.426-1.892 4.801 3.695 7.193 9.462 8.439 15.146a49.732 49.732 0 0 1 .092 20.456z"/><path fill="#F04E23" d="M56.813 686.745c.037.416 1.059.746 2.834 1.007.89.166 1.968.275 3.211.446l1.984.244 2.21.298c1.544.221 3.225.471 5.016.782.896.149 1.815.345 2.765.514l2.906.62c1.975.47 4.044.965 6.147 1.602a93.475 93.475 0 0 1 6.443 2.126c1.087.404 2.158.811 3.196 1.249l.641.263c.28.111.544.235.812.355l1.582.704 3.1 1.369.382.168c.062-.114.112-.234.147-.357l.271-.757.535-1.499 1.04-2.931.391-1.126.242-.728.47-1.433c1.227-3.78 2.247-7.211 3.015-10.122 1.537-5.82 2.065-9.556 1.221-9.827-.844-.271-2.901 2.973-5.544 8.438-1.321 2.732-2.789 6.02-4.326 9.7l-.579 1.398-.292.712-.131.318-.017.013c-.046.028-.072.041-.097.021a.459.459 0 0 1-.033-.044l-.007-.015s-.004-.005.005-.003l.009.002-.182-.078a61.64 61.64 0 0 0-3.466-1.39 68.775 68.775 0 0 0-7.048-2.19 70.038 70.038 0 0 0-6.749-1.378 105.083 105.083 0 0 0-3.183-.409c-1.038-.088-2.041-.193-3.016-.242a64.044 64.044 0 0 0-5.421-.077l-2.357.125c-.743.066-1.441.143-2.092.219a32.79 32.79 0 0 0-3.316.58c-1.801.459-2.757.92-2.719 1.333zm19.368 16.683c-1.329.157-2.104 2.501-1.731 5.236.373 2.734 1.752 4.824 3.081 4.666 1.329-.157 2.104-2.501 1.731-5.236-.372-2.734-1.752-4.824-3.081-4.666zm-8.722-2.08c-1.34 0-2.426 1.848-2.426 4.127s1.086 4.127 2.426 4.127c1.339 0 2.425-1.848 2.425-4.127.001-2.28-1.085-4.127-2.425-4.127z"/><path fill="#00AEE0" d="M105.974 672.141c23.81-5.306 42.913-17.609 57.783-36.207a5.936 5.936 0 0 0 .271-7.055c-8.165-11.894-19.538-23.702-32.519-37.179C108.083 567.379 76 534.07 76 507.541c0-3.781 2.247-24.801 46.599-67.467 29.207-28.097 63.886-53.093 81.958-65.493L163.074 310.9c-27.989 13.261-61.684 44.119-93.164 74.403C22.868 430.557 0 470.541 0 507.541c0 57.178 44.372 103.246 76.772 136.882 8.935 9.277 18.131 18.824 23.151 25.458a5.974 5.974 0 0 0 6.051 2.26z"/><path fill="#04294F" d="M88.185 646.177c.133.455 1.105.624 2.777.529a20.243 20.243 0 0 0 2.993-.389 39.14 39.14 0 0 0 3.871-.901 51.757 51.757 0 0 0 4.583-1.479c1.641-.567 3.336-1.311 5.123-2.095.892-.395 1.778-.858 2.695-1.309.92-.446 1.84-.935 2.761-1.468 1.868-1.015 3.724-2.199 5.617-3.424 1.85-1.288 3.65-2.556 5.296-3.901a42.122 42.122 0 0 0 2.405-1.999c.764-.678 1.529-1.322 2.232-1.998 1.403-1.357 2.734-2.644 3.88-3.947a52.083 52.083 0 0 0 3.105-3.681 39.316 39.316 0 0 0 2.301-3.241 20.15 20.15 0 0 0 1.494-2.623c.721-1.511.934-2.475.563-2.771-.371-.295-1.289.102-2.612 1.052-.656.48-1.423 1.09-2.316 1.789l-2.936 2.43c-1.08.9-2.241 1.895-3.527 2.918-1.249 1.06-2.645 2.118-4.073 3.268-.716.573-1.484 1.119-2.242 1.706a55.874 55.874 0 0 1-2.358 1.746c-1.597 1.192-3.31 2.338-5.041 3.546-1.774 1.144-3.484 2.295-5.192 3.322a55.954 55.954 0 0 1-2.51 1.52c-.831.479-1.626.983-2.428 1.429-1.606.887-3.114 1.777-4.568 2.531-1.433.802-2.795 1.5-4.037 2.158l-3.362 1.796c-.984.562-1.84 1.04-2.533 1.465-1.379.867-2.094 1.566-1.961 2.021z"/><path fill-rule="evenodd" clip-rule="evenodd" fill="#1A2B4A" d="M161.178 593.115c44.888 24.58 143.697 22.953 208.324 6.894 54.161 70.76 64.091 167.9 76.98 304.39 1.526 16.159-8.495 31.172-24 35.969-82.235 25.444-171.976 34.892-267.301-10.069-11.618-5.48-19.221-16.982-19.658-29.819-3.479-102.244 12.023-244.702 25.655-307.365z"/><path fill-rule="evenodd" clip-rule="evenodd" fill="#0DADDD" d="M140.736 324.142c21.883-17.96 62.298-31.149 154.468-28.34 93.702 4.851 120.216 24.919 138.638 44.681-8.003 37.223-46.432 151.208-59.701 246.463-1.414 10.151-9.173 18.223-19.248 20.107-79.446 14.854-156.111 5.956-193.716-13.937-6.637-6.632-6.637-6.632-9.117-13.164-3.675-9.678 4.122-20.66 7.569-34.439-6.02-22.468-17.931-90.177-25.26-114.882-2.345-34.49.176-68.181 6.367-106.489z"/><path fill-rule="evenodd" clip-rule="evenodd" fill="#ffb400" d="M259.527 297.844c-12.855 10.723-44.77 53.872-9.281 110.553 8.426 10.468 19.915 8.936 36 1.532 28.851-17.106 71.234-47.745 58.45-107.739-14.024-47.24-72.313-15.069-85.169-4.346z"/><path fill="#1A2B4A" d="M350.539 302.914c.232-.05.669 1.016 1.292 3.105.294 1.048.708 2.338 1.031 3.897.324 1.558.688 3.363 1.067 5.403.583 4.101 1.273 9.163 1.241 15.107.023 5.93-.495 12.748-2.21 20.102-.795 3.691-2.052 7.458-3.497 11.327-1.585 3.81-3.353 7.751-5.658 11.565-2.279 3.821-4.853 7.658-7.86 11.312a113.703 113.703 0 0 1-9.918 10.646c-7.221 6.84-15.603 13.027-24.556 18.821-4.478 2.9-9.104 5.703-13.789 8.497l-.44.262-.373.222-.399.183-.958.428-1.92.858c-1.294.557-2.612 1.09-3.932 1.625-2.687 1.001-5.405 2.002-8.307 2.712-.713.199-1.436.378-2.18.512-.739.144-1.467.308-2.211.429-1.509.2-3.006.416-4.56.437-3.075.096-6.27-.209-9.308-1.232-3.032-1.029-5.79-2.71-8.107-4.712l-1.677-1.553-1.479-1.674-.374-.427-.255-.292c-.117-.109-.187-.291-.258-.389l-.554-.935-1.029-1.741-2.04-3.461-1.873-3.521c-1.286-2.312-2.365-4.708-3.479-7.054-.576-1.163-1.061-2.364-1.551-3.554l-1.466-3.547-1.28-3.579c-.424-1.186-.855-2.361-1.188-3.564l-1.062-3.56c-.351-1.179-.596-2.383-.895-3.56-.623-2.35-1.002-4.728-1.44-7.053-.704-4.682-1.205-9.269-1.187-13.728l-.026-1.662c.003-.552.037-1.101.054-1.648l.132-3.249c.22-2.139.338-4.245.693-6.283.551-4.096 1.496-7.958 2.556-11.578 1.06-3.626 2.411-6.962 3.766-10.067 1.452-3.063 2.895-5.914 4.478-8.441a76.06 76.06 0 0 1 9.112-12.183c5.677-6.135 9.698-8.531 9.943-8.204.348.408-3.023 3.462-7.888 9.914-2.41 3.233-5.202 7.31-7.824 12.365-1.358 2.5-2.571 5.291-3.798 8.258-1.13 3.007-2.258 6.209-3.109 9.661-.851 3.447-1.599 7.097-1.977 10.95-.27 1.916-.308 3.895-.454 5.896l-.028 3.042c0 .511-.018 1.025-.006 1.541l.071 1.554c.099 4.164.685 8.449 1.442 12.822.465 2.175.863 4.394 1.499 6.597.305 1.104.553 2.228.907 3.334l1.065 3.341c.332 1.128.762 2.234 1.182 3.35l1.265 3.368 1.445 3.347c.481 1.123.955 2.256 1.521 3.358 1.092 2.221 2.142 4.489 3.4 6.689l1.823 3.348 1.989 3.302 1.001 1.662.465.771.015.025.076.081.287.319 1.171 1.316 1.28 1.161c1.748 1.479 3.687 2.639 5.821 3.363 4.296 1.378 9.344 1.035 14.397-.316 2.534-.614 5.044-1.535 7.53-2.453 1.238-.5 2.474-.995 3.699-1.518l1.831-.811.914-.404c.139-.065-.014.016.132-.068l.438-.26c4.679-2.763 9.249-5.493 13.646-8.286 8.789-5.58 16.911-11.424 23.883-17.796a112.419 112.419 0 0 0 9.574-9.862c2.909-3.37 5.401-6.896 7.637-10.406 2.261-3.503 4.018-7.127 5.632-10.641 1.474-3.573 2.796-7.058 3.688-10.502 1.91-6.855 2.742-13.309 3.078-19.003.392-5.703.105-10.652-.059-14.705l-.428-5.386c-.107-1.567-.302-2.881-.374-3.959-.176-2.147-.16-3.308.072-3.358zm-22.551 198.377c.068.467-.995 1.083-2.995 1.771s-4.942 1.434-8.646 2.081a89.705 89.705 0 0 1-6.107.839c-2.214.205-4.592.386-7.113.412-2.52.025-5.179-.022-7.937-.29a68.977 68.977 0 0 1-8.5-1.318 58.417 58.417 0 0 1-8.3-2.57c-2.621-1.017-5.043-2.266-7.279-3.561-2.231-1.312-4.23-2.763-6.013-4.22-1.761-1.488-3.304-2.986-4.579-4.472a32.438 32.438 0 0 1-3.136-4.231c-.395-.669-.765-1.283-1.068-1.871a39.232 39.232 0 0 1-.744-1.653 9.787 9.787 0 0 1-.701-2.426c-.08-.589-.017-.945.193-1.056.21-.11.556.029 1.017.382.478.343.996.945 1.739 1.65.363.358.752.76 1.164 1.203l1.407 1.379c1.01.976 2.18 2.05 3.532 3.155 1.341 1.115 2.884 2.24 4.58 3.371 1.72 1.102 3.592 2.217 5.649 3.236 2.063 1.002 4.258 1.998 6.622 2.819a68.204 68.204 0 0 0 7.426 2.162 87.064 87.064 0 0 0 7.712 1.329c2.519.335 4.982.508 7.337.653 2.356.145 4.615.18 6.736.226l5.933.013c3.645-.018 6.63-.022 8.718.108 2.09.13 3.283.407 3.353.879zm-182.661-22.565c-.474.086-1.157-1.244-2.141-3.652-.977-2.416-2.316-5.89-3.911-10.288-.788-2.203-1.633-4.64-2.429-7.331-.747-2.704-1.539-5.617-2.11-8.733-.337-1.55-.579-3.156-.81-4.799-.115-.822-.25-1.651-.348-2.492l-.245-2.553c-.075-.859-.174-1.726-.227-2.601l-.12-2.651c-.107-1.781-.093-3.589-.075-5.42.031-3.66.288-7.23.685-10.656a98.79 98.79 0 0 1 1.636-9.8c.298-1.554.713-3.043 1.092-4.492l.573-2.137.65-2.044c.812-2.69 1.794-5.12 2.661-7.337.979-2.178 1.826-4.156 2.742-5.815.918-1.658 1.671-3.094 2.447-4.188 1.507-2.21 2.532-3.309 2.955-3.095.423.214.208 1.716-.524 4.21-.389 1.237-.766 2.787-1.32 4.523-.553 1.738-1.052 3.76-1.704 5.943-.541 2.223-1.218 4.621-1.755 7.243l-.45 1.986-.386 2.067c-.259 1.398-.562 2.827-.759 4.314a130.154 130.154 0 0 0-1.161 9.315c-.286 3.24-.481 6.604-.51 10.051-.017 1.724-.044 3.427.036 5.104l.069 2.499c.032.826.107 1.643.156 2.454l.156 2.413c.065.795.164 1.58.24 2.358.153 1.558.305 3.084.542 4.561.371 2.973.919 5.763 1.394 8.396.524 2.625 1.085 5.095 1.571 7.372.992 4.551 1.654 8.348 1.844 11.011.198 2.668-.005 4.181-.464 4.264z"/><path fill="#0DADDD" d="M369.681 627.366c.162.164-.197.833-1.117 1.93-.947 1.06-2.506 2.51-4.808 3.968-2.297 1.452-5.322 2.917-8.964 4.095-3.634 1.208-7.866 2.158-12.485 3.017l-7.24 1.278-3.855.663-4.014.615c-2.727.402-5.54.861-8.454 1.236l-8.994 1.136c-6.171.666-12.657 1.33-19.41 1.757-3.37.282-6.816.387-10.309.541-1.748.061-3.505.172-5.28.188l-5.357.053c-1.797.009-3.583.046-5.358.027l-5.291-.137-5.213-.144-5.126-.327-5.034-.336c-1.663-.095-3.302-.33-4.928-.488l-4.82-.527-2.368-.265-2.331-.359c-3.086-.487-6.099-.927-9.013-1.436l-8.432-1.753-2.018-.434-1.964-.517-3.814-1.013c-2.49-.671-4.889-1.266-7.12-2.058l-6.389-2.131c-2.028-.629-3.857-1.483-5.6-2.165-3.464-1.435-6.456-2.622-8.773-3.904-4.691-2.42-7.165-3.953-6.968-4.384.198-.431 3.042.276 7.971 1.905 2.436.887 5.518 1.69 9.031 2.755l2.725.823c.93.305 1.909.559 2.923.8l6.383 1.62c2.217.627 4.6 1.064 7.061 1.585l3.765.792 1.934.411 1.988.331 8.283 1.375c2.859.393 5.813.727 8.833 1.118l2.279.289 2.319.199 4.717.408c1.591.121 3.19.321 4.819.386l4.927.252 5.013.261 5.106.097 5.18.108c1.74.013 3.493-.028 5.255-.036l5.256-.043c1.741-.01 3.471-.111 5.188-.159 3.435-.128 6.82-.196 10.145-.429 6.653-.329 13.064-.851 19.177-1.337l8.926-.838c2.896-.266 5.7-.609 8.418-.885l4.005-.42 3.855-.457 7.253-.832c4.603-.542 8.688-1.124 12.195-1.916 3.515-.765 6.423-1.763 8.733-2.754 2.309-.996 4-2 5.181-2.673 1.151-.702 1.833-1.036 2.003-.862z"/><path fill="#0DADDD" d="M360.275 633.979c-1.731.778-3.688.193-4.371-1.305s.16-3.359 1.882-4.155 3.679-.211 4.37 1.305-.151 3.377-1.881 4.155zm9.365 21.798c-1.757.716-4.203-1.138-5.462-4.141s-.868-6.047.875-6.798c1.742-.752 4.187 1.103 5.461 4.141s.883 6.083-.874 6.798zm8.602 22.11c-1.781.655-4.16-1.283-5.315-4.328-1.154-3.045-.657-6.073 1.109-6.764 1.767-.691 4.147 1.247 5.315 4.328 1.169 3.081.671 6.109-1.109 6.764zm7.834 22.394c-1.802.593-4.114-1.426-5.163-4.509-1.049-3.083-.448-6.093 1.342-6.722 1.79-.629 4.102 1.389 5.163 4.509 1.061 3.119.46 6.129-1.342 6.722zm7.06 22.65c-1.822.531-4.062-1.566-5.005-4.684s-.238-6.104 1.572-6.672c1.81-.567 4.051 1.53 5.004 4.684.954 3.154.25 6.141-1.571 6.672zm6.28 22.879c-1.839.468-4.006-1.704-4.841-4.852-.835-3.148-.03-6.109 1.799-6.614 1.829-.505 3.997 1.667 4.841 4.853.845 3.184.039 6.145-1.799 6.613zm5.493 23.081c-1.854.405-3.945-1.84-4.672-5.015-.727-3.175.179-6.107 2.024-6.549 1.845-.442 3.937 1.803 4.672 5.015.736 3.212-.17 6.144-2.024 6.549zm4.703 23.255c-1.866.341-3.881-1.974-4.499-5.172s.388-6.097 2.247-6.476 3.874 1.937 4.499 5.172c.625 3.235-.381 6.135-2.247 6.476zm3.905 23.402c-1.877.277-3.811-2.106-4.32-5.323-.508-3.217.596-6.08 2.467-6.396 1.871-.315 3.805 2.068 4.32 5.323.514 3.256-.59 6.119-2.467 6.396zm3.102 23.523c-1.885.213-3.736-2.235-4.134-5.467-.398-3.232.804-6.056 2.684-6.307 1.881-.251 3.732 2.197 4.135 5.467.402 3.27-.8 6.094-2.685 6.307zm2.293 23.613c-1.891.148-3.657-2.362-3.944-5.606-.287-3.244 1.011-6.025 2.899-6.211s3.654 2.323 3.944 5.606c.291 3.283-1.008 6.063-2.899 6.211zm1.478 23.679c-1.896.083-3.574-2.487-3.749-5.738-.175-3.252 1.219-5.986 3.112-6.107 1.893-.121 3.572 2.448 3.749 5.739s-1.216 6.024-3.112 6.106zm.658 23.716c-1.897.017-3.486-2.609-3.548-5.865s1.425-5.94 3.322-5.996c1.896-.055 3.485 2.57 3.548 5.865.062 3.295-1.425 5.979-3.322 5.996zm-.05 17.858c-1.897-.032-3.419-1.393-3.4-3.04.019-1.647 1.572-2.972 3.47-2.96 1.897.012 3.419 1.373 3.4 3.04s-1.573 2.992-3.47 2.96z"/><path fill="#1A2B4A" d="M428.035 505.169c-.467.084-1.145-1.031-1.965-3.096-.403-1.035-.855-2.305-1.387-3.773l-1.697-4.997c-.623-1.848-1.283-3.873-2.05-6.026-.715-2.168-1.574-4.452-2.425-6.867-.428-1.207-.918-2.426-1.382-3.683a104.633 104.633 0 0 0-1.478-3.824c-.998-2.6-2.131-5.249-3.254-7.978-1.196-2.698-2.328-5.348-3.518-7.865a105.084 105.084 0 0 0-1.743-3.71c-.589-1.203-1.131-2.4-1.708-3.544-1.158-2.284-2.215-4.483-3.288-6.498-1.027-2.042-2.034-3.919-2.939-5.646-.904-1.734-1.722-3.302-2.439-4.68-.694-1.399-1.3-2.604-1.769-3.61-.926-2.021-1.263-3.281-.88-3.56.383-.28 1.452.449 3.069 2.024a36.976 36.976 0 0 1 2.77 3.006c1.021 1.218 2.189 2.606 3.357 4.227a96.501 96.501 0 0 1 3.749 5.361c1.32 1.95 2.602 4.112 3.953 6.39.673 1.14 1.304 2.341 1.973 3.555a77.557 77.557 0 0 1 1.958 3.763c1.315 2.566 2.534 5.292 3.771 8.087 1.166 2.826 2.293 5.591 3.24 8.315a77.147 77.147 0 0 1 1.367 4.016c.415 1.323.847 2.608 1.206 3.883.712 2.551 1.39 4.971 1.887 7.273a95.645 95.645 0 0 1 1.285 6.414c.364 1.964.56 3.769.735 5.347.182 1.578.256 2.95.259 4.08.022 2.256-.19 3.532-.657 3.616z"/><path fill-rule="evenodd" clip-rule="evenodd" fill="#ffb400" d="M260.306 303.661v-30.118c-24.471-3.294-79.529-32.471-79.529-80s-5.081-96.187-4.032-107.817C187.059-28.657 462.101-66.081 353.193 214.834c-5.283 16.587-7.869 62.06-7.597 95.878.117 14.497-23.173 26.001-48.585 22.731-23.545-3.03-36.705-16.606-36.705-29.782z"/><path fill="#E84E27" d="M306.6 266.825c.314.354.145 1.054-.533 2.083-.327.547-.836 1.015-1.441 1.598-.604.601-1.354 1.135-2.208 1.705-.85.608-1.829 1.094-2.89 1.647-1.064.544-2.23.986-3.466 1.479-1.245.404-2.556.887-3.939 1.208l-2.112.512-2.194.406c-1.484.263-2.948.412-4.362.543-1.421.087-2.787.175-4.104.135-1.308.005-2.564-.093-3.734-.214-1.165-.101-2.272-.345-3.254-.531-1.001-.259-1.889-.52-2.659-.819-.779-.345-1.42-.661-1.923-.994-1.016-.765-1.4-1.376-1.212-1.81s.913-.676 1.902-.774a17.69 17.69 0 0 1 1.847-.214c.713-.08 1.529-.171 2.406-.233.906-.132 1.865-.175 2.922-.321 1.053-.126 2.17-.238 3.356-.41 1.181-.127 2.422-.339 3.708-.504 1.282-.208 2.617-.387 3.972-.629l2.011-.337 1.94-.37c1.286-.206 2.48-.519 3.658-.722 1.138-.282 2.261-.487 3.269-.747 1.002-.267 1.987-.452 2.82-.71.858-.229 1.663-.408 2.325-.621.674-.2 1.337-.302 1.813-.452 1.006-.251 1.768-.258 2.082.096z"/></g></g><defs><clipPath id="m"><path transform="scale(0.5864067272727272 0.5811)" d="M1 10h55v33H1z"/></clipPath><clipPath id="n"><path d="M0 0h32.252v26.149H0z"/></clipPath></defs><g clip-path="url(#m)" transform="translate(803.0 919.0) rotate(-83.90132419949799 27.5 22.5) scale(1.705301036792025 1.7208742040956806)"><g clip-path="url(#n)" transform="translate(-0.0 -0.0)"><path d="M29.015 1.263c2.274 1.533 3.243 4.463 3.237 7.206a16.587 16.587 0 0 1-6.579 12.625 25.531 25.531 0 0 1-13.65 4.967c-3.36.288-7.07-.038-9.53-2.345-6.46-6.065 1.044-12.22 6.562-14.327 5.943-2.269 12.7-13.02 19.96-8.126Z" style="fill:#0daddd"/></g></g><defs><clipPath id="o"><path d="M0 0h32.252v26.149H0z"/></clipPath></defs><g clip-path="url(#o)" transform="translate(800.0 940.0) rotate(-39.586733373723845 19.5 15.5) scale(1.2092134624525268 1.1854911183770245) translate(-0.0 -0.0)"><path d="M29.015 1.263c2.274 1.533 3.243 4.463 3.237 7.206a16.587 16.587 0 0 1-6.579 12.625 25.531 25.531 0 0 1-13.65 4.967c-3.36.288-7.07-.038-9.53-2.345-6.46-6.065 1.044-12.22 6.562-14.327 5.943-2.269 12.7-13.02 19.96-8.126Z" style="fill:#0daddd"/></g><defs><clipPath id="p"><path transform="scale(0.1910762711864407 0.1917927031509121)" d="M0 276h509v326H0z"/></clipPath><clipPath id="q"><path d="M0 0h90.188v115.651H0z"/></clipPath></defs><g clip-path="url(#p)" transform="translate(550.0 867.0) rotate(0.0 236.0 301.5) scale(5.2335122189204775 5.213962698117613)"><g clip-path="url(#q)" transform="translate(-0.0 -0.0)" fill="#ffb400"><path d="M52.511 115.151H37.677c-17.889 0-32.858-13.576-34.6-31.38L.52 57.638A4.136 4.136 0 0 1 4.636 53.1h80.917a4.136 4.136 0 0 1 4.116 4.538l-2.557 26.133c-1.743 17.804-16.712 31.38-34.601 31.38z"/><path d="M52.512 115.651H37.677A35.142 35.142 0 0 1 2.579 83.82L.022 57.687c-.127-1.299.303-2.599 1.18-3.565S3.33 52.6 4.636 52.6h80.917c1.305 0 2.557.555 3.434 1.521s1.307 2.266 1.18 3.565L87.609 83.82a35.14 35.14 0 0 1-35.097 31.831zM4.636 53.6a3.638 3.638 0 0 0-3.618 3.989l2.557 26.133a34.145 34.145 0 0 0 34.103 30.929h14.834a34.144 34.144 0 0 0 34.102-30.929l2.557-26.133a3.642 3.642 0 0 0-.925-2.796 3.643 3.643 0 0 0-2.693-1.193H4.636z"/><path d="M85.435 86.855H5.787V40.324C5.787 18.365 23.652.5 45.611.5s39.824 17.865 39.824 39.824v46.531zm-74.648-5h69.648V40.324C80.435 21.122 64.813 5.5 45.611 5.5c-19.202 0-34.824 15.622-34.824 34.824v41.531z"/><path d="M85.435 87.355H5.787a.5.5 0 0 1-.5-.5V40.324C5.287 18.089 23.376 0 45.611 0s40.324 18.089 40.324 40.324v46.532a.5.5 0 0 1-.5.499zm-79.148-1h78.648V40.324C84.935 18.641 67.294 1 45.611 1S6.287 18.641 6.287 40.324v46.031zm74.148-4H10.787a.5.5 0 0 1-.5-.5V40.324C10.287 20.846 26.133 5 45.611 5c19.478 0 35.324 15.846 35.324 35.324v41.532a.5.5 0 0 1-.5.499zm-69.148-1h68.648V40.324C79.935 21.397 64.537 6 45.611 6S11.287 21.397 11.287 40.324v41.031z"/></g></g><defs><clipPath id="r"><path d="M0 0h80.908v214.018H0z"/></clipPath></defs><g clip-path="url(#r)" transform="translate(701.0 121.0) rotate(-112.82472451035336 83.5 225.0) scale(2.0640727740149307 2.102626881851059) translate(-0.0 -0.0)"><path d="M0 212.408c.2-4.8.7-9.5 1.3-14.3l.4-3.5.5-3.5c.4-2.4.7-4.7 1-7.1 1.6-9.4 3.4-18.7 5.7-28a452.452 452.452 0 0 1 16.7-54.6 458.147 458.147 0 0 1 23.4-52.1l3.3-6.3c.6-1.1 1.1-2.1 1.7-3.2l1.8-3.1 7.2-12.3c2.4-4.1 5.1-8 7.7-12s5.3-7.9 7.9-11.8a1.188 1.188 0 0 1 1.7-.4 1.188 1.188 0 0 1 .4 1.7c-2.4 4.1-4.8 8.2-7.2 12.2-2.4 4.1-4.9 8.1-7 12.3l-6.7 12.5-1.7 3.1c-.5 1-1 2.1-1.6 3.2l-3.1 6.4a541.135 541.135 0 0 0-22.4 51.9l-4.6 13.2-4.4 13.4c-2.8 9-5.5 18-7.8 27.1-1.3 4.5-2.3 9.1-3.4 13.7l-.8 3.4-.7 3.5-1.5 6.9c-1.9 9.2-3.5 18.5-4.6 27.8v.1a1.569 1.569 0 0 1-1.7 1.4 1.624 1.624 0 0 1-1.5-1.6Z" fill="#1a2b4a" data-name="Layer 2"/></g><defs><clipPath id="s"><path d="M0 0h611.845v395.967H0z"/></clipPath></defs><g clip-path="url(#s)" transform="translate(491.0 418.0) rotate(6.502610562434455 -218.5 141.0) scale(-0.7142331799720517 0.7121805605012539) translate(-0.0 -0.0)"><path d="M573.53 379.9c-157.8 47.5-530.1-19.2-564.7-84.7-30.7-58 23.9-132.6 83.1-134.1 2.2 9.1 9.1 20.9 14.4 26.3a2.067 2.067 0 0 0 2.8.5 2 2 0 0 0 .8-1.9 110.536 110.536 0 0 1 .3-23S124.03.7 304.03 0c102.1-.4 150.2 76 168 114l.1.1c-17 5.3-27.7 16.7-34.6 26.1a4.1 4.1 0 0 0 .6 5.7 3.97 3.97 0 0 0 4.3.5c16.7-7.6 37.7-10.3 38.7-10.4v.1c145 11.5 159.1 195 92.4 243.8Z" fill="#fff" data-name="Layer 2"/></g><defs><clipPath id="t"><path d="M0 0h115.123v104.041H0z"/></clipPath></defs><g clip-path="url(#t)" transform="translate(842.0 704.0) rotate(0.0 38.0 34.0) scale(0.6601634773242532 0.6535884891533146) translate(-0.0 -0.0)"><g data-name="Слой 1"><path d="M29.484 40.5v-.234c0-.2-.023-.389-.027-.587-.013-.476-.03-.95-.066-1.417a26.3 26.3 0 0 0-1.8-8.113h-.115c-2.245-5.29-6.151-8.8-10.6-8.8s-8.358 3.513-10.6 8.8h-.125a26.274 26.274 0 0 0-1.8 8.113c-.036.467-.053.941-.066 1.417 0 .2-.027.387-.027.587v.234c0 .2.023.389.027.586.013.476.03.951.066 1.418a26.274 26.274 0 0 0 1.8 8.112h.115c2.245 5.29 6.15 8.8 10.6 8.8s8.358-3.514 10.6-8.8h.115a26.3 26.3 0 0 0 1.8-8.112c.036-.467.053-.942.066-1.418.014-.201.037-.386.037-.586Zm56.425 0v-.234c0-.2-.023-.389-.028-.587-.012-.476-.029-.95-.065-1.417a26.3 26.3 0 0 0-1.8-8.113H83.9c-2.245-5.29-6.151-8.8-10.6-8.8s-8.358 3.513-10.6 8.8h-.114a26.274 26.274 0 0 0-1.8 8.113c-.036.467-.053.941-.066 1.417 0 .2-.028.387-.028.587v.234c0 .2.024.389.028.586.013.476.03.951.066 1.418a26.274 26.274 0 0 0 1.8 8.112h.114c2.246 5.29 6.151 8.8 10.6 8.8s8.358-3.514 10.6-8.8h.115a26.3 26.3 0 0 0 1.8-8.112c.036-.467.053-.942.065-1.418.006-.201.029-.386.029-.586Z" fill="#04294f"/><g fill="#04294f"><path d="M106.741 80.618c.395.264.325 1.132-.168 2.512a13.387 13.387 0 0 1-1.1 2.4 30.2 30.2 0 0 1-1.867 2.941l-1.249 1.6-.682.844c-.245.274-.507.542-.77.819l-1.658 1.7c-.586.57-1.245 1.095-1.9 1.66a21.425 21.425 0 0 1-2.1 1.636c-.747.516-1.5 1.068-2.3 1.568l-2.513 1.433c-.857.477-1.787.849-2.7 1.275a25.149 25.149 0 0 1-2.792 1.071l-1.388.47c-.461.15-.936.245-1.4.364-.932.21-1.83.477-2.742.605l-2.669.366c-.87.1-1.732.092-2.558.128l-1.223.031-1.187-.074-2.237-.182c-.712-.11-1.392-.25-2.036-.377a18.756 18.756 0 0 1-3.4-.969q-.732-.265-1.345-.522-.6-.312-1.077-.6c-1.27-.768-1.867-1.4-1.721-1.849s1.01-.687 2.382-.742c.343-.014.718-.017 1.123-.007.412-.027.855-.048 1.324-.059.938-.018 1.982.012 3.139-.092l1.793-.082 1.927-.214 1.008-.1 1.032-.184c.7-.131 1.416-.209 2.142-.37l2.221-.518c.758-.164 1.505-.452 2.281-.665.385-.122.781-.214 1.166-.358l1.162-.44c.78-.3 1.585-.557 2.356-.939.776-.367 1.573-.663 2.315-1.054l2.2-1.142c.712-.394 1.385-.831 2.066-1.223a22.181 22.181 0 0 0 1.948-1.245c.62-.43 1.255-.813 1.834-1.24l1.678-1.26.81-.594.744-.621c.5-.4.975-.784 1.431-1.15.922-.731 1.688-1.471 2.446-2.059s1.365-1.147 1.929-1.559c1.113-.838 1.931-1.196 2.325-.933Z"/><path d="M115.085 85.152a1.553 1.553 0 0 1-.552 1.484 5.137 5.137 0 0 1-2.521 1.24 8.951 8.951 0 0 1-4.155-.125 10.424 10.424 0 0 1-7.343-7.054 8.942 8.942 0 0 1-.292-4.146 5.135 5.135 0 0 1 1.137-2.569 1.554 1.554 0 0 1 1.461-.611c.939.228 1.489 1.423 2.241 2.746a16.871 16.871 0 0 0 2.964 4.11 16.85 16.85 0 0 0 4.226 2.8c1.349.694 2.568 1.196 2.834 2.125Z"/></g><circle cx="12.355" cy="38.772" r="5.402" fill="#fff"/><circle cx="19.092" cy="27.953" r="3.252" fill="#fff"/><circle cx="68.719" cy="38.772" r="5.402" fill="#fff"/><circle cx="75.456" cy="27.953" r="3.252" fill="#fff"/><path d="M29.484 16.381a1.053 1.053 0 0 1-.784-.093 5.371 5.371 0 0 1-.98-.657c-.365-.293-.766-.652-1.225-1.046s-.959-.831-1.527-1.274-1.194-.9-1.869-1.348a21.523 21.523 0 0 0-2.238-1.246 16.951 16.951 0 0 0-2.56-.983 16.574 16.574 0 0 0-2.8-.552 16.539 16.539 0 0 0-2.851.012 17 17 0 0 0-2.7.48 21.611 21.611 0 0 0-2.433.8c-.748.316-1.457.632-2.091.969s-1.219.661-1.74.962-.988.576-1.4.8a5.323 5.323 0 0 1-1.087.459 1.055 1.055 0 0 1-.787-.064.9.9 0 0 1-.386-.679 3.276 3.276 0 0 1 .1-1.3 7.629 7.629 0 0 1 .721-1.8 11.659 11.659 0 0 1 1.471-2.11 15.053 15.053 0 0 1 2.3-2.142 16.79 16.79 0 0 1 7.069-3.036 17.281 17.281 0 0 1 4.468-.191 17.3 17.3 0 0 1 4.352 1.034A16.788 16.788 0 0 1 26.874 7.7a15.033 15.033 0 0 1 1.855 2.54 11.623 11.623 0 0 1 1.045 2.349 7.537 7.537 0 0 1 .366 1.909 3.278 3.278 0 0 1-.148 1.3.894.894 0 0 1-.508.583Zm62.565-1.399a1 1 0 0 1-.818-.1 6.736 6.736 0 0 1-1.112-.766c-.426-.344-.9-.766-1.459-1.229s-1.168-.976-1.869-1.494-1.481-1.044-2.325-1.565a24.416 24.416 0 0 0-2.8-1.411 19.93 19.93 0 0 0-3.213-1.057 17.111 17.111 0 0 0-7.038-.24 19.832 19.832 0 0 0-3.276.833 24.161 24.161 0 0 0-2.891 1.217c-.878.462-1.7.923-2.426 1.4s-1.386.937-1.967 1.363-1.092.813-1.54 1.127a6.742 6.742 0 0 1-1.161.688 1 1 0 0 1-.824.047.867.867 0 0 1-.389-.715 4 4 0 0 1 .129-1.473 9.462 9.462 0 0 1 .8-2.095 14.215 14.215 0 0 1 1.63-2.488 18.188 18.188 0 0 1 2.57-2.583 20.041 20.041 0 0 1 3.545-2.294 19.79 19.79 0 0 1 4.44-1.62 19.1 19.1 0 0 1 10.2.349 19.813 19.813 0 0 1 4.32 1.917 20.069 20.069 0 0 1 3.38 2.531 18.135 18.135 0 0 1 2.385 2.753 14.182 14.182 0 0 1 1.458 2.6 9.46 9.46 0 0 1 .657 2.145 3.989 3.989 0 0 1 .028 1.478.863.863 0 0 1-.434.682Z" fill="#04294f"/></g></g><defs><clipPath id="u"><path d="M0 0h113.889v48.243H0z"/></clipPath></defs><g clip-path="url(#u)" transform="translate(757.0 725.0) rotate(0.0 -41.5 17.5) scale(-0.7287797768002178 0.7254938540306365) translate(-0.0 -0.0)"><g fill="#1A2B4A"><path d="M94.858 32.717c.032-.521.049-1.049.058-1.583.002-.132.015-.259.015-.392l-.002-.084.002-.084c0-.133-.013-.259-.015-.392a34.199 34.199 0 0 0-.058-1.583c-.025-.448-.06-.887-.102-1.324-.009-.091-.02-.181-.03-.271-.224-2.147-.626-4.166-1.213-5.951h-.053c-1.6-4.804-4.352-7.979-7.484-7.979-3.132 0-5.888 3.175-7.49 7.979h-.054c-.589 1.791-.992 3.816-1.216 5.97-.009.082-.019.162-.027.244a35.429 35.429 0 0 0-.161 2.914c-.002.133-.014.26-.014.394l.002.084-.002.084c0 .134.013.261.014.394a35.631 35.631 0 0 0 .161 2.914c.008.082.018.162.027.244.224 2.154.626 4.179 1.216 5.97h.054c1.603 4.804 4.358 7.979 7.49 7.979 3.132 0 5.884-3.175 7.484-7.979h.052c.587-1.786.989-3.804 1.213-5.951.01-.091.021-.18.03-.271.043-.438.078-.877.103-1.326zm-60.331 0c.032-.521.049-1.049.058-1.583.002-.132.015-.259.015-.392l-.002-.084.002-.084c0-.133-.013-.259-.015-.392a34.199 34.199 0 0 0-.058-1.583c-.025-.448-.06-.887-.102-1.324-.009-.091-.02-.181-.03-.271-.224-2.147-.626-4.166-1.213-5.951h-.052c-1.6-4.804-4.352-7.979-7.484-7.979-3.132 0-5.888 3.175-7.49 7.979h-.054c-.589 1.791-.992 3.816-1.216 5.97-.009.082-.019.162-.027.244a35.429 35.429 0 0 0-.161 2.914c-.002.133-.014.26-.014.394l.002.084-.002.084c0 .134.013.261.014.394a35.631 35.631 0 0 0 .161 2.914c.008.082.018.162.027.244.224 2.154.626 4.179 1.216 5.97h.054c1.603 4.804 4.358 7.979 7.49 7.979 3.132 0 5.884-3.175 7.484-7.979h.052c.587-1.786.989-3.804 1.213-5.951.01-.091.021-.18.03-.271.042-.438.077-.877.102-1.326zM33.302 5.492c-.395.612-1.772.42-3.674.108-1.902-.319-4.365-.696-6.87-.396a14.07 14.07 0 0 0-3.394.879c-1.019.41-1.911.886-2.647 1.359-.738.47-1.359.915-1.861 1.233-.266.151-.478.281-.697.344-.212.065-.406.074-.572.008-.165-.065-.294-.203-.383-.417-.083-.21-.15-.51-.128-.861.015-.716.3-1.699.951-2.766.646-1.067 1.688-2.171 3.074-3.075A12.05 12.05 0 0 1 22.14.087a13.324 13.324 0 0 1 5.2.423c1.521.435 2.772 1.075 3.72 1.737 1.904 1.34 2.621 2.67 2.242 3.245zm65.206 5.005c-.7.225-1.608-.713-2.982-1.771-1.356-1.074-3.289-2.309-5.614-2.989-2.355-.683-4.739-.741-6.584-.736-1.844-.005-3.189-.006-3.506-.663-.305-.614.55-1.843 2.601-2.866 1.019-.506 2.334-.931 3.87-1.107a13.052 13.052 0 0 1 5.06.424 12.235 12.235 0 0 1 4.537 2.463c1.2 1.043 2.056 2.216 2.56 3.297.508 1.082.696 2.041.656 2.731-.007.34-.091.625-.188.826-.105.205-.242.334-.41.391z"/><path d="M113.846 30.926c-.12.205-.478.268-1.004.217-.261-.029-.567-.081-.92-.135l-1.159-.23a59.186 59.186 0 0 0-2.933-.547c-.552-.067-1.122-.175-1.721-.22-.596-.075-1.216-.104-1.849-.155-.635-.014-1.255-.049-1.855-.036-.601-.017-1.179.031-1.735.042a60.077 60.077 0 0 0-2.973.243l-1.177.11c-.357.018-.667.038-.929.04-.528-.003-.878-.103-.977-.318-.098-.216.068-.53.474-.92.201-.199.465-.411.792-.613a8.396 8.396 0 0 1 1.146-.633c.875-.423 1.978-.787 3.239-1.047.632-.108 1.301-.232 2.001-.265.699-.063 1.426-.052 2.17-.032.742.057 1.466.12 2.155.255.693.104 1.346.297 1.963.469 1.228.389 2.288.863 3.114 1.374.421.236.771.51 1.075.748.305.234.545.472.725.69.365.429.498.759.378.963zm-.703 7.993c-.153.181-.506.187-.999.051-.49-.14-1.14-.396-1.905-.736l-2.64-1.187c-.499-.207-1.007-.448-1.551-.661l-1.672-.674-1.694-.617c-.546-.207-1.086-.367-1.595-.546l-2.756-.884c-.795-.259-1.451-.503-1.908-.727-.457-.229-.715-.469-.708-.706.009-.46 1.106-.895 2.932-.975.911-.044 1.995.024 3.184.215.59.11 1.215.224 1.844.407.635.164 1.277.388 1.931.625.645.261 1.271.524 1.853.827.591.284 1.131.618 1.643.931 1.012.653 1.864 1.328 2.511 1.97 1.307 1.282 1.832 2.339 1.53 2.687zM.048 31.562c-.113-.208-.025-.506.25-.875.271-.374.745-.788 1.393-1.202.646-.419 1.478-.808 2.444-1.125.486-.143 1-.297 1.546-.386.543-.11 1.115-.166 1.7-.214a14.548 14.548 0 0 1 1.713.014c.553.024 1.082.118 1.581.203.997.203 1.868.491 2.559.833.691.336 1.21.692 1.523 1.032.316.334.438.619.35.839-.088.22-.375.356-.799.42-.422.058-.994.076-1.666.065l-2.306-.042c-.428.01-.872-.009-1.333.014l-1.422.051-1.418.115c-.461.03-.9.102-1.326.141l-2.285.31c-.666.089-1.236.138-1.662.129-.428-.012-.729-.113-.842-.322zM7.81 39.87c-.217-.096-.343-.354-.373-.761-.037-.408.053-.949.273-1.581.216-.634.591-1.338 1.11-2.054.27-.346.556-.716.902-1.048a10.8 10.8 0 0 1 1.115-.984c.415-.297.825-.579 1.251-.803.414-.242.848-.417 1.255-.582.83-.303 1.61-.472 2.279-.507.667-.039 1.213.022 1.596.169.383.141.597.332.63.567.033.234-.114.49-.384.748-.272.25-.663.536-1.13.839-.939.605-2.161 1.361-3.426 2.31-1.258.957-2.319 1.926-3.158 2.664-.419.367-.801.665-1.116.858-.321.19-.607.262-.824.165z"/></g></g><defs><clipPath id="v"><path d="M0 0h61.711v15.845H0z"/></clipPath></defs><g clip-path="url(#v)" transform="translate(700.0 781.0) rotate(12.597604687103841 15.5 3.5) scale(0.5023415598515661 0.4417797412432944) translate(-0.0 -0.0)"><path fill="#04294F" d="M61.605 3.927c.345.755-.155 1.822-1.428 3.134-.318.328-.683.67-1.096 1.027-.417.346-.892.673-1.406 1.026a26.04 26.04 0 0 1-3.647 2.119c-.702.339-1.444.681-2.227 1.028-.783.344-1.623.612-2.489.922a46.588 46.588 0 0 1-5.66 1.565 53.382 53.382 0 0 1-26.685-1.329 46.267 46.267 0 0 1-5.476-2.114c-.832-.393-1.642-.739-2.385-1.162a73.204 73.204 0 0 1-2.115-1.239 26.318 26.318 0 0 1-3.422-2.465 13.944 13.944 0 0 1-2.29-2.285C.14 2.726-.255 1.615.161.897c.87-1.482 4.594-.903 9.998.116a64.37 64.37 0 0 1 2.11.406c.724.156 1.499.245 2.276.394 1.55.319 3.228.528 4.96.821 3.491.478 7.298.916 11.316 1.136 4.02.177 7.85.124 11.37-.005 1.751-.125 3.442-.162 5.015-.329.788-.071 1.566-.088 2.303-.167a62.198 62.198 0 0 1 2.138-.199c5.473-.483 9.233-.702 9.958.857z"/></g><defs><clipPath id="w"><path d="M0 0h272.072v254.645H0z"/></clipPath></defs><g clip-path="url(#w)" transform="translate(764.0 638.0) rotate(0.0 -88.0 82.0) scale(-0.6468875885794937 0.6440338510475367) translate(-0.0 -0.0)"><g data-name="Слой 1"><path d="M12.182 73.579C5.78 96.2 14.239 124.121 22.031 125.1c5.722.716 7.027-13.626 20.455-25 19.678-16.676 55.689-19.48 77.624-2.26 2.293 1.8 18.548 17.441 21.534 37.478 2.3 15.429.836 20.068 2.908 35.514a5.433 5.433 0 0 0 2.348 3.9c3.827 2.438 7.641-2.553 8.366-6.766 1.393-8.1-.74-16.511.812-24.577 1.767-9.18 11.968-18.329 20.243-10.853a14.133 14.133 0 0 1 4.418 9.224 211.184 211.184 0 0 1-8.5 81.967c-2.8 9.033-7.811 22.606-4.718 30.225.486 1.2 2.5.57 3.934.159 12.584-3.592 51.469-66.508 58.915-82.8 6.389-13.976 9.369-26.969 10.607-44.7.414-5.921 2.015-28.846-5.3-49.244-13.24-36.9-53.453-59.345-86.367-65.911C91.666-.042 24.3 30.746 12.182 73.579Z" fill="#04294f" fill-rule="evenodd"/><path d="M272.039 55.018c.148 10.822.444 32.386-15.152 44.319-13.459 10.3-30.59 7.181-36.744 6.061-22.817-4.151-48.539-22.887-51.9-50.38-.3-2.44-4.183-34.572 17.425-45.835 16.072-8.378 34.167 1.081 36.365 2.273 3.261-1.461 19.6-8.409 33.334-.758 16.39 9.127 16.503 32.063 16.672 44.32ZM87.184 41.9c-.658 21.185-18.9 42.29-43.562 42.29C18.507 84.185 1.12 62.127.06 41.9-.1 38.739-.851 20.239 13.7 9.183c10.5-7.977 22.464-7.155 25.758-6.818A33.829 33.829 0 0 1 59.153.849C76.408 5.066 87.726 24.453 87.184 41.9Z" fill="#04294f" fill-rule="evenodd"/><path d="M163.229 152.023a10.059 10.059 0 0 1 1.081-3.517 2.594 2.594 0 0 1 2.454-1.532c1.113.2 1.932 1.506 2.518 2.813a24.433 24.433 0 0 1 1.947 7.326 14.009 14.009 0 0 1-.424 5.885c-1.277 3.771-4.749 4.274-6.623.982-1.682-2.954-1.482-8.568-.953-11.957Z" fill="#04294f"/><path d="M75.623 18.689c.154.457-.937 1.283-2.956 2.489s-4.955 2.83-8.463 4.962a119.83 119.83 0 0 0-11.782 8.136 98.54 98.54 0 0 0-6.4 5.45c-1.084.973-2.125 2.028-3.184 3.093-1.087 1.039-2.107 2.172-3.147 3.311-2.091 2.268-3.987 4.613-5.761 6.922-.9 1.146-1.692 2.339-2.529 3.466l-2.3 3.421q-1.056 1.718-2.06 3.346c-.625 1.11-1.279 2.166-1.846 3.223a144.81 144.81 0 0 0-3.1 5.937c-1.817 3.686-3.165 6.758-4.2 8.872s-1.75 3.277-2.22 3.162c-.452-.109-.605-1.487-.352-3.895a52.488 52.488 0 0 1 2.277-9.951 74.463 74.463 0 0 1 2.485-6.625c.489-1.178 1.077-2.359 1.649-3.593.6-1.219 1.271-2.45 1.942-3.722.728-1.238 1.46-2.519 2.259-3.8.839-1.251 1.646-2.565 2.576-3.828a81.028 81.028 0 0 1 6.1-7.555c1.122-1.23 2.235-2.442 3.423-3.548 1.16-1.132 2.309-2.24 3.507-3.254a76.655 76.655 0 0 1 7.138-5.537 75.29 75.29 0 0 1 13.319-7.361 52.009 52.009 0 0 1 9.719-3.133c2.372-.459 3.757-.43 3.906.012Zm133.601-2.56c.087.96-1.99 1.94-5.188 3.011s-7.47 2.311-11.367 4.557a23.117 23.117 0 0 0-4.847 3.8 23.539 23.539 0 0 0-1.759 2.056 21.658 21.658 0 0 0-1.318 1.976 26.695 26.695 0 0 0-.957 1.782l-.714 1.474a6.315 6.315 0 0 1-.618 1.032 1.058 1.058 0 0 1-.671.433.873.873 0 0 1-.71-.338 3.287 3.287 0 0 1-.674-1.181q-.14-.4-.262-.908c-.066-.335-.106-.7-.146-1.1a11.343 11.343 0 0 1 .142-2.723 14.6 14.6 0 0 1 .926-3.172 17.942 17.942 0 0 1 1.832-3.3 20.317 20.317 0 0 1 6.329-5.772 25.6 25.6 0 0 1 7.709-2.87 28.211 28.211 0 0 1 6.416-.553c3.617.126 5.793.867 5.877 1.796ZM187.128 204c-.434-.208-.181-1.7.452-3.965s1.624-5.323 2.7-8.7 2.033-6.439 2.827-8.656 1.451-3.579 1.926-3.5c.459.079.648 1.6.448 4.011a46.3 46.3 0 0 1-5.669 17.793c-1.227 2.085-2.263 3.217-2.684 3.017ZM26.73 11.093c.075.468-.249 1-.83 1.543-.293.264-.649.543-1.045.876s-.861.609-1.333 1c-.483.361-1.006.729-1.535 1.172-.553.395-1.086.9-1.671 1.363-.29.238-.558.522-.853.778a10.136 10.136 0 0 0-.865.826c-.594.553-1.139 1.191-1.732 1.811-.537.669-1.1 1.292-1.569 1.953a10.287 10.287 0 0 0-.706.966c-.215.325-.461.629-.659.947-.387.641-.814 1.236-1.133 1.835-.37.582-.667 1.149-.962 1.675-.328.519-.549 1.016-.819 1.452s-.509.826-.732 1.151c-.463.648-.948 1.038-1.421 1.025s-.9-.439-1.243-1.265a5.26 5.26 0 0 1-.4-1.521 9.514 9.514 0 0 1-.1-2.039 12.474 12.474 0 0 1 .325-2.45 16.9 16.9 0 0 1 .83-2.722c.177-.471.417-.923.643-1.4a10.947 10.947 0 0 1 .781-1.406 21.35 21.35 0 0 1 1.999-2.729 21.385 21.385 0 0 1 2.449-2.334 10.916 10.916 0 0 1 1.291-.959c.442-.286.86-.583 1.3-.82a16.983 16.983 0 0 1 2.59-1.178A12.576 12.576 0 0 1 21.72 10a9.488 9.488 0 0 1 2.034-.171 5.234 5.234 0 0 1 1.559.2c.866.234 1.342.596 1.417 1.064Zm191.328 86.571c-.047.467-.929.845-2.523 1.033a24.071 24.071 0 0 1-6.756-.33 28.441 28.441 0 0 1-9.693-3.619 25.822 25.822 0 0 1-4.983-3.912 22.74 22.74 0 0 1-4.109-5.641 23.487 23.487 0 0 1-2.157-6.665 25.819 25.819 0 0 1-.176-6.348 30.781 30.781 0 0 1 1.047-5.468 33.625 33.625 0 0 1 1.657-4.434 29.316 29.316 0 0 1 1.816-3.4 19.392 19.392 0 0 1 1.695-2.353 7.064 7.064 0 0 1 1.367-1.3c.382-.256.682-.335.892-.224s.319.406.339.86a9.442 9.442 0 0 1-.186 1.819c-.135.756-.335 1.653-.563 2.68s-.5 2.178-.749 3.442-.49 2.639-.7 4.1a37.6 37.6 0 0 0-.295 4.594 25.15 25.15 0 0 0 .477 4.837 20.484 20.484 0 0 0 1.65 4.729 21.946 21.946 0 0 0 6.492 7.416 36.7 36.7 0 0 0 7.548 4.225c2.35 1.009 4.372 1.725 5.773 2.345s2.187 1.137 2.137 1.614Zm27.747-14.949c.151.094.217.3.194.632a3.659 3.659 0 0 1-.372 1.3 9.226 9.226 0 0 1-1.092 1.8c-.259.312-.542.646-.856.992-.329.319-.679.667-1.067 1a18.1 18.1 0 0 1-2.746 1.911 21.566 21.566 0 0 1-3.484 1.593 24.421 24.421 0 0 1-4.109 1.027 23.39 23.39 0 0 1-4.562.26 22.505 22.505 0 0 1-4.536-.653 21.485 21.485 0 0 1-4.016-1.42 19.278 19.278 0 0 1-3.328-1.958 16.142 16.142 0 0 1-2.515-2.26 10.4 10.4 0 0 1-2.449-4.233 3.519 3.519 0 0 1-.142-1.358c.038-.329.141-.523.307-.586.354-.135.835.287 1.576.949a23.6 23.6 0 0 0 3.129 2.5 21.1 21.1 0 0 0 2.35 1.355 22.669 22.669 0 0 0 2.875 1.193 24.724 24.724 0 0 0 6.964 1.317 25.626 25.626 0 0 0 3.684-.115 29.714 29.714 0 0 0 3.415-.573 27.444 27.444 0 0 0 3.011-.9 26.625 26.625 0 0 0 2.536-1.069q.563-.293 1.072-.554l.939-.542c.567-.365 1.086-.675 1.5-.955a10.34 10.34 0 0 1 1.058-.607.754.754 0 0 1 .664-.046ZM47.148 10.35c.147.707-1.451 1.65-3.989 2.787a82.253 82.253 0 0 0-9.319 4.533 30.558 30.558 0 0 0-4.353 3.222 28.4 28.4 0 0 0-3.073 3.208c-1.631 1.973-2.5 3.514-3.233 3.361a.661.661 0 0 1-.426-.431 2.931 2.931 0 0 1-.21-1.049 9.38 9.38 0 0 1 .684-3.651 16.179 16.179 0 0 1 2.829-4.722 21.155 21.155 0 0 1 5.1-4.339 26.805 26.805 0 0 1 11.077-3.657c2.929-.273 4.771.052 4.913.738Zm152.378 179.661c-.459-.146-.488-1.419-.307-3.354s.542-4.548.9-7.431.65-5.5.95-7.426.642-3.147 1.123-3.176c.465-.028.985 1.166 1.306 3.168a30.786 30.786 0 0 1-1.931 15.47c-.8 1.861-1.597 2.891-2.041 2.749ZM38.04 63c.274.227.172.9-.234 1.9-.206.5-.482 1.085-.8 1.764l-1.137 2.242a274.409 274.409 0 0 0-2.921 5.746c-.509 1.095-1.087 2.219-1.605 3.422-.555 1.185-1.069 2.438-1.623 3.709-.508 1.29-1.03 2.539-1.476 3.77-.484 1.217-.87 2.42-1.285 3.554a286.567 286.567 0 0 0-2 6.129l-.781 2.389c-.256.7-.476 1.314-.682 1.813-.423 1-.826 1.543-1.18 1.51s-.626-.645-.812-1.745a12.633 12.633 0 0 1-.177-2 24.684 24.684 0 0 1 .049-2.632 42.272 42.272 0 0 1 1.017-6.771c.312-1.25.63-2.573 1.081-3.9.413-1.344.937-2.7 1.486-4.091.593-1.368 1.183-2.7 1.842-3.942.623-1.261 1.333-2.42 2-3.525a42.145 42.145 0 0 1 4.069-5.5 24.352 24.352 0 0 1 1.827-1.9 12.5 12.5 0 0 1 1.537-1.286c.906-.646 1.531-.887 1.805-.656Z" fill="#00aee0"/></g></g><defs><clipPath id="x"><path d="M0 0h241.612v234.374H0z"/></clipPath></defs><g clip-path="url(#x)" transform="translate(836.0 633.0) rotate(0.0 66.5 64.5) scale(0.5504693475489628 0.5504023483833531) translate(-0.0 -0.0)"><g data-name="Слой 1"><path d="M11.339 114.5c4.415-1.361 1.084-14.062 6.541-18.395 5.329-4.232 15.9 2 22.891 4.906 30.472 12.655 54.583-12.375 74.4-5.315 13.49 4.807 26.794 25.131 27.976 90.927 1.724 8.656 10.718 4.286 11.561-3.1 1.5-8.736-.8-17.816.877-26.521 2.048-11.344 12.417-16.837 19.646-13.327 22.227 16.039-4.8 85.285 16.915 90.7 2.837-.984 3.281-4.055 3.962-6.641 8.125-30.822 27.665-49.9 29.841-54.366 30.91-63.511 6.54-112.822 6.54-112.822C211.172 17.416 160.011.981 123.752.046 75.677-1.194 34.21 22.837 17.37 44.12A80.838 80.838 0 0 0 6.843 62.18C1.136 75.622.308 85.95.183 88.27c-.38 7.1-.8 17.677 5.842 23.78 1.092 1.003 3.332 3.064 5.314 2.45Z" fill="#04294f" fill-rule="evenodd"/><path d="M166.285 170.856a10.06 10.06 0 0 1 1.081-3.516 2.591 2.591 0 0 1 2.454-1.532c1.113.2 1.932 1.5 2.518 2.812a24.439 24.439 0 0 1 1.947 7.327 14 14 0 0 1-.424 5.884c-1.277 3.771-4.749 4.275-6.623.983-1.682-2.954-1.479-8.569-.953-11.958Z" fill="#04294f"/><path d="M220.252 129.013c-.658-.3-.787-1.53-.659-3.26s.49-3.985.9-6.457.8-4.716 1.233-6.4.96-2.8 1.678-2.872c.7-.067 1.468.977 1.966 2.819a19.023 19.023 0 0 1-2.351 14.139c-1.063 1.582-2.129 2.318-2.767 2.031Zm-11.238 10.244c-.694-.181-.9-1.892-.789-4.5s.528-6.128 1.107-9.988 1.213-7.342 1.868-9.873 1.356-4.1 2.073-4.074 1.292 1.678 1.56 4.348a47.355 47.355 0 0 1-3.054 20.389c-1.038 2.472-2.079 3.876-2.765 3.698ZM20.81 79.146c-.663-.241-.816-1.746-.4-3.986a33.286 33.286 0 0 1 8.031-15.41c1.6-1.62 2.922-2.357 3.5-1.951s.333 1.873-.434 3.923a73.919 73.919 0 0 1-3.54 7.578 73.745 73.745 0 0 1-4.19 7.239c-1.241 1.807-2.292 2.852-2.967 2.607Zm16.005-7.059c-.338-.113-.44-.855-.332-2.108a31.82 31.82 0 0 1 1.006-5.14 75.055 75.055 0 0 1 2.392-7.339c.529-1.353 1.085-2.775 1.732-4.219.627-1.452 1.333-2.93 2.07-4.437.759-1.5 1.513-2.95 2.3-4.326.762-1.385 1.562-2.686 2.324-3.923a74.655 74.655 0 0 1 4.419-6.333 31.715 31.715 0 0 1 3.5-3.9c.935-.841 1.589-1.207 1.882-1.006s.2.948-.214 2.12-1.135 2.779-2.076 4.718-2.091 4.222-3.377 6.741l-4.138 8.2-4.057 8.246c-1.246 2.546-2.376 4.836-3.353 6.758s-1.836 3.461-2.516 4.5-1.225 1.561-1.562 1.448Zm17.367 12.628c-.7-.087-1.135-1.927-1.113-4.858a49 49 0 0 1 5.959-21.751c1.476-2.533 2.791-3.893 3.435-3.613.66.287.537 2.141-.032 4.918S60.873 65.907 59.75 70s-2.165 7.79-3.089 10.473-1.761 4.332-2.479 4.242Z" fill="#00aee0"/></g></g><defs><clipPath id="y"><path d="M0 0h21.118v32.419H0z"/></clipPath></defs><g clip-path="url(#y)" transform="translate(738.0 739.0) rotate(17.74341389822848 3.5 5.0) scale(0.3314707832181078 0.30846108763379504) translate(-0.0 -0.0)"><ellipse transform="matrix(0.9351 -0.3545 0.3545 0.9351 -5.0601 4.7953)" fill="#fff" cx="10.559" cy="16.209" rx="9.279" ry="16.971"/></g><defs><clipPath id="z"><path d="M0 0h21.118v32.419H0z"/></clipPath></defs><g clip-path="url(#z)" transform="translate(694.0 739.0) rotate(17.74341389822846 3.5 5.5) scale(0.3314707832181078 0.33930719639717455) translate(-0.0 -0.0)"><ellipse transform="matrix(0.9351 -0.3545 0.3545 0.9351 -5.0601 4.7953)" fill="#fff" cx="10.559" cy="16.209" rx="9.279" ry="16.971"/></g></svg>