<svg width="101" height="100" viewBox="0 0 101 100" fill="none" xmlns="http://www.w3.org/2000/svg">
<g clip-path="url(#clip0_1_97)">
<path d="M65.4004 3.15456C64.3282 3.71188 63.2436 4.19814 62.1469 4.61418C61.5552 3.53629 61.0327 2.49602 60.6156 1.5129C61.6778 0.982298 62.7633 0.495312 63.8691 0.0532775C64.4253 1.02704 64.9325 2.06504 65.4004 3.15456Z" fill="#E94A47"/>
</g>
<g clip-path="url(#clip1_1_97)">
<path d="M53.7874 9.44455H57.7874V13.2574H53.7874V9.44455Z" fill="#428DFC"/>
<path d="M70.7874 17.0703H74.7874V20.8831H70.7874V17.0703Z" fill="#151A4F"/>
<path d="M58.7874 18.9767H62.7874V22.7896H58.7874V18.9767Z" fill="#428DFC"/>
<path d="M19.3674 76.0018L16.8434 75.0953L21.8564 11.351L59.7234 24.9486L19.3674 76.0018Z" fill="#BDD5FD"/>
<path d="M25.1964 82.4951C25.1774 79.8786 22.3434 76.9188 18.1584 75.4166C13.9734 73.9143 9.79536 74.3556 7.96936 76.3097L25.1964 82.4951Z" fill="url(#paint0_linear_1_97)"/>
<path d="M19.7273 38.4156L16.8423 75.0953L19.3663 76.0018L52.1553 34.5217C42.0173 24.0402 33.5433 44.6287 19.7273 38.4156Z" fill="url(#paint1_linear_1_97)"/>
<path d="M30.1963 29.2161C31.8263 29.8014 32.6533 31.5286 32.0433 33.0728C31.4333 34.6171 29.6163 35.3949 27.9863 34.8096C26.3563 34.2243 25.5293 32.4971 26.1393 30.9529C26.7493 29.4087 28.5663 28.6309 30.1963 29.2161Z" fill="url(#paint2_linear_1_97)"/>
<path d="M39.6723 20.1644C40.6503 20.5152 41.1463 21.5513 40.7803 22.4779C40.4143 23.4044 39.3243 23.8705 38.3463 23.5197C37.3683 23.1689 36.8723 22.1328 37.2383 21.2063C37.6043 20.2797 38.6943 19.8127 39.6723 20.1644Z" fill="url(#paint3_linear_1_97)"/>
<path d="M30.5043 53.5959C30.8705 52.6692 30.3743 51.6332 29.3959 51.2819C28.4176 50.9306 27.3276 51.3971 26.9614 52.3237C26.5952 53.2504 27.0915 54.2864 28.0698 54.6377C29.0482 54.989 30.1381 54.5225 30.5043 53.5959Z" fill="#A1C3FC"/>
<path d="M77.7313 93.379L80.4133 93.1025L92.2783 30.1884L52.0483 34.3301L77.7313 93.379Z" fill="#BDD5FD"/>
<path d="M70.3854 98.2766C71.0894 95.7477 74.6104 93.5582 79.0564 93.0997C83.5034 92.6421 87.4324 94.0653 88.6874 96.3921L70.3854 98.2766Z" fill="url(#paint4_linear_1_97)"/>
<path d="M87.2414 56.9013L80.4144 93.1035L77.7324 93.3799L56.8644 45.4017C69.4294 37.6702 72.2354 59.6247 87.2414 56.9013V56.9013Z" fill="url(#paint5_linear_1_97)"/>
<path d="M79.5184 45.498C77.7864 45.6763 76.5333 47.1509 76.7193 48.7923C76.9053 50.4337 78.4603 51.6195 80.1923 51.4413C81.9243 51.263 83.1774 49.7884 82.9914 48.147C82.8054 46.5056 81.2504 45.3198 79.5184 45.498V45.498Z" fill="url(#paint6_linear_1_97)"/>
<path d="M72.7164 34.476C72.2187 34.5257 71.7622 34.7618 71.4471 35.1324C71.1321 35.503 70.9843 35.9776 71.0364 36.452C71.0637 36.6868 71.1394 36.9141 71.2589 37.121C71.3785 37.3279 71.5396 37.5104 71.7331 37.6579C71.9266 37.8055 72.1487 37.9153 72.3868 37.981C72.6248 38.0467 72.8741 38.0671 73.1204 38.041C73.618 37.9913 74.0746 37.7552 74.3896 37.3846C74.7047 37.014 74.8524 36.5394 74.8004 36.065C74.773 35.8302 74.6974 35.6029 74.5778 35.396C74.4583 35.1891 74.2971 35.0066 74.1036 34.8591C73.9101 34.7115 73.688 34.6017 73.45 34.536C73.2119 34.4703 72.9627 34.4499 72.7164 34.476V34.476Z" fill="url(#paint7_linear_1_97)"/>
<path d="M76.5856 68.6444C76.474 67.6599 75.541 66.9486 74.5015 67.0556C73.4621 67.1626 72.71 68.0475 72.8215 69.032C72.9331 70.0165 73.8662 70.7278 74.9056 70.6208C75.945 70.5137 76.6972 69.6289 76.5856 68.6444Z" fill="#A1C3FC"/>
<g clip-path="url(#clip2_1_97)">
<path d="M69.648 14.7938C67.5429 15.9799 65.4058 17.0222 63.2372 17.9225C61.9354 15.7625 60.7771 13.6754 59.837 11.6991C61.9244 10.5679 64.0632 9.52403 66.2477 8.57049C67.4673 10.5208 68.5946 12.604 69.648 14.7938Z" fill="#E94A47"/>
</g>
<g clip-path="url(#clip3_1_97)">
<path d="M70.3268 27.6197C69.4531 28.1282 68.5651 28.5768 67.6631 28.9661C67.105 28.0694 66.6075 27.2025 66.2019 26.3806C67.0685 25.8951 67.9572 25.4459 68.8656 25.0342C69.3879 25.8435 69.8725 26.7091 70.3268 27.6197Z" fill="#23286B"/>
</g>
<g clip-path="url(#clip4_1_97)">
<path d="M79.936 6.96959C78.9327 7.51387 77.9154 7.99008 76.8843 8.39901C76.2869 7.36986 75.7566 6.37619 75.3284 5.43644C76.323 4.91789 77.3411 4.44098 78.3801 4.00703C78.9404 4.93657 79.456 5.92818 79.936 6.96959Z" fill="#E94A47"/>
</g>
<g clip-path="url(#clip5_1_97)">
<path d="M52.2112 5.99062C51.5255 6.27436 50.8358 6.51349 50.1421 6.70852C49.8324 6.00879 49.5634 5.33623 49.3562 4.70496C50.0343 4.43715 50.7246 4.19763 51.4253 3.98705C51.7183 4.62041 51.9781 5.2907 52.2112 5.99062Z" fill="#23286B"/>
</g>
</g>
<defs>
<linearGradient id="paint0_linear_1_97" x1="8.74187" y1="74.3185" x2="25.7564" y2="81.0421" gradientUnits="userSpaceOnUse">
<stop stop-color="#A1C3FC"/>
<stop offset="1" stop-color="#78A9EF"/>
</linearGradient>
<linearGradient id="paint1_linear_1_97" x1="16.0895" y1="47.5827" x2="42.8068" y2="58.1406" gradientUnits="userSpaceOnUse">
<stop stop-color="#A1C3FC"/>
<stop offset="1" stop-color="#89B3F4"/>
</linearGradient>
<linearGradient id="paint2_linear_1_97" x1="25.9383" y1="32.0129" x2="32.2443" y2="32.0129" gradientUnits="userSpaceOnUse">
<stop stop-color="#A1C3FC"/>
<stop offset="1" stop-color="#89B3F4"/>
</linearGradient>
<linearGradient id="paint3_linear_1_97" x1="37.1183" y1="21.8421" x2="40.9013" y2="21.8421" gradientUnits="userSpaceOnUse">
<stop stop-color="#A1C3FC"/>
<stop offset="1" stop-color="#89B3F4"/>
</linearGradient>
<linearGradient id="paint4_linear_1_97" x1="88.4254" y1="94.2572" x2="70.1443" y2="96.3289" gradientUnits="userSpaceOnUse">
<stop stop-color="#A1C3FC"/>
<stop offset="1" stop-color="#78A9EF"/>
</linearGradient>
<linearGradient id="paint5_linear_1_97" x1="88.3208" y1="66.6206" x2="59.6158" y2="69.8737" gradientUnits="userSpaceOnUse">
<stop stop-color="#A1C3FC"/>
<stop offset="1" stop-color="#89B3F4"/>
</linearGradient>
<linearGradient id="paint6_linear_1_97" x1="82.9665" y1="48.1303" x2="76.7024" y2="48.8402" gradientUnits="userSpaceOnUse">
<stop stop-color="#A1C3FC"/>
<stop offset="1" stop-color="#89B3F4"/>
</linearGradient>
<linearGradient id="paint7_linear_1_97" x1="74.7759" y1="36.0479" x2="71.0172" y2="36.4739" gradientUnits="userSpaceOnUse">
<stop stop-color="#A1C3FC"/>
<stop offset="1" stop-color="#89B3F4"/>
</linearGradient>
<clipPath id="clip0_1_97">
<rect width="3.65784" height="3.54787" fill="white" transform="matrix(0.912388 -0.409326 0.442725 0.896657 60.5601 1.49724)"/>
</clipPath>
<clipPath id="clip1_1_97">
<rect width="100" height="95.3215" fill="white" transform="translate(0.787354 4.67847)"/>
</clipPath>
<clipPath id="clip2_1_97">
<rect width="7.32125" height="7.26835" fill="white" transform="matrix(0.898207 -0.438354 0.479874 0.878294 59.7233 11.6702)"/>
</clipPath>
<clipPath id="clip3_1_97">
<rect width="3.06307" height="3.04405" fill="white" transform="matrix(0.892037 -0.450909 0.492397 0.87125 66.1542 26.3692)"/>
</clipPath>
<clipPath id="clip4_1_97">
<rect width="3.4588" height="3.42937" fill="white" transform="matrix(0.905032 -0.423923 0.465389 0.886147 75.275 5.42195)"/>
</clipPath>
<clipPath id="clip5_1_97">
<rect width="2.2486" height="2.20496" fill="white" transform="matrix(0.943889 -0.327499 0.365637 0.932086 49.323 4.69209)"/>
</clipPath>
</defs>
</svg>
