<svg enable-background="new 0 0 36.3 106.3" height="107" viewBox="0 0 36.3 106.3" width="37" xmlns="http://www.w3.org/2000/svg"><path d="m10.8 8.4c-.9 1-.4 1.2-.4 2.6 0 1.3.1 1.3.1 2.7 0 1.3.6 1.3.6 2.7 0 1.3-.6 1.3-.6 2.7 0 1.3-.1 1.3-.1 2.7 0 1.3.6 1.3.6 2.7 0 1.3-.7 1.3-.7 2.7 0 1.3.6 1.3.6 2.7 0 1.3-.4 1.3-.4 2.7v2.7c0 1.3.3 1.3.3 2.7v2.7c0 1.3-.5 1.3-.5 2.7 0 1.3.8 1.3.8 2.7 0 1.3-.6 1.3-.6 2.7v2.7c0 1.3-.2 1.3-.2 2.7 0 1.3.3 1.3.3 2.7s-.1 1.4-.1 2.7v2.7c0 1.3.4 1.3.4 2.7s.1 1.4.1 2.7c0 1.4-.7 1.4-.7 2.7 0 1.4.3 1.4.3 2.7 0 1.4.3 1.4.3 2.7 0 1.4-1.2 1.8-.3 2.8.8.9 1.4.1 2.6.1h2.5c1.3 0 1.3-.6 2.5-.6 1.3 0 1.3.1 2.5.1 1.3 0 1.3.2 2.5.2 1.3 0 1.7 1 2.6.1.9-1-.4-1.4-.4-2.8 0-1.3.1-1.3.1-2.7 0-1.3 0-1.3 0-2.7 0-1.3.4-1.3.4-2.7 0-1.3-.2-1.3-.2-2.7 0-1.3.1-1.3.1-2.7 0-1.3-.3-1.3-.3-2.7 0-1.3.5-1.3.5-2.7 0-1.3-.5-1.3-.5-2.7 0-1.3 0-1.3 0-2.7 0-1.3 0-1.3 0-2.7 0-1.3-.1-1.3-.1-2.7 0-1.3.6-1.3.6-2.7v-2.6c-0-1.3-.7-1.3-.7-2.7s.1-1.4.1-2.7 0-1.3 0-2.7c0-1.3.6-1.3.6-2.7s-.6-1.4-.6-2.7c0-1.4.1-1.4.1-2.7s.3-1.3.3-2.7-.4-1.4-.4-2.7c0-1.4.2-1.4.2-2.7 0-1.4.5-1.4.5-2.7 0-1.4 0-1.4 0-2.7s.6-1.7-.3-2.7c-.8-.9-1.2.3-2.5.3s-1.3-.2-2.5-.2c-1.3 0-1.3.3-2.5.3-1.3 0-1.3-.3-2.5-.3-1.3 0-1.2-.2-2.4-.5-1.4-.2-1.7-.4-2.6.5z" fill="#82b5a5"/><path d="m35.4 106.3c-1.3 0-1.3-.3-2.7-.3-1.3 0-1.3-.1-2.7-.1-1.3 0-1.3-.2-2.7-.2-1.3 0-1.3.2-2.7.2-1.3 0-1.3.3-2.7.3-1.3 0-1.3-.4-2.7-.4-1.3 0-1.3.1-2.6.1s-1.3.1-2.7.1c-1.3 0-1.3.3-2.7.3-1.3 0-1.3 0-2.7 0-1.3 0-1.3-.5-2.7-.5-1.3 0-1.3.6-2.7.6s-1.3-.4-2.7-.4c-.3 0-.3-.1-.3-.4 0-1.3-.4-1.3-.4-2.6s-.3-1.3-.3-2.6c.6-1.4.7-1.4.7-2.7s.6-1.3.6-2.6.1-1.3.1-2.6-.4-1.3-.4-2.6-.1-1.3-.1-2.6.4-1.3.4-2.6-.1-1.3-.1-2.6 0-1.3 0-2.6.2-1.3.2-2.6-.7-1.3-.7-2.6.4-1.3.4-2.6-.5-1.3-.5-2.6.7-1.3.7-2.6-.6-1.3-.6-2.6 0-1.3 0-2.6.2-1.3.2-2.6.1-1.3.1-2.6.1-1.3.1-2.6.1-1.3.1-2.6c0-.9.1-1.8.3-2.7.1-.9-.3-2 0-2.9s1.2-1.5 1.6-2.4c.4-.8.6-1.8 1.2-2.5.5-.8 1.2-1.5 1.8-2.1.7-.7 1.5-1.1 2.2-1.7.7-.5 1.3-1.4 2.2-1.9.8-.4 2-.1 2.9-.4s1.7-.8 2.6-.9 1.8-.3 2.8-.3v-.2c.9 0 1.8.5 2.7.7.9.1 1.9.1 2.8.4s1.9.5 2.7.9 1.6 1 2.4 1.5 1.6 1.1 2.2 1.7c.7.7 1 1.7 1.5 2.4s1.4 1.3 1.8 2.2c.4.8.6 1.8.9 2.7s.2 1.8.4 2.8c.1.9.7 1.8.7 2.7 0 1.3-.6 1.3-.6 2.6s.1 1.3.1 2.6v2.6c0 1.3-.1 1.3-.1 2.6s.6 1.3.6 2.6v2.6c0 1.3-.6 1.3-.6 2.6s.1 1.3.1 2.6.1 1.3.1 2.6.4 1.3.4 2.6-.2 1.3-.2 2.6.1 1.3.1 2.6-.1 1.3-.1 2.6.5 1.3.5 2.6v2.6c0 1.3-.4 1.3-.4 2.6s-.3 1.3-.3 2.6.8 1.3.8 2.6-.7 1.3-.7 2.6.6 1.3.6 2.6-.3 1.3-.3 2.6c-.4.3-.6.8-.9.8z" fill="#82b5a5"/><path d="m25.8 9.2c-.8.9-1.3 0-2.6 0s-1.3 0-2.5 0c-1.3 0-1.3-.1-2.5-.1-1.3 0-1.3 0-2.5 0-1.3 0-1.3.2-2.5.2s-1.4.5-2.2-.5c-.9-1.1-.2-1.2-.2-2.6s-.3-1.4-.3-2.9c0-1.4-.6-1.7.3-2.8.8-.9 1.2.3 2.5.3s1.3.1 2.5.1c1.3 0 1.3-.5 2.5-.5 1.3 0 1.3.3 2.5.3 1.3 0 1.3-.4 2.5-.4 1.3 0 1.8-.8 2.6.1.9 1.1-.3 1.5-.3 2.9s-.2 1.5.1 2.9c.2 1.6 1 1.9.1 3z" fill="#3040c4"/><g fill="#f36b7f"><path d="m22.8 78.3c.1-.9-1.1-.3-1.2 0-.1.8 1.2.3 1.2 0z"/><path d="m23.1 85.9c.2 1 1.4.1 1.4-.2-.2-1.2-1.5-.2-1.4.2z"/><path d="m24.8 98.8c-.2-1.1-1.5-.2-1.4.1.1 1.1 1.4.3 1.4-.1z"/><path d="m23.8 81.8c0-.3.1-.4-.1-.5.3-.2.1-.6-.1-.7-.6-1-1.3.2-1.1.6.1.1-.1.1 0 .1-.3.1-.2.3-.2.4.1 1.1 1.5.4 1.5.1z"/><path d="m23.3 93.8c-.1 1 1.4.5 1.4.2.2-1.1-1.3-.5-1.4-.2z"/><path d="m23.4 89.6c-.3-1.1-1.4 0-1.4.4.4 1 1.6 0 1.4-.4z"/><path d="m17.1 82.3c.7.7 1.3-.7 1-.9-.7-.8-1.3.7-1 .9z"/><path d="m17.4 80.6c.4.7 1.1-.2 1-.5-.5-.8-1.2.2-1 .5z"/><path d="m18 76.5c0 .1.1.3.1.4-.2.2 0 .7.1.9-.4.2-1 .6-.9.8.3.7 1.1.2 1.4-.2.2.1.2-.1.3-.1.9-.3.1-1.1-.4-1.2.5 0 .8-.4.8-.7-.2-1.3-1.4-.3-1.4.1z"/><path d="m19.3 75.7c.8.7 1.2-.7 1-1-1-.8-1.3.7-1 1z"/><path d="m19.9 71.4c1 .5 1-1.1.6-1.3-1-.5-.9 1.1-.6 1.3z"/><path d="m23.3 96c-.1-1-1.6-.5-1.8-.1.1-.3.1-.6-.1-.6-.3-.1-.6 0-.7.2.1-.2.3-.7.3-.7-.5-.4-.7.2-.8.7h-.2c-.2.2-.5.2-.5.3h-.2c-.2.3-.2 1.1 0 1.2.5.4.8-.4.9-.9.1 0 .5-.1.6-.2 0 .2-.1.4.1.5.3.2.4-.1.5-.4l.2.1c-.1.9 1.7.2 1.7-.1z"/><path d="m17.1 72.4c-.1 1 1.4.4 1.5.1.1-1.1-1.5-.4-1.5-.1z"/><path d="m27.7 99.8c-.9.2.2 1.1.4 1.1.9-.2-.1-1.1-.4-1.1z"/><path d="m23.3 93c-.1-.1.1-.3-.1-.3.3 0 .8-.2.8-.3.2-1.1-2-.6-2-.3-.1.4.7.6 1 .6-.3.1-.7.5-.7.7h-.1c-.3.3-.2.7-.1.8.6.5 1-.4.9-.7.4-.2.3-.4.3-.5z"/><path d="m22.1 97.8c-.8-.9-1.4.5-1.2.8.7.8 1.4-.5 1.2-.8z"/><path d="m21.8 93c-.7-.9-1.5.5-1.3.8.7.7 1.5-.6 1.3-.8z"/><path d="m33.5 92.7c-1.1.4.1 1.5.4 1.4 1-.3-.1-1.5-.4-1.4z"/><path d="m31.8 89c.5.9 1.4-.4 1.3-.7-.6-1-1.5.4-1.3.7z"/><path d="m29.7 96.4c-.8.6.6 1.3 1.1 1.2.1.3.6.6 1 .5-.3.1-.8.3-.8.4.2.8 1.3.1 1.3-.2-.1-.3-.1-.4-.3-.4.2 0 .4-.1.4-.2.2-.8-.9-.6-1.4-.5 0-.5-1.1-.9-1.3-.8z"/><path d="m34 96.7c-.1-1.1-1.4-.2-1.4.1.1 1 1.5.2 1.4-.1z"/><path d="m29.1 103.3c.1-.9-1.1-.3-1.2 0-0 .7 1.2.2 1.2 0z"/><path d="m34.3 98.7c-.6-.6-1.1.5-.9.7.6.7 1.1-.5.9-.7z"/><path d="m31.7 104.8c-.1.8 1.1.4 1.1.1 0-.9-1.1-.4-1.1-.1z"/><path d="m29.7 102.9c-.2.2-.6.5-.6.6.3.7 1.1 0 1.4-.4.2.2.5.2.9.2 0 0-.1 0-.1.1-.2 1 1.3.9 1.7.5.4.2 1.1-.4 1.1-.6 0-.7-.6-.2-.9.1-.1 0-.1-.3-.1-.3.1-.3-.3-.2-.4-.2l-.1-.4c.1 0 .3 0 .3-.1-.1-.3-.2-.5-.4-.6.2-.1.4-.3.6-.5.4-.5.6-1.3.4-1.5-.6-.5-1-.1-1.3.3-.4.5-.7 1.2-.4 1.4.1.1.2.1.2.1-.3 0-.6.2-.7.4-.3 0-.7.3-.8.5-.1 0-.1 0-.1 0 .2-.4.3-1 .1-1.1-.4-.1-.7-.2-.8 0-.7.2-.3 1.1 0 1.5zm2.5-.2s-.1.4-.1.4c-.1 0-.3.1-.4.1.1 0 .2-.1.2-.2.1.1.2-.3.3-.3z"/><path d="m30 99c.6.6 1-.6.8-.8-.7-.7-1 .6-.8.8z"/><path d="m28.4 84c.9.7 1.4-.7 1.1-1-1-.8-1.4.7-1.1 1z"/><path d="m29.3 89.3c-.5-.4-.7.1-.8.5-.2 0-.5 0-.6 0-.4.9 1.1.9 1.3.6.2-.4.2-.4-.1-.6.2-.2.3-.5.2-.5z"/><path d="m25.7 83.6c-.1.1.2.2.2.3.2 1 1.5 0 1.4-.3-.2-.7-.8-.5-1.2-.2.2-.4-.2-1-.5-1.2.1-.4-.4-1.1-.6-1.1-.8 0-.2 1.2.1 1.5-.2.4.4 1.1.6 1z"/><path d="m26.2 75c-.6-.6-1 .5-.8.7.5.6 1-.5.8-.7z"/><path d="m25.8 90.3c0 .1.1.1.1.2-.1.1-.1.1-.1.2-.1.8 1.1.4 1.1.1s-.1-.5-.4-.5c.2-.4 0-1.3-.3-1.3-.4-.1-.5-.1-.6.1-.2 0-.4 0-.5.1-.5-.9-1.5.3-1.3.6.3.5.6.4 1 .1.1.4.6.6 1 .4z"/><path d="m25.2 80c.8.2.6-.9.4-1-1-.3-.7.9-.4 1z"/><path d="m27.3 85.7c0 .2.4.3.5.4-.2.1-.4.2-.4.3.2 1 1.7 0 1.6-.3-.1-.2-.5-.3-.6-.3-0-.6-1-.3-1.1-.1z"/><path d="m29.8 81.3c.2-.9-1-.4-1.1-.1-.1.8 1.1.4 1.1.1z"/><path d="m20.8 80.4c-.2-.9-1.3-.2-1.2.1.1.8 1.3.2 1.2-.1z"/><path d="m26.8 94.9c.5.9 1.4-.3 1.3-.6-.1-.2 0-.4-.2-.4-.2-.6-1.3-.1-1.4.1-.1.4.1.5.4.5-0 .1-.1.3-.1.4z"/><path d="m10.6 65.4c.6.8 1.3-.5 1.1-.8-.7-.9-1.4.5-1.1.8z"/><path d="m9.9 67.8c.5.5.9-.2 1.1-.7.1.1.3.5.4.5 1 .3.6-1.2.3-1.3-.5-.1-.7 0-.7.4-.7-.5-1.3.9-1.1 1.1z"/><path d="m28.7 104.9c-.6-.7-1.3-.2-1.7.3 0 0-.3 0-.4 0-.4-.6-.6-.2-1 .1.2-.3 0-.9-.2-.9-1-.6-.9.7-.6.9.2.1.1.4.2.3-.1.2.1.2.2.3h3.1c.3-.3.5-.9.4-1z"/><path d="m5.3 64.6c-.6-.5-.8-.1-1 .4-.2-.2-.4-.5-.5-.5-1.2.1-.1 2 .3 2 .3 0 .3-.6.4-.8.2 0 .5.1.6-.1.2.1.4.3.5.3s.3 0 .4-.1c-.3.3-.6.5-.5.7.6.9 1.4-.3 1.2-.7-.3-.5-.4-.7-.7-.4.2-.2-.4-.3-.7-.5-.1-.1 0-.2 0-.3z"/><path d="m35 75.2c-.1-.3-.4-.1-.4 0 .1.4.4.1.4 0z"/><path d="m12.3 68.5c-.5-.7-1.2.5-1 .8.2.2.6.2.8.1-.3.3-.7.9-.5 1 .7.7 1.6-1.1 1.4-1.3-.3-.2-.9-.1-1 0 .1-.3.4-.5.3-.6z"/><path d="m3.7 51.9c-.6-.9-1.5.4-1.3.7.5.8 1.5-.4 1.3-.7z"/><path d="m33.7 85.2c.4.9 1.4-.1 1.3-.5-.3-1-1.4.1-1.3.5z"/><path d="m25.8 78.3c.1.6.6.3.9 0-.1.5.8.7 1.2.5 0 .2.1.2.1.3.2.8 1.1 0 1.1-.3-.1-.4-.3-.4-.6-.2.2-.7-.7-.9-1.2-.8.1 0 .1-.2.1-.3-.2-.2-.4 0-.3.1 0 .1.1.1.1.1-.1 0-.3.1-.3.1-.1-.6-1.1.3-1.1.5z"/><path d="m10.1 62.7c.4.9 1.6-.2 1.5-.5-.4-1.1-1.6.1-1.5.5z"/><path d="m3.7 55.8c-.4-1.1-1.5.2-1.4.5.3 1 1.5-.2 1.4-.5z"/><path d="m13.6 102.3c-1.1 0-.3 1.4.1 1.3 1 0 .2-1.3-.1-1.3z"/><path d="m11.7 90.4c.3.9 1.4-.1 1.3-.5-.1-.1-.5-.4-.6-.4.2 0 .4-.1.6-.2l.2.1-.2.1c.6.9 2.1-.7 1.9-1-.3-.3-.7 0-1 .1-.1 0-.2-.3-.2-.3-.3-.2-.5-.2-.7 0-.3 0-.5.3-.7.5-.3-.3-.8-.7-1-.6-.7.5.2 1.3.7 1.5-.3.2-.4.6-.3.7z"/><path d="m14.9 106h.8c-.1-.2-.2-.5-.3-.6.1-.1.2-.4.2-.5.4-.1.8-.5.6-.7.5-.1.8-.9.7-1.1-.1-.1-.2-.1-.2-.2.3 0 .9-.2 1-.4.1 1 .6 1.3 1.3 1.2.2.4.5.3.7.3.7-.1.8-.4.6-.7.3.1.5.1.8.1-.1.2 0 .4.1.4.5.3.7-.4.8-.8h.2c.3-.4.7-.7.5-.9.2.1 0 .1.2.1.4.4 1.2-.2 1.3-.5.3-.1.8-.2.8-.4 0-.7-.7-.4-1.1-.2 0-.1-.2-.3-.3-.3-.5-.3-.7-.2-.9.1-.4-.2-.7-.3-.8-.2-.6.5-.1.6.5.7 0 .1.2.2.2.3-.4-.5-1.7-.5-2.4-.5-.1-.4-.4-.6-.7-.5-.4-.4-1.1.3-1.1.5.1.2.1.4.2.4h.1c-.1 0-.2-.1-.3-.1s-.1-.1-.2-.2c-.1-.4-.5-.8-.7-.7-.3 0-.5.2-.6.3-.1-.1-.1-.5-.2-.5-.1-.3-.3-.4-.6-.3.5-.2.4-.9.1-1.4.5 0 .7-.8.5-1-.5-.4-.9.1-1 .5-.2-.1-.2 0-.3 0s.1-.3.1-.3c-.3-.4-1.3-.1-1.7.1.3-.6.1-2-.3-2-1.2-.1-1.2 1.2-.8 1.9-.3-.1-.7-.4-.9-.3 0 0 .2 0 .2-.1-.1-.1-.5.1-.6.1 0 0 .1-.2.1-.2-.6-.6-1 .7-.8.9.1 0 .1.1.2.1 0 0-.1.2-.1.2.1.1.1 0 .2 0-.3.3-.1.9.1 1s-.1.3.1.3c-.1.2.2.4.2.6-.1.1.1.4.1.5-.2.2-.5.5-.4.8-.1.1-.3.1-.3.2 0 .4.5 0 .8-.1.3 0 .9 0 .9-.3.1-.1-.2-.6-.2-.8.3-.1.6-.6.5-.7s-.3.1-.4.2c0 0-.1 0-.2 0 0 0-.3-.2-.3-.2.1-.2.3-.2.2-.2s0-.3-.1-.3c.1 0 .1.1.1 0 .3 0 1-.4 1-.5 0 0-.4-.2-.4-.2.2 0 .4.1.5 0s.2-.3.2-.4c.1 0-.1.3.1.3-.1 0 .4-.1.4 0 .1.7.4.8.9.6.2.5.7.9 1 1-.2 0-.1.1-.2.2-.1-.6-1.3-.6-1.5-.4-.6.8.8 1.3 1.2 1.1h.2c-.1 0-.3 0-.3 0 0 .1-.2.1-.1.2-.3.2-.4.6-.3.8.2.2.7.4.9.3-.3.3-.7 1-.6 1.1.1 0-.2-.1-.1-.1-.1.1.5.3.5.4.1.1-.2.3-.2.3-.1 0-.2.4-.2.4-.8-.1-.6.9-.3 1.1.1-.2 0 0 .1.2zm5.4-2.9c0-.1 0-.1 0 0zm-8.4-4.9c0-.1 0 0 0 0zm3.9 3.6c.2-.1.3-.1.4-.3.5 0 1.1-.2 1.3-.4h.1c-.1.3.2.6.5.8-.1.1-.3.3-.4.3-.2-.7-1.2-.1-1.4.2 0-.1 0-.1 0-.1-.1 0-.1.3-.2.3.1-.3.4-.9.3-.9-.2-.2-.5 0-.6.1z"/><path d="m9.5 96.8c.1.4.5.9.7.8.1 0 0-.3.1-.3.3 0 .5 0 .5-.2.3-.1.4-.4.4-.7.1-.6-.5-.9-1-.9-.6 0-1.1.3-1.1.5-.1.1-.2.1-.2.2-.1-.2-.4 0-.5 0-.7-.1-.7.3-.6.8-.6-.3-1.4.5-1.3.7.3.7 1.1.3 1.5-.1.6.1.6-.7.5-1.2 0 .2.6.3 1 .4z"/><path d="m1.6 58.2c.5.9 1.5-.4 1.4-.7-.1-.1-.4 0-.5-.1 0-.1.2-.3.2-.3-.7-.6-1 .4-.9.9-.1.1-.3.2-.2.2z"/><path d="m1.8 84.4c-.3-.5-.4-.1-.6.2-.1-.1-.4 0-.5 0s-.1-.4-.1-.4l.3.2c.1-.4-.2-.6-.4-.8v5.4c.1-.1.2-.2.3-.3.1 0 .5.1.6 0 .5 0 .7-.9.5-1.3l-.4-.1c.1-.2.3-.3.3-.5.2-.5.2-1.1-.1-1.7.1-.2.2-.6.1-.7z"/><path d="m6.8 90.6c-.1 0 .3.1.3.1.1.8 1.3.2 1.3-.1 0-.2-.4-.4-.6-.4.3-.2.3-.4.2-.6-.2-.4-.3-.5-.5-.3 0-.3-.3-.6-.6-.7.2-.4-.2-1.3-.5-1.3-.1 0-.1-.3-.2-.3-.3-.3-.6 0-.8.1-.2-.1-.7-.3-.9-.3.3-.2.3-.5.2-.6-.3-.2-.3-.2-.4-.2s0-.3 0-.3c-.9-.3-.9 1.3-.6 1.4.1 0 .1.1.1.1.1 0 .3-.4.3-.3.1-.1.1.1.2.1-.3.4-.2.4.2.6-1 .1-.8 1.5-.4 1.9-.1 0 .3-.1.3-.1-.5.6-.4 1.2.1 1.5.6.3 1.5.1 1.7 0 .1-.1.1-.3.1-.4.1 0 .3-.1.4-.2v.2c.1 0 0 0 .1.1zm-1.5-1.5c.1 0 0-.4-.1-.5.2-.1.4 0 .5-.2 0 .1.1.1.1.1-.1.2-.3.5-.5.6z"/><path d="m11.8 77.8c1-.3-.1-1.5-.4-1.4-1.2.3 0 1.5.4 1.4z"/><path d="m12.8 84.4c-.1-1.1-1.4-.2-1.4.1.1 1 1.4.2 1.4-.1z"/><path d="m14.6 80.8c1.1 0 .5-1.5.1-1.5-1.2.1-.5 1.5-.1 1.5z"/><path d="m12.2 87.8c.7.7 1.3-.6 1.1-.9-.7-.8-1.3.6-1.1.9z"/><path d="m13.3 81.3c-.4-.1-1 .3-.9.5.1.6.9.5 1.2.2.6.2.7-.8.5-1-.6-.2-.7-.1-.8.3z"/><path d="m20.2 86.7c-1.1-.5-1 1.1-.6 1.3 1 .5.9-1.1.6-1.3z"/><path d="m16.2 89.9c.5.3.4 0 .5-.4.1.3.3.7.5.8-.3.3-.6 1.1-.5 1.2.5.5 1.2-.3 1.5-.9.2.1.3.2.4.2-.1.2-.3.4-.2.5s-.1.2 0 .2c-.1.4.3.7.5.7.7.1.8-.3.7-.8.5-.4.8-1.2.7-1.4-.5-.6-1.1-.6-1.5-.2-.2.1-.4.2-.6.3-.1-.1-.5 0-.6-.1.3-.3.2-1-.1-1.3.2 0 .5 0 .5-.1.2-.5-.4-.4-.8-.4-.1-.1-.1-.4-.2-.4-1-.2-1 .9-.8 1.3-.3-.1-.2.7 0 .8z"/><path d="m20.1 85.5c-.3-1.1-1.5-.1-1.4.2.3 1.1 1.5.1 1.4-.2z"/><path d="m11.6 83.3c.7.5 1-.6.7-.8-.7-.6-.9.5-.7.8z"/><path d="m19.1 89.2c1-.2-.2-1.5-.5-1.4-1.2.3.1 1.5.5 1.4z"/><path d="m20 81.2c-1.2 0-.3 1.4.1 1.4 1-.1.3-1.4-.1-1.4z"/><path d="m17 94.1c-.5.1-.7 1-.6 1.2.5.7.9-.2 1.1-.7.6 0 1.5-.6 1.4-.9 0-.1-.5-.1-.6-.1.1-.4.2-.7 0-.7-.3-.1-.4-.2-.5-.1-.1-.3-.3-.8-.5-.8-.1 0 0 0-.1 0-.2 0-.5.3-.6.3 0-.1.1-.3 0-.3-.9-.7-1.4.9-1.2 1.1s.5 0 .7-.1c.2.1.4.4.5.3.1.3.2.5.4.6.1.1.1.1 0 .2z"/><path d="m19.5 97.9c.6-.6-.5-.8-.7-.6h.1c-.1-.4-.5-.6-.7-.5-1 .2-.3 1.1.1 1.3-.5 0-.9.5-.9.8h-.4c-.1.4.3.6.4.7.6.2.5 0 .6-.5.3-.2.8-.3.8-.4 0-.2 0-.4-.1-.5.2 0 .7-.1.8-.3zm-.9.1c.1-.1 0 0 0 0zm0 0s0 .1 0 0z"/><path d="m14.6 95.6c1 0 .2-1.6-.2-1.7.4-.1.7-.8.6-1-.5-.3-.6 0-.7.3-.6-.9-1.4.3-1.3.6.4.7 1 .2 1.2-.2v.1c-.6.4 0 1.9.4 1.9z"/><path d="m20 99.6c-.5.9 1.3 1 1.4.7.3-.6-.6-.9-1.1-.9.6-.4-.4-1.4-.7-1.3-.8.3.1.9.6 1.2 0 0-.2.3-.2.3z"/><path d="m12 72.3c1-.1.2-1.4-.2-1.4-1.1.1-.2 1.4.2 1.4z"/><path d="m17.1 104.5c-.4-.3-.7.1-.7.5-.2.1-.2.3-.3.4s-.3.4-.4.6h2.7c0-.2 0-.5 0-.7.2.1.5.2.5.3 0 .2-.3.2-.4.4h4.5c.2 0 .4 0 .5-.1 0 .1.1.1.1.1h.7c0-.5-.2-1.4-.4-1.4-.3 0-.5.3-.5.4-.1 0-.4.1-.4.1-.1-.4-.5-.5-.9-.5-.4-.1-1-.5-1.1-.4-.2.2-.1.6 0 .8h-.1c-.1-.3-.2-.6-.5-.4-.1-.2-.3 0-.4 0-.3-.1-.6 0-.8.1-.4-.3-1.5-.4-1.5-.1h.1c-.2 0-.4.1-.4.2-.1 0-.3 0-.3 0-.1-.1.1-.3-0-.3zm4.7.5c.2.1.4.3.5.3s.1.2.1.2v.1c-.2-.1-.5-.1-.7-.2-0 .1.1-.3.1-.4z"/><path d="m15 88.6c.6.2.8 0 .8-.4.6-.2.2-1-.3-1.3.3-.5.5-1.6.3-1.8-.3-.2-.6-.2-.9-.1.2-.1.3-.3.3-.4 0-.2.1-.3.1-.4.2-.1.4-.3.4-.4-.4-1-1.7 0-1.8.4-.1.1 0 .2 0 .3 0 .2.2.6.4.7-.3 0-.8 0-.9.3 0 0-.2.1-.2.1-.5-.8-.8.1-.6.3.4.5.7.2.9-.2-.1.2-.2.6-.1.7.3.2.5.1.7 0-.1.4.4.4.5.5.2.1.2.3.4.3 0 0-.1 0-.1.1-.4.4-.1 1.2.1 1.3zm-.5-3.3c0-.1-.1 0-.2 0h.1.2z"/><path d="m15.7 91.6c0-.4-.4-.3-.7-.2 0 0 0-.3-.1-.4-.8-.6-1.5.5-1.4 1-.1.2 0 .6.1.6.3.3.6-.2.7-.5.1 0 .3 0 .4-.1.3.1 1-.2 1-.4z"/><path d="m23.7 98.1c1.1.3.8-1.2.4-1.3-1.2-.4-.8 1.2-.4 1.3z"/><path d="m2 70s-.4-.1-.4-.2c.3-.1.6-.1.6-.2.1-1.1-1.6-.4-1.6 0 0 .2.3.4.4.5-.2.1-.4.3-.6.4v.4c.5.4 1.7-.6 1.6-.9z"/><path d="m.5 65.8c1 .4 1.1-1.1.8-1.2-.4-.2-.7-.1-.8.1v1.1c-.1 0-.1 0 0 0z"/><path d="m.4 62.1v.3c.2.5 1.2.7 1.6.5l.1-.3c.8.7 1.1-.6.8-.9-.2-.1-.2-.2-.3-.2.1-.2-.2-.2-.2-.3-.6-.7-1.1.1-1.2.6-.3-0-.7.2-.8.3z"/><path d="m1.8 60.3c.8.7 1.3-.7 1-.9-.8-.8-1.3.7-1 .9z"/><path d="m2.6 63.4c-.3 0-.5 0-.5.1-.4.2-.8.7-.7.9.3.4.7.1 1-.1.2.1.3.4.4.4 1.1-0 .2-1.3-.2-1.3z"/><path d="m5.6 63.1c-.5 1 1.2.9 1.3.6.4-.9-1.2-.9-1.3-.6z"/><path d="m3 81.7c-.5-.9-1.4 0-1.4.4-.6-.2-.8.7-.6.9.5.5.7 0 .8-.4.5.4 1.3-.6 1.2-.9z"/><path d="m1.6 89.6c-.1-.7-.7-.5-1.1-.1v.6c.4.2 1.1-.3 1.1-.5z"/><path d="m1.6 96.8c0-.8-.6-1.1-1.2-.9.1-.1 0-.1 0-.1v1.7c.5-.1 1.2-.4 1.2-.7z"/><path d="m1.1 77.4c.5-.7-.1-1.1-.7-1.3v1.3c.4.1.7.2.7 0z"/><path d="m.4 94.9v.5c.3-.1.7-.1.7-.2 0-.3-.4-.4-.7-.3z"/><path d="m5.3 82.8c-.7-.8-1.4.7-1.1.9.7.8 1.3-.6 1.1-.9z"/><path d="m3 71.8c.3.9 1.5 0 1.4-.3-.3-1.2-1.5-.1-1.4.3z"/><path d="m3.5 67.8c.3-.6-.6-.7-1.1-.7.3-.3.2-1.2 0-1.2-.9-.2-.6 1-.4 1.2-.1 0 .1.1.1.2-.5 1 1.3.9 1.4.5z"/><path d="m1.5 74.9c1 .2.6-1.5.3-1.5-.1 0-.3 0-.3 0 .3-.3.3-1 .1-1-.9-.2-.8 1.5-.5 1.5.1 0 .3-.1.3-.1-.4.4-.2 1.1.1 1.1z"/><path d="m1.9 79.4c.2-.6-.3-1.3-.6-1.4-.5-.1-.7-.2-.9 0v1.6c0 .3 0 .5.2.5.8.2 1.2-.1 1.3-.7z"/><path d="m6.7 77c-.5-.2-.5.3-.5.7-.2 0-.6 0-.7.1-.2.6.5.7 1.1.7-.1.2-.2.5-.2.6.6.6 1.5-.9 1.3-1.1-.2-.1-.7.1-.8.1 0-.2 0-.4-.2-.5.1-.2.1-.5 0-.6z"/><path d="m6.7 61.4c.8.6 1.1-.9.8-1.1-.8-.7-1.1.9-.8 1.1z"/><path d="m8 69.1c-.3-.8-1.1.1-1 .3s.2.3.3.3c-.2 0-.3 0-.5.1-.1-.2-.1-.3-.3-.4.1-.3-.3-.4-.4-.5-.8-.8-1.2.7-.9.9.1.1.1.3.2.3.2.3.9.4 1.1.4.2.7 1.4.1 1.4-.2 0-.4-.3-.6-.6-.7.3.2.8-.3.7-.5z"/><path d="m5.3 66.8c-.8-.5-.9.7-.6.9.7.4.9-.8.6-.9z"/><path d="m6.6 81.2c.6-.3 1.1-.9 1-1.1-.3-.7-.8-.5-1.3-.2-.6.3-1.2.8-1.1 1 .3.6.8.5 1.4.3z"/><path d="m26.4 86.4c-1.1.4.2 1.5.5 1.4 1-.4-.1-1.5-.5-1.4z"/><path d="m.6 80.6c-.1 0-.1 0-.2 0v1.1c.5-.1.4-1 .2-1.1z"/><path d="m2 43.9c-.1-.1-.2-.1-.3-.1-.2.4-.3.9-.5 1.3.9.3 1.1-1.1.8-1.2z"/><path d="m4 58.1c.3.9 1.5-.1 1.4-.4-.4-1.1-1.5.1-1.4.4z"/><path d="m17.9 56.4c.8.7 1.3-.8 1-1-1-.8-1.3.7-1 1z"/><path d="m34.7 74.8c.8.6 1.1-.9.9-1.1-.9-.6-1.2.9-.9 1.1z"/><path d="m30.9 83.5c1.1.2.6-1.3.3-1.3-1.3-.2-.7 1.2-.3 1.3z"/><path d="m6.9 105.9c-.1-.2.2-.4 0-.5.1 0 .3-.1.3-.2s-.4-.1-.4-.2c.3-.1.3-.5.2-.8 0-.3.2-.8.1-.9.1 0-.3-.2-.3-.3.5-.2.8-.5.7-.7 0 0 .3-.2.2-.3.1 0 .2.1.3.1.2 0 .4-.2.5-.3 0 .1-.1.7-.1.7.2 0 .4-.4.4-.5.3.1.8.1 1.1.1.1.2.2.5.3.6-.3.1-.6.4-.8.6-.3 0-.4 0-.5.1-.3.3-.2.3.1.5-.1.1-.5.5-.4.6-.1-.2-.2-.5-.3-.5-.7.2 0 .8.2.7.1 0 .3-.1.4-.1l.1.1c-.3.3-.9.7-.8.8s.2.2.3.2c-.1.1-.2.1-.2.2h6.5c-.4-.3-1.1-.4-1.3-.3s-.6 0-.6.1c.1-.3.1-.6-.1-.7-.3-.1-.4-.2-.5-.1-.2 0-.4.1-.6.2 0-.1-.2 0-.3-.1.2-.2.4-.4.4-.5 0 0-.1.2-.1.1.3-.2 0-.6 0-.7 0-.7.1-1.3-.4-1.4-.2-.2-.7 0-1 0 .2-.2.7-.7.6-.9h-.3c1.2-.7.5-1.8-.4-2.4.1-.2.1-.4.1-.7.1-.8-1.2-.5-1.3-.2-.1.2 0 .4.2.5-.2 0-.3-.1-.5-.1 0-.2-.2 0-.2 0 .4-.1.8-1.2.7-1.3-.6-.5-1.2.8-1.2 1.2-.7-.2-1.5.1-1.7.8-.2 0-.1.1-.2.2-.1 0-.2.1-.3.1-.2-.4-1.1-.8-1.3-.5 0 0-.1-.1-.1-.1.2-.2.7-.3.6-.4-.2-.4-.7-.5-1-.3 0 0-.1 0-.1-.1.2-.1.4-.3.6-.4.1.4.5.6.7.6.7 0 .6-.6.3-1.1.3-.1.4-.9.2-1h-.1c.1-.1.1-.4.1-.4.3.1.5.3.6.2h.1c.5.2.6-.5.7-1 .3 0 .9.3 1.1.2.2 0 .1-.4.2-.5.2 0 .7.3.7.2.1-.2-.3-.5-.3-.7.2-.2.6-.3.7-.5.2 0 .3-.1.5-.1.2.9 1.6.1 1.6-.2 0-.1-.2-.2-.2-.3.2-.1.3-.3.2-.4-.1-.3.2-.4 0-.4.2-.5-.3-.8-.5-.9-.6-.5-.9-.6-1.3-.2-.4.3-.5 1.1-.6 1.6-.3 0-.7-.3-.8-.2-.2 0-.5.5-.7.6.1-.2.3-.7.2-.8h-.2s.2-.3.2-.4c.3 0 .7.5.8.4.4-.6-.7-1-1.1-1-.2-.2-.4-.3-.5-.3-.5.1-.7.5-.6.8-.2.1-.3.4-.3.7-.1 0-.3 0-.4 0-.2-.2-.1-.6-.5-.7-.1-.6-1.1-.5-1.5-.2-.2-.3-.4-.1-.6-.2 0 0-.2-.1-.2-.1s.1-.3 0-.4c.7-.4-.3-1.6-.6-1.6-.7.1-.7 1-.4 1.4-.1.1.1.2.2.4-.2 0-.4 0-.5 0 0 0 .1.4.1.4-.2 0-.2-.2-.4-.1.4-.7-.3-1.1-1-1.3v3.6h.1c-.1.2.1.2.1.3.4.3.8.2 1-.1v.4c.2.4.3.7.5.5.1.1.2 0 .2 0 .2.1.4.2.6.2-.4.3-.8.8-.8 1h.3c-.1.2.1.5.2.7-.2 0-.8-.1-.8 0-.1.3-.1.5.1.6-.3.1-.2.5-.3.6-.1 0-.1-.1-.2-.1.1-.2-.2-.3-.3-.3-.2-.2-.4-.3-.6-.3v4.1h.2c.1 0-.1 0-.1-.1.2.2.7-.1 1-.1.1.5.7.2 1.1 0-.1 0 .1.3.1.3h-.1c-.1 0-.1.3-.1.4-.3 0-.3 0-.3.1s-.6 0-.5 0c-.2.1-.3.4-.3.4h.1c-.1.1-.1.2-.2.2-.3.3-.2.3.1.5-.1 0-.5.2-.6.2.1-.3.2-1 .1-1.1-.1 0-.4.3-.4.3-.1-.2-.1-.4-.2-.6v1.6 1.5c0 .3.2.5.5.5h6c0 .3 0 .2 0 .2zm2.3-.1c.1 0 .1-.1.2-.1 0 .1-.1 0-.2.1zm2.2-.3c-.1 0 0 0 0 0zm-3-5.9c0 .1.1 0 .2.1 0 0 .1.1.1.1.1.1-.2.4-.1.7-.1 0 0-.1-.1 0-.1 0-.4.1-.5.1s.2-.5.1-.5-.5 0-.6 0c.3-.1.8-.2.9-.5zm-6.6-6c.1-.1 0-.1.1-.1s-.1.1-.1.1zm.3 0c.1 0 .1 0 0 0 .1.1.1.1 0 0zm-1.6 5.3s.1-.1.1-.2h.2zm1.4 1.7c-.1 0-.2 0-.2.1l.1.1c-.1-.2-.3-.1-.5 0-.1-.2.2-.4.1-.5.3-.1.4-.6.5-.9h.1v-.1c0 .2.2.5.3.7-.2.2-.6.5-.4.6zm2.1.4s.1.1.1.2c-.1-.1-.2-.2-.2-.2.1-.2 0-.2-.1-.4.1-.1 0-.1-.1-.2h.2c0 .2-.1.5.1.6zm-.5-2.5h.1s-.1.1-.1 0zm2.6-4.3c.2.1.1.2.3.2v.2s-.1 0-.1.1c-.1-.2-.2-.4-.3-.6 0 .1.1.1.1.1zm-1.9 1.5h.4c.3.3.6.7.8.9-.1.1-.3.2-.3.3-.2-.1-.4-.2-.5-.2-.3 0-.1-.1-.1.1 0 0-.5.1-.5.1s-.2-.3-.2-.3c.2-.3.4-.5.4-.6-.1-.1 0-.2 0-.3zm-1.2-.7c.2-.1.3-.2.4-.3.1.2.3.4.5.5-.1 0-.2-.2-.3-.1-.1-.1-.3-.1-.6-0zm.2 3.9c.1 0 .2-.1.2 0-.2 0-.2.2-.3.2zm-.4 2.5s.1 0 0 0zm0 3.1c-.1-.2-.2-.6-.3-.7.2-.2.1-.3.1-.5.2 0 .4 0 .6-.1.3.1.5 0 .6-.1h.1c.1 0-.1.1.1.1-.2.1 0 .4.1.7-.6 0-1 .4-1.3.6zm2.9-.1s0 .1 0 0c0 .1 0 .1 0 0zm0 0c0-.1-.3.1-.3 0 .1-.1.1-.1.1-.1-.2-.1-.2 0-.3 0 0 0-.1-.1-.1-.1.3.1.6-.1.8-.2 0 .1-.1.2-.2.4zm-.4-2.5c-.2-.1-.5 0-.7 0-.1-.1-.2-.2-.3-.3.2 0 .3-.2.4-.3.1 0 .1-.2.2-.2.3-.1.4 0 .4-.2.1 0 .3-.1.3-.2.1 0 .2.1.3 0-.2.1-.6.3-.5.4.1.4.7.6 1 .5 0 0-.1.1-.1.1-.4-.1-.8 0-1 .2z"/><path d="m1.6 102c-.5-.4-.7.4-.5.5.4.4.6-.4.5-.5z"/><path d="m.4 54.5c.3.6 1.3-.2 1.3-.5-.2-.9-1-.4-1.3 0z"/><path d="m4.4 84.3c-.5-.4-.8 0-1 .5-.3.2-.6.6-.5.7.3.3.6.2.8 0 .5-.1.9-1 .7-1.2z"/><path d="m9.4 85.1c.1.2 0 .7.1.8.9.4.9-1 .6-1.2-.2-.1-.1-.2-.2-.2v-.2c.2-.1.6-.3.6-.4 0-.3-.1-.6-.3-.6-.1-.2-.4-.1-.5-.1-.5-.1-.5.1-.5.4-.3.1-.7.3-.7.5 0 0 .1.3.1.3-.2 0-.4-.2-.5-.2-.7.6.9 1 1.3.9z"/><path d="m35 91.9c.4.4.8.1 1-.3v-.7c-.8-.6-1.3.8-1 1z"/><path d="m10.5 90c.4-.5.2-.8-.3-1-.1-.4-.5-.6-.7-.6-.6 0-.7.2-.5.6-.6 1 1.3 1.3 1.5 1z"/><path d="m2.7 87.6c1 .3.8-1.2.5-1.3-1.1-.3-.8 1.2-.5 1.3z"/><path d="m3.3 83.7c.6 0 .8-1.3.5-1.4-.6-.3-.8.5-.8 1-.4.1-.9.3-.9.4.1.7.9.4 1.2 0z"/><path d="m10.8 86.7c-.8-.8-1.3.7-1 .9.7.7 1.2-.7 1-.9z"/><path d="m11.8 80.8c-.9-.6-1.1.9-.9 1.1.9.6 1.2-.9.9-1.1z"/><path d="m11.5 95.3c.4.7 1.2-.3 1-.6-.4-.8-1.2.3-1 .6z"/><path d="m11 79.3c.8.2.6-.9.3-1-.9-.3-.6.9-.3 1z"/><path d="m5.1 60c-.7.1-1.2 1.4-1.1 1.7-.8-.1-.9 1-.6 1.1.7.4.9-.2.9-.7.8.3 1.7-.8 1.5-1.2 0-.1.2-.2.1-.3.5-.2 1-1 .9-1.2-.5-.8-1.7.2-1.7.6z"/><path d="m29.8 85.7-.1-.2c-.1-.3-.5 0-.5 0s.3.2.3.2c-.4.5.2.8.7.9-.4 0-.9.2-.9.4-.1.3.2.2.4.3-.1 0-.2.2-.3.2-.9.6.8 1.6 1.1 1.4.7-.5-.5-1.1-1-1.2.4 0 1-.4 1-.6.1-.3-.1-.5-.3-.5.3 0 .5 0 .6-.1.6-.5-.5-.7-1-.8z"/><path d="m32.2 85.8c.4-.8-.9-.7-1-.5-.4.7.9.7 1 .5z"/><path d="m30.2 92.7c-.6.8.9 1.1 1.1.8.7-.9-.9-1.1-1.1-.8z"/><path d="m32.1 81.7c.8.8 1.3-.7 1-.9-.8-.9-1.2.6-1 .9z"/><path d="m31.1 76c.7.8 1.3-.6 1.1-.9-.7-.8-1.3.6-1.1.9z"/><path d="m25.1 84.9c.4-.8-.9-.7-1.1-.4-.4.7.9.7 1.1.4z"/><path d="m22.2 71.5c-.1 1.1 1.4.3 1.5 0 .1-1.3-1.5-.4-1.5 0z"/><path d="m32.4 76.7c.1 1.1 1.5.2 1.5-.1 0-1.3-1.5-.3-1.5.1z"/><path d="m28.7 76.8c-.1.8 1.1.4 1.1.1.1-.9-1.1-.4-1.1-.1z"/><path d="m26 72.9c-.2-.5-1.4-.2-1.5.1-.3.6.2.7.7.7.3.7 1.2 0 1.2-.3-.1-.4-.2-.5-.4-.5z"/><path d="m23.3 74.3c-.1-.1-.1-.4-.2-.4-.5 0-.7 0-.8.2-.2.1-.1.3-.1.4-.1.4 0 .6.4.6.1.1.2.1.4.2.5 0 .9-.2.9-.5 0 0 .1-.1.1-.1 0-.3-.6-.3-.7-.4z"/><path d="m25.3 97.1c0 .1.2-.1.3 0 .2.1.3.1.4.1-.1.1-.1.2-.2.2-.7.7.8 1.2 1 .9.2-.2.5-.1.5-.2.1 0 .4-.1.5-.2-.2.2-.4.3-.3.4.2.2.2.4.4.3.4.5 1.4-.3 1.4-.5-.1-.3-.5-.4-.7-.4.5-.2.5-.8.4-1-.4-.4-.6-.5-.8-.1-.3-.2-.6.5-.9.8-.1-.1-.6-.6-.7-.6.3-.3.4-1 .2-1s-.4-.2-.5-.1-.3.2-.3.2c-.7-.7-1.1.5-.9.8 0 .2 0 .4.2.4zm.9-.1s0-.1.1-.1.1.1.1.1c-0 .1-.1.1-.2 0z"/><path d="m25.7 103.7c.2.6.9.1.8-.1-.1-.6-.8-.1-.8.1z"/><path d="m26.1 95.7s.1 0 0 0c.1-.1.1-.1.2-.1 0-0-.2-0-.2.1z"/><path d="m24.5 102.9-.2.1c-.4-1.4-2.2 0-2.1.5.2.9 1.2.9 1.7.5l.1-.2c.4.9 1.4-.2 1.2-.5-.1-.5-.4-.6-.7-.4z"/><path d="m28.6 106h1.1c-.3-.3-.8-.2-1.1 0z"/><path d="m34.3 103.6c-.1.1-.3.1-.4.2-.4.1-.9.4-.9.6.1.5.6.3 1 .2.1.1.1.4.2.4.7.2 1-.5.9-1.1.4-.3.6-1 .4-1.2-.5-.4-.9.4-1.2.9z"/><path d="m24.6 106h.6c-.1-.1-.3-.1-.6 0z"/><path d="m34.9 101.1c-.5.1-1 .8-.8 1 .4.4.8.1 1.1-.3.3-.2.5-.9.3-1-.3-.1-.4.2-.6.3z"/><path d="m35.5 87.2c-.3-1.1-1.6-.1-1.5.2.2 1 1.6.1 1.5-.2z"/><path d="m15.5 72.3c-.4.3-.2 1-.1 1.2.7.6 1.2-.5 1.1-.9.4-.3.5-1 .3-1.1-.7-.8-1.4.3-1.3.8z"/><path d="m10.1 70.3c.9.4.9-1.1.5-1.2-1-.4-.8 1.1-.5 1.2z"/><path d="m12.6 79.9c1.1.4.9-1.1.5-1.3-1.2-.4-.9 1.1-.5 1.3z"/><path d="m13.3 73.2c.7.4 1-.8.7-.9-.8-.4-.9.8-.7.9z"/><path d="m10.2 78.7c-.2 0-.1-.3-.2-.3-.6-.4-.8.7-.6.8.1.1.1.2.1.2l-.1.1c.8.6 1-.6.8-.8z"/><path d="m13 71.5c0 .8 1.1.2 1.1 0-.1-.9-1.1-.3-1.1 0z"/><path d="m8.1 77.8c-.1.8 1.1.4 1.1.1.1-.8-1.1-.4-1.1-.1z"/><path d="m7.4 81.7s-.2.1-.2.2c0 0 0 0-.1 0s-.1.3-.2.4c-.8-.1-.6.5-.4 1.1-.1-.1-.4-.3-.5-.3-1-.2-.4 1.3 0 1.3.7.1.5-.1.4-.6.1.1.4.2.5.2.6.1 1-.2 1-.7.1 0 .2 0 .3-.1.3-.1.1-.7.3-.9h.5c-.1.3-0 .7.1.7.6 0 .5-.6.4-1 .1-.1.4-.2.4-.3-.1-.7-.6-.7-1.1-.6-.7-0-1.4.3-1.4.6z"/><path d="m8.9 72c.9.5 1.1-1 .8-1.2-1-.6-1.1 1-.8 1.2z"/><path d="m4.1 77.4c-.2 0-.5.1-.6.1-.5-1-1.9.1-1.8.5.3.8 1 .3 1.4 0 0 .1.2.4.3.4.9.5 1-.8.7-1z"/><path d="m13.4 74.8c.7.8 1.3-.6 1.1-.9-.7-.9-1.3.6-1.1.9z"/><path d="m17.7 69.8c.4-.1.5-.2.4-.5.5 0 .9-.6.8-.9-.3-.8-1.1-.2-1.3.2-.2-.2-.4-.1-.5 0-1 .2.3 1.3.6 1.2z"/><path d="m21 86.7c.8.7 1.3-.7 1-1-.9-.8-1.2.8-1 1z"/><path d="m20.5 92c.5 1 1.4-.2 1.3-.6-.6-1-1.5.3-1.3.6z"/><path d="m22.2 76.3c.8-.2-.1-1.2-.4-1.1-1 .2 0 1.1.4 1.1z"/><path d="m19.7 66.7c-.5-.3-1.2.3-1.2.6-.1.9 1 .5 1.3.1.7.5 1.2-.9 1-1.1-.6-.5-1-.1-1.1.4z"/><path d="m21.5 66.6c.2 1 1.5.1 1.4-.2-.2-1.1-1.5-.1-1.4.2z"/><path d="m15.7 63.5c-1.1-.3-.8 1.2-.5 1.3 1 .3.8-1.2.5-1.3z"/><path d="m17.3 66.4c.3 1 1.5.1 1.4-.2-.2-1.1-1.5-.2-1.4.2z"/><path d="m3.3 80.1c.6.6 1-.5.8-.7-.6-.7-1.1.5-.8.7z"/><path d="m14.6 78.4c1 .4 1-1.1.7-1.2-1-.5-1 1-.7 1.2z"/></g><path d="m30.1 86.9c-.9.9-1.5-.3-2.8-.3s-1.3.4-2.6.4-1.3-.3-2.6-.3-1.3.5-2.6.5-1.3-.2-2.6-.2-1.3-.4-2.6-.4-1.3.5-2.6.5-1.3-.6-2.6-.6-1.4.9-2.4-.1c-.9-.9 0-1 0-2.3s-.5-1.3-.5-2.6-.1-1.3-.1-2.6.6-1.3.6-2.6-.1-1.3-.1-2.6 0-1.3 0-2.6-.3-1.3-.3-2.6-.3-1.3-.3-2.6.4-1.3.4-2.6.2-1.3.2-2.6-1.1-1.6-.2-2.5 1.2.2 2.5.2 1.3-.6 2.6-.6 1.3.8 2.6.8 1.3-.8 2.6-.8 1.3.6 2.6.6 1.3-.3 2.6-.3 1.3.4 2.6.4 1.3-.7 2.6-.7 1.9-.8 2.9.1c.9.9-.6 1.6-.6 2.9s.1 1.3.1 2.6.5 1.3.5 2.6.2 1.3.2 2.6-.2 1.3-.2 2.6-.1 1.3-.1 2.6-.5 1.3-.5 2.6.3 1.3.3 2.6.4 1.3.4 2.6-1 1.4-.7 2.7c.5 1.4 1.6 1.7.7 2.6z" fill="#fcf0e3"/></svg>